<?xml version="1.0" standalone="no"?>
<!DOCTYPE svg PUBLIC "-//W3C//DTD SVG 1.1//EN" "http://www.w3.org/Graphics/SVG/1.1/DTD/svg11.dtd" >
<svg xmlns="http://www.w3.org/2000/svg" xmlns:xlink="http://www.w3.org/1999/xlink" version="1.1" viewBox="-10 0 1020 1000">
   <path fill="currentColor"
d="M339 356.5c8 -4.33301 17.833 -6.50195 29.5 -6.50195s22.667 5 33 15s15.5 22.167 15.5 36.5s-5 26.333 -15 36s-22.167 14.5 -36.5 14.5s-26.5 -5 -36.5 -15s-15 -20.667 -15 -32s2.16699 -21.166 6.5 -29.499s10.5 -14.666 18.5 -18.999zM614.5 363.498
c10.333 -10.333 21.332 -15.501 32.999 -15.501s21.334 2.33301 29.001 7s13.667 11 18 19s6.5 16.5 6.5 25.5s-2.16699 17.667 -6.5 26s-10.333 14.833 -18 19.5s-16.167 7 -25.5 7s-18 -2.33301 -26 -7c-17.333 -10.1113 -26 -23.6387 -26 -40.583
s5.16699 -30.583 15.5 -40.916zM498.999 90.9971l-5.99805 0.00292969c-53.333 0 -106 6.33301 -158 19l36 102l-18 7l-38 -105c-60.667 16 -113.334 39.667 -158.001 71c-2 1.33301 -4.33301 3.16602 -7 5.49902s-4.66699 3.83301 -6 4.5l64 78l-16 12l-64 -79
c-64.667 51.333 -100.334 109.666 -107.001 174.999l117 9l-2 20l-116 -9c0.666992 66 32 125.667 94 179l69 -83l14 12l-67 84c42.3174 33.8535 96.9844 61.5205 164 83l33 -94l19 7l-34 93c58.667 15.333 119.667 23 183 23h4l3 1v-99h19v98
c66 -2 128.667 -12.333 188 -31l-40 -79l18 -9l42 82c61.9756 -20.9912 116.643 -52.3242 164.001 -93.999l-71 -60l14 -16l71 62c48 -48.667 72.333 -101 73 -157v-1l-114 -3v-20l113 3c-6.66699 -54 -35.334 -104.667 -86.001 -152l-75 69l-13 -15l72 -67
c-36.6562 -31.4199 -85.6562 -59.0869 -147 -83.001l-39 90l-18 -8l39 -89c-61.333 -20.667 -125.333 -32.334 -192 -35.001l4 110l-19 1zM493.501 71c66.333 0 129.999 8.66699 190.999 26s115.333 41.666 163 72.999s85 67 112 107s40.5 82 40.5 126
s-13.333 85.667 -40 125s-63.5 74 -110.5 104c-99.2227 63.333 -217.056 95 -353.5 95h-4l-3 -3c-134.667 -1.33301 -249 -32.666 -343 -93.999c-45.333 -30 -81 -65 -107 -105s-39 -81.833 -39 -125.5s12.833 -85.5 38.5 -125.5s61.334 -75.333 107.001 -106
s98.5 -54.5 158.5 -71.5s123.167 -25.5 189.5 -25.5z" />
</svg>
