<?xml version="1.0" standalone="no"?>
<!DOCTYPE svg PUBLIC "-//W3C//DTD SVG 1.1//EN" "http://www.w3.org/Graphics/SVG/1.1/DTD/svg11.dtd" >
<svg xmlns="http://www.w3.org/2000/svg" xmlns:xlink="http://www.w3.org/1999/xlink" version="1.1" viewBox="-10 0 1021 1000">
   <path fill="currentColor"
d="M26 638c2 8 3.66895 13.3359 5.00195 16.0029c22 61.333 57.833 110.833 107.5 148.5s109.5 58.167 179.5 61.5c18.8574 1.14258 37.252 1.71387 55.1836 1.71387c44.8301 0 86.7686 -3.57129 125.816 -10.7139c22.667 -4.66699 39.667 -9.33398 51 -14.001
c5.33301 -2 9.33301 -4.33301 12 -7l1 -1c-0.666992 -1.33301 -2 -3.33301 -4 -6c-6 -4.66699 -14.333 -8.33398 -25 -11.001c-24.1426 -8.04785 -56.9082 -12.0713 -98.2959 -12.0713c-3.18359 0 -6.41797 0.0234375 -9.7041 0.0712891c-54.667 0 -114.334 -9 -179.001 -27
c-22 -6.66699 -43 -14.334 -63 -23.001l-1 2c-35.333 -14 -73 -37.667 -113 -71c-16.667 -15.333 -31.334 -31 -44.001 -47zM256.002 236.003c-6.66699 0.666992 -11.333 1.33691 -14 2.00391c-7.33301 3.33301 -13.666 10.666 -18.999 21.999
c-0.666992 1.33301 -1.33398 4.66602 -2.00098 9.99902c17.333 -10.667 38 -21.334 62 -32.001c-3.33301 -0.666992 -6 -1.33398 -8 -2.00098c-6.66699 -0.666992 -13 -0.666992 -19 0zM918.003 89.0059l-1 2c0.666992 0 1.66699 -0.666992 3 -2h-2zM956.003 26.0059
c-3.33301 0 -6.66406 0.665039 -9.99707 1.99805c-6 1.33301 -14 4 -24 8c-25.333 10.667 -41.666 16 -48.999 16c-4.66699 0 -12.667 -2.33301 -24 -7c-1.33301 -0.666992 -2.66602 -0.666992 -3.99902 0c-2.66699 0.666992 -6.66699 2.33398 -12 5.00098
c-4 2.66699 -7.33301 4.33398 -10 5.00098c-4.66699 0.666992 -8.33398 -0.333008 -11.001 -3c-0.666992 -0.666992 -2.66699 -4.33398 -6 -11.001l-1 -2h-1c-4 0 -10.333 3 -19 9c-8 5.33301 -16.667 10.5 -26 15.5s-18 9.66699 -26 14s-17.667 9.33301 -29 15
s-20.833 10.167 -28.5 13.5s-17.667 7.83301 -30 13.5s-21.5 9.83398 -27.5 12.501c-10 4.66699 -26.333 11 -49 19l2 1l-117 36c-44.667 14 -75.667 24.667 -93 32c-24.667 10.667 -43.334 19 -56.001 25s-31.834 15.667 -57.501 29s-49 27.833 -70 43.5
s-39.5 32.167 -55.5 49.5c-42.667 46 -72 88.667 -88 128c-10.7041 26.4443 -16.0557 52.8887 -16.0557 79.333c0 1.55566 0.0185547 3.11133 0.0556641 4.66699h1c-0.0371094 0.704102 -0.0556641 1.41309 -0.0556641 2.12695c0 12.1377 5.35156 25.7617 16.0557 40.873
c11.333 15.333 27 31.666 47 48.999c11.333 10 24.666 20.333 39.999 31c-0.925781 -3.7041 -1.38867 -7.83203 -1.38867 -12.3848c0 -11.8359 3.12988 -26.541 9.38867 -44.1152c8.66699 -24.333 21.667 -51.833 39 -82.5c17.333 -30 35 -55 53 -75
c20.667 -22.667 38.334 -34.667 53.001 -36c10 -0.666992 19.542 -1 28.625 -1s17.708 0.333008 25.875 1c9.33301 0.761719 18.666 1.14258 27.999 1.14258l21 -0.642578c16.333 -1 30.5 -3.83301 42.5 -8.5c1.33301 -0.666992 3.66602 -2.33398 6.99902 -5.00098l4 -4
l14 -15l1 76l30 27l57 3l4 2l-9 -15l28 2l1 -6l-29 -8l20 -5l-40 -2v-74h1l-1 -29l-5 -7.5c-2 -3 -6.16699 -7.66699 -12.5 -14s-12.833 -12 -19.5 -17s-15 -9.16699 -25 -12.5s-20 -4.66602 -30 -3.99902c-26 2.66699 -46.667 8.5 -62 17.5s-25 19.167 -29 30.5l-16 -5
c3.33301 -10 9.33301 -19.167 18 -27.5s20.5 -15.5 35.5 -21.5s32.5 -9.33301 52.5 -10c9.33301 -0.666992 18.333 -0.333984 27 0.999023s16.667 3.83301 24 7.5s14 8 20 13s11.333 9.66699 16 14s8.66699 8.5 12 12.5s5.66602 7.33301 6.99902 10l2 4l1 2l1 31
c8.66699 -2 16.334 -4.33301 23.001 -7c23.333 -8.66699 39.333 -17.667 48 -27h1c16 -17.333 35.667 -35.666 59 -54.999c30.667 -25.333 53.667 -40 69 -44c7.33301 -2 14.666 -1.33301 21.999 2c10 3.33301 16.667 9.33301 20 18
c2.66699 6.66699 6.33398 24.334 11.001 53.001c1.33301 9.33301 3.33301 16.333 6 21c1.33301 4.66699 3 7.33398 5 8.00098c10 4.66699 25 7.66699 45 9h2h2l-27 -23l42 5l1 -3l-19 -6l-23 -1l-2 -45c-0.666992 -10 -2 -20.333 -4 -31
c-3.33301 -20.667 -8 -34.667 -14 -42h-1c-14.667 -20.667 -24.334 -34 -29.001 -40c-10.1055 -11.3682 -19.0137 -17.0527 -26.7256 -17.0527c-0.428711 0 -0.853516 0.0175781 -1.27441 0.0527344c-9.33301 0 -18.833 3.16699 -28.5 9.5s-14.834 13.5 -15.501 21.5l-16 -2
c0.666992 -14 8 -25.333 22 -34c12.667 -8.66699 25.334 -13 38.001 -13s26 8 40 24c5.33301 6 12 14.333 20 25c4 -4 11.667 -9.66699 23 -17c10.667 -6.66699 18.334 -12 23.001 -16c5.33301 -5.33301 7.33301 -10 6 -14c-2 -10 -0.333008 -17.333 5 -22
c2.66699 -3.33301 7.66699 -6.33301 15 -9c6 -2 10.667 -4 14 -6c4.66699 -3.33301 8 -8.66602 10 -15.999c0 -0.666992 0.333008 -1.33398 1 -2.00098s1 -1.33398 1 -2.00098l-65 -2l-19 29l-15 -10l26 -36l67 3l23 -29h27l21 -19l19 -4l4 -8c1.33301 -2 2 -3.66699 2 -5
l-1 -1v-1c0 -0.666992 -1 -2 -3 -4l-17 -3c-1.33301 -0.666992 -3.33301 -1 -6 -1zM964.005 5.00391c9.33301 2.66699 15.0049 4.66602 17.0049 5.99902c7.33301 3.33301 12.666 9 15.999 17c2.66699 5.33301 3.66699 9.66602 3 12.999c-0.666992 2 -2.33398 5 -5.00098 9
c-3.33301 5.33301 -5 10.333 -5 15c0.666992 4.66699 -1 8.66699 -5 12c-2.66699 2.66699 -5.83398 5 -9.50098 7s-12.5 5.66699 -26.5 11c-24 10 -38.333 20.667 -43 32c-3.33301 10 -8.33301 18 -15 24c-4.66699 3.33301 -11 6 -19 8
c-4.66699 1.33301 -7.33398 2.33301 -8.00098 3c-1.33301 1.33301 -1.66602 4.33301 -0.999023 9c2 10 -1 19.333 -9 28c-4.66699 4.66699 -13.334 11.334 -26.001 20.001c-11.333 7.33301 -18.333 12.333 -21 15c-0.666992 0.666992 -1 1.33398 -1 2.00098l1 1v1
c7.33301 9.33301 12.666 25.333 15.999 48c2 14 3.66699 25 5 33l2 30l61 1l2 16l-1 1l4 1l2 1l-2 17l-11 -1l-4 12l-12 -2l18 14l-24 1c-8.66699 0 -18.334 -0.333008 -29.001 -1c-22 -1.33301 -38.667 -4 -50 -8c-6.66699 -2.66699 -11.667 -8.66699 -15 -18
c-2.66699 -6 -4.66699 -14 -6 -24c-4.66699 -27.333 -8.33398 -44.333 -11.001 -51c-1.33301 -3.33301 -4.5 -5.83301 -9.5 -7.5s-9.5 -2.16699 -13.5 -1.5c-12 3.33301 -32.333 17 -61 41c-24 20 -43.667 37.667 -59 53c-11.333 12.667 -29.333 23.334 -54 32.001
c-8.66699 3.33301 -18.334 6.33301 -29.001 9v45l78 3l1 17l-8 2l2 1h3l-1 17h-3l-6 1l-4 15l-3 -1l-23 -2l23 40l-55 -30l-60 -3l-39 -35l-1 -46l-1 1c-14 6.66699 -29.333 10.5 -46 11.5c-7.14258 0.428711 -14.6836 0.642578 -22.6221 0.642578
c-10.585 0 -21.8779 -0.380859 -33.8779 -1.14258c-10.5 -0.666992 -19.875 -1 -28.125 -1s-15.375 0.333008 -21.375 1c-10.667 0.666992 -24.834 10.667 -42.501 30s-34.5 43 -50.5 71c-16.667 28.667 -29.334 55.334 -38.001 80.001
c-5.63379 16.0332 -8.4502 28.8271 -8.4502 38.3818c0 5.14453 0.816406 9.35059 2.4502 12.6172c4.66699 10 17 20.333 37 31c18.667 10 43.667 19 75 27c64 17.333 122 26 174 26c48 0 86 4.66699 114 14c12.667 4 22.334 8.66699 29.001 14
c8.66699 6.66699 12.667 13.334 12 20.001c0 5.33301 -2.66699 10 -8 14c-4 3.33301 -9.33301 6.33301 -16 9c-14 6 -32.333 10.667 -55 14c-42.1592 8.12695 -87.9941 12.1904 -137.506 12.1904c-15.4727 0 -31.3037 -0.396484 -47.4941 -1.19043
c-73.333 -4 -136.166 -25.833 -188.499 -65.5s-90.166 -91.834 -113.499 -156.501c-9.70703 -26.9297 -14.5605 -53.8594 -14.5605 -80.7891c0 -30.4043 6.18652 -60.8086 18.5605 -91.2129c16.667 -41.333 46.667 -85.333 90 -132c23.333 -25.333 53 -49.666 89 -72.999
c1.33301 -10.667 4.66602 -21 9.99902 -31c8 -14.667 17 -24.334 27 -29.001c7.5 -3 17.25 -4.5 29.25 -4.5c4 0 8.25 0.166992 12.75 0.5c9.33301 0.666992 20.333 2.33398 33 5.00098c15.333 -7.33301 30.333 -14 45 -20c18.667 -8.66699 53 -20.667 103 -36
c2 -5.33301 4.66699 -10 8 -14c6 -6 13.667 -10 23 -12c6.46191 -1.8457 13.4209 -2.76855 20.877 -2.76855c8.69824 0 18.0732 1.25684 28.125 3.76953c35.333 -11.333 59.333 -20.333 72 -27c85.333 -40 140.333 -67.667 165 -83
c10.8574 -6.85742 19.7559 -10.2861 26.6943 -10.2861c1.15625 0 2.25781 0.0957031 3.30566 0.286133c4 0 7.33301 1.33301 10 4c2.66699 2 4.33398 4 5.00098 6c0.666992 1.33301 1.33398 2.33301 2.00098 3v1c1.33301 -0.666992 1.66602 -1 0.999023 -1
c7.33301 -4.66699 13.333 -7.33398 18 -8.00098s9 -0.333984 13 0.999023c9.33301 3.33301 15.666 5 18.999 5c5.33301 0 19.333 -4.33301 42 -13c10.667 -4 19.334 -7.33301 26.001 -10c8 -1.33301 13 -2.66602 15 -3.99902zM968.01 69.0029h-2.00098l-1 2l1 -1
c0.666992 -0.666992 1.33398 -1 2.00098 -1z" />
</svg>
