<?xml version="1.0" standalone="no"?>
<!DOCTYPE svg PUBLIC "-//W3C//DTD SVG 1.1//EN" "http://www.w3.org/Graphics/SVG/1.1/DTD/svg11.dtd" >
<svg xmlns="http://www.w3.org/2000/svg" xmlns:xlink="http://www.w3.org/1999/xlink" version="1.1" viewBox="-11 0 1022 1000">
   <path fill="currentColor"
d="M477.062 551.75c21.4268 -4.72168 48.4893 4.23438 81.1855 26.8682c0.345703 -20.8643 6.22461 -42.0166 17.6357 -63.457c26.0586 -48.959 59.4307 -75.3457 100.117 -79.1602l2 15c-17.333 1.33301 -34 8.66602 -50 21.999
c-32.9717 27.4766 -50.9717 60.1436 -54 98.001c-0.870117 9.14062 -0.177734 16.0078 2.07812 20.6016l23.9219 17.3984l18 11l-21 4c-52 8 -84.333 18.333 -97 31c0 2.33301 3.83301 5.25 11.5 8.75s22.667 6.75 45 9.75s41.166 0.166992 56.499 -8.5
c80.0908 -41.6475 125.758 -70.6475 137 -87c3.33301 -5.33301 7 -12.833 11 -22.5s7 -16.667 9 -21c5.38477 -11.667 15.7305 -17.5 31.0381 -17.5s32.9619 -5.66699 52.9619 -17c26.667 -14 44 -34.667 52 -62s21.5 -54 40.5 -80
c23.4941 -32.1504 35.9941 -50.4834 37.5 -55v-1c-3.21973 -6.43945 -14.6914 -2.38281 -34.415 12.1699c-23.2119 17.127 -40.7402 41.2363 -52.585 72.3291c-15.7949 41.4619 -28.5771 67.2441 -38.3467 77.3467s-18.9873 14.8203 -27.6543 14.1533l-40 -1l-8 -1l1 -8
c0 -3.33301 0.166992 -7.83301 0.5 -13.5s-0.333984 -16.667 -2.00098 -33s-4.66699 -31.5 -9 -45.5s-12 -29.167 -23 -45.5s-27.167 -30.833 -48.5 -43.5s-41.5 -23.667 -60.5 -33s-38.167 -16.333 -57.5 -21c-36.0723 -8.70703 -75.7568 -8.2168 -119.054 1.46973
s-74.7783 12.1963 -94.4453 7.5293s-34.834 -10.667 -45.501 -18s-19.334 -14.166 -26.001 -20.499s-13 -12.166 -19 -17.499s-13.333 -10.833 -22 -16.5c-18.8477 -12.3232 -40.1807 -17.8232 -64 -16.5h-4v-1c-58.667 2 -106.667 16.667 -144 44
c-22.4639 17.0723 -31.7969 29.4053 -28 36.999c1.33301 2.66699 4.5 5.83398 9.5 9.50098s8.16699 7.66699 9.5 12s2.16602 8 2.49902 11c1.50391 13.5342 15.9629 27.334 43.3779 41.4004s52.9561 24.5996 76.623 31.5996c25.751 7.61621 41.6602 12.9482 47.7285 15.9961
c13.2588 0.269531 30.5352 -8.74609 51.8301 -27.0459s30.9424 -38.1162 28.9424 -59.4492l17 -1c2 26.667 -11 52 -39 76c-12.6436 11.1562 -27.7393 19.2256 -45.2881 24.208c0.103516 0.261719 0.199219 0.525391 0.288086 0.791016c13.333 16 24 28 32 36
c18.8818 18.8818 35.6377 37.1084 50.2676 54.6797c-3.20215 -68.499 0.786133 -115.237 11.9648 -140.215s24.1016 -41.1328 38.7686 -48.4658l6 14c-34.4609 16.2168 -47.4609 83.5498 -39 202l-0.199219 0.0244141c1.46582 3.95996 2.53223 8.94629 3.19922 14.958
s9.33398 24.0176 26.001 54.0176s24.667 50.667 24 62s-5 20 -13 26c-5.33301 3.33301 -13.5 6.16602 -24.5 8.49902s-17.5 3.5 -19.5 3.5c-2.66699 1.33301 -4.66699 3.66602 -6 6.99902c4 1.33301 10 2 18 2l67 -1c6.71094 0 18.3779 -11.333 35 -34
c15.333 -23.333 24 -42.666 26 -57.999c0.0410156 -0.329102 0.0869141 -0.654297 0.137695 -0.974609l-0.137695 -0.0253906c6 -22.667 7.5 -47.5 4.5 -74.5s-10.833 -45.167 -23.5 -54.5l10 -13c16 12.667 25.4775 31.9414 28.4326 57.8232
s3.16504 47.8574 0.629883 65.9277zM153.001 217.5c2 3 3 6.66797 3 11.001s-1.83301 8.16602 -5.5 11.499s-7.5 5 -11.5 5s-7.16699 -0.5 -9.5 -1.5s-4.33301 -2.16699 -6 -3.5c-3.66699 -2.93359 -5.5 -7.16699 -5.5 -12.7002s1.83301 -10.1328 5.5 -13.7998
s7.66699 -5.5 12 -5.5s7.83301 0.833008 10.5 2.5s5 4 7 7zM192.001 135.001l4.00098 -0.00292969l1.0332 1.0332c15.6162 0.341797 31.1816 3.42188 46.6953 9.23926s27.4375 11.8926 35.7705 18.2256s17.333 14.333 27 24
c21.0889 21.0889 41.9443 33.9443 62.5664 38.5664s45.7666 3.59961 75.4336 -3.06738s53 -10.5 70 -11.5s33.167 -0.5 48.5 1.5s31.5 6 48.5 12c32.3154 11.4053 68.1484 29.4053 107.5 54c16.667 10.667 30.834 23.834 42.501 39.501s19.834 30.334 24.501 44.001
s7.83398 29 9.50098 46c1.82422 18.6035 1.99121 36.1035 0.500977 52.5c8 0.666992 19.667 1 35 1c7.9043 0 15.7139 -7 23.4277 -21s15.0713 -29.667 22.0713 -47s11.5 -28 13.5 -32c10.667 -24 27.667 -44.667 51 -62c27.2666 -19.6924 46.2666 -22.0254 57 -6.99902
c3.42871 5.14258 2.95215 11.9287 -1.42871 20.3574s-15.9043 25.6426 -34.5713 51.6426s-32.334 53.333 -41.001 82s-28.667 51.334 -60 68.001c-22.667 12.667 -43.667 18.334 -63 17.001c-4 0 -7 1 -9 3s-6.83301 10.833 -14.5 26.5s-11.167 24.167 -10.5 25.5
c-15.4355 22.0518 -63.1025 53.0518 -143 93c-18.667 10 -45 12.667 -79 8c-36.3926 -4.74707 -55.7256 -15.0801 -58 -31c-2.27344 -20.459 28.3936 -35.459 92 -45c-1.27051 -0.84668 -2.49023 -1.67676 -3.66016 -2.49023l-0.339844 0.490234
c-3.77734 -2.44434 -8.44434 -6.44434 -14 -12c-18 -14 -34.5 -23 -49.5 -27c-23 -6.13379 -34.5 -5.4668 -34.5 2c-2 16.667 -9.5 34.667 -22.5 54c-23.7588 35.333 -42.2588 53 -55.5 53h-23.5c-9.66699 0 -17.334 0.166992 -23.001 0.5
c-30.249 1.7793 -48.416 -1.3877 -54.501 -9.5c-3.33301 -4 -3.66602 -9.16699 -0.999023 -15.5s7.16699 -10.666 13.5 -12.999s14.666 -4.66602 24.999 -6.99902s17.333 -4.66602 21 -6.99902s5.16699 -5.83301 4.5 -10.5c0.666992 -10 -7.16602 -29.5 -23.499 -58.5
s-25 -47.833 -26 -56.5c-1.5918 -13.7949 -17.7588 -36.7949 -48.5 -69l-12 -12c-4.66699 -4.66699 -9 -8.83398 -13 -12.501s-7.33301 -7.33398 -10 -11.001s-6.33398 -8 -11.001 -13s-7.5 -8.66699 -8.5 -11c-1.8457 -4.30762 -17.0576 -10.8008 -45.6348 -19.4805
s-56.5322 -20.0195 -83.8652 -34.0195s-44 -28.333 -50 -43c-2.66699 -8 -4.16699 -13.333 -4.5 -16s-2 -5.16699 -5 -7.5c-14.1172 -10.9805 -19.3965 -21.8086 -15.8379 -32.4854s15.3379 -23.3486 35.3379 -38.0156c42 -31.333 94 -47.666 156 -48.999z" />
</svg>
