<?xml version="1.0" standalone="no"?>
<!DOCTYPE svg PUBLIC "-//W3C//DTD SVG 1.1//EN" "http://www.w3.org/Graphics/SVG/1.1/DTD/svg11.dtd" >
<svg xmlns="http://www.w3.org/2000/svg" xmlns:xlink="http://www.w3.org/1999/xlink" version="1.1" viewBox="-10 0 810 1000">
   <path fill="currentColor"
d="M408.8 0l24 202.4c51.2002 8.5332 92.5332 33.0664 124 73.5996l185.601 -81.5996l8 15.1992l-162.4 120.801c8.5332 22.9326 12.7998 46.666 12.7998 71.1992c0 24.5342 -4.7998 48.8008 -14.3994 72.8008l163.199 115.199l-8 13.6006l-188 -74.4004
c-32 38.4004 -72.5332 61.6006 -121.6 69.6006l-23.2002 201.6h-17.5996l-22.4004 -201.6c-52.7998 -8.53418 -95.4668 -33.8672 -128 -76l-180.8 79.1992l-8.7998 -13.5996l160 -120.8c-8 -22.4004 -12 -45.334 -12 -68.7998c0 -23.4668 4.5332 -46.9336 13.5996 -70.4004
l-163.2 -120l8 -14.4004l187.2 80c32.5332 -39.4658 73.8662 -63.1992 124 -71.1992l22.4004 -202.4h17.5996zM400 72.7998l-14.4004 127.2c8 -0.533203 12.9336 -0.799805 14.8008 -0.799805c1.86621 0 7.06641 0.266602 15.5996 0.799805zM379.2 217.6
c-45.8662 5.86719 -84.7998 27.2002 -116.8 64l42.3994 17.6006l8.7998 3.2002l-40 71.1992l-45.5996 -33.5996c-14.4404 38.8096 -15.2402 78.0098 -2.40039 117.601l27.2002 52.8008c29.333 37.8662 67.2002 61.0664 113.601 69.5996l-5.60059 -48l-0.799805 -8.7998
h81.5996l-7.19922 56.7998c52.2666 -10.1338 92.2666 -37.334 120 -81.6006l9.59961 -16c22.0029 -44.9238 24.9365 -91.5908 8.7998 -140l-44.7998 33.5996l-40 -70.4004l51.2002 -22.3994c-32.5332 -37.8662 -72 -59.7334 -118.4 -65.6006h-41.5996zM116.8 237.6
l151.2 111.2l20.7998 -37.5996zM683.2 239.2l-171.2 74.3994l20.7998 37.6006zM216.8 483.2l-97.6006 74.3994l111.2 -49.5996c-4.2666 -5.86621 -8.7998 -14.1328 -13.5996 -24.7998zM579.999 489.6l-15.2002 25.6006l117.601 46.3994zM379.199 539.2l20.7998 186.399
l21.5996 -186.399h-42.3994z" />
</svg>
