<?xml version="1.0" standalone="no"?>
<!DOCTYPE svg PUBLIC "-//W3C//DTD SVG 1.1//EN" "http://www.w3.org/Graphics/SVG/1.1/DTD/svg11.dtd" >
<svg xmlns="http://www.w3.org/2000/svg" xmlns:xlink="http://www.w3.org/1999/xlink" version="1.1" viewBox="-11 0 1021 1000">
   <path fill="currentColor"
d="M0 372l11 -52c146.667 29.333 230 44 250 44h14c21.333 -3.33301 49.5 -17.5 84.5 -42.5s63.5 -42.833 85.5 -53.5s47.667 -16 77 -16c9.33301 0 19 0.666992 29 2c38.7412 7.74805 85.8604 34.8193 141.357 81.2139c20.9043 17.4766 34.7852 27.0723 41.6426 28.7861
c5.33301 1.33301 13 2 23 2c44.7891 1.12012 109.122 -7.54688 193 -26l39 -9l11 53c-76.667 15.333 -128.834 25.166 -156.501 29.499s-52.667 6.5 -75 6.5s-40.5615 -2.24316 -54.6855 -6.72852s-36.0625 -19.5762 -65.8154 -45.2715
c-14.667 -11.333 -30.5 -23.166 -47.5 -35.499s-36.5 -20.833 -58.5 -25.5c-6 -0.666992 -15.833 -1 -29.5 -1s-29.334 4 -47.001 12s-40.834 22.333 -69.501 43c-49.3994 38 -93.1328 57 -131.2 57c-35.4668 0 -123.732 -15.333 -264.796 -46zM-0.00390625 498l11 -51
c33.459 5.01855 91.792 16.0186 175 33c32.667 6.66699 57.667 10 75 10c21.9326 3.65527 54.7656 -10.3447 98.5 -42c35 -25.333 63.5 -43.166 85.5 -53.499s47.667 -15.833 77 -16.5c47.2168 0 103.637 27.4336 169.26 82.2998
c20.1729 16.8662 34.4199 26.5996 42.7402 29.2002c5.33301 1.66699 13 2.5 23 2.5c45.5381 1.13867 105.871 -6.69434 181 -23.5c25.333 -5.66699 42.333 -9.16699 51 -10.5l11 52c-76.667 15.333 -116 23.333 -118 24c-53.333 8 -91.166 12 -113.499 12
s-40.208 -2.125 -53.625 -6.375s-35.709 -19.125 -66.876 -44.625c-14.667 -12 -30.5 -24.167 -47.5 -36.5s-36.5 -20.5 -58.5 -24.5c-6 -1.33301 -15.833 -2 -29.5 -2s-29.334 4 -47.001 12s-40.834 22.333 -69.501 43c-49.3994 38 -93.1328 57 -131.2 57
c-35.4668 0 -123.732 -15.334 -264.798 -46.001z" />
</svg>
