<?xml version="1.0" standalone="no"?>
<!DOCTYPE svg PUBLIC "-//W3C//DTD SVG 1.1//EN" "http://www.w3.org/Graphics/SVG/1.1/DTD/svg11.dtd" >
<svg xmlns="http://www.w3.org/2000/svg" xmlns:xlink="http://www.w3.org/1999/xlink" version="1.1" viewBox="-10 0 833 1000">
   <path fill="currentColor"
d="M245 565v-331h101l60 227l59 -227h100v331h-62v-260l-65 260h-65l-66 -260v260h-62zM812 398c0 110.667 -39.667 205.334 -119 284.001s-175 118 -287 118c-24.667 -0.666992 -50 -3.33398 -76 -8.00098c-93.333 -17.333 -171.666 -62.666 -234.999 -135.999
s-95 -159.333 -95 -258c0 -24 2.33301 -49 7 -75c18 -92 63.333 -168.333 136 -229c75.333 -64 163 -96 263 -96c126.667 2.66699 230.334 50.334 311.001 143.001c63.333 72.667 94.999 158.333 94.998 256.998zM635.002 605.503c55.333 -58.333 83 -129.166 83 -212.499
s-33.333 -156 -100 -218c-58.667 -55.333 -129.334 -83 -212.001 -83c-8.66699 0 -18 0.666992 -28 2c-80 7.33301 -147.333 40 -202 98s-82 126.667 -82 206c0 89.333 33.333 164.666 100 225.999c58.667 54 129.334 81 212.001 81
c8.66699 0.666992 18 0.333984 28 -0.999023c78.667 -7.33301 145.667 -40.167 201 -98.501z" />
</svg>
