<?xml version="1.0" standalone="no"?>
<!DOCTYPE svg PUBLIC "-//W3C//DTD SVG 1.1//EN" "http://www.w3.org/Graphics/SVG/1.1/DTD/svg11.dtd" >
<svg xmlns="http://www.w3.org/2000/svg" xmlns:xlink="http://www.w3.org/1999/xlink" version="1.1" viewBox="-10 0 1020 1000">
   <path fill="currentColor"
d="M351 434c0 -32.667 9.66699 -62 29 -88c30 -39.333 69.333 -59 118 -59c32.667 0 62.334 9.66699 89.001 29c39.333 30 59 69.333 59 118c-0.666992 32.667 -11 62.334 -31 89.001c-29.333 39.333 -68.333 59 -117 59c-32.667 -0.666992 -62.334 -10.667 -89.001 -30
c-38.667 -30 -58 -69.334 -58 -118.001zM402 434.001c0.666992 18 6 35 16 51c18.667 29.333 45.334 44 80.001 44c18.667 0.666992 35.667 -4 51 -14c29.333 -19.333 44 -46.333 44 -81c0 -18 -5 -35 -15 -51c-18.667 -29.333 -45.334 -44 -80.001 -44
c-18.667 0 -36 5 -52 15c-29.333 18 -44 44.667 -44 80zM623 237.001h377v106h-377v-106zM0 237.001h377v106h-377v-106z" />
</svg>
