<?xml version="1.0" standalone="no"?>
<!DOCTYPE svg PUBLIC "-//W3C//DTD SVG 1.1//EN" "http://www.w3.org/Graphics/SVG/1.1/DTD/svg11.dtd" >
<svg xmlns="http://www.w3.org/2000/svg" xmlns:xlink="http://www.w3.org/1999/xlink" version="1.1" viewBox="-11 0 1021 1000">
   <path fill="currentColor"
d="M151 213c6.00195 62.0186 12.333 104.019 18.9951 126.001c6.66699 22 22.334 47 47.001 75s50 48.333 76 61s60.333 21.667 103 27h89c-22.667 -16 -43.667 -34.667 -63 -56c-28 -32.667 -46.167 -62.834 -54.5 -90.501s-15.166 -73.5 -20.499 -137.5l51 -5
c6 62 12.5 104 19.5 126s22.833 46.833 47.5 74.5s49.5 48 74.5 61s57.5 22.167 97.5 27.5h135c-23.333 -16 -46.833 -37.5 -70.5 -64.5s-39.667 -54.167 -48 -81.5s-15.166 -73.333 -20.499 -138l53 -5c6 62 12.167 104 18.5 126s22 47 47 75s50.333 48.333 76 61
s60.834 21.667 105.501 27h67v53h-1000v-53h238c-23.333 -16 -46.833 -37.5 -70.5 -64.5s-39.667 -54.333 -48 -82s-15.166 -73.5 -20.499 -137.5z" />
</svg>
