<?xml version="1.0" standalone="no"?>
<!DOCTYPE svg PUBLIC "-//W3C//DTD SVG 1.1//EN" "http://www.w3.org/Graphics/SVG/1.1/DTD/svg11.dtd" >
<svg xmlns="http://www.w3.org/2000/svg" xmlns:xlink="http://www.w3.org/1999/xlink" version="1.1" viewBox="-10 0 1020 1000">
   <path fill="currentColor"
d="M193 461l-102 13l98 12l-10 -11zM305 448l-76 9l-20 18l16 14l78 9l-17 -23zM412 436l-79 10l-21 29l19 26l81 10l-20 -37zM520 423l-82 10l-23 41l23 40l82 10l-23 -50zM625 410l-81 10l-24 54l24 53l74 8l7 1l-22 -62zM730 390l-82 16l-24 68l24 67l82 16l-23 -83z
M979 342l-225 44l-25 88l25 88l225 43v-263zM1000 317v313l-385 -74l-615 -72v-21l615 -72z" />
</svg>
