<?xml version="1.0" standalone="no"?>
<!DOCTYPE svg PUBLIC "-//W3C//DTD SVG 1.1//EN" "http://www.w3.org/Graphics/SVG/1.1/DTD/svg11.dtd" >
<svg xmlns="http://www.w3.org/2000/svg" xmlns:xlink="http://www.w3.org/1999/xlink" version="1.1" viewBox="-11 0 1022 1000">
   <path fill="currentColor"
d="M808 414c6.00098 0 20.335 0.666992 43.001 2h149v67h-150c-22.333 -0.666992 -40.25 -1 -53.75 -1s-22.583 0.333008 -27.25 1h-3c-15.2666 0.954102 -47.2666 12.4541 -96 34.5c-14 6.33301 -24.667 10.833 -32 13.5h-1l-1 1c-14 3.33301 -29 5.66602 -45 6.99902
c-28.667 10.667 -51.6553 16.7744 -68.9648 18.3223s-32.0244 2.32129 -44.1436 2.32129c-12.1201 0 -27.085 -2.88086 -44.8936 -8.64258c-23.333 -2 -47.9551 -6.17871 -73.8662 -12.5371c-25.9102 -6.3584 -56.6211 -22.5127 -92.1318 -48.4629h-266v-68h224
c19.333 0.666992 32.666 1 39.998 1l-19 -19h-246v-67h245.062c16.042 0 27.1875 1.66699 33.4375 5c5 2.66699 10.5 8 16.5 16s13 15.667 21 23l59 53v1c29.333 24.667 49.666 40 60.999 46l10 5h1c11.5 4.5 28.2656 6.75 50.2969 6.75s50.2656 -7.25 84.7031 -21.75
c17.333 -8.66699 38.666 -23 63.999 -43c20 -14 35.667 -26.667 47 -38c31.7744 -21.7402 70.4414 -36.4072 116.001 -44c24 -4 52.333 -6 85 -6h106v67h-106c-34 0 -62.666 2.33301 -85.998 7zM599.998 284c-9.33301 -0.666992 -15.333 -1 -18 -1
c-18.667 -0.666992 -36.667 3 -54 11s-31 19 -41 33c-14.667 24 -17.334 46 -8.00098 66c7.2002 12 20.8672 18 41.001 18c37.7598 0 66.9414 -19.2275 87.5459 -57.6816c7.03027 -13.1211 10.5449 -24.54 10.5449 -34.2568c0 -9.71582 -2.18164 -17.6553 -6.54492 -23.8174
c-4.36426 -6.16309 -8.21289 -9.91113 -11.5459 -11.2441zM419.998 423c-10 -20 -14.167 -41.667 -12.5 -65s10.167 -46.333 25.5 -69s36.333 -40.167 63 -52.5s53 -19.166 79 -20.499l2 -3l16 1c28 2.66699 50 13.667 66 33c32.083 41.8467 35.416 86.1797 10 132.999
c-26.4678 52.9346 -66.1348 84.9346 -119.001 96c-60.749 11.0459 -104.082 -6.62109 -129.999 -53z" />
</svg>
