<?xml version="1.0" standalone="no"?>
<!DOCTYPE svg PUBLIC "-//W3C//DTD SVG 1.1//EN" "http://www.w3.org/Graphics/SVG/1.1/DTD/svg11.dtd" >
<svg xmlns="http://www.w3.org/2000/svg" xmlns:xlink="http://www.w3.org/1999/xlink" version="1.1" viewBox="-10 0 1013 1000">
   <path fill="currentColor"
d="M790 3l50 72l-143 101l-50 -72zM575 154l49 71l-142 102l-51 -72zM359 306l50 72l-143 101l-51 -72zM144 457l50 71l-144 102l-50 -72zM942 168l51 72l-143 101l-52 -72zM727 319l51 72l-145 101l-50 -72zM512 470l50 72l-144 101l-50 -72zM297 622l50 71l-144 102
l-51 -72z" />
</svg>
