<?xml version="1.0" standalone="no"?>
<!DOCTYPE svg PUBLIC "-//W3C//DTD SVG 1.1//EN" "http://www.w3.org/Graphics/SVG/1.1/DTD/svg11.dtd" >
<svg xmlns="http://www.w3.org/2000/svg" xmlns:xlink="http://www.w3.org/1999/xlink" version="1.1" viewBox="-10 0 829 1000">
   <path fill="currentColor"
d="M353 289v220.001h49c32.667 0 55 -6 67 -18c16.667 -14.667 25 -45.334 25 -92.001c-0.666992 -44.667 -9 -75 -25 -91c-8 -8 -17.667 -13.167 -29 -15.5s-30.333 -3.5 -57 -3.5h-30zM287 234.001h121.001c27.333 0 49.5 2.5 66.5 7.5s32.5 14.833 46.5 29.5
c29.333 30.667 43.333 74.667 42 132c0 83.333 -30.667 135 -92 155c-14.667 4.66699 -34.334 6.66699 -59.001 6h-125v-330zM808.001 401.001c0 110 -39.5 204 -118.5 282s-174.167 117 -285.5 117c-25.333 0 -50.666 -2.33301 -75.999 -7
c-92.667 -17.333 -170.5 -62.333 -233.5 -135s-94.5 -158.334 -94.5 -257.001c0 -24.667 2.33301 -49.667 7 -75c18 -92 63 -168 135 -228c75.333 -64 162.666 -96 261.999 -96c25.333 0.666992 50.666 3.33398 75.999 8.00098c92.667 16.667 170.5 61.334 233.5 134.001
s94.5 158.333 94.501 256.999zM632 606.503c54.667 -58.333 82 -129 82 -212s-33 -155.167 -99 -216.5c-58.667 -54.667 -130.834 -82 -216.501 -82s-159.834 33 -222.501 99c-54.667 58 -82 126.667 -82 206c0 87.333 33 161.666 99 222.999c58.667 54.667 129 82 211 82
c8 0 17 -0.666992 27 -2c79.333 -6.66699 146.334 -39.167 201.002 -97.499z" />
</svg>
