<?xml version="1.0" standalone="no"?>
<!DOCTYPE svg PUBLIC "-//W3C//DTD SVG 1.1//EN" "http://www.w3.org/Graphics/SVG/1.1/DTD/svg11.dtd" >
<svg xmlns="http://www.w3.org/2000/svg" xmlns:xlink="http://www.w3.org/1999/xlink" version="1.1" viewBox="-10 0 810 1000">
   <path fill="currentColor"
d="M219.3 0l4.79883 0.00390625c4.7998 0 10.1328 0.266602 15.999 0.799805c34.667 4.7998 73.0674 15.4668 115.201 32c27.2002 10.667 53.4668 22.9336 78.7998 36.7998c25.333 13.8672 51.4668 31.0674 78.4004 51.6006s51.8672 45.0664 74.7998 73.5996
c22.9336 28.5332 42.4004 59.5996 58.4004 93.2002c37.8662 80.5332 52.2666 148.533 43.2002 204c-3.7334 21.8662 -10.1338 39.7324 -19.2002 53.5986c-9.06738 13.8672 -19.2012 23.2002 -30.4014 28c-46.9326 19.2002 -96.7988 21.6006 -149.599 7.2002
c-9.60059 -2.66699 -19.6006 -6 -30 -10c-10.4004 -4 -19.7334 -7.33301 -28 -10s-15.0664 -4.5332 -20.3994 -5.59961c9.60059 47.4668 3.06738 94.667 -19.5996 141.6c-22.667 46.9336 -54.2666 81.334 -94.7998 103.2l-8 -14.4004
c36.7998 -19.7334 65.8662 -52.1328 87.1992 -97.1992c21.333 -45.0674 27.4668 -89.4678 18.4004 -133.201l-0.799805 0.799805h-0.799805c-2.13379 1.06641 -5.33398 2.66602 -9.60059 4.7998s-7.7334 3.7334 -10.4004 4.7998
c-23.4668 11.2002 -43.7334 19.7334 -60.8008 25.5996c-28.2666 9.06641 -53.5996 12.7998 -76 11.2002c-28.2666 -2.13379 -52.2666 -13.0674 -72 -32.8008c-37.333 -37.333 -52 -83.1992 -44 -137.599c6.40039 -43.7334 22.667 -80 48.8008 -108.8h0.799805
c1.59961 -1.60059 12.2666 -12.5342 32 -32.8008s34.4004 -36 44.001 -47.2002c28.2666 -33.0674 42.3994 -60.001 42.3994 -80.8008c0 -26.1338 -6.93359 -54.667 -20.7998 -85.6006c-6.39941 -14.3994 -12.7998 -26.3994 -19.2002 -36
c-6.93262 -9.06641 -13.5996 -14.3994 -20 -16l-5.59961 -1.59961v-1.60059c-3.7334 -1.06641 -5.86719 -1.86621 -6.40137 -2.39941c-0.533203 0 -1.33301 -0.533203 -2.39941 -1.60059h-0.799805l-0.800781 -0.799805l-0.799805 -1.59961
c-1.06641 -1.60059 -1.59961 -2.66699 -1.59961 -3.2002v-1.59961v-3.2002c0 -1.06738 0.400391 -2.13379 1.2002 -3.2002s1.7334 -1.86621 2.80078 -2.40039h0.799805c0.533203 0 0.933594 -0.132812 1.2002 -0.399414s0.399414 -0.533203 0.399414 -0.799805
s0.266602 -0.400391 0.800781 -0.400391h2.39941zM247.299 20.8037c0.533203 0.533203 2.40234 1.86035 5.60254 3.99414s5.59961 4.26758 7.19922 6.40137c8 10.667 15.4668 23.7334 22.4004 39.2002c13.8662 33.0664 21.0664 63.7334 21.5996 92
c0 24.5332 -15.4668 55.2002 -46.3994 92c-7.4668 9.06641 -15.7334 18.2666 -24.7998 27.5996c-9.06738 9.33301 -18.8008 19.0664 -29.2002 29.2002c-10.4004 10.1338 -17.7334 17.8672 -22 23.2002c-10.667 11.2002 -20.2666 25.7334 -28.7998 43.5996
c-8.53418 17.8662 -14.1348 36.3994 -16.8018 55.5996c-6.93262 49.0674 6.40039 90.4004 40 124v0c16 16.5342 36.5332 26.1348 61.6006 28.8018c20.2666 1.59961 43.2002 -1.86719 68.8008 -10.4004c17.0664 -5.86621 36.7998 -14.1328 59.2002 -24.7998
c2.66699 -1.06738 6.2666 -2.80078 10.7998 -5.2002s7.86621 -4.13281 10 -5.2002l7.2002 -3.2002c3.2002 -1.06641 5.33301 -1.59961 6.39941 -1.59961c8 0 16.7998 1.59961 26.4004 4.7998s21.0674 7.33398 34.4004 12.4014
c13.333 5.06641 24.5332 8.93262 33.5996 11.5996c48.5332 13.8662 94.667 11.7334 138.4 -6.39941c8 -3.7334 16 -11.334 24 -22.8008c8 -11.4658 13.333 -26.7988 16 -45.999c8.5332 -52.7998 -5.33398 -118.133 -41.6006 -196
c-10.667 -21.8662 -22.7998 -42.5332 -36.3994 -62c-13.6006 -19.4658 -28.2676 -37.0654 -44.001 -52.7988s-31.8672 -30.4004 -48.4004 -44.001c-16.5332 -13.5996 -33.7334 -25.7324 -51.5996 -36.3994c-17.8672 -10.667 -34.9336 -20.1338 -51.2002 -28.4004
s-32.667 -15.333 -49.2002 -21.1992c-35.7334 -13.333 -70.1338 -22.666 -103.201 -27.999z" />
</svg>
