<?xml version="1.0" encoding="UTF-8" standalone="no"?>
<!-- Creator: CorelDRAW -->

<svg
   xml:space="preserve"
   width="9.0593958mm"
   height="3.284554mm"
   style="clip-rule:evenodd;fill-rule:evenodd;image-rendering:optimizeQuality;shape-rendering:geometricPrecision;text-rendering:geometricPrecision"
   viewBox="0 0 0.49022077 0.17773361"
   version="1.1"
   id="svg31"
   sodipodi:docname="Marca ondulada cavalgante crítica.svg"
   inkscape:version="1.1.2 (b8e25be833, 2022-02-05)"
   xmlns:inkscape="http://www.inkscape.org/namespaces/inkscape"
   xmlns:sodipodi="http://sodipodi.sourceforge.net/DTD/sodipodi-0.dtd"
   xmlns="http://www.w3.org/2000/svg"
   xmlns:svg="http://www.w3.org/2000/svg"><sodipodi:namedview
   id="namedview33"
   pagecolor="#ffffff"
   bordercolor="#666666"
   borderopacity="1.0"
   inkscape:pageshadow="2"
   inkscape:pageopacity="0.0"
   inkscape:pagecheckerboard="0"
   inkscape:document-units="mm"
   showgrid="false"
   inkscape:zoom="49.82281"
   inkscape:cx="17.130708"
   inkscape:cy="6.2421208"
   inkscape:window-width="1920"
   inkscape:window-height="1057"
   inkscape:window-x="-8"
   inkscape:window-y="-8"
   inkscape:window-maximized="1"
   inkscape:current-layer="SIMBOLOS" />
 <defs
   id="defs24">
  <style
   type="text/css"
   id="style22">
   <![CDATA[
    .str0 {stroke:black;stroke-width:0.0189392}
    .fil0 {fill:none}
   ]]>
  </style>
 </defs>
 <g
   id="SIMBOLOS"
   inkscape:label="SIMBOLOS"
   inkscape:groupmode="layer">
  <metadata
   id="CorelCorpID_0Corel-Layer" />
  <g
   id="_262708064">
   <path
   id="_262707920"
   style="color:#000000;clip-rule:nonzero;fill:#000000;fill-rule:nonzero;stroke-width:69.8465;-inkscape-stroke:none;shape-rendering:auto"
   d="M 33.421875,0 C 31.655407,1.4335042 29.947961,2.7905519 28.648438,3.4101562 27.348523,4.0297816 26.387099,4.0775654 25.101562,3.8203125 23.815821,3.5630177 22.232235,3.0208209 20.599609,2.7285156 18.966765,2.4361712 17.235887,2.4011627 15.416016,2.8652344 13.596122,3.3289135 11.853467,4.2248551 9.2773438,5.7304688 6.7012927,7.2360565 3.3331789,9.2888726 0,11.322266 l 0.68164062,1.091796 C 3.8405437,10.486986 7.0454247,8.6539466 9.5488281,7.1953125 c 1.1013529,1.0078789 2.2704429,2.0290803 3.6835939,2.6269531 1.588888,0.6722024 3.344221,0.7729354 5.046875,0.5449224 1.702402,-0.228049 3.382406,-0.7821396 4.638672,-1.5000005 1.255762,-0.717812 2.041979,-1.6407985 2.591797,-2.3183594 0.426,-0.5256952 0.685228,-0.9329453 0.90625,-1.3125 0.885934,0.018005 1.802715,-0.1330828 2.777343,-0.5976562 1.566859,-0.7470693 3.280249,-2.1132409 5.046875,-3.546875 z M 17.871094,3.8359375 c 0.868403,-0.00661 1.72912,0.1014079 2.591797,0.2558594 1.533863,0.2746223 2.984153,0.6787048 4.365234,0.9550781 0.03862,0.00773 0.07656,0.016058 0.115234,0.023437 -0.1532,0.2005303 -0.325294,0.4156578 -0.523437,0.6601563 -0.488017,0.6014413 -1.106638,1.2926 -2.183594,1.9082036 C 21.159107,8.2542287 19.675139,8.798844 18.144531,9.0039062 16.61342,9.2089754 15.079475,9.1437908 13.779297,8.59375 12.738456,8.1534074 11.699424,7.3886852 10.699219,6.5253906 c 2.159335,-1.2504532 3.702498,-2.0711634 5.125,-2.4335937 0.691328,-0.1762912 1.37145,-0.2507156 2.046875,-0.2558594 z"
   transform="scale(0.01431712)" />
   
  </g>
 </g>
</svg>
