<?xml version="1.0" standalone="no"?>
<!DOCTYPE svg PUBLIC "-//W3C//DTD SVG 1.1//EN" "http://www.w3.org/Graphics/SVG/1.1/DTD/svg11.dtd" >
<svg xmlns="http://www.w3.org/2000/svg" xmlns:xlink="http://www.w3.org/1999/xlink" version="1.1" viewBox="-10 0 810 1000">
   <path fill="currentColor"
d="M403 545l-63.999 13.998c-14.083 56.875 -21.125 103.407 -21.125 139.598c0 8.35156 0.375 16.1523 1.125 23.4023c2.66699 22.667 6.91992 36.8672 12.7598 42.6006c13.0381 12.7998 20.3711 19.2002 22 19.2002h96c0.733398 0 8.4668 -6.93359 23.2002 -20.7998
c7.97754 -7.97754 11.9668 -25.1963 11.9668 -51.6562c0 -16.7002 -1.58887 -37.0811 -4.7666 -61.1426c-3.13184 -26.9316 -8.99902 -57.5986 -17.6016 -92zM584.161 487.798l-102.4 24l-0.799805 2.40039l96.7998 -24l34.4004 18.3994zM220.961 487.798l-28 20.7998
l33.5996 -18.3994l94.4004 22.3994v-0.799805c-0.533203 0 -0.799805 -0.266602 -0.799805 -0.799805zM604.161 277.398l-64.7998 38.3994l-15.2002 4l1.59961 5.60059zM200.961 277.398l72.7998 44.7998l4.7998 2.39941c0 -1.59961 0.266602 -3.19922 0.800781 -4.7998
l-13.6006 -4zM319.361 273.398c-0.907227 3.06641 -4.90625 9.99707 -11.999 20.7969c-8.90723 15.2002 -13.4141 33.7119 -13.5205 55.5361c0.106445 12.1758 1.41309 25.1299 3.91992 38.8633c8.82715 48.2666 21.627 86.9336 38.4004 116
c7.22656 12.2666 10.6934 22.4004 10.3994 30.4004l0.800781 0.799805h-0.800781c0.293945 2.13379 -0.239258 4.00098 -1.59961 5.60156l57.5996 -12.8008l54.4004 12c-1.97363 -6.39941 -2.10645 -11.7324 -0.399414 -15.999
c1.62598 -4.39941 8.29297 -18.666 20 -42.7988c12.96 -27.2002 22.5596 -58.667 28.7988 -94.4004c4.42676 -24.2666 5.77832 -36.8486 4.05371 -37.7461c-40.9424 -25.7686 -62.627 -44.2529 -65.0537 -55.4531c-2.24023 -11.4668 11.293 -17.6006 40.5996 -18.4004
l-82.4004 64.7998zM340.162 103.396c-0.106445 -9.60059 4.55762 -14.5342 13.998 -14.8008c9.22656 0.266602 13.8936 5.2002 14 14.8008c-0.106445 4.39941 -1.43945 8.26562 -3.99902 11.5986c-2.77344 3.33301 -6.10645 4.93262 -10 4.79883
c-4.10645 0.133789 -7.43945 -1.46582 -9.99902 -4.79883c-2.77344 -3.33301 -4.10645 -7.19922 -4 -11.5986zM459.359 90.1953c-25.5732 -54.7998 -44.042 -79.3633 -55.4082 -73.6875c-0.633789 0.324219 -1.09766 0.352539 -1.3916 0.0859375h-2.39941
c-8.77344 0.266602 -19.5732 9.7334 -32.4004 28.4004c-12.5068 18.667 -24.6406 43.2002 -36.4014 73.5996c-16.9062 43.6006 -25.374 76.7363 -25.4033 99.4072c0.0292969 3.3291 0.230469 6.59375 0.603516 9.79395c0.293945 7.4668 1.76074 12.667 4.40039 15.6006
c2.69336 3.06641 4.69336 6.13281 6 9.19922l0.799805 -0.799805l84.7998 68l83.2002 -66.3994c2.16016 -4.93359 4.29395 -8.53418 6.40039 -10.8008c3.22656 -3.06641 4.71484 -9.5293 4.46387 -19.3896c0.250977 -6.80664 -0.498047 -15.1738 -2.24707 -25.1025
c-3.58398 -24.0713 -8.32227 -43.6406 -14.2158 -58.707c-7.44043 -19.6006 -11.9736 -30.9336 -13.6006 -34c-0.373047 4.39941 -2.10645 7.86621 -5.2002 10.3994c-2.90625 2.7998 -6.23926 4.13281 -10 3.99902c-3.57324 0.133789 -6.77344 -1.46582 -9.60059 -4.79883
c-2.50684 -3.33301 -3.83984 -7.19922 -4 -11.5986c0.160156 -10.9336 4.95996 -15.8672 14.4004 -14.8008c2.55957 0.266602 4.95996 0.799805 7.2002 1.59961zM400.16 -0.206055h2.40234c14.2939 0.133789 29.0752 11.0674 44.3438 32.8008
c15.3984 21.6006 28.8838 48.1338 40.457 79.6006c17.0938 45.8662 25.7461 81.8984 25.9561 108.096c-0.209961 17.1357 -2.99512 28.7041 -8.35547 34.7041c-5.30664 6 -7.65332 9.75977 -7.04004 11.2803c0.719727 1.81348 3.59961 6.71973 8.63965 14.7197
c5.62695 8 9.62695 15.5996 12 22.7998l14.4004 -4l88.7998 -52l60 -17.5996l36.7998 -104.8l16 4.7998l-24.7998 120l-76 28.7998l-92.7998 56.7998l-15.2002 10.4004c0.160156 23.8662 -0.773438 38.0654 -2.7998 42.5977
c-1.97363 4.80078 -2.90723 7.66797 -2.80078 8.60156l88.7998 -41.6006l56.7998 18.4004l75.2002 -82.4004l12.7998 10.4004l-72.7998 103.2l-64 -18.4004l-105.6 49.5996c-5.57324 20.2666 -12.7734 38.667 -21.6006 55.2002l97.6006 -22.3994l65.5996 50.3994
l43.2002 65.6006l-12 9.59961l-61.6006 -61.5996l-46.3994 -24.8008l-104 24c-0.106445 0.933594 0.426758 2.40039 1.59961 4.40039c2.16016 3.33301 5.74707 17.1094 10.7607 41.3291c8.98633 42.4463 14.3896 83.3545 16.2109 122.725
c0.178711 4.62988 0.0693359 8.8623 -0.329102 12.6973c-1.60156 32.165 -6.88281 52.7148 -15.8428 61.6484c-11.04 11.0664 -21.8398 19.1992 -32.3994 24.3994h-102.4l-0.799805 -0.799805c-7.97363 -4 -18.1074 -11.7334 -30.4014 -23.2002v-0.799805
c-11.04 -10.667 -16.7773 -33.2109 -17.2119 -67.6328c-0.231445 -16.9111 1.23926 -36.7666 4.41211 -59.5664c3.49316 -28.5332 7.94141 -53.6611 13.3447 -75.3848c5.2627 -21.6104 8.54785 -33.415 9.85449 -35.415c1.36035 -2 1.62695 -3.7334 0.799805 -5.2002
l-100.8 -23.2002l-46.4004 24.8008l-61.5996 61.5996l-12 -9.59961l42.4004 -65.6006l66.3994 -50.3994l94.4004 22.3994c-8.77344 -17.8662 -15.9736 -37.333 -21.6006 -58.3994l-102.399 -46.4004l-64 18.4004l-72.7998 -103.2l12.7998 -10.4004l75.2002 82.4004
l56.7998 -18.4004l86.3994 40.7998c-1.04004 -0.399414 -1.83984 -2.53223 -2.39941 -6.39844c-2.77344 -16.1338 -3.97363 -27.6348 -3.59961 -34.5029c0.292969 -3.79883 0.425781 -7.76465 0.399414 -11.8984l-105.6 -64.7998l-76 -28.7998l-24.8008 -120l16 -4.7998
l36.8008 104.8l60 17.5996l88.7998 52l12 4c3.89355 -9.86621 7.51953 -17.2949 10.8789 -22.2861c6.64062 -9.67578 9.53027 -15.6318 8.66895 -17.8682c-0.47168 -2.43066 -2.85449 -5.97949 -7.14844 -10.6465c-5.04004 -5.33301 -7.50391 -14.6689 -7.39258 -28.0068
c-0.111328 -7.3291 0.733398 -16.2734 2.5332 -26.834c4.86621 -27.4395 12.7529 -56.2256 23.6592 -86.3594c18.4268 -47.8662 38.4268 -81.4658 60 -100.799c8.42676 -7.33301 16.6934 -11.0664 24.7998 -11.2002z" />
</svg>
