<?xml version="1.0" standalone="no"?>
<!DOCTYPE svg PUBLIC "-//W3C//DTD SVG 1.1//EN" "http://www.w3.org/Graphics/SVG/1.1/DTD/svg11.dtd" >
<svg xmlns="http://www.w3.org/2000/svg" xmlns:xlink="http://www.w3.org/1999/xlink" version="1.1" viewBox="-11 0 831 1000">
   <path fill="currentColor"
d="M387.6 291.975l-0.000976562 93.96h35.6406c26.46 0 44.1445 -1.75488 53.0547 -5.26465c19.1699 -7.55176 28.7549 -21.7266 28.7549 -42.5244c0 -11.8799 -3.50977 -21.8701 -10.5303 -29.9707c-7.01953 -8.09961 -15.3896 -12.8242 -25.1094 -14.1748
s-26.1895 -2.02539 -49.4092 -2.02539h-32.4004zM320.369 566.565l-0.000976562 -331.289h106.92c40.5 0 68.7148 2.16016 84.6445 6.47949c15.9307 4.32031 30.376 14.5801 43.3359 30.7803c12.4209 16.7393 18.6309 36.7188 18.6309 59.9385
c0 41.3594 -13.2305 71.0596 -39.6904 89.1006c-11.3398 8.09961 -23.8945 13.5 -37.665 16.2002s-35.7754 4.0498 -66.0146 4.0498h-42.9307v124.739zM809.608 399.706c0 25.3809 -2.42969 50.7607 -7.29004 76.1406c-17.8213 91.2598 -62.9121 167.13 -135.271 227.61
c-75.0586 64.2588 -162.538 96.3887 -262.438 96.3896c-25.3799 0 -50.7598 -2.42969 -76.1396 -7.29004c-92.8799 -17.2812 -170.91 -62.3711 -234.092 -135.271c-63.1797 -72.9004 -94.7695 -158.761 -94.7695 -257.58c0 -24.8398 2.42969 -49.9502 7.29004 -75.3301
c17.8203 -91.7998 62.9102 -167.939 135.271 -228.419c75.0586 -63.7197 162.539 -95.5801 262.44 -95.5801c25.3789 0 50.7588 2.42969 76.1387 7.29004c92.8809 17.2803 170.911 62.2354 234.091 134.865c63.1807 72.6299 94.7705 158.354 94.7695 257.174z
M633.434 606.257c54.8105 -58.3203 82.2158 -129.199 82.2158 -212.636c0 -83.4385 -33.21 -155.93 -99.6309 -217.475c-58.8584 -54.541 -131.331 -81.8115 -217.419 -81.8105c-86.0859 0 -160.357 33.0752 -222.814 99.2246
c-54.8096 58.0508 -82.2148 126.766 -82.2148 206.146c0 88.0693 33.21 162.725 99.6299 223.965c58.8594 54.2705 131.468 81.4053 217.826 81.4053c86.3564 0 160.492 -32.9395 222.407 -98.8193z" />
</svg>
