<?xml version="1.0" standalone="no"?>
<!DOCTYPE svg PUBLIC "-//W3C//DTD SVG 1.1//EN" "http://www.w3.org/Graphics/SVG/1.1/DTD/svg11.dtd" >
<svg xmlns="http://www.w3.org/2000/svg" xmlns:xlink="http://www.w3.org/1999/xlink" version="1.1" viewBox="-11 0 1021 1000">
   <path fill="currentColor"
d="M1000 237l-14.001 40v2c-1.33301 2 -4.33301 11.167 -9 27.5c-25.2383 88.333 -87.2383 160.833 -186 217.5l-1 1c-86.9795 45.5605 -169.979 72.2275 -249 80l-1 1h-1c-40.667 2 -78 0.666992 -112 -4c-107.443 -10.4463 -192.443 -39.7793 -255 -88
c-50.1719 -35.8369 -93.5049 -91.8369 -130 -168c-10 -20.667 -24 -55 -42 -103l79 -30c12.667 32 23.334 58.333 32.001 79h782c9.33301 -28 14 -42.833 14 -44.5s4.33301 -14.167 13 -37.5zM435.999 518h2c66.1904 8.8252 129.523 3.1582 189.999 -17.001
c93.7197 -30.2783 161.387 -67.6113 203.001 -111.999v-1h1c1.33301 -1.33301 3 -3.33301 5 -6s3.33301 -4.33398 4 -5.00098h-684c0.666992 0.666992 1 1.33398 1 2.00098c22 30 43.333 52.333 64 67v1h1c50.6191 38.6299 121.619 62.2969 213 71z" />
</svg>
