<?xml version="1.0" standalone="no"?>
<!DOCTYPE svg PUBLIC "-//W3C//DTD SVG 1.1//EN" "http://www.w3.org/Graphics/SVG/1.1/DTD/svg11.dtd" >
<svg xmlns="http://www.w3.org/2000/svg" xmlns:xlink="http://www.w3.org/1999/xlink" version="1.1" viewBox="-10 0 1020 1000">
   <path fill="currentColor"
d="M979 99l13 52l-137 33l1 120l129 -29l12 52l-280 63l2 100l270 -57l11 52l-988 210l-12 -53l280 -58l1 -95l-269 61l-12 -51l43 -10l1 -108l-28 7l-13 -51zM802 198l-302 73l2 113l301 -68zM447 284l-349 85l-1 107l351 -80zM663 403l-328 74l-1 95l331 -70z" />
</svg>
