<?xml version="1.0" standalone="no"?>
<!DOCTYPE svg PUBLIC "-//W3C//DTD SVG 1.1//EN" "http://www.w3.org/Graphics/SVG/1.1/DTD/svg11.dtd" >
<svg xmlns="http://www.w3.org/2000/svg" xmlns:xlink="http://www.w3.org/1999/xlink" version="1.1" viewBox="-10 0 861 1000">
   <path fill="currentColor"
d="M413 1l15.9961 0.00292969v2c17.333 158 37 261 59 309c4.66699 10 9.83398 17 15.501 21c11.9551 8.43848 59.0273 6.88184 141.217 -4.6709s145.617 -21.6621 190.284 -30.3291l1 -1l5 16c-0.666992 0 -13.334 5 -38.001 15s-64.667 28.833 -120 56.5
s-95.666 53.167 -120.999 76.5c-9.33301 8.66699 -13.666 16.334 -12.999 23.001c1.33301 26.667 23 84 65 172c18.667 39.333 42.334 83.666 71.001 132.999l1 2l-13 9c-0.666992 -1.33301 -1.33398 -1.66602 -2.00098 -0.999023c-80 -94 -142.333 -157.333 -187 -190
c-30.667 -22.667 -51.667 -34 -63 -34h-1c-24.667 0 -74 37 -148 111c-33.333 33.333 -67 71 -101 113l-1 1l-13 -10c0.666992 -0.666992 7.33398 -10.834 20.001 -30.501s35.5 -60.834 68.5 -123.501s49.5 -108.667 49.5 -138c0 -4.66699 -1 -9.66699 -3 -15
c-9.33301 -24 -60.333 -59.667 -153 -107c-48.667 -24.667 -94.334 -45.334 -137.001 -62.001l-1 -1l5 -16c3.33301 0 16.5 2.83301 39.5 8.5s62.833 12.667 119.5 21s98.5 12.5 125.5 12.5s43.5 -3 49.5 -9h1c6.66699 -4.66699 15 -23.334 25 -56.001
c20.667 -70 36.334 -160.333 47.001 -271v-2zM420.996 63.0029c-20.667 165.333 -44.334 258.667 -71.001 280c-10 8 -34.833 12 -74.5 12s-108.5 -10 -206.5 -30c144 64 224 114.667 240 152c2 4 3 10.333 3 19c0.666992 32.667 -20 89 -62 169
c-6.66699 12.667 -19.667 34.334 -39 65.001c100 -114 169.667 -171 209 -171c0 0.666992 0.333008 0.666992 1 0c24.667 -16 98.334 44.667 221.001 182c-18 -33.333 -32 -59.333 -42 -78c-44.667 -82.667 -67 -142 -67 -178c0 -0.666992 0.333008 -2.66699 1 -6
c7.89551 -38.5996 88.2285 -90.2666 241 -155c-104 20 -180 30 -228 30c-25.8691 0.663086 -43.6943 -2.19434 -53.4756 -8.57324c-27.0166 -17.6182 -51.1914 -111.761 -72.5244 -282.428zM410.904 282.448h16.8096v159.691l151.286 -57.1533l5.04297 14.2891
l-150.446 57.1514l90.7725 108.423l-12.6074 10.9268l-91.6133 -109.263l-86.5684 114.306l-13.4482 -10.0859l85.7295 -113.465l-143.722 -55.4727l5.04297 -15.127l143.722 55.4707v-159.691z" />
</svg>
