<?xml version="1.0" standalone="no"?>
<!DOCTYPE svg PUBLIC "-//W3C//DTD SVG 1.1//EN" "http://www.w3.org/Graphics/SVG/1.1/DTD/svg11.dtd" >
<svg xmlns="http://www.w3.org/2000/svg" xmlns:xlink="http://www.w3.org/1999/xlink" version="1.1" viewBox="-10 0 1020 1000">
   <path fill="currentColor"
d="M368.141 357.658c-3.84082 -40.1865 -21.6582 -76.1758 -53.4512 -107.969s-71.8564 -47.6895 -120.189 -47.6895s-89.333 17 -123 51s-50.5 75 -50.5 123c0 49.0498 16.833 90.0498 50.5 123c34.0576 33.333 74.9893 50 122.794 50s87.7529 -15.8906 119.845 -47.6709
s50.0869 -67.4902 53.9844 -107.13c-0.748047 -5.91309 -1.12207 -11.9795 -1.12207 -18.1992c0 -6.26953 0.379883 -12.3838 1.13965 -18.3418zM57 239c38 -38 83.8311 -57.001 137.498 -57.001s99.5 19 137.5 57c23.1895 23.1895 39.3037 49.2344 48.3418 78.1348
c6.3125 -12.6309 14.8652 -24.3428 25.6582 -35.1357c26 -26 57.333 -39 94 -39s68 13 94 39c10.4727 10.4727 18.8369 21.8115 25.0918 34.0156c9.18164 -28.4541 25.3174 -54.126 48.4082 -77.0156c38.333 -38 84.333 -57 138 -57s99.5 19 137.5 57s57 83.667 57 137
s-19.167 99 -57.5 137s-84.166 57 -137.499 57s-99.166 -19 -137.499 -57c-23.0908 -22.8896 -39.2266 -48.5615 -48.4082 -77.0156c-6.25488 12.2041 -14.6191 23.543 -25.0918 34.0166c-26 26 -57.333 39 -94 39s-68 -13 -94 -39
c-10.8506 -10.8506 -19.4375 -22.6299 -25.7598 -35.3379c-14.9209 47.5244 -44.334 83.9707 -88.2402 109.339c-30 17.333 -62.667 26 -98 26c-53.333 0 -99 -19 -137 -57s-57 -83.667 -57 -137s19 -99 57 -137zM928.498 252.999c-33.667 -34 -74.665 -51 -122.998 -51
s-88.3965 15.8965 -120.189 47.6895s-49.6104 67.7822 -53.4512 107.969c0.759766 5.95801 1.13965 12.0723 1.13965 18.3418c0 6.28223 -0.381836 12.4072 -1.14453 18.376c3.81152 40.1309 21.4551 75.9346 52.9307 107.41s71.3799 47.2139 119.713 47.2139
s89.5 -17 123.5 -51s51 -74.833 51 -122.5s-16.833 -88.5 -50.5 -122.5zM422.758 294.241c-20.1611 20.1611 -31.5361 43.1543 -34.1289 68.9766c0.248047 4.21094 0.37207 8.47168 0.37207 12.7822c0 4.27539 -0.126953 8.50879 -0.380859 12.7012
c2.57812 25.8574 13.9531 48.8721 34.124 69.043s45.9229 30.2568 77.2559 30.2568s56.7686 -9.76855 76.3066 -29.3066s31.0176 -41.1318 34.4385 -64.7812c-0.993164 -11.7402 -1.00879 -23.4902 -0.0478516 -35.25
c-5.39746 -35.1855 -23.6299 -61.7402 -54.6973 -79.6641c-17.333 -10 -38.833 -15 -64.5 -15s-48.5811 10.0811 -68.7422 30.2422z" />
</svg>
