<?xml version="1.0" encoding="UTF-8" standalone="no"?>
<!-- Created with Inkscape (http://www.inkscape.org/) -->

<svg
   width="7.0100002mm"
   height="1.568952mm"
   version="1.1"
   viewBox="0 0 7.01 1.568952"
   id="svg842"
   sodipodi:docname="Marca_ondul_adesao.svg"
   inkscape:version="1.1.2 (b8e25be833, 2022-02-05)"
   xmlns:inkscape="http://www.inkscape.org/namespaces/inkscape"
   xmlns:sodipodi="http://sodipodi.sourceforge.net/DTD/sodipodi-0.dtd"
   xmlns="http://www.w3.org/2000/svg"
   xmlns:svg="http://www.w3.org/2000/svg"
   xmlns:rdf="http://www.w3.org/1999/02/22-rdf-syntax-ns#"
   xmlns:cc="http://creativecommons.org/ns#"
   xmlns:dc="http://purl.org/dc/elements/1.1/">
  <defs
     id="defs846" />
  <sodipodi:namedview
     id="namedview844"
     pagecolor="#ffffff"
     bordercolor="#666666"
     borderopacity="1.0"
     inkscape:pageshadow="2"
     inkscape:pageopacity="0.0"
     inkscape:pagecheckerboard="0"
     inkscape:document-units="mm"
     showgrid="false"
     inkscape:zoom="42.574892"
     inkscape:cx="12.977132"
     inkscape:cy="2.9360028"
     inkscape:window-width="1920"
     inkscape:window-height="1057"
     inkscape:window-x="-8"
     inkscape:window-y="-8"
     inkscape:window-maximized="1"
     inkscape:current-layer="svg842" />
  <metadata
     id="metadata836">
    <rdf:RDF>
      <cc:Work
         rdf:about="">
        <dc:format>image/svg+xml</dc:format>
        <dc:type
           rdf:resource="http://purl.org/dc/dcmitype/StillImage" />
      </cc:Work>
    </rdf:RDF>
  </metadata>
  <g
     transform="translate(-62.115,-101.95791)"
     id="g840">
    <path
       class="fil2 str1"
       d="m 62.115,103.34 c 0.37,0 0.74,0.01 0.93,0.01 0.19,0 0.19,0 0.19,-0.05 0,-0.05 0.01,-0.16 0.02,-0.3 0.02,-0.14 0.05,-0.31 0.1,-0.44 0.06,-0.13 0.13,-0.21 0.22,-0.28 0.09,-0.07 0.19,-0.13 0.3,-0.14 0.12,-0.02 0.26,0.01 0.37,0.05 0.11,0.04 0.18,0.09 0.25,0.17 0.07,0.09 0.15,0.22 0.2,0.35 0.05,0.13 0.08,0.26 0.09,0.36 0.01,0.1 0,0.17 0,0.21 0,0.04 0,0.04 0.33,0.04 h 1.35 c 0.34,0 0.34,0 0.35,-0.09 0.01,-0.09 0.04,-0.28 0.08,-0.43 0.04,-0.15 0.1,-0.25 0.18,-0.35 0.08,-0.1 0.17,-0.19 0.27,-0.24 0.1,-0.05 0.2,-0.06 0.3,-0.06 0.1,0.01 0.21,0.03 0.32,0.1 0.11,0.07 0.22,0.17 0.3,0.29 0.07,0.12 0.1,0.24 0.11,0.36 0.02,0.12 0.03,0.23 0.03,0.29 v 0.07 h 0.12 0.6"
       clip-rule="evenodd"
       fill="none"
       image-rendering="optimizeQuality"
       shape-rendering="geometricPrecision"
       stroke="#000000"
       stroke-width="0.5"
       id="path838"
       style="stroke-width:0.35;stroke-miterlimit:4;stroke-dasharray:none" />
  </g>
</svg>
