<?xml version="1.0" standalone="no"?>
<!DOCTYPE svg PUBLIC "-//W3C//DTD SVG 1.1//EN" "http://www.w3.org/Graphics/SVG/1.1/DTD/svg11.dtd" >
<svg xmlns="http://www.w3.org/2000/svg" xmlns:xlink="http://www.w3.org/1999/xlink" version="1.1" viewBox="-10 0 1013 1000">
   <path fill="currentColor"
d="M126 180c100.068 -78.625 224.735 -118.125 374 -118.5c132.667 -0.333008 247 31.5 343 95.5c85.6904 57.127 134.357 127.127 146.001 210c2 12 3 23.333 3 34c0 93.7432 -48.333 174.076 -145 240.999c-98 64.667 -213.5 97.334 -346.5 98.001s-247.5 -31 -343.5 -95
c-85.6904 -57.127 -134.357 -127.127 -146.001 -210c-2 -12 -3 -23.333 -3 -34c0 -84 39.333 -157.667 118 -221zM864 185c78 62 117 134 117 216c0 92.8887 -48.333 171.556 -145 236c-94 62.667 -206 94 -336 94c-144.293 -2.21973 -265.626 -40.2197 -364 -114
c-78 -62 -117 -134 -117 -216c0 -93.5557 48.333 -172.556 145 -237c94 -62.667 209.313 -93.4736 345.94 -92.4199c136.628 1.05371 254.647 38.8604 354.06 113.42zM986 401c0 -94.667 -49 -174.667 -147 -240c-94.667 -63.333 -207.667 -95 -339 -95
c-149.429 0 -271.096 37.833 -365 113.5c-80.667 65 -121 138.833 -121 221.5c0 94.667 49 174.667 147 240c94.667 63.333 207.667 95 339 95c149.429 0 271.096 -37.833 365 -113.5c80.667 -65 121 -138.833 121 -221.5zM476 420
c-6.00098 -6.00098 -12.6689 -8.00195 -20.002 -6.00195c-13.4443 3.66699 -22.4443 12.334 -27 26.001c-3.33301 10 -5.83301 16.333 -7.5 19c-2.5752 4.12109 -6.46875 12.3184 -11.6807 24.5908s-8.15137 18.7422 -8.81836 19.4092l-2 4
c0 1.33301 -1.33301 4.83301 -4 10.5c-7.33301 15.583 -11 30.2285 -11 43.9365s-0.666992 21.8955 -2 24.5625v2c0 8.44434 -6.66699 20.5557 -20 36.333c-13.333 15.7783 -22.666 29.001 -27.999 39.668v1c-4 8.66699 -10.333 22.334 -19 41.001l42 19
c8.66699 -18 15 -31.333 19 -40c4.66699 -8.66699 11.167 -17.834 19.5 -27.501s15.5 -19.834 21.5 -30.501l1 -1v-1c8.66699 -17.333 13 -33.333 13 -48s0.5 -23.5 1.5 -26.5l3.5 -10.5c10 -20 15 -31.667 15 -35c5.5 -9.16699 9.5 -17.5 12 -25l7 12
c4 7.33301 8 13.5 12 18.5c3.11133 3.88867 6.77832 10.0557 11 18.5c2 2 4.33301 5.33301 7 10c6.6084 11.5654 18.6084 22.5654 36 33c14.5713 6.47559 29.5479 11.7617 44.9287 15.8574c25.0557 6.6709 44.0791 13.7188 57.0713 21.1436h1c10.667 6 20.667 12 30 18h1
l1 1c14.9336 8.5332 26.334 14 34.2002 16.4004c7.86621 2.39941 12.4658 3.93262 13.7988 4.59961l2 2c3.11133 4.66699 5.77832 9 8 13v1l15 27l41 -24c-7.33301 -12 -12.833 -21.667 -16.5 -29s-7.5 -12.666 -11.5 -15.999c-6 -8 -12.333 -13.333 -19 -16
s-12.167 -4.66699 -16.5 -6s-6.83301 -2.33301 -7.5 -3h-2c-2.66699 -1.33301 -9.33398 -5.33301 -20.001 -12c-26.667 -16.667 -57 -30.667 -91 -42c-24.085 -3.70605 -43.418 -12.0391 -57.999 -25c0 -0.666992 -1.16699 -2.66699 -3.5 -6s-5.33301 -8 -9 -14
s-7 -11.167 -10 -15.5s-6 -9 -9 -14l-7.5 -12.5c-2 -2 -6.16699 -7.83301 -12.5 -17.5s-11.166 -16.167 -14.499 -19.5h-1zM113.997 247.998l30 -3c10 0 20.667 5 32 15c0.666992 0.666992 1.33398 1.66699 2.00098 3c0.666992 0 2.33398 0.166992 5.00098 0.5
s9 -0.5 19 -2.5c26.7041 -7.2832 46.0371 -2.9502 57.999 13l9 -4.5c4.66699 -2.33301 9.33398 -3.83301 14.001 -4.5c9.13281 -2.2832 17.3945 2.95508 24.7861 15.7139c4.52344 7.80957 0.594727 17.9053 -11.7861 30.2861c-6 6 -15.667 12.333 -29 19v1h-1
c-4 0 -8 2 -12 6c1.03027 12.3682 -5.96973 24.7012 -21 36.999c2.39941 9.60059 -1.60059 19.6006 -12 30l-9 6l-2 2c3.93262 3.53223 7.59961 11.5322 11 24l-1 -1h1c4 12 3.66699 22.5 -1 31.5s-11.667 15.833 -21 20.5c9.23047 9.23047 12.5635 20.8975 10 35
c-4.09473 16.3809 -17.0947 30.0479 -39 41l-1 1h1c-1.33301 1.33301 -2.33301 2.66602 -3 3.99902c-8.54688 14.957 -19.8799 24.957 -34 30l-1 1h-1c-4.66699 0.666992 -9.66699 1 -15 1c-0.666992 0.666992 -1.66699 1.33398 -3 2.00098l-3 -3h-1h1l-29 -30
c11.7578 -11.7578 23.0908 -17.0908 34 -16h4c0.666992 -0.666992 2 -1.66699 4 -3l4 -6c8 -14 17.333 -22.333 28 -25l1 -1l2 -3l2 -1c-1.33301 -2 -3 -4.33301 -5 -7s-3.66699 -6 -5 -10c-3.31934 -16.5947 1.01367 -29.7617 12.999 -39.5
c5.33301 -4.33301 9.66602 -7.83301 12.999 -10.5c0 -0.666992 -0.333008 -1.33398 -1 -2.00098v-1l-1 -1v-1c-5.33301 -4 -9.25391 -13.1152 -11.7627 -27.3457c-2.50879 -14.2295 3.74609 -27.7812 18.7646 -40.6543v-1c-3.66699 -12.833 3 -23.5 20 -32l6 -6v-2
c0 -10.667 3.66699 -19.667 11 -27v-1c-32.5508 8.78223 -57.5508 4.44922 -75 -13h-1c-16.5078 5.0791 -28.5078 5.74609 -36 2c-8 0.666992 -26 -4.33301 -54 -15l15 -44c24 9.33301 38.667 13.666 44 12.999zM266.999 274.995v-1v1zM290.999 309.995h1h-1z
M219.999 383.995h-1h1zM419.999 127.995c0 20.4443 5.33398 35.1123 16.002 44.0049c-8.51465 17.0303 -4.18164 35.3633 13 54.999c1.33301 1.33301 2.66602 3 3.99902 5s2.5 3.66699 3.5 5c3 4 4.83301 6.66699 5.5 8s0.333984 4.66602 -0.999023 9.99902v1
c-4.37988 25.708 1.95312 44.041 19 55l1 1l14 6c17.7637 3.80664 30.7637 -2.52637 39 -19c1.5 -3 6.70801 -9.58301 15.625 -19.75c17.4463 -19.8916 29.5713 -36.6416 36.375 -50.25h6c13.333 -0.666992 23.666 -6.66699 30.999 -18l2 -2
c2 -4.66699 3.66699 -9.5 5 -14.5s2.33301 -8.16699 3 -9.5l1 -1v-2c11 3 20.583 1.41699 28.75 -4.75s12.917 -9.58398 14.25 -10.251c8.58301 -8.58301 19.583 -11.916 33 -9.99902c15.333 4.66699 24.666 7 27.999 7h9
c10.3916 -2.07812 17.3232 -5.43066 20.7939 -10.0586s5.53906 -7.44141 6.20605 -8.44141s3 -4.16699 7 -9.5l-39 -26c-1.33301 2 -2.5 3.5 -3.5 4.5s-1.5 1.83301 -1.5 2.5c0 -0.666992 -1.66699 -1.33398 -5 -2.00098s-9 -2.16699 -17 -4.5s-18.5 -1.66602 -31.5 2.00098
s-24.5 9.5 -34.5 17.5l1 -2c-2.66699 2 -5 4.33301 -7 7c-12.2051 -6.10254 -23.5381 -6.10254 -34 0c-8.2041 6.38086 -13.9219 14.8096 -17.1533 25.2861c-3.23145 10.4756 -5.51367 17.3799 -6.84668 20.7129c-17.333 0 -29.333 6.66699 -36 20
c-3.33301 3.33301 -5 6 -5 8c-7.61914 12.9521 -14.8574 23.0234 -21.7139 30.2139c-6.85742 7.19043 -11.6191 12.4521 -14.2861 15.7852c1.33301 -10 0.5 -18.833 -2.5 -26.5s-8 -15.5 -15 -23.5s-10.833 -12.667 -11.5 -14c0.666992 -2 1 -3.66699 1 -5l2 -2v-2
c2.02246 -8.59766 0.689453 -19.9307 -4 -34l-2 -3l-9 -9c-0.666992 -4 -1 -6.66699 -1 -8v-27c0 -6.66699 -1 -17 -3 -31l-46 5c0.666992 3.33301 1.16699 8.16602 1.5 14.499s0.833008 11.5 1.5 15.5v23zM478.001 189v-1v1zM729.001 313
c-6.65234 3.3252 -15.1523 7.1582 -25.502 11.498c-10.333 4.33301 -18.5 8 -24.5 11s-12 8.5 -18 16.5l-2 6c-5.33301 14 -1.33301 26.333 12 37c9.77832 6.51855 16.8896 10.1484 21.334 10.8896s10.667 1.44531 18.667 2.1123c23 1.91699 36 3.25 39 4
c2.66699 0.666992 10.334 4.16699 23.001 10.5s23.167 9.5 31.5 9.5s20.833 -1 37.5 -3c21.7949 -2.61523 37.5771 -2.10254 47.3457 1.53809c15.1357 5.6416 35.6875 8.46191 61.6553 8.46191h2l2 -1l11 -2c6.66699 0 11 0.333008 13 1l9 -46
c-10.3027 -2.06055 -23.6357 -1.72754 -40 1h-22c-8 -1.33301 -14.667 -3 -20 -5c-16.8418 -6.31543 -36.8857 -8.22754 -60.1318 -5.73633c-23.2451 2.49121 -36.3682 3.7373 -39.3682 3.7373s-10.167 -3 -21.5 -9s-19.333 -9 -24 -9c-7.33301 -2 -17 -3.33301 -29 -4
c0.666992 -0.666992 4.16699 -2.33398 10.5 -5.00098c12.9805 -5.46582 23.8135 -15.7988 32.5 -31l1 -1c1.33301 -2.66699 3.33301 -5.33398 6 -8.00098c28.8574 -9.61914 47.9053 -18.5234 57.1426 -26.7139c9.23828 -8.19043 15.5244 -16.6191 18.8574 -25.2861
s5.66602 -13.667 6.99902 -15s7.83301 -5.83301 19.5 -13.5s19.5 -13.167 23.5 -16.5l-29 -37c-4.66699 4 -13 10.167 -25 18.5s-19.333 13.5 -22 15.5c-6 6.66699 -10.833 14.167 -14.5 22.5s-7.16699 14.166 -10.5 17.499c-3.33301 2 -9 4.33301 -17 7l-1 1h-1
c-17.333 6.66699 -28.833 11.834 -34.5 15.501s-11.167 9.83398 -16.5 18.501l-7 10l-1 1v2z" />
</svg>
