<?xml version="1.0" standalone="no"?>
<!DOCTYPE svg PUBLIC "-//W3C//DTD SVG 1.1//EN" "http://www.w3.org/Graphics/SVG/1.1/DTD/svg11.dtd" >
<svg xmlns="http://www.w3.org/2000/svg" xmlns:xlink="http://www.w3.org/1999/xlink" version="1.1" viewBox="-10 0 1021 1000">
   <path fill="currentColor"
d="M177 375l-37.9932 -0.00292969c-17.333 0 -30.333 -8.33301 -39 -25c-5.33301 -10 -8 -19.167 -8 -27.5s1.66699 -15.833 5 -22.5c7.33301 -14.667 20.666 -23.667 39.999 -27s49.666 -8.66602 90.999 -15.999c-46.667 -22 -79.667 -37 -99 -45
c-53.333 16.667 -88.333 20.334 -105 11.001c-16 -8.66699 -24 -24.334 -24 -47.001c0 -29.333 18 -49.333 54 -60c17.333 -4.66699 30.666 -1.33398 39.999 9.99902c17.333 20.667 29.666 42.667 36.999 66l1 2c20.667 8.66699 55 23.667 103 45
c0 -0.666992 -0.333008 -1.16699 -1 -1.5s-7.33398 -9.33301 -20.001 -27s-19 -35.834 -19 -54.501v-4c0 -19.333 9.33301 -33 28 -41c4.66699 -2 12 -3 22 -3s23 7.66699 39 23s25.667 30.333 29 45c6 26.667 5.66699 56.667 -1 90c0 1.33301 -0.333008 4.33301 -1 9h-1
c15.333 8 38.333 19.167 69 33.5s54.334 25.5 71.001 33.5c-22 -61.333 -37 -100 -45 -116l-1 -1c-10 -20.667 -15 -38.334 -15 -53.001c0 -0.666992 0.333008 -1.33398 1 -2.00098c0 -30 11.333 -48 34 -54c5.33301 -1.33301 10 -2 14 -2l26 8c30 20 51 54 63 102
c2.66699 10.667 3.83398 23.834 3.50098 39.501s-0.5 31.667 -0.5 48s-2.33301 38.166 -7 65.499c4.66699 2 14.834 6.83301 30.501 14.5s33.834 16 54.501 25s61.334 26.833 122.001 53.5c-46.667 -75.333 -77.667 -131 -93 -167v-1c-15.333 -38 -23 -69.333 -23 -94
s8 -40 24 -46c5.33301 -2 10.666 -3 15.999 -3c18.667 0 39.5 13 62.5 39s40.833 53.667 53.5 83c19.333 44.667 31.666 118.334 36.999 221.001c99.333 40.667 163.666 63.334 192.999 68.001l-2 17c-28.667 -3.33301 -95.334 -26 -200.001 -68
c-4.66699 4.66699 -35.5 27.334 -92.5 68.001s-100.167 68.334 -129.5 83.001s-56 22 -80 22c-16.667 0 -29 -5 -37 -15s-12 -20.167 -12 -30.5s6.66699 -23.833 20 -40.5s28 -29 44 -37c48 -25.333 85.833 -44.166 113.5 -56.499s59.167 -21.166 94.5 -26.499
c-78.667 -32.667 -146.334 -63.334 -203.001 -92.001l-42 42c-34 32.667 -60.833 55.167 -80.5 67.5s-38.834 21 -57.501 26s-32 7.5 -40 7.5c-34 -1.33301 -51 -19 -51 -53c0 -8.66699 3.33301 -18 10 -28c14 -21.333 33.333 -36.333 58 -45
c10 -3.33301 29.5 -11.666 58.5 -24.999s52.833 -22 71.5 -26l-144 -70c-8 9.33301 -16 17.333 -24 24c-40.667 40.667 -73.334 61 -98.001 61zM293.007 267.997l5.00098 -29c2 -19.333 1.66699 -36.5 -1 -51.5s-10.834 -29 -24.501 -42s-25.5 -19.5 -35.5 -19.5
c-2.66699 0 -5 0.333008 -7 1c-19.333 6.66699 -23 25 -11 55c2 4 10.333 16.667 25 38l25 35v1c6 2 14 6 24 12zM82.0078 139.997c-4.66699 -7.33301 -13.666 -9.33105 -26.999 -5.99805s-23 9.16602 -29 17.499s-9 15.166 -9 20.499s0.333008 9 1 11
c6 17.333 16.333 26 31 26h13c7.33301 0 24.666 -4 51.999 -12c-8.66699 -22.667 -19 -41.667 -31 -57h-1zM440.009 133.999l-5.00195 0.00195312c-18 0 -27 9 -27 27s4.83301 37.333 14.5 58s26.834 65.667 51.501 135c11.333 5.33301 22 10.333 32 15
c4.66699 -32.667 6.83398 -63.334 6.50098 -92.001s-2.5 -49.834 -6.5 -63.501s-10.667 -28.167 -20 -43.5c-14.667 -24 -30 -36 -46 -36zM633.007 213.001c0 18.667 6.66699 45.999 20 81.999v1c14 30.667 49.667 93 107 187l27 11c0 -15.333 -2.33301 -46.666 -7 -93.999
c-8 -82 -35 -147 -81 -195c-18 -18.667 -32 -28 -42 -28c-4.66699 0 -9.74512 1.45605 -15.2354 4.36816c-5.84277 3.09863 -8.76465 13.6426 -8.76465 31.6318zM125.007 207l-1 1zM256.007 270c-52.667 9.33301 -90.334 15.668 -113.001 19.001
c-20.667 4.66699 -31.667 14.667 -33 30c-0.666992 7.33301 1.5 15.666 6.5 24.999s15.167 14 30.5 14h9c42.0928 0 83.7598 -25.333 125 -76c-5.33301 -2.66699 -13.666 -6.66699 -24.999 -12zM467.007 370.002c-20 2 -48.5 12.002 -85.5 30.002s-57.5 27.667 -61.5 29
c-19.333 6.66699 -33.666 16.167 -42.999 28.5s-14 22.166 -14 29.499s2.62988 14.7031 7.88867 22.1104s12.7275 11.1113 22.4062 11.1113c25.6738 0 57.9082 -11.7412 96.7041 -35.2227c21.333 -12.667 57.333 -46 108 -100c-20 -10 -30.333 -15 -31 -15zM752.007 500.004
c-40.667 2 -87.999 15 -141.999 39c-16 7.33301 -46 22.666 -90 45.999c-30.21 15.1045 -47.543 36.7715 -52 65c-0.666992 4 1 9 5 15s14.333 8.83301 31 8.5s43.667 -9.16602 81 -26.499c31.333 -16.667 95.666 -62 192.999 -136z" />
</svg>
