<?xml version="1.0" standalone="no"?>
<!DOCTYPE svg PUBLIC "-//W3C//DTD SVG 1.1//EN" "http://www.w3.org/Graphics/SVG/1.1/DTD/svg11.dtd" >
<svg xmlns="http://www.w3.org/2000/svg" xmlns:xlink="http://www.w3.org/1999/xlink" version="1.1" viewBox="-10 0 845 1000">
   <path fill="currentColor"
d="M435 0l8.00098 14.999c-51.333 28.667 -87 72 -107 130c-9.52344 27.3018 -14.2852 54.2256 -14.2852 80.7715c0 29.2002 5.76172 57.9434 17.2852 86.2295l-15 7c-12.7061 -30.3525 -19.0586 -61.3594 -19.0586 -93.0205c0 -28.1426 5.01953 -56.8027 15.0586 -85.9795
c21.333 -62 59.666 -108.667 114.999 -140zM686.001 86.999l-3 15.998c-10.9541 -1.47656 -21.7373 -2.21484 -32.3506 -2.21484c-46.874 0 -90.4238 14.4053 -130.649 43.2158c-49.333 35.333 -81.333 81.666 -96 138.999l-17 -4
c15.333 -61.333 49.833 -110.666 103.5 -147.999c44.1963 -30.7451 91.6699 -46.1172 142.422 -46.1172c10.875 0 21.9014 0.706055 33.0781 2.11816zM101.001 131.997l16.9971 0.999023c-1.42188 10.1338 -2.13281 20.2432 -2.13281 30.3291
c0 27.7363 5.37793 55.293 16.1338 82.6709c14 36.667 36 68.334 66 95.001c28.667 26 61.667 44 99 54l-4 15c-61.333 -16 -110.666 -50.667 -147.999 -104c-30.7451 -43.9219 -46.1172 -91.0088 -46.1172 -141.26c0 -10.7686 0.706055 -21.6816 2.11816 -32.7402z
M492.998 310.996c40.1455 -23.0107 82.8105 -34.5146 127.99 -34.5146c16.3418 0 33.0127 1.50488 50.0127 4.51562c63.333 11.333 114.666 41.666 153.999 90.999l-13 10c-36.667 -46 -85.334 -74.333 -146.001 -85c-16 -2.84473 -31.6445 -4.2666 -46.9336 -4.2666
c-42.0449 0 -81.4004 10.7559 -118.067 32.2666zM533.001 396.997c62 15.333 111.668 49.665 149.001 102.998c30.7451 43.9219 46.1172 91.2344 46.1172 141.938c0 10.8652 -0.706055 21.8857 -2.11816 33.0625l-17 -2c1.26074 -10.083 1.89062 -20.0381 1.89062 -29.8652
c0 -47.3496 -14.6299 -91.7275 -43.8906 -133.134c-34.667 -49.333 -80.667 -81.666 -138 -96.999zM15.002 418.996c36 46.667 84 75.334 144 86.001c15.7373 2.79785 31.1543 4.19629 46.25 4.19629c42.4561 0 82.373 -11.0654 119.75 -33.1963l8 15
c-37.333 21.333 -76 33 -116 35c-4.42871 0.213867 -8.8418 0.321289 -13.2402 0.321289c-36.6494 0 -72.2363 -7.44043 -106.76 -22.3213c-38.667 -16.667 -71 -41.334 -97 -74.001zM504.002 478.996c12.7061 30.3525 19.0586 61.4531 19.0586 93.3008
c0 28.3096 -5.01953 57.209 -15.0586 86.6992c-21.333 62.667 -59.333 109.667 -114 141l-8 -15c52 -30 87.667 -73.667 107 -131c9.04297 -27.1289 13.5645 -53.8936 13.5645 -80.293c0 -30.041 -5.85449 -59.6104 -17.5645 -88.707zM404.002 513.996l17 3.99902
c-15.333 63.333 -49.666 113 -102.999 149c-44.3281 30.0996 -91.8008 45.1494 -142.419 45.1494c-11.0439 0 -22.2373 -0.716797 -33.5811 -2.14941l3 -15c10.083 1.26074 20.0381 1.89062 29.8652 1.89062c47.3496 0 91.7275 -14.6299 133.134 -43.8906
c50 -35.333 82 -81.666 96 -138.999z" />
</svg>
