<?xml version="1.0" standalone="no"?>
<!DOCTYPE svg PUBLIC "-//W3C//DTD SVG 1.1//EN" "http://www.w3.org/Graphics/SVG/1.1/DTD/svg11.dtd" >
<svg xmlns="http://www.w3.org/2000/svg" xmlns:xlink="http://www.w3.org/1999/xlink" version="1.1" viewBox="-11 0 1021 1000">
   <path fill="currentColor"
d="M15 594h-3.00195l-12 -90c66.667 -8.66699 112.834 -20.334 138.501 -35.001s51.167 -44 76.5 -88c9.33301 -15.333 21.5 -37.666 36.5 -66.999s25.167 -49 30.5 -59c18.667 -36 37.667 -62.333 57 -79l1 -1c31.333 -25.333 68 -42.333 110 -51v-1
c34.833 -6.72266 66.3057 -10.084 94.417 -10.084c2.55566 0 5.08301 0.0273438 7.58301 0.0830078c28.667 0.666992 50.334 1.33398 65.001 2.00098c55.333 2.66699 97.333 16 126 40c27.333 27.333 48 67.666 62 120.999v3c2.66699 10.667 5.33398 25 8.00098 43
c3.33301 22 6.33301 36 9 42c-0.666992 0.666992 -1.33398 1 -2.00098 1c5.33301 24.667 10 43.667 14 57c14 39.333 33.333 71.333 58 96c14 12.667 33 24.667 57 36h1c11.333 4.66699 28 10.334 50 17.001l-28 86c-22.667 -7.33301 -40.667 -13.333 -54 -18h-2
c-40.667 -20 -69.667 -38.333 -87 -55v-1h-1c-45.333 -46 -76.333 -105.667 -93 -179c-22.667 8.66699 -43 15 -61 19h-1c-12.667 2 -26.334 3.66699 -41.001 5c4 19.333 9.66699 38.333 17 57c9.33301 24 23.666 44.667 42.999 62c13.333 12 30 23.667 50 35
c32.667 19.333 50.334 30.333 53.001 33l-47 78c-23.333 -14 -35.666 -21.667 -36.999 -23h-1c-38.667 -22.667 -65.667 -42 -81 -58c-32.667 -34 -55.334 -68.333 -68.001 -103c-8.66699 -22.667 -15.667 -51 -21 -85c-6.66699 -1.33301 -11.667 -2 -15 -2
c-14 43.333 -28.667 77.333 -44 102c-28.667 44.667 -64 77 -106 97c-23.333 11.333 -59 21 -107 29l-16 -90c41.333 -7.33301 69.333 -14.333 84 -21h1l1 -1c26 -13.333 46.333 -31.5 61 -54.5s28 -52.833 40 -89.5c-27.333 -12 -60.333 -29.667 -99 -53
c-18.667 37.333 -34 66 -46 86c-35.333 58.667 -71.666 98.667 -108.999 120s-94 37 -170 47zM611.998 206l-2 -0.000976562c-19.6357 -1.76074 -38.1982 -2.64062 -55.6885 -2.64062c-68.6143 0 -120.719 13.5469 -156.312 40.6406c-3.33301 2.66699 -8 8.33398 -14 17.001
c54.667 33.333 96.334 54.333 125.001 63c31.4902 9.49023 62.9805 14.2354 94.4707 14.2354l51.5293 -4.23535c20 -4.66699 41.333 -11.667 64 -21l-2 -15c-10 -37.333 -21 -62 -33 -74c-14 -10.667 -38 -16.667 -72 -18z" />
</svg>
