<?xml version="1.0" standalone="no"?>
<!DOCTYPE svg PUBLIC "-//W3C//DTD SVG 1.1//EN" "http://www.w3.org/Graphics/SVG/1.1/DTD/svg11.dtd" >
<svg xmlns="http://www.w3.org/2000/svg" xmlns:xlink="http://www.w3.org/1999/xlink" version="1.1" viewBox="-11 0 1018 1000">
   <path fill="currentColor"
d="M506 234c0 -1.33496 0.333008 -2.33496 0.998047 -3c4.13379 0 29.8008 39.333 77.001 118c10 23.333 14.833 49 14.5 77s-6 47.667 -17 59s-23.167 18 -36.5 20c-36.667 6 -66.667 2.66699 -90 -10c-7.33301 -4 -12 -8.33301 -14 -13
c-9.33301 -26.667 -1.66602 -67.5 23.001 -122.5s38 -91.167 40 -108.5zM1.99805 557l-2 -66h410l5 11c13.333 24.667 46.333 37 99 37c36 0 60.667 -5.33301 74 -16c5.33301 -4 10.333 -8 15 -12l19 -20h375v68z" />
</svg>
