<?xml version="1.0" standalone="no"?>
<!DOCTYPE svg PUBLIC "-//W3C//DTD SVG 1.1//EN" "http://www.w3.org/Graphics/SVG/1.1/DTD/svg11.dtd" >
<svg xmlns="http://www.w3.org/2000/svg" xmlns:xlink="http://www.w3.org/1999/xlink" version="1.1" viewBox="-10 0 1021 1000">
   <path fill="currentColor"
d="M162 445c-11.8926 11.8926 -51.2256 66.2246 -117.999 162.997l-44 -30c47.333 -68.667 84.333 -120 111 -154c44 -57.333 85.833 -101.666 125.5 -132.999s85.167 -55.833 136.5 -73.5s99 -26.5 143 -26.5h19c46 2.66699 93.167 15.334 141.5 38.001
c100.028 46.9092 179.528 115.576 238.5 206c26 39.333 54.333 88 85 146l-47 25c-35.21 -65.8271 -67.877 -119.827 -98.001 -162c-28.667 24.667 -55 46.5 -79 65.5c-66.0322 52.2764 -126.699 83.1094 -182 92.5h-1c-119.733 14.7822 -226.4 -7.55078 -320 -66.999
c-30 -18.667 -67 -48.667 -111 -90zM651.001 276.997c-40.667 -19.333 -81.5 -30 -122.5 -32s-83 4.33301 -126 19s-81.167 33.334 -114.5 56.001c36.667 31.333 68.667 53.333 96 66c46.667 22 93.5 31.667 140.5 29s88.833 -16.334 125.5 -41.001
c19.333 -14 42 -34 68 -60c-22.667 -14.667 -44.667 -27 -66 -37h-1zM762.001 344.997c-31.333 32.667 -58.333 56.999 -80.999 72.9971c-45.333 30.667 -96.5 47.667 -153.5 51s-112.5 -8 -166.5 -34c-34.667 -16 -73.334 -43.333 -116.001 -82
c-16 14.667 -32.333 31.334 -49 50.001c43.333 41.333 78.666 70.333 105.999 87c83.3838 53.0625 178.051 73.0625 284.001 60c29.333 -5.33301 57.5 -16.166 84.5 -32.499s54.167 -35.166 81.5 -56.499v-1c18 -14 41.333 -33.333 70 -58
c-14.667 -16.667 -30 -31.667 -46 -45h-1c-0.666992 -1.33301 -5 -5.33301 -13 -12z" />
</svg>
