<?xml version="1.0" standalone="no"?>
<!DOCTYPE svg PUBLIC "-//W3C//DTD SVG 1.1//EN" "http://www.w3.org/Graphics/SVG/1.1/DTD/svg11.dtd" >
<svg xmlns="http://www.w3.org/2000/svg" xmlns:xlink="http://www.w3.org/1999/xlink" version="1.1" viewBox="-11 0 1021 1000">
   <path fill="currentColor"
d="M95 441h31c0 -1.33301 1.08887 -11.7109 3.2666 -31.1338c2.17773 -19.4219 7.42188 -39.7109 15.7334 -60.8662c10 -21.333 24 -39 42 -53c36.8496 -29.4795 78.0166 -35.9795 123.5 -19.5c23 8.33301 41.833 20.833 56.5 37.5
c28.2119 36.2725 44.5449 75.9395 48.999 119c1.33301 0.666992 3.66602 1 6.99902 1l197 3h18c2 -17.333 5.66699 -35.166 11 -53.499s15.833 -37.5 31.5 -57.5s32.167 -34.667 49.5 -44c16 -7.33301 36.667 -11.333 62 -12c24.667 2.66699 45.334 9.33398 62.001 20.001
c44.9287 28.0811 69.5957 67.0811 74.001 117c1.33301 6.66699 2.66602 13.667 3.99902 21h68v72h-139v-36c0 -14.667 -1.33301 -29.667 -4 -45c-0.666992 -15.333 -4 -28.666 -10 -39.999c-15.6514 -22.7646 -36.3184 -35.4316 -62.001 -38c-16.4912 0 -33.1582 10 -50 30
c-14.9873 19.9824 -24.1543 46.1494 -27.501 78.5c-1 9.66699 -1.83301 14.834 -2.5 15.501c-7.33301 22 -16.333 35 -27 39c-10.667 2.66699 -30 4 -58 4h-192c-23.1113 0 -40.7783 -0.833008 -53 -2.5c-7.33301 -1 -14.333 -4.83301 -21 -11.5
c-3.33301 -4.66699 -6 -10.667 -8 -18c-1.33301 -34.667 -4.83301 -59.667 -10.5 -75s-13.5 -29.666 -23.5 -42.999c-4.66699 -5.33301 -11.834 -9.83301 -21.501 -13.5s-18.834 -5.5 -27.501 -5.5c-22.5859 1.3291 -40.5859 14.6621 -54 40c-3.33301 10 -7 27.667 -11 53v2
c-2 21.333 -3 36 -3 44s-3.33301 15.333 -10 22c-10.5713 7.04785 -21.5713 11.0479 -33 12h-22c-12 0 -32.833 -0.166992 -62.5 -0.5s-52.167 -0.5 -67.5 -0.5v-71h33.5z" />
</svg>
