<?xml version="1.0" standalone="no"?>
<!DOCTYPE svg PUBLIC "-//W3C//DTD SVG 1.1//EN" "http://www.w3.org/Graphics/SVG/1.1/DTD/svg11.dtd" >
<svg xmlns="http://www.w3.org/2000/svg" xmlns:xlink="http://www.w3.org/1999/xlink" version="1.1" viewBox="-11 0 1021 1000">
   <path fill="currentColor"
d="M419 505h190v20h-190v-20zM832 426v20l-150 1v-19zM202 401h151v19h-151v-19zM95 374c-8.81152 -6.6084 -23.1816 -1.92383 -43.1094 14.0469s-30.2246 41.2891 -30.8916 75.9561c1.33301 35.333 10.333 60.666 27 75.999c10 9.33301 20.667 15.666 32 18.999
s19 3.16602 23 -0.500977c10.2432 -9.38965 15.9102 -41.8896 17.001 -97.5c0 -23.333 -3 -42.5 -9 -57.5s-11.333 -24.833 -16 -29.5zM577.999 294.003c-16.8887 12.667 -63.2227 18.999 -139 18.999c-23.333 1.33301 -45 -3 -65 -13s-33.333 -19.333 -40 -28
c-4 6 -17.667 28.667 -41 68c-9.52344 16.667 -35.8564 25 -78.999 25l-94 -1h-7c18 20 27 54.1426 27 102.429s-6.33301 81.4766 -19 99.5723l15 1h774c24.667 -0.666992 42.667 -10.5 54 -29.5s16.666 -40.5 15.999 -64.5c-2 -22.667 -11 -44 -27 -64s-38 -30.333 -66 -31
l-306 -2h-12l2 -12c5.92969 -25.2002 8.2627 -48.5332 7 -70zM437.998 293.002c76.667 0 121.333 -6.33008 134 -18.9971v-1c0.666992 -0.666992 1 -1.33398 1 -2.00098c-9.88281 -13.8359 -27.8828 -25.5029 -54 -35c-36.667 -16 -72 -23.333 -106 -22
c-22.667 1.33301 -43.334 12.666 -62.001 33.999c-4.93359 9.86621 3.66602 20.333 25.7998 31.3994s42.5342 15.5996 61.2012 13.5996zM135.997 586.005c-88.6885 0 -133.691 -40.6641 -135.003 -121.997h-1v-1l1 -1c0.666992 -40 13.334 -69.667 38.001 -89
s51.667 -29 81 -29c3.33301 0 16.5 0.333008 39.5 1c70.9717 2.05762 109.472 -2.94238 115.5 -15c2.66699 -4.66699 6 -10.334 10 -17.001s7.5 -12.834 10.5 -18.501s6.33301 -11.334 10 -17.001s7.33398 -11.5 11.001 -17.5c5.76172 -9.42871 11.2617 -16.7617 16.5 -22h1
v-3l1 1c23.333 -26.667 49 -40.667 77 -42c53.7393 -1.91895 106.406 13.4141 158.001 46c12 8.66699 20.333 17.667 25 27c0 0.666992 0.333008 1 1 1c4.66699 13.333 5.66699 30 3 50s-4.33398 33 -5.00098 39c154.667 0 250.834 0.333008 288.501 1s66.167 13 85.5 37
s29.833 49.667 31.5 77s-3.83301 51.666 -16.5 72.999c-15.333 26.667 -39.333 40.334 -72 41.001c-23.333 0.666992 -150 1 -380 1l-318.5 -1h-76.5z" />
</svg>
