<?xml version="1.0" standalone="no"?>
<!DOCTYPE svg PUBLIC "-//W3C//DTD SVG 1.1//EN" "http://www.w3.org/Graphics/SVG/1.1/DTD/svg11.dtd" >
<svg xmlns="http://www.w3.org/2000/svg" xmlns:xlink="http://www.w3.org/1999/xlink" version="1.1" viewBox="-11 0 1022 1000">
   <path fill="currentColor"
d="M968 254c-71.8994 46.0156 -160.289 69.0234 -265.167 69.0234c-1.93848 0 -3.88281 -0.0078125 -5.83301 -0.0234375c-50 0 -97.667 -19.667 -143 -59c-29.333 -25.333 -48 -56 -56 -92c-8 36 -26.333 66.667 -55 92
c-44.5898 39.3447 -91.4375 59.0166 -140.543 59.0166c-0.818359 0 -1.6377 -0.00585938 -2.45703 -0.0166016c-106.533 0 -195.533 -22.333 -267 -67c10.9014 133.543 68.5684 233.543 173 300c49.0762 30.8994 96.2705 46.3496 141.583 46.3496
c50.8408 0 99.3135 -19.4502 145.417 -58.3496l7 -6l7 6c44.2959 39.2949 91.8984 58.9424 142.807 58.9424c45.4316 0 93.4961 -15.6475 144.193 -46.9424c52 -32 93 -73.667 123 -125s47 -110.333 51 -177zM-0.000976562 234c0 -7.33301 3.16895 -10.999 9.50195 -10.999
h3.5c3.33301 0 6 1 8 3c10.1572 10.1572 31.1572 21.8242 63 35.001c64 28.667 136 43 216 43c44 0 87.667 -18.667 131 -56c17.333 -14.667 31.166 -30.667 41.499 -48s15.5 -32 15.5 -44h20c0 12 5.33301 26.667 16 44s24.667 33.333 42 48c42 37.333 85.667 56 131 56
c100.223 0 189.223 -23.333 267 -70c2.66699 -1.33301 5.33398 -3 8.00098 -5s5 -3.5 7 -4.5s3.33301 -1.5 4 -1.5h17v11c0 74 -17.333 139.667 -52 197s-81.667 104.166 -141 140.499c-55.2764 33.8486 -106.357 50.7734 -153.244 50.7734
c-3.44141 0 -6.86035 -0.0908203 -10.2568 -0.273438c-49.667 -2.66699 -97.5 -22.667 -143.5 -60c-46 37.333 -93.833 57.333 -143.5 60c-3.42578 0.183594 -6.87109 0.275391 -10.3359 0.275391c-46.7764 0 -97.165 -16.7588 -151.165 -50.2764
c-80.9043 -49.8906 -137.404 -116.058 -169.5 -198.5c-17 -43.667 -25.5 -90.167 -25.5 -139.5z" />
</svg>
