<?xml version="1.0" standalone="no"?>
<!DOCTYPE svg PUBLIC "-//W3C//DTD SVG 1.1//EN" "http://www.w3.org/Graphics/SVG/1.1/DTD/svg11.dtd" >
<svg xmlns="http://www.w3.org/2000/svg" xmlns:xlink="http://www.w3.org/1999/xlink" version="1.1" viewBox="-10 0 770 1000">
   <path fill="currentColor"
d="M701.568 311.379l9.59766 -2.40039c12.0889 -3.02246 19.8223 -6.22266 23.2002 -9.60059c-10.8721 -7.24805 -35.6719 -12.8477 -74.3994 -16.7998c-48 -6.93262 -112.267 -11.7324 -192.8 -14.3994c0.533203 8.5332 1.2002 16 2 22.3994
c0.799805 6.40039 1.4668 20 2 40.7998c0.533203 0 21.333 -0.799805 62.4004 -2.39941c58.1777 -2.2666 108.044 -7.06641 149.6 -14.3994c3.7334 0 9.86719 -1.06641 18.4014 -3.2002zM297.566 284.179l-0.800781 -16.8008c-155.983 4.10449 -249.05 14.7715 -279.199 32
c-0.174805 0.174805 -0.321289 0.291992 -0.439453 0.352539c3.87695 3.65723 21.623 8.87305 53.2383 15.6475l23.2002 3.2002c52.7998 5.86621 87.1992 9.06641 103.199 9.60059c16 0.533203 33.4668 1.2002 52.4004 2s31.4668 1.19922 37.5996 1.19922
c6.13379 0 10.8008 0.266602 14.001 0.800781c-0.533203 -10.667 -1.59961 -26.667 -3.19922 -48zM452.766 284.979l-0.798828 -17.5996c-33.0664 -0.533203 -57.7334 -0.799805 -74 -0.799805s-38 0.266602 -65.2002 0.799805c0 2.13379 0.400391 7.4668 1.2002 16
c0.799805 8.53418 1.7334 25.0674 2.7998 49.6006c3.2002 85.8662 -2.93262 157.6 -18.3994 215.2c-9.60059 27.2002 -28.2676 68.7998 -56.001 124.8s-42.4004 93.0664 -44 111.2h140c1.59961 -19.2002 16.1328 -56.1338 43.5996 -110.801s46.2666 -96.9336 56.4004 -126.8
c18.335 -73.9502 23.1348 -161.15 14.3994 -261.601zM375.167 16.1797c-61.333 0 -118.668 12.1338 -172.001 36.4004s-96.3994 56.5332 -129.199 96.7998s-52.1328 84.4004 -57.999 132.4c4.2666 -1.06641 11.0664 -3.2002 20.3994 -6.40039
s27.8662 -6.40039 55.5996 -9.60059c53.333 -7.4668 120.8 -12 202.4 -13.5996c38.0439 -2.00293 96.2217 -1.83691 174.533 0.498047c139.453 4.15723 226.342 13.5908 260.667 28.3018l6.39941 1.59961c-5.86621 -48 -25.333 -92.2666 -58.3994 -132.8
c-33.0674 -40.5332 -76.4004 -72.9336 -130 -97.2002c-53.6006 -24.2666 -111.067 -36.3994 -172.4 -36.3994zM0.764648 296.98l-0.000976562 -4.00098c2.13379 -53.8662 20.001 -103.199 53.6016 -147.999c33.5996 -44.7998 78.7998 -80.1328 135.6 -105.999
s118.533 -38.7998 185.2 -38.7998s128.4 13.0664 185.2 39.1992c56.7998 26.1338 102.133 61.8672 135.999 107.2s51.5996 94.666 53.2002 147.999v4.7998l-1.60059 5.60059l-2.39941 5.59961c-0.53418 0.533203 -1.33398 1.4668 -2.40039 2.7998
c-2.79395 3.49219 -8.29199 6.03223 -16.4951 7.61914s-15.2383 3.18066 -21.1045 4.78125c-5.86719 1.60059 -12.1338 2.93359 -18.8008 4l-24.3994 4c-43.2002 6.39941 -102.667 10.9326 -178.4 13.5996l-12.7998 0.800781
c2.66699 78.3994 -3.19922 146.133 -17.5986 203.199v0.800781c-11.2002 30.9326 -31.2002 75.1992 -60 132.8c-28.7998 57.5996 -42.9336 93.0664 -42.4004 106.399v8.80078h-170.4l-0.799805 -8c-1.14453 -18.3184 13.3691 -57.4316 43.542 -117.339
c30.1719 -59.9072 51.3916 -107.062 63.6582 -141.462c12.2666 -34.3994 16.5332 -96.1328 12.7998 -185.199h-13.2002c-16.5332 0 -48.1328 -1.33301 -94.7998 -4l-92.7998 -8.80078l-10.4004 -1.59961h-4l-16.7998 -3.2002
c-32.6396 -5.44043 -51.04 -10.2402 -55.2002 -14.3994c-3.58789 -1.79395 -7.32129 -5.79395 -11.1992 -12z" />
</svg>
