<?xml version="1.0" standalone="no"?>
<!DOCTYPE svg PUBLIC "-//W3C//DTD SVG 1.1//EN" "http://www.w3.org/Graphics/SVG/1.1/DTD/svg11.dtd" >
<svg xmlns="http://www.w3.org/2000/svg" xmlns:xlink="http://www.w3.org/1999/xlink" version="1.1" viewBox="-10 0 869 1000">
   <path fill="currentColor"
d="M424 528c44 0 72 -27 83.999 -80.999l72 25c-22.667 80.667 -74.334 120.667 -155.001 120c-50 0 -91 -17 -123 -51s-47.833 -81 -47.5 -141s16.5 -107.333 48.5 -142s72.667 -52 122 -52c82.667 0 134.334 36.333 155.001 109l-75 18
c-4 -18.667 -12.833 -33.834 -26.5 -45.501s-32.667 -17.5 -57 -17.5s-45.166 10 -62.499 30s-26 53 -26 99s8.5 79 25.5 99s38.833 30 65.5 30zM429.999 72.001l-350 332l361 323l332 -313zM430.999 -1.99902l418 417l-388 368l-19 17l-441 -395z" />
</svg>
