<?xml version="1.0" standalone="no"?>
<!DOCTYPE svg PUBLIC "-//W3C//DTD SVG 1.1//EN" "http://www.w3.org/Graphics/SVG/1.1/DTD/svg11.dtd" >
<svg xmlns="http://www.w3.org/2000/svg" xmlns:xlink="http://www.w3.org/1999/xlink" version="1.1" viewBox="-10 0 810 1000">
   <path fill="currentColor"
d="M447.501 16.6885c-11.832 7.09863 -35.8301 43.8955 -71.9932 110.389c-3.44922 6.79492 -6.83398 13.5693 -10.1533 20.3242c20.8271 -11.0645 55.8037 -13.9775 104.93 -8.73926c-1.2041 -8.89648 -3.30273 -25.0508 -6.2959 -48.4619
c-5.48828 -42.9277 -10.4512 -67.165 -14.8877 -72.7119c-0.533203 0 -1.06641 -0.266602 -1.59961 -0.799805zM442.701 0.691406c13.2061 -5.66016 22.5381 4.46875 27.9961 30.3936c3.2002 13.8652 7.2002 39.7295 12 77.5928
c11.1982 93.3232 23.8633 158.517 37.9951 195.58c14.1318 37.0625 33.5967 77.9922 58.3945 122.788c24.7979 44.7949 39.3301 70.6592 43.5967 77.5918c7.46484 12.1318 11.1973 22.0977 11.1973 29.8975c0 7.79883 -4.26562 16.2314 -12.7979 25.2969
s-17.5977 17.4648 -27.1963 25.1973c-9.59863 7.7334 -18.7979 14.666 -27.5977 20.7979c-19.3574 13.4912 -30.3965 21.5977 -33.1162 24.3184c-2.71973 2.71973 -7.5459 7.2793 -14.4775 13.6787c-6.93359 6.39941 -12.4004 11.5996 -16.3994 15.5996
c-13.5986 13.5977 -28.9307 33.1953 -45.9961 58.7939c2.66699 4.7998 3.4668 12.7988 2.39941 23.9971c-1.59961 19.1982 -12.7988 33.9971 -33.5967 44.3965c-20.7979 10.3984 -46.1289 14.665 -75.9922 12.7988c-29.8643 -1.86621 -52.7949 -5.99902 -68.793 -12.3994
c-22.3984 -10.1318 -41.8633 -28.2627 -58.3945 -54.3926c-16.7158 -27.165 -18.6279 -82.4844 -5.73633 -165.958c24.8838 -161.134 73.1914 -309.794 144.923 -445.98c34.5029 -67.8936 61.4336 -107.89 80.791 -119.988h0.800781zM472.751 156.421
c-9.62598 -1.96582 -28.5049 -2.94824 -56.6396 -2.94824s-50.2021 9.06641 -66.2012 27.1982l-0.318359 -0.298828c-20.1201 43.3018 -37.5342 85.7715 -52.2422 127.408c8.5 -6.37402 21.3848 -14.3545 38.6543 -23.9414
c17.2695 -9.58594 33.3701 -16.5117 48.3027 -20.7783c40.5596 -10.8467 75.9053 -13.1436 106.037 -6.89062c-6.04395 -26.7314 -11.9082 -59.9814 -17.5928 -99.749zM527.607 361.512c-15.4717 -33.4609 -26.373 -62.3008 -32.7012 -86.5186
c-29.2842 -8.09961 -64.5508 -6.47754 -105.8 4.86523c-13.8652 2.66699 -32.2295 10.4385 -55.0918 23.3145s-38.9082 25.8047 -48.1377 38.7861c-11.3408 35.79 -21.1914 71.2363 -29.5518 106.339c18.1572 -19.4814 43.7529 -36.9648 76.7861 -52.4502
c55.124 -23.7334 104.586 -36.5322 148.386 -38.3965c10.2686 -0.436523 25.6387 0.916992 46.1104 4.06055zM536.094 379.387c-25.292 -4.47461 -43.3135 -6.45117 -54.0664 -5.92676c-39.2646 1.91602 -86.7705 14.7109 -142.518 38.3838
c-47.9951 21.8643 -78.6592 47.7285 -91.9912 77.5928l-0.3125 -0.15625c-5.10645 24.7217 -9.87891 51.8809 -14.3174 81.4775c14.9111 -19.4443 36.8525 -38.0186 65.8242 -55.7236c10.0791 -5.59863 18.0654 -9.53125 23.958 -11.7979
c5.89355 -2.2666 11.7734 -4.59961 17.6396 -6.99902c87.0127 -35.5957 164.024 -52.1846 231.036 -49.7656c-13.2588 -23.6885 -25.0098 -46.0498 -35.2529 -67.085zM617.083 529.433c-12.9492 -25.8975 -24.9502 -48.0498 -36.002 -66.4551
c-26.5322 -0.979492 -49.9629 -0.28125 -70.292 2.09473c-39.543 4.62207 -88.6367 18.0762 -147.281 40.3623c-25.0645 9.59766 -38.6631 14.7969 -40.7959 15.5977c-16.9688 6.36328 -31.9004 15.5625 -44.7959 27.5967
c-25.5967 19.7314 -41.0615 39.1963 -46.3945 58.3936l-3.20117 -0.798828c-2.13281 20.1748 -3.19922 35.0352 -3.19922 44.5811s0.0263672 15.4922 0.078125 17.8389c11.9873 -17.3311 29.6367 -32.4668 52.9482 -45.4082
c23.3105 -12.9414 54.0303 -26.6113 92.1602 -41.0098s65.0605 -24.1309 80.792 -29.1973c15.7324 -5.06543 39.2422 -9.96484 70.5303 -14.6973s62.9854 -6.15527 95.0918 -4.26953c0.241211 -1.06152 0.361328 -2.07129 0.361328 -3.0293v-1.59961zM607.108 550.402
c-28.4326 -1.20703 -56.9443 0.196289 -85.5322 4.20801c-28.5869 4.0127 -50.6133 8.68555 -66.0781 14.0186c-81.3652 28.0566 -135.227 49.9209 -161.584 65.5928c-38.3955 21.3311 -59.9932 42.9287 -64.793 64.793l-1.31738 -0.263672
c1.86621 10.7168 4.70508 19.0703 8.51758 25.0615c13.8652 22.9307 29.3301 38.2627 46.3936 45.9951c17.0654 7.73242 39.3301 12.2656 66.7939 13.5996c27.4639 1.33301 49.4619 -2.13379 65.9941 -10.4004c16.5322 -8.26465 25.5977 -19.0635 27.1973 -32.3955
l-3.19922 -17.5996c-3.2002 -1.59863 -6.2666 -3.46484 -9.2002 -5.59766c-2.93262 -2.13379 -5.46582 -3.86719 -7.59961 -5.2002c-2.13184 -1.33301 -3.99805 -2.5332 -5.59863 -3.60059l-86.3916 -50.3945h32.7969c19.8916 0.946289 39.623 6.5459 59.1934 16.7979
c9.40527 4.70215 15.623 9.47754 18.6533 14.3252c3.03027 4.84863 5.0791 7.80566 6.14648 8.87109l0.799805 1.59961c18.1318 -24.5303 31.0635 -40.6611 38.7949 -48.3926c17.332 -17.332 28.3975 -28.1318 33.1973 -32.3984
c4.7998 -4.26562 14.5322 -11.4648 29.1973 -21.5967c28.6924 -19.8242 47.8984 -35.498 57.6182 -47.0225z" />
</svg>
