<?xml version="1.0" standalone="no"?>
<!DOCTYPE svg PUBLIC "-//W3C//DTD SVG 1.1//EN" "http://www.w3.org/Graphics/SVG/1.1/DTD/svg11.dtd" >
<svg xmlns="http://www.w3.org/2000/svg" xmlns:xlink="http://www.w3.org/1999/xlink" version="1.1" viewBox="-10 0 810 1000">
   <path fill="currentColor"
d="M428 267.2l-6.40137 -0.000976562c-1.59961 4.2666 -4.5332 8.2666 -8.7998 12l-184 149.6c-1.59961 1.06738 -3.86621 2.53418 -6.7998 4.40039s-8.93359 6.2666 -18 13.2002c-9.06641 6.93262 -17.8662 14.3994 -26.4004 22.3994
c-44.3252 41.5547 -74.7246 88.2217 -91.1992 140c-7.4668 23.4668 -11.4668 39.2002 -12 47.2002c-0.53418 8 -0.53418 14.9336 0 20.7998c76.8447 70.9336 165.911 106.4 267.199 106.4c54.9336 0 106.934 -10.5332 156 -31.6006
c49.0674 -21.0664 91.7344 -50.7998 128.001 -89.1992c18.667 -20.2666 28.667 -53.5996 30 -99.999c1.33301 -46.4004 -7.2002 -94.2676 -25.5996 -143.601s-45.0664 -87.333 -80 -114s-75.6006 -39.2002 -122 -37.5996zM191.999 167.999
c-11.7334 29.8662 -17.6006 60.5332 -17.6006 92c0 54.3994 17.0664 104.266 51.1992 149.599l159.2 -128.8c-4.7998 -2.66699 -8.2666 -6.66699 -10.3994 -12c-60.2666 3.2002 -109.6 -12.5332 -147.999 -47.2002c-17.0674 -15.4658 -28.5342 -32.7988 -34.4004 -51.999
v-1.59961zM692.798 213.599c-4.74902 -14.2461 -21.2158 -26.6582 -49.3994 -37.2373c-28.1836 -10.5801 -57.5293 -14.752 -88.0381 -12.5156s-57.6299 10.1543 -81.3633 23.7539c-23.7334 13.6006 -42 31.8672 -54.7998 54.8008c2.66699 3.7334 4 7.7334 4 12
c106.384 -5.16504 181.051 48.9678 224.001 162.398c25.6484 68.6475 31.7812 134.515 18.3994 197.601c46.4004 -67.2002 69.6006 -141.867 69.6006 -224c0 -61.333 -14.1338 -120.267 -42.4004 -176.801zM441.597 18.4004l-2.40039 -0.00195312
c-13.333 -0.53418 -27.0664 6.66602 -41.2002 21.5996s-24.4004 33.4668 -30.7998 55.5996c-6.40039 22.1338 -7.86719 45.4668 -4.40039 70c3.4668 24.5342 11.6006 46.9346 24.4004 67.2012c3.7334 -1.59961 6.93359 -2.39941 9.60059 -2.39941
s5.60059 0.533203 8.80078 1.59961c23.0664 -37.8945 57.2002 -63.3613 102.4 -76.4004c46.2041 -13.3281 92.0703 -12.1279 137.599 3.60059c7.4668 2.66699 14.9336 6.13379 22.4004 10.4004c-30.3994 -45.333 -67.4658 -82.1328 -111.199 -110.399l-2.39941 -0.799805
c-33.6006 -22.4004 -71.2012 -35.7334 -112.802 -40zM397.596 17.5977c-40 3.2002 -76.7998 15.7363 -110.399 37.6025c-33.6006 21.8662 -60.2676 49.5996 -80.001 83.2002c-6.90527 20.7158 3.49512 44.4492 31.2012 71.1992
c31.4658 29.333 76.2656 42.666 134.399 39.999c1.06738 -3.2002 2.66699 -6.13379 4.7998 -8.80078c-14.3994 -22.9326 -23.8662 -47.4658 -28.3994 -73.5996s-3.33301 -51.6006 3.59961 -76.4004c6.93359 -24.7998 17.8672 -45.4668 32.7998 -62
c3.2002 -4.2666 7.2002 -8 12 -11.2002zM291.596 33.6006c39.2002 -22.3994 83.5996 -33.5986 133.199 -33.5986c49.6006 0 95.7344 14.9336 138.401 44.7998h2.39941v0.799805c57.0674 37.333 102.4 86.5332 136 147.601c33.6006 61.0664 50.4004 126.8 50.4004 197.2
c0 54.3994 -10 105.732 -30 153.999c-21.1318 50.999 -49.2656 94.0654 -84.4004 129.199c-37.8662 39.4668 -82.3994 70.4004 -133.6 92.8008c-51.2002 22.3994 -104.667 33.5996 -160.4 33.5996s-107.866 -9.86621 -156.399 -29.5996
c-51.2295 -20.8301 -94.9629 -49.3633 -131.2 -85.6006v-3.2002c0 -5.33301 0.266602 -12.5332 0.799805 -21.5996s4.7998 -26.7998 12.7998 -53.2002c8 -26.3994 19.4668 -51.333 34.4004 -74.7998c31.4668 -49.6006 68.7998 -86.9336 112 -112
c-38.3994 -50.1338 -58.1328 -103.467 -59.2002 -160c0 -45.8662 11.7334 -89.0664 35.2002 -129.6c1.60059 -3.7334 3.2002 -6.40039 4.7998 -8l0.799805 0.799805c23.4668 -37.333 54.7998 -67.2002 94 -89.6006z" />
</svg>
