<?xml version="1.0" standalone="no"?>
<!DOCTYPE svg PUBLIC "-//W3C//DTD SVG 1.1//EN" "http://www.w3.org/Graphics/SVG/1.1/DTD/svg11.dtd" >
<svg xmlns="http://www.w3.org/2000/svg" xmlns:xlink="http://www.w3.org/1999/xlink" version="1.1" viewBox="-11 0 1022 1000">
   <path fill="currentColor"
d="M0 184h300c26 0 41.667 0.333008 47 1h1c11.7334 1.06641 19.4004 3.39941 23.001 7c14.667 9.33301 23.5 17.666 26.5 24.999s4.5 15.333 4.5 24c-2.66699 33.333 -4 55.666 -4 66.999c0 34.1113 7.33301 70.1113 22 108c19.5986 47.0381 51.5986 76.3711 96 88
c41.4531 2.8584 73.1201 -18.8086 95 -65.001c27.333 -60.1338 41 -125.467 41 -196c4.32129 -37.8057 20.8213 -60.8057 49.5 -69c11.667 -3.33301 30.5 -6 56.5 -8s106.667 -3 242 -3v95c-132 0 -214.333 1.33301 -247 4c-2 8 -4.66699 22 -8 42
c-8.86621 67.9697 -25.0332 127.637 -48.501 179c-17.667 38.667 -45.334 69.667 -83.001 93s-77.5 30.333 -119.5 21c-49.333 -12 -90.333 -38.667 -123 -80c-30.667 -37.333 -51.667 -88.333 -63 -153c-2.66699 -17.333 -4 -31.833 -4 -43.5s0.166992 -20.834 0.5 -27.501
s0.5 -11.334 0.5 -14.001h-305z" />
</svg>
