<?xml version="1.0" standalone="no"?>
<!DOCTYPE svg PUBLIC "-//W3C//DTD SVG 1.1//EN" "http://www.w3.org/Graphics/SVG/1.1/DTD/svg11.dtd" >
<svg xmlns="http://www.w3.org/2000/svg" xmlns:xlink="http://www.w3.org/1999/xlink" version="1.1" viewBox="-10 0 1020 1000">
   <path fill="currentColor"
d="M666 287l-0.00195312 1.99512c-13.333 30.667 -26.5 56.834 -39.5 78.501s-31.167 46 -54.5 73s-47 49.167 -71 66.5c-8.66699 5.33301 -17 10.666 -25 15.999c41.333 -17.333 71 -31 89 -41h1c30.667 -15.333 57.667 -33.666 81 -54.999v-1
c42.4531 -35.3779 80.1201 -74.3779 113 -117c20.667 -26.4072 31 -48.0742 31 -65h54c-0.666992 16 -3.33398 30 -8.00098 42v1l-1 1c-19.9365 38.3398 -44.0869 72.2578 -72.4512 101.755c-28.3652 29.4971 -55.7148 55.9121 -82.0479 79.2451s-56.5 43.666 -90.5 60.999
l-1 1h1l1 -1c31.333 -9.33301 69 -28 113 -56c36.667 -22 73.334 -49.333 110.001 -82s64.5 -60.334 83.5 -83.001s37.5 -48.667 55.5 -78l46 28c-20 32.667 -40.333 61.167 -61 85.5s-50.5 53.833 -89.5 88.5s-80.167 65.334 -123.5 92.001s-82.666 45.334 -117.999 56.001
h-1c-32 10 -74.333 16.667 -127 20h-1c-49.333 1.33301 -89 0 -119 -4h-1c-68 -11.333 -134.333 -49.333 -199 -114c-33.333 -33.333 -61.333 -68.5 -84 -105.5s-48 -83.833 -76 -140.5l49 -24c26.667 54.667 49 97.334 67 128.001c12 18 24.333 35.667 37 53h1
c16 17.333 29 27 39 29c17.333 2 38.666 -3.66699 63.999 -17c1.33301 -1.33301 2.33301 -2 3 -2c23.333 -14.667 43 -34 59 -58c6.66699 -10 17.5 -29.5 32.5 -58.5s22.833 -45.333 23.5 -49s1.66699 -10.5 3 -20.5l54 7c-2 14.667 -4.16699 25.5 -6.5 32.5
s-10.166 23.833 -23.499 50.5v1l-1 1c-17.333 32.667 -30 55 -38 67c-20.667 30 -45.667 54.333 -75 73c-18.667 12 -38.334 20 -59.001 24c1.33301 0.666992 2.33301 1.66699 3 3c32.667 -2 58 -5.83301 76 -11.5c31.373 -9.87695 71.04 -41.0439 119 -93.5
c15.333 -18.667 26 -32 32 -40v-1c9.33301 -14 17.333 -28.667 24 -44l19 -39c2.66699 -8 5.33398 -18 8.00098 -30l52 11c-3.33301 16 -5.83301 27 -7.5 33s-8 20.333 -19 43s-21 40.834 -30 54.501s-23.5 31.834 -43.5 54.501c-42.791 48.4961 -86.791 82.1631 -132 101
c83.3135 -10.75 151.313 -48.417 204 -113v-1c19.333 -22.667 37 -46.667 53 -72v-1c18.6279 -29.4951 32.2949 -63.8281 41 -102.999l54 11c-4 16 -9.33301 33 -16 51z" />
</svg>
