<?xml version="1.0" standalone="no"?>
<!DOCTYPE svg PUBLIC "-//W3C//DTD SVG 1.1//EN" "http://www.w3.org/Graphics/SVG/1.1/DTD/svg11.dtd" >
<svg xmlns="http://www.w3.org/2000/svg" xmlns:xlink="http://www.w3.org/1999/xlink" version="1.1" viewBox="-10 0 810 1000">
   <path fill="currentColor"
d="M416.2 16.7998c-67.2002 0 -124.669 23.7373 -172.402 71.2041s-71.5996 104.8 -71.5996 172c0 54.3994 17.0664 104.266 51.2002 149.599l159.199 -130.399c-9.06641 -5.33301 -13.5996 -11.333 -13.5996 -18s0.799805 -11.6006 2.40039 -14.8008
c1.59961 -3.2002 3.59961 -6 6 -8.39941c5.06641 -5.06641 11.1992 -7.59961 18.3994 -7.59961s13.334 2.5332 18.4014 7.59961c5.06641 5.06641 7.59961 12 7.59961 20.7998s-4.5332 15.8662 -13.5996 21.1992l-175.2 143.2l1.59961 0.799805l-8.7998 4.7998
c-12.9912 7.21777 -30.9062 22.0889 -53.7441 44.6133c-22.8369 22.5244 -41.3223 44.8535 -55.4561 66.9873c-14.1328 22.1328 -24.9326 44.9326 -32.3994 68.3994c-8.5332 26.8184 -12.7998 49.4854 -12.7998 68c35.7334 33.0674 76.667 59.0674 122.801 78
c46.1338 18.9336 95.334 28.4004 147.601 28.4004s102.666 -10.2666 151.199 -30.7998c48.5332 -20.5342 90.3994 -48.4014 125.6 -83.6016s63.0674 -77.0664 83.6006 -125.6s30.7998 -103.066 30.7998 -163.601c0 -60.5332 -16.1338 -120.133 -48.4004 -178.8
s-75.5996 -105.867 -130 -141.601l-2.39941 -0.799805c-40.5332 -27.7334 -85.8662 -41.6006 -136 -41.6006zM285.398 34.8037c40.2666 -23.2002 85.3799 -34.7979 135.335 -34.7979s96.4443 14.667 139.468 44l2.39941 0.799805l0.800781 0.799805
c56.5332 36.7998 101.733 85.8662 135.6 147.199s50.7998 127.2 50.7998 197.601c0 92.3008 -26.4004 173.101 -79.2002 242.399c-53.9229 70.7744 -121.123 119.574 -201.601 146.399c-41.6006 13.8662 -87.2012 20.7998 -136.802 20.7998
c-49.5996 0 -98.5322 -10 -146.799 -30c-52.8203 -21.8867 -96.6875 -50.2871 -131.601 -85.2002v-3.2002c0 -20.0576 4.40039 -44.1387 13.2002 -72.2432s20.3994 -53.8896 34.7988 -77.3564c32 -50.1338 69.0664 -87.4668 111.2 -112
c-38.3994 -49.6006 -57.5996 -100.4 -57.5996 -152.4s11.5996 -98 34.7998 -138s54.9336 -71.5996 95.2002 -94.7998z" />
</svg>
