<?xml version="1.0" standalone="no"?>
<!DOCTYPE svg PUBLIC "-//W3C//DTD SVG 1.1//EN" "http://www.w3.org/Graphics/SVG/1.1/DTD/svg11.dtd" >
<svg xmlns="http://www.w3.org/2000/svg" xmlns:xlink="http://www.w3.org/1999/xlink" version="1.1" viewBox="-10 0 830 1000">
   <path fill="currentColor"
d="M634 607c54.667 -58 82 -128.667 82 -212s-33 -155.666 -99 -216.999c-58.667 -54.667 -131.167 -82 -217.5 -82s-160.5 33 -222.5 99c-54.667 58.667 -82 127.334 -82 206.001c0 87.333 33 161.666 99 222.999c58.667 54.667 131.167 82 217.5 82
s160.5 -33 222.5 -99.001zM809 401.001c0 110.667 -39.5 204.667 -118.5 282s-174.167 116 -285.5 116c-24.667 0 -49.667 -2.33301 -75 -7c-92.667 -17.333 -170.667 -62.166 -234 -134.499s-95 -157.833 -95 -256.5c0.666992 -25.333 3.33398 -50.666 8.00098 -75.999
c17.333 -91.333 62.833 -168 136.5 -230s160.167 -93 259.5 -93c126.667 2.66699 230 50 310 142c62.667 73.333 94 158.999 93.999 256.998zM422.001 505.003c38 0 62.333 -23.666 72.999 -70.998l65 21c-19.333 71.333 -65 106.666 -137 105.999
c-44 0 -80.167 -14.833 -108.5 -44.5s-42.5 -71.334 -42.5 -125.001s14.333 -95.5 43 -125.5c28.667 -30.667 64.334 -46 107.001 -46c73.333 0 119 32.333 137 97l-66 16c-4 -17.333 -12 -31 -24 -41c-12.667 -10 -29.667 -15 -51 -15s-39.5 8.83301 -54.5 26.5
s-22.5 46.667 -22.5 87s7.5 69.5 22.5 87.5s34.5 27 58.5 27z" />
</svg>
