<?xml version="1.0" standalone="no"?>
<!DOCTYPE svg PUBLIC "-//W3C//DTD SVG 1.1//EN" "http://www.w3.org/Graphics/SVG/1.1/DTD/svg11.dtd" >
<svg xmlns="http://www.w3.org/2000/svg" xmlns:xlink="http://www.w3.org/1999/xlink" version="1.1" viewBox="-10 0 1020 1000">
   <path fill="currentColor"
d="M312 205c30.667 1.33301 54 11.666 69.999 31c14.667 18 20.667 40.667 18 68l17 -15c47.333 -40 95 -66 143 -78c55.333 -13.333 96 -5 122 25c14 18 20 40.667 18 68l16 -15c47.333 -40 95 -66 143 -78c55.333 -13.333 95.666 -5 120.999 25
c25.333 30.667 26.333 71.667 3 123c-20.667 45.333 -54 88 -100 128c-48 40 -96 66 -144 78c-55.333 14 -95.666 5.66699 -120.999 -25c-14.667 -18 -20.667 -40.667 -18 -68l-6 6c-4.66699 4.66699 -8.33398 7.66699 -11.001 9c-47.333 40 -95 66 -143 78
c-55.333 14 -96 5.66699 -122 -25c-14 -18 -20 -40.667 -18 -68c-10.667 10.667 -16 15.667 -16 15c-47.333 40 -95 66 -143 78c-55.333 14 -95.666 5.66699 -120.999 -25c-24.667 -30.667 -25.667 -72 -3 -124c20.667 -44.667 54.334 -87 101.001 -127
c47.333 -40 95 -66 143 -78c19.333 -4.66699 36.333 -6.66699 51 -6zM597.999 263.001c-8.01172 1.33496 -16.0117 3.00098 -24 4.99805c-40 10.667 -80 32.334 -120 65.001c-40.667 34.667 -69.334 70.334 -86.001 107.001c-13.333 30 -15 51 -5 63
c11.333 12 32.333 14 63 6c40 -10.667 80 -32.667 120 -66c40.667 -34 69.334 -69.667 86.001 -107c13.333 -30 15 -50.667 5 -62c-7.33301 -8 -20.333 -11.667 -39 -11zM895.999 262.999c-8.00488 1.33398 -15.6709 3 -22.9971 4.99805c-40 10.667 -80 32.334 -120 65.001
c-40.667 34.667 -69.334 70.334 -86.001 107.001c-13.333 30 -15 51 -5 63c11.333 12 32.666 14 63.999 6c40 -10.667 80 -32.667 120 -66c40.667 -34 69 -69.667 85 -107c14 -30 16 -50.667 6 -62c-8.66699 -8 -22.334 -11.667 -41.001 -11zM298.002 262.997
c-7.35254 1.33691 -15.3525 3.00293 -24 4.99805c-40 10.667 -79.667 32.334 -119 65.001c-41.333 34.667 -70 70.334 -86 107.001c-13.333 30 -15.333 51 -6 63c11.333 12 32.666 14 63.999 6c40 -10.667 80 -32.667 120 -66c40.667 -34 69.334 -69.667 86.001 -107
c13.333 -30 15 -50.667 5 -62c-8 -8 -21.333 -11.667 -40 -11z" />
</svg>
