<?xml version="1.0" standalone="no"?>
<!DOCTYPE svg PUBLIC "-//W3C//DTD SVG 1.1//EN" "http://www.w3.org/Graphics/SVG/1.1/DTD/svg11.dtd" >
<svg xmlns="http://www.w3.org/2000/svg" xmlns:xlink="http://www.w3.org/1999/xlink" version="1.1" viewBox="-10 0 1020 1000">
   <path fill="currentColor"
d="M0 538c156.667 0 245.667 -1.33301 267 -4c9.33301 -14 20.5 -31 33.5 -51s25.667 -39.167 38 -57.5s28.5 -37 48.5 -56s49.667 -40.5 89 -64.5c34.667 -22.667 72.667 -43.334 114 -62.001c41.333 -20 78.5996 -35.667 111.8 -47s53.6006 -17 61.2012 -17
c6.66699 0 13.334 2 20.001 6c18.1953 12.1299 23.1953 29.4629 15 51.999c-13.3057 26.6104 -48.8057 75.2773 -106.5 146c-51.667 63.333 -81.334 100.666 -89.001 111.999s-16.834 26.666 -27.501 45.999c33.333 3.33301 175 5 425 5v70
c-200 0 -323.5 -0.833008 -370.5 -2.5s-77.5 -4.16699 -91.5 -7.5c-27.333 -6.83301 -41 -21.833 -41 -45c0 -21.5557 16.333 -56.0557 49 -103.5c14 -20.333 35 -47.666 63 -81.999s55 -68.166 81 -101.499c-26 10 -49.333 20.333 -70 31
c-38.667 17.333 -75 36.833 -109 58.5s-59.875 40.4824 -77.626 56.4463s-43.209 49.6484 -76.374 101.055c-13.333 20.667 -23.666 36.5 -30.999 47.5s-16.333 19.5 -27 25.5c-7.33301 3.33301 -17.833 6.16602 -31.5 8.49902s-102.834 3.5 -267.501 3.5v-67.998z" />
</svg>
