<?xml version="1.0" standalone="no"?>
<!DOCTYPE svg PUBLIC "-//W3C//DTD SVG 1.1//EN" "http://www.w3.org/Graphics/SVG/1.1/DTD/svg11.dtd" >
<svg xmlns="http://www.w3.org/2000/svg" xmlns:xlink="http://www.w3.org/1999/xlink" version="1.1" viewBox="-10 0 1021 1000">
   <path fill="currentColor"
d="M499 387h3.00195c66.667 0 120.667 18.333 162 55c43.6865 37.5703 72.6865 93.5703 87 168c4.66699 24.2666 7 47.167 7 68.7002v42.2998l-1 9l-19 -2c5.33301 -54.667 0.166016 -107 -15.501 -157s-40.834 -90.167 -75.501 -120.5s-83 -45.5 -145 -45.5h-3
c-110.563 0 -183.23 53.667 -218 161c-8 24 -13.333 49.5 -16 76.5s-3.66699 47.833 -3 62.5l2 23l-19 2c-2.40039 -24 -2 -52 1.2002 -84c9.27832 -92.7852 39.5449 -160.785 90.7998 -204c41.333 -36.667 95.333 -55 162 -55zM498.002 228l4.00293 -0.000976562
c97.333 0 176.666 26.333 237.999 79c49.333 42 85.666 100 108.999 174c12 37.333 20.167 76.5 24.5 117.5s5.83301 73.5 4.5 97.5l-3 34l-19 -2c0.666992 -9.33301 1.5 -21.833 2.5 -37.5s-0.5 -44.667 -4.5 -87s-12 -81.166 -24 -116.499
c-50.1143 -159.454 -159.447 -239.787 -328 -241h-4c-167.799 0 -277.466 80.333 -329 241c-12 36 -20 73.833 -24 113.5s-5 71.167 -3 94.5l2 33l-20 2c-2.55176 -35.7285 -1.52344 -76.9941 3.08594 -123.797c13.2236 -134.271 57.5283 -234.005 132.914 -299.203
c61.333 -52.667 140.666 -79 237.999 -79zM2.00488 729.999c-1.33301 -9.33301 -2 -29.5 -2 -60.5s1 -58.833 3 -83.5c5.83594 -71.9766 17.8359 -134.644 36 -188.001c31.333 -97.333 79.333 -174 144 -230c81.333 -70 186.333 -105 315 -105h5
c128.667 0 233.334 35 314.001 105c97.7236 83.7637 156.557 212.764 176.499 387c6.33301 55.333 8.5 98.333 6.5 129l-3 46l-18 -2c0.666992 -4.66699 1 -11 1 -19v-48.5c0 -98.6445 -12.333 -184.145 -37 -256.5c-68.4092 -215.869 -215.076 -323.202 -440 -321.999h-5
c-124.667 0 -225.667 33.333 -303 100c-62.667 53.333 -108.667 127.333 -138 222c-15.333 48 -26 99 -32 153s-8 96 -6 126l2 45z" />
</svg>
