<?xml version="1.0" standalone="no"?>
<!DOCTYPE svg PUBLIC "-//W3C//DTD SVG 1.1//EN" "http://www.w3.org/Graphics/SVG/1.1/DTD/svg11.dtd" >
<svg xmlns="http://www.w3.org/2000/svg" xmlns:xlink="http://www.w3.org/1999/xlink" version="1.1" viewBox="-10 0 1021 1000">
   <path fill="currentColor"
d="M162 427l-11.9971 2.99805c-24.667 7.33301 -72.667 14 -144 20l-6 -60c69.333 -6.66699 114.833 -13.167 136.5 -19.5s55.5 -22.166 101.5 -47.499h1c54 -28 98 -47.167 132 -57.5s70.333 -15.5 109 -15.5c64.7158 0 129.049 11.667 192.999 35h1
c14 5.33301 34.833 15.5 62.5 30.5s43.5 23.5 47.5 25.5h1v1c32.333 16.167 66.25 29.709 101.75 40.626s56.583 17.709 63.25 20.376h1c22 8 38.333 13.667 49 17l-23 57c-10 -4 -25.333 -9.66699 -46 -17h-1c-4.66699 -2 -22 -7.33301 -52 -16
c-34.667 22 -68.834 41 -102.501 57s-82 28.833 -145 38.5s-129.333 13.167 -199 10.5s-124.834 -15.334 -165.501 -38.001c-31.333 -16 -66 -44.333 -104 -85zM514.003 312.998c-41.2842 -4.58691 -83.2842 -0.919922 -126 11.002c-30 10 -61.333 23.667 -94 41
s-56.334 29.666 -71.001 36.999c26.667 26.667 50.334 45.334 71.001 56.001h1c33.333 18 81.333 28.167 144 30.5s123 -0.833984 181 -9.50098s105 -21.334 141 -38.001c14 -6.66699 28.667 -14.667 44 -24c-35.1514 -15.2324 -65.6055 -29.874 -91.3623 -43.9238
c-25.7578 -14.0508 -46.6367 -24.4092 -62.6367 -31.0762c-44.667 -16 -90.334 -25.667 -137.001 -29zM367.003 421.999l14 -17l-14 -15l-13 15zM319.003 404.999c0 -6 1.66699 -12.667 5 -20c8.66699 -16 23 -24 43 -24c5.33301 -0.666992 11 0 17 2
c20.667 7.33301 31 21.333 31 42c-0.666992 7.33301 -2.33398 14.333 -5.00098 21c-9.33301 16.667 -23.666 25 -42.999 25c-32 -4.57129 -48 -19.9043 -48 -46zM517.003 422l13 -17l-13 -15l-14 15zM469.003 405c0 -6 1.66699 -12.667 5 -20c8.66699 -16 23 -24 43 -24
c4.66699 -0.666992 10 0 16 2c20.667 7.33301 31 21.333 31 42c-0.666992 7.33301 -2 14.333 -4 21c-9.33301 16.667 -23.666 25 -42.999 25c-32 -4 -48 -19.333 -48.001 -46zM639.004 422l13 -17l-13 -15l-14 15zM591.004 405c0.666992 -6 2.33398 -12.667 5.00098 -20
c9.33301 -16 23.666 -24 42.999 -24c4.66699 -0.666992 10 0 16 2c21.333 7.33301 32 21.333 32 42c0 7.33301 -1.66699 14.333 -5 21c-8.66699 16.667 -23 25 -43 25c-32 -4 -48 -19.333 -48 -46z" />
</svg>
