<?xml version="1.0" standalone="no"?>
<!DOCTYPE svg PUBLIC "-//W3C//DTD SVG 1.1//EN" "http://www.w3.org/Graphics/SVG/1.1/DTD/svg11.dtd" >
<svg xmlns="http://www.w3.org/2000/svg" xmlns:xlink="http://www.w3.org/1999/xlink" version="1.1" viewBox="-10 0 810 1000">
   <path fill="currentColor"
d="M262.2 0l262.396 -0.000976562h0.800781h11.1992l-3.19922 10.4004c-14.4004 58.1328 -27.2002 119.999 -38.4004 185.6c-9.60059 56.5332 -15.2002 105.866 -16.7998 148c-2.66699 50.667 0.533203 86.667 9.59961 108c6.40039 14.3994 15.2002 29.8662 26.4004 46.4004
c11.2002 16.5332 20.9336 29.7334 29.2002 39.5996s20.1328 23.0664 35.5996 39.5996c21.333 23.4668 35.7334 40.7998 43.2002 52c12.7998 18.667 19.4668 34.9336 20 48.8008c0 32.5332 -23.2002 60.5332 -69.6006 84c-47.4658 25.0664 -105.332 37.5996 -173.599 37.5996
c-67.7334 0 -125.6 -12.7998 -173.6 -38.4004c-46.4004 -24.5332 -69.6006 -52.2666 -69.6006 -83.1992c0 -13.8672 6.66699 -30.1338 20 -48.8008c8.5332 -11.2002 22.9336 -28.5332 43.2002 -52c11.2002 -12.2666 19.8672 -22.1328 26.001 -29.5996
s14 -17.0664 23.5996 -28.7998c9.60059 -11.7334 17.7344 -23.0664 24.4014 -33.999c6.66699 -10.9336 12.4004 -22 17.2002 -33.2002c9.06641 -21.333 12.2666 -57.333 9.59961 -108c-2.13379 -41.6006 -7.7334 -90.9336 -16.7998 -148
c-4.7998 -29.333 -10.3994 -59.4668 -16.7988 -90.4004c-6.40039 -30.9326 -11.4668 -54.666 -15.2002 -71.1992l-6.40039 -24zM282.196 16.7988c13.8662 56.5332 25.8691 115.203 36.0029 176.003c10.1338 58.667 16.2666 108.801 18.3994 150.401
c2.66699 53.333 -1.06641 91.4658 -11.1992 114.398c-6.93359 15.4668 -16.2666 32 -28 49.6006c-11.7334 17.5996 -21.7334 31.0664 -30 40.3994s-20.1338 23.0664 -35.6006 41.2002c-20.7998 22.9336 -35.2002 39.4668 -43.2002 49.6006
c-11.2002 15.4658 -16.5332 28.7988 -16 39.999c0 11.2002 5.33301 22.9336 16 35.2002s25.6006 23.7334 44.8008 34.4004c45.8662 24 101.199 36 165.999 36s119.866 -12 165.199 -36c19.2002 -10.667 34.1338 -22.1338 44.8008 -34.4004s16 -24 16 -35.2002
c0 -10.1338 -5.33301 -23.2002 -16 -39.2002c-8.53418 -11.2002 -22.9346 -28 -43.2012 -50.4004c-9.60059 -10.667 -16.5342 -18.5332 -20.8008 -23.5996c-4.2666 -5.06738 -10.667 -12.9346 -19.2002 -23.6016s-15.4668 -19.7334 -20.7998 -27.1992
c-5.33301 -7.4668 -11.0664 -16.2666 -17.2002 -26.4004s-11.334 -20.2676 -15.6006 -30.4014c-10.1328 -23.4658 -13.8662 -61.5986 -11.1992 -114.398c2.13281 -41.0674 8.26562 -91.2012 18.3994 -150.401c10.1338 -60.7998 22.1338 -119.467 36 -176h-233.6z" />
</svg>
