<?xml version="1.0" encoding="UTF-8" standalone="no"?>
<!-- Created with Inkscape (http://www.inkscape.org/) -->

<svg
   width="4.8647723mm"
   height="4.5083356mm"
   version="1.1"
   viewBox="0 0 4.8647723 4.5083355"
   id="svg842"
   sodipodi:docname="Roseta.svg"
   inkscape:version="1.1.2 (b8e25be833, 2022-02-05)"
   xmlns:inkscape="http://www.inkscape.org/namespaces/inkscape"
   xmlns:sodipodi="http://sodipodi.sourceforge.net/DTD/sodipodi-0.dtd"
   xmlns="http://www.w3.org/2000/svg"
   xmlns:svg="http://www.w3.org/2000/svg"
   xmlns:rdf="http://www.w3.org/1999/02/22-rdf-syntax-ns#"
   xmlns:cc="http://creativecommons.org/ns#"
   xmlns:dc="http://purl.org/dc/elements/1.1/">
  <defs
     id="defs846" />
  <sodipodi:namedview
     id="namedview844"
     pagecolor="#ffffff"
     bordercolor="#666666"
     borderopacity="1.0"
     inkscape:pageshadow="2"
     inkscape:pageopacity="0.0"
     inkscape:pagecheckerboard="0"
     inkscape:document-units="mm"
     showgrid="false"
     inkscape:zoom="30"
     inkscape:cx="10.616667"
     inkscape:cy="8.5666667"
     inkscape:window-width="1920"
     inkscape:window-height="1057"
     inkscape:window-x="-8"
     inkscape:window-y="-8"
     inkscape:window-maximized="1"
     inkscape:current-layer="svg842" />
  <metadata
     id="metadata836">
    <rdf:RDF>
      <cc:Work
         rdf:about="">
        <dc:format>image/svg+xml</dc:format>
        <dc:type
           rdf:resource="http://purl.org/dc/dcmitype/StillImage" />
      </cc:Work>
    </rdf:RDF>
  </metadata>
  <g
     transform="translate(-56.990381,-108.77631)"
     id="g840">
    <path
       style="color:#000000;clip-rule:evenodd;fill:#000000;-inkscape-stroke:none;shape-rendering:geometricPrecision"
       d="m 59.519531,108.78711 c -0.124453,-0.0277 -0.243163,0.001 -0.341797,0.0508 l -0.0059,0.004 -0.0059,0.002 c -0.09429,0.0589 -0.16332,0.12798 -0.210938,0.1875 -0.02952,0.0369 -0.05671,0.0952 -0.06641,0.1582 -0.0097,0.063 -0.0098,0.13803 -0.0098,0.25977 0,0.24347 0.0098,0.68418 0.0098,0.90039 -0.0021,0.0413 -0.0052,0.0668 -0.0078,0.082 0.0082,-0.009 -0.03706,0.004 -0.158203,0.004 -0.259999,0 -0.769409,-4.1e-4 -1.064453,0.01 H 57.6386 57.6347 c -0.147066,0.0101 -0.242605,0.0207 -0.316407,0.0352 -0.0738,0.0145 -0.130494,0.0375 -0.173828,0.0664 l -0.01172,0.006 -0.0078,0.01 c -0.06768,0.0677 -0.111464,0.15525 -0.125,0.25 -0.01189,0.0832 -0.01285,0.1734 -0.002,0.27148 l 0.002,0.006 0.002,0.008 c 0.02,0.09 0.03637,0.19833 0.115234,0.29297 0.06924,0.0831 0.164225,0.1348 0.265625,0.16015 0.101401,0.0254 0.200938,0.0234 0.460938,0.0234 h 0.898437 c 0.04053,0 0.06416,10e-4 0.08594,0.002 3.05e-4,0.0122 0,0.0153 0,0.0332 0,0.15479 -0.01031,0.48837 0,0.74609 0.01016,0.26418 0.02827,0.45003 0.07617,0.59375 0.04791,0.14372 0.14184,0.24508 0.253906,0.28711 0.09817,0.0368 0.223281,0.0637 0.351563,0.0352 0.111055,-0.0247 0.201893,-0.0751 0.273437,-0.13476 l 0.0039,-0.004 0.0039,-0.004 c 0.05589,-0.0559 0.120476,-0.14505 0.144531,-0.27735 0.02405,-0.1323 0.02148,-0.30101 0.02148,-0.54101 0,-0.24348 -0.0098,-0.55673 -0.0098,-0.70117 0,-0.013 0.0016,-0.014 0.002,-0.0234 0.0091,-1.4e-4 0.01162,0 0.02344,0 h 0.59961 c 0.209999,0 0.394957,-6e-5 0.566406,-0.0215 0.163555,-0.0204 0.322694,-0.0457 0.441406,-0.0976 l 0.002,-0.002 c 0.123321,-0.0506 0.1937,-0.14946 0.21875,-0.22461 0.02791,-0.0837 0.03735,-0.17548 0.04687,-0.24218 0.01141,-0.0799 0.01228,-0.16433 -0.01563,-0.24805 -0.02922,-0.0877 -0.08674,-0.16064 -0.164062,-0.20703 l -0.0039,-0.002 -0.0059,-0.002 c -0.06994,-0.035 -0.162084,-0.0639 -0.369141,-0.0742 -0.205807,-0.0103 -0.531802,-0.01 -0.771484,-0.01 h -0.0039 c -0.24875,-0.01 -0.413076,-0.0114 -0.486328,-0.0195 -0.0074,-8.2e-4 -0.002,9.3e-4 -0.0078,0 -0.0047,-0.0198 -0.01172,-0.0367 -0.01172,-0.13477 v -0.006 -0.004 c -0.0092,-0.11925 -0.0098,-0.34079 -0.0098,-0.55079 0,-0.21396 -0.0088,-0.40339 -0.0332,-0.52539 -0.02409,-0.12042 -0.09549,-0.19285 -0.152344,-0.24023 -0.05685,-0.0474 -0.149769,-0.14042 -0.279297,-0.18359 l -0.0059,-0.002 z m -0.06055,0.24609 c 0.05096,0.0192 0.132052,0.0817 0.19336,0.13282 0.06315,0.0526 0.05244,0.0181 0.06836,0.0977 0.0156,0.078 0.02734,0.27053 0.02734,0.47656 0,0.21 -0.0011,0.42956 0.0098,0.57032 8.24e-4,0.126 0.01267,0.19425 0.02734,0.23828 0.0076,0.0229 0.04308,0.0831 0.08789,0.10547 0.04481,0.0224 0.07791,0.0238 0.126953,0.0293 0.106161,0.0118 0.259941,0.0116 0.507812,0.0215 h 0.002 0.0039 c 0.24,0 0.570521,1.1e-4 0.763672,0.01 0.188871,0.009 0.215523,0.0229 0.263672,0.0469 0.02154,0.0141 0.04247,0.0376 0.05273,0.0684 0.01209,0.0363 0.01445,0.0727 0.0059,0.13281 -0.01047,0.0733 -0.02306,0.16098 -0.03516,0.19727 -0.01473,0.0442 -0.0035,0.0443 -0.07813,0.0742 h -0.002 l -0.002,0.002 c -0.06095,0.0271 -0.220089,0.0607 -0.375,0.0801 -0.148551,0.0186 -0.325157,0.0195 -0.535156,0.0195 h -0.59961 c -0.0325,0 -0.05957,-0.002 -0.0918,0.002 -0.03223,0.004 -0.07726,0.0134 -0.115234,0.0469 -0.03798,0.0335 -0.05389,0.0793 -0.06055,0.11523 -0.0067,0.036 -0.0078,0.0691 -0.0078,0.10938 0,0.15555 0.0098,0.46464 0.0098,0.70117 0,0.24 -0.0016,0.41034 -0.01758,0.49804 -0.01534,0.0844 -0.03189,0.0965 -0.07227,0.13672 -0.04697,0.0383 -0.09541,0.0672 -0.162109,0.082 -0.05172,0.0115 -0.147155,-2.5e-4 -0.208984,-0.0234 -0.04793,-0.018 -0.07337,-0.0365 -0.105469,-0.13282 -0.03209,-0.0963 -0.05266,-0.26957 -0.0625,-0.52539 -0.0097,-0.24228 0,-0.57112 0,-0.73632 0,-0.04 0.0017,-0.0712 -0.0039,-0.10938 -0.0056,-0.0382 -0.02719,-0.0946 -0.07227,-0.12891 -0.04508,-0.0343 -0.08812,-0.0397 -0.126953,-0.043 -0.03884,-0.003 -0.08031,-0.004 -0.132813,-0.004 H 57.84375 c -0.26,0 -0.341791,-9.8e-4 -0.400391,-0.0156 -0.0586,-0.0146 -0.104006,-0.0412 -0.134765,-0.0781 -0.01963,-0.0236 -0.04162,-0.0928 -0.06055,-0.17383 v -0.002 c -0.0088,-0.0809 -0.01,-0.15076 -0.002,-0.20703 0.0058,-0.0404 0.02305,-0.0688 0.04883,-0.0977 0.0142,-0.009 0.02423,-0.0164 0.07031,-0.0254 0.05189,-0.0102 0.1427,-0.0198 0.277344,-0.0293 h 0.02344 0.002 c 0.284955,-0.01 0.794688,-0.01 1.054687,-0.01 0.128398,0 0.207076,0.0213 0.306641,-0.043 0.04978,-0.0321 0.0802,-0.0894 0.0918,-0.13672 0.01159,-0.0474 0.01499,-0.0935 0.01758,-0.15039 v -0.002 -0.004 c 0,-0.22379 -0.0098,-0.66386 -0.0098,-0.90039 0,-0.11827 0.0025,-0.18624 0.0078,-0.2207 0.0053,-0.0345 0.0032,-0.0279 0.01367,-0.041 0.03103,-0.0388 0.08084,-0.0849 0.142578,-0.125 0.05727,-0.0279 0.113756,-0.0389 0.166015,-0.0293 z"
       id="path838" />
  </g>
</svg>
