<?xml version="1.0" standalone="no"?>
<!DOCTYPE svg PUBLIC "-//W3C//DTD SVG 1.1//EN" "http://www.w3.org/Graphics/SVG/1.1/DTD/svg11.dtd" >
<svg xmlns="http://www.w3.org/2000/svg" xmlns:xlink="http://www.w3.org/1999/xlink" version="1.1" viewBox="-10 0 1013 1000">
   <path fill="currentColor"
d="M306 28c41.333 -15.333 70.666 -22.999 87.999 -22.999h6c30 0 58.667 3.66699 86 11c46.667 12.667 70 25.667 70 39l-1 1v1c56.667 18.667 92.334 39.667 107.001 63c3.33301 5.33301 5 14 5 26c0 22 -7.33301 34 -22 36c-4.66699 0.666992 -10.334 0.666992 -17.001 0
c-8 -0.666992 -14.333 0.333008 -19 3c-8 4.66699 -16 26.667 -24 66c-17.333 85.333 -26 143.666 -26 174.999c0 34 0.666992 51 2 51v1c2.66699 -3.33301 4 -6 4 -8c24.667 -44 52.334 -108.333 83.001 -193c31.333 -86 47 -145 47 -177
c0 -12.667 -1.33301 -19.667 -4 -21c-16 -6.66699 -24 -19 -24 -37v-2c2 -20 16.333 -30 43 -30c45.333 0 107.666 34 186.999 102c64 54.667 96 109 96 163c0 8.66699 -1.33301 19.667 -4 33s-6 22 -10 26c-4.66699 4.66699 -8.66699 6.33398 -12 5.00098
c-8 -2.66699 -16.667 -7.33398 -26 -14.001c-29.333 -22 -62.666 -33 -99.999 -33c-76.667 0 -139 44.333 -187 133c-28 52 -70 118 -126 198c-30.667 49.333 -46 93.666 -46 132.999c0 2.66699 1.66699 17.334 5 44.001h-31l-2 -6
c-16.667 -60 -36.334 -118.667 -59.001 -176c-51.333 -127.333 -96.333 -202.333 -135 -225c-41.333 -24 -87.333 -43.333 -138 -58c-32 -9.33301 -56.333 -14 -73 -14c-7.33301 0 -13 1 -17 3c-10 4.66699 -18 3.33398 -24 -3.99902c-3.33301 -4 -5 -17 -5 -39
c0 -21.333 5 -47.333 15 -78c10.667 -32.667 22 -57 34 -73c12.667 -17.333 24.334 -26.666 35.001 -27.999c4 -0.666992 8 2.33301 12 9c6.66699 12 29 34.667 67 68s61 57.666 69 72.999v1c0.666992 0.666992 15.667 28.667 45 84c4 6 9.33301 14.667 16 26
c0 -8 -18.667 -50.667 -56 -128c-49.333 -102 -84 -156.667 -104 -164c-5.33301 -2 -9.33301 -5.66699 -12 -11c-1.33301 -2.66699 -2 -5.33398 -2 -8.00098c0 -10.667 12.333 -20 37 -28c26.667 -8.66699 48.6514 -13.0078 65.9531 -13.0225
c19.9346 -0.0175781 46.9502 5.65625 81.0469 17.0225zM446.52 301.521l-0.987305 -40.1025c0 -38.9404 9.24023 -79.2002 27.7197 -120.78c7.91992 -17.8193 23.0996 -38.2793 45.54 -61.3799c1.97949 -1.97949 4.94922 -6.10449 8.90918 -12.375
c3.95996 -6.26953 7.25977 -10.0645 9.89941 -11.3848h0.990234l0.990234 -0.990234c-7.08496 -7.07715 -25.6865 -14.291 -55.8047 -21.6416c-30.1182 -7.35156 -55.0771 -11.0273 -74.877 -11.0273s-32.1748 0.495117 -37.125 1.48535s-17.6553 5.11523 -38.1152 12.375
c26.7129 6.67969 43.126 12.6396 49.2393 17.8799c6.11426 5.24023 10.3262 8.35547 12.6357 9.34473c9.0166 3.86523 12.8379 9.2041 11.4648 16.0166s-4.86426 12.0332 -10.4746 15.6631s-12.3857 14.3779 -20.3262 32.2432
c-7.94043 17.8662 -15.5205 42.5938 -22.7402 74.1826c18.4795 23.7598 38.6094 53.79 60.3896 90.0898c9.24023 15.708 13.8604 37.6201 13.8604 65.7363c0 77.3955 -6.26953 130.724 -18.8096 159.984c-5.06152 12.6504 -12.3213 16.6104 -21.7803 11.8799
c-9.32031 -6.21191 -21.7148 -35.708 -37.1846 -88.4873s-23.2051 -94.4561 -23.2051 -125.031c0 -30.5742 3.95996 -66.9814 11.8799 -109.221l-0.990234 -3.95996v-6.93066c0 -2.64062 2.14453 -11.8809 6.43457 -27.7197
c4.29004 -15.8398 7.25977 -25.0801 8.90918 -27.7197c1.65039 -2.63965 2.64062 -4.62012 2.9707 -5.94043c0.329102 -1.31934 0.65918 -2.80469 0.989258 -4.45508c0.330078 -1.64941 0.990234 -3.46484 1.97949 -5.44531
c0.990234 -1.97949 2.64062 -4.4541 4.95117 -7.42383c2.30957 -2.96973 3.79492 -5.2793 4.45508 -6.92871c0.65918 -1.64941 1.81445 -3.95898 3.46484 -6.92871c1.64941 -2.96973 2.91504 -6.21582 3.7959 -9.7373c0.879883 -3.52148 2.85938 -6.82129 5.93848 -9.90039
c3.0791 -3.07812 4.94922 -4.61719 5.60938 -4.61719c0 -5.05957 -17.9854 -13.4199 -53.9551 -25.0801s-59.3994 -18.8105 -70.2891 -21.4502s-24.4199 -3.95996 -40.5898 -3.95996s-33.0781 3.04785 -50.7236 9.14355s-28.9531 11.6279 -33.9219 16.5967
c0.660156 0.65918 3.62988 2.14453 8.91016 4.45508c22.4307 9.81348 56.9131 63.0488 103.447 159.706c46.5352 96.6572 69.8027 153.477 69.8027 170.458v5.94043l-1.97949 3.95996c-6.09668 6.09668 -11.8389 6.16211 -17.2266 0.197266
c-14.7822 -16.3643 -41.0498 -62.2998 -78.8037 -137.808c-8.58008 -13.8604 -27.0605 -33.4951 -55.4404 -58.9053c-28.3799 -25.4092 -48.1797 -43.5586 -59.3994 -54.4482s-17.4893 -18.3145 -18.8086 -22.2744c-1.32031 -3.95996 -2.31055 -5.93945 -2.9707 -5.93945
l-0.990234 0.990234c-3.95996 1.31934 -11.0547 8.74414 -21.2852 22.2744c-10.2295 13.5303 -20.1289 35.4756 -29.6982 65.8359c-9.25098 29.3477 -13.877 52.6826 -13.877 70.0039c0 17.6475 0.830078 28.9629 2.49121 33.9463
c0.660156 0 2.31055 -1.15527 4.9502 -3.46484s11.3027 -3.46484 25.9883 -3.46484s42.5703 5.60938 83.6553 16.8291s83.6572 29.4189 127.718 54.5967c44.0615 25.1777 91.6611 101.689 142.799 229.534c23.7598 60.0596 44.2197 119.13 61.3799 177.21h1.98047
c-1.98047 -9.90039 -2.9707 -19.4707 -2.9707 -28.71c0 -41.5801 15.8398 -88.1104 47.5205 -139.59c7.91992 -13.2002 27.2246 -42.7354 57.915 -88.6055s53.1299 -82.5 67.3193 -109.89c14.1904 -27.3896 31.0205 -50.8193 50.4902 -70.2891
c36.7676 -36.7676 73.8926 -58.3828 111.375 -64.8457c15.1807 -3.95996 26.8955 -5.93945 35.1455 -5.93945h16.335c28.6904 2.38965 50.2178 7.60742 64.583 15.6523c14.3643 8.04492 25.3418 15.0371 32.9316 20.9775s11.7148 9.24023 12.375 9.90039
c0.660156 0.65918 1.98047 0.989258 3.95996 0.989258c5.94043 -7.42383 8.91016 -22.9336 8.91016 -46.5293c0 -49.5 -30.0303 -100.32 -90.0898 -152.46c-42.8994 -36.96 -79.1992 -62.5352 -108.899 -76.7256c-29.0244 -13.8682 -49.9336 -20.8018 -62.7275 -20.8018
c-0.297852 0 -0.59082 0.00390625 -0.878906 0.0117188c-12.7051 0.330078 -20.9551 2.14551 -24.75 5.44531c-3.8291 3.3291 -5.74316 6.72852 -5.74316 10.1982c0 8.15137 5.95703 16.3018 17.8701 24.4521c6.60645 4.40527 9.91016 14.5322 9.91016 30.3799
c0 36.4678 -17.4932 103.231 -52.4805 200.291c-25.2637 70.3779 -51.334 131.098 -78.21 182.159c-3.95996 6.60059 -6.76465 10.5605 -8.41406 11.8809c-1.65039 1.31934 -3.13574 2.63965 -4.45605 3.95996c-1.31934 1.31934 -2.30957 1.97949 -2.96973 1.97949
s-1.65039 0.330078 -2.96973 0.990234h-2.9707c-9.89941 -1.65039 -14.8496 -16.2529 -14.8496 -43.8086c0 -47.4834 5.61035 -100.067 16.8301 -157.753s18.9746 -92.1387 23.2646 -103.358s10.0654 -18.8096 17.3252 -22.7695s15.5098 -5.61035 24.75 -4.95117
c9.24023 0.660156 14.5205 0.990234 15.8398 0.990234c5.94043 -1.48535 8.91016 -7.13672 8.91016 -16.9541s-1.98047 -18.6855 -5.94043 -26.6055s-20.8311 -19.0996 -50.6133 -33.54c-24.4619 -11.8604 -39.9355 -17.791 -46.4209 -17.791
c-1.41016 0 -2.39551 0.280273 -2.95508 0.84082c-19.7998 11.2197 -38.4443 36.96 -55.9336 77.2197c-17.4902 40.2607 -26.2354 78.541 -26.2354 114.841v38.6104l0.989258 0.990234h0.990234c10.8818 13.6025 25.7871 50.5352 44.7158 110.798
c9.43652 30.0439 14.1543 60.373 14.1543 90.9863c0 30.79 -4.77344 61.8682 -14.3193 93.2344c-8.81543 29.0918 -21.6855 53.5117 -38.6104 73.2607c-5.28027 5.28027 -10.2305 7.91992 -14.8506 7.91992c-7.25879 0 -13.8584 -6.27051 -19.7988 -18.8105
c-12.54 -26.4717 -18.8096 -60.1318 -18.8096 -100.98c0 -9.90039 0.495117 -17.6553 1.48438 -23.2656c0.990234 -5.61035 3.13574 -17.9854 6.43555 -37.125s5.77441 -36.2998 7.42383 -51.4795c1.64941 -15.1807 3.95898 -33.6611 6.92871 -55.4414
c4.9502 -36.2979 7.4248 -66.8232 7.4248 -91.5752zM352.002 227.993c-5.64746 37.1768 -8.4707 66.5459 -8.4707 88.1094c0 8.98535 0.490234 16.6152 1.4707 22.8896c12.667 82.667 28.667 140.334 48 173.001v-1c12 -28 18 -66.7656 18 -116.297s-4 -81.6982 -12 -96.5
s-23.667 -38.2031 -47 -70.2031zM457.002 323.992c-4.66699 75.333 -9.83203 130.494 -15.499 165.494c-6.01855 37.1729 -9.02734 61.5459 -9.02734 73.1191c0 12.3652 2.67578 30.8252 8.02734 55.3809c5.66699 26 10.5 41 14.5 45
c3.33301 -1.33301 8.66602 -7.16602 15.999 -17.499s15.166 -28.666 23.499 -54.999s12.5 -54.666 12.5 -84.999s-5.5 -62.666 -16.5 -96.999s-19.167 -56.666 -24.5 -66.999s-8.16602 -15.666 -8.49902 -15.999s-0.5 -0.833008 -0.5 -1.5z" />
</svg>
