<?xml version="1.0" standalone="no"?>
<!DOCTYPE svg PUBLIC "-//W3C//DTD SVG 1.1//EN" "http://www.w3.org/Graphics/SVG/1.1/DTD/svg11.dtd" >
<svg xmlns="http://www.w3.org/2000/svg" xmlns:xlink="http://www.w3.org/1999/xlink" version="1.1" viewBox="-10 0 821 1000">
   <path fill="currentColor"
d="M400.8 0c54.4004 0 106.266 10.5342 155.599 31.6006c49.333 21.0674 91.8662 49.4678 127.6 85.2012s64.1338 78.4004 85.2012 128c21.0664 49.6006 31.5996 98.667 31.5996 147.2s-6.7998 93.333 -20.3994 134.4c-13.6006 41.0664 -32.667 77.8662 -57.2002 110.399
s-53.2002 61.0664 -86 85.6006c-69.165 51.7334 -147.965 77.5996 -236.399 77.5996c-54.3994 0 -106.266 -10.5332 -155.599 -31.5996c-49.333 -21.0674 -91.8662 -49.4678 -127.6 -85.2012s-64.1328 -78.2666 -85.1992 -127.6
c-21.0674 -49.333 -31.6006 -101.066 -31.6006 -155.199c0 -54.1338 10.5332 -106.001 31.6006 -155.602c21.0664 -49.5996 49.4658 -92.2666 85.1992 -128s78.2666 -64.1338 127.6 -85.2012c49.333 -21.0664 101.199 -31.5996 155.599 -31.5996zM591.998 390.401h192v16
h-192v-16zM386.398 598.401l16.0049 -0.00195312v185.597c51.6816 -0.205078 100.014 -9.96484 144.996 -29.2793s83.7246 -44.0771 116.227 -74.2891l-163.624 -162.829l12 -12l163.395 163.395c32.9951 -33.5146 59.4785 -73.6592 79.4492 -120.433
s29.9561 -96.1602 29.9561 -148.16s-10.0352 -101.504 -30.1055 -148.511s-46.8379 -87.501 -80.3018 -121.482l-162.393 162.393l-12 -11.2002l163.034 -162.243c-32.3701 -30.1807 -70.9814 -54.9004 -115.834 -74.1592s-93.1191 -28.9902 -144.801 -29.1953v184.797h-16
v-184.537c-98.5566 3.60742 -183.435 40.2422 -254.634 109.904l155.434 155.434l-11.2002 11.2002l-155.339 -155.339c-66.8301 70.6562 -101.412 154.97 -103.747 252.94h178.286v16h-178.35c1.56348 98.6104 35.8984 183.725 103.005 255.343l156.145 -156.145
l11.2002 12l-155.894 155.894c13.2217 13.0439 31.4424 28.3232 54.6621 45.8369s53.2949 32.2998 90.2256 44.3594s73.665 18.7441 110.203 20.0547v-185.343z" />
</svg>
