<?xml version="1.0" encoding="UTF-8" standalone="no"?>
<!-- Creator: CorelDRAW -->

<svg
   xml:space="preserve"
   width="10.601937mm"
   height="2.1136782mm"
   style="clip-rule:evenodd;fill-rule:evenodd;image-rendering:optimizeQuality;shape-rendering:geometricPrecision;text-rendering:geometricPrecision"
   viewBox="0 0 0.66601914 0.13278266"
   version="1.1"
   id="svg31"
   sodipodi:docname="Marca ondulada de interferencia.svg"
   inkscape:version="1.1.2 (b8e25be833, 2022-02-05)"
   xmlns:inkscape="http://www.inkscape.org/namespaces/inkscape"
   xmlns:sodipodi="http://sodipodi.sourceforge.net/DTD/sodipodi-0.dtd"
   xmlns="http://www.w3.org/2000/svg"
   xmlns:svg="http://www.w3.org/2000/svg"><sodipodi:namedview
   id="namedview33"
   pagecolor="#ffffff"
   bordercolor="#666666"
   borderopacity="1.0"
   inkscape:pageshadow="2"
   inkscape:pageopacity="0.0"
   inkscape:pagecheckerboard="0"
   inkscape:document-units="mm"
   showgrid="false"
   inkscape:zoom="42.557313"
   inkscape:cx="20.055308"
   inkscape:cy="3.9946131"
   inkscape:window-width="1920"
   inkscape:window-height="1057"
   inkscape:window-x="-8"
   inkscape:window-y="-8"
   inkscape:window-maximized="1"
   inkscape:current-layer="SIMBOLOS" />
 <defs
   id="defs24">
  <style
   type="text/css"
   id="style22">
   <![CDATA[
    .str0 {stroke:black;stroke-width:0.0219872}
    .fil0 {fill:none}
   ]]>
  </style>
 </defs>
 <g
   id="SIMBOLOS"
   inkscape:label="SIMBOLOS"
   inkscape:groupmode="layer"
   transform="translate(-7.5992171e-7,-1.0722359e-4)">
  <metadata
   id="CorelCorpID_0Corel-Layer" />
  <g
   id="_262707032">
   <path
   id="_262707296"
   style="color:#000000;clip-rule:nonzero;fill:#000000;fill-rule:nonzero;stroke-width:60.1638;-inkscape-stroke:none;shape-rendering:auto"
   d="M 13.634766,0.0078125 C 12.907385,0.01822908 12.171385,0.08891552 11.398438,0.234375 9.6313747,0.56684299 7.7208492,1.3300536 5.7578125,2.4667969 3.7947933,3.6031328 1.866747,5.0799529 0,6.5800781 L 0.82226562,7.6386719 C 1.3553223,7.2103057 1.8852675,6.7774572 2.4121094,6.3535156 3.9702616,7.0131053 5.5043809,7.6190781 7.2851562,7.8730469 9.1787748,8.142761 11.236528,7.9568732 13.160156,7.4023438 15.083369,6.8478745 16.916119,5.9004142 18.332031,5.0527344 19.631552,4.2745213 20.51967,3.5995126 21.388672,2.8925781 c 0.03846,0.014902 0.0769,0.029793 0.115234,0.044922 1.76124,0.6948223 3.421472,1.7037954 5.052735,2.46875 1.631418,0.7646454 3.183631,1.282447 4.701171,1.6445312 1.517174,0.3620656 3.100643,0.5761424 4.464844,0.46875 C 37.086653,7.4116577 38.21,6.953798 38.894531,6.6972657 c 0.68464,-0.2569594 0.908721,-0.3351864 1.175781,-0.46875 L 39.482422,5.0527344 C 39.215836,5.1860392 39.074533,5.2799607 38.425781,5.5234375 37.776903,5.7665894 36.774511,6.0188805 35.605469,6.1113281 34.435873,6.2034389 33.025107,6.0956916 31.609375,5.7578125 30.193261,5.4199316 28.712844,4.9655358 27.144531,4.2304688 25.576047,3.4949528 23.846245,2.5000924 21.974609,1.7617188 20.102514,1.0229311 18.159082,0.50747038 16.451172,0.234375 15.49032,0.08055147 14.56997,-0.00558024 13.634766,0.0078125 Z m 0.140625,1.3085937 c 0.78886,-0.00397 1.577936,0.072705 2.441406,0.2109376 1.141521,0.1825298 2.419338,0.46074 3.689453,0.8515624 C 19.246186,2.9128807 18.538784,3.450047 17.626953,3.9960938 16.296672,4.7925074 14.584775,5.5992334 12.808594,6.1113281 11.032067,6.6234175 9.1889316,6.817577 7.5214844,6.5800781 6.2090281,6.3929005 4.9335404,5.9206871 3.640625,5.3828125 4.5432085,4.6884442 5.4423239,4.0483311 6.3457031,3.5253906 8.1825932,2.4616946 10.033094,1.8283268 11.632812,1.5273438 12.382483,1.3862644 13.079337,1.3199051 13.775391,1.3164062 Z"
   transform="scale(0.0166213)" />
   
  </g>
 </g>
</svg>
