<?xml version="1.0" standalone="no"?>
<!DOCTYPE svg PUBLIC "-//W3C//DTD SVG 1.1//EN" "http://www.w3.org/Graphics/SVG/1.1/DTD/svg11.dtd" >
<svg xmlns="http://www.w3.org/2000/svg" xmlns:xlink="http://www.w3.org/1999/xlink" version="1.1" viewBox="-10 0 1020 1000">
   <path fill="currentColor"
d="M1000 274l-15 47c-25.333 -8 -48.5 -12 -69.5 -12s-40 3.16699 -57 9.5s-43.667 20.666 -80 42.999s-68.833 36.5 -97.5 42.5s-57.334 2 -86.001 -12c-17.333 -8 -40.5 -26.5 -69.5 -55.5s-49.667 -46 -62 -51s-25.666 -7.5 -39.999 -7.5s-32.666 3.83301 -54.999 11.5
s-62.833 28.167 -121.5 61.5l-24 -44c60.667 -32.667 104.334 -53.834 131.001 -63.501s51.334 -14.834 74.001 -15.501c24 0.666992 45.167 6.16699 63.5 16.5s40.333 28.333 66 54s46.667 42.5 63 50.5s34.666 9.83301 54.999 5.5s47.333 -17 81 -38
s61.834 -35.667 84.501 -44s49.334 -12.833 80.001 -13.5c22 0.666992 48.332 5.66797 78.9961 15.0029zM779.004 428.997l-14 47c-50.292 -14.5586 -93.292 -15.2256 -129 -2c-18 6.66699 -43.833 20.5 -77.5 41.5s-65.5 35.167 -95.5 42.5s-60 4 -90 -10
c-17.333 -8.66699 -40.666 -27.5 -69.999 -56.5s-50.166 -46 -62.499 -51s-25.5 -7.5 -39.5 -7.5s-32.333 4 -55 12s-63.334 28.667 -122.001 62l-24 -44c60.667 -33.333 104.334 -54.833 131.001 -64.5s51.334 -14.834 74.001 -15.501
c24 0.666992 45.333 6.33398 64 17.001s40.834 28.834 66.501 54.501s45.5 41.834 59.5 48.501c33.5693 15.585 74.9023 8.41797 124 -21.501c21.333 -13 32.333 -19.667 33 -20s3.33398 -2 8.00098 -5s7.66699 -4.83301 9 -5.5s4.16602 -2.16699 8.49902 -4.5
s8.63867 -4.72168 12.917 -7.16602c4.27734 -2.44434 12.8047 -6.22168 25.583 -11.333c52.1543 -16.915 106.486 -16.582 162.996 0.998047z" />
</svg>
