<?xml version="1.0" standalone="no"?>
<!DOCTYPE svg PUBLIC "-//W3C//DTD SVG 1.1//EN" "http://www.w3.org/Graphics/SVG/1.1/DTD/svg11.dtd" >
<svg xmlns="http://www.w3.org/2000/svg" xmlns:xlink="http://www.w3.org/1999/xlink" version="1.1" viewBox="-10 0 1021 1000">
   <path fill="currentColor"
d="M615 383h228v21h-228v-21zM144 374l238 9v21l-239 -9zM490 143c-96 3.33301 -194.999 34.3301 -296.999 92.9971c-41.333 24 -77 50.167 -107 78.5s-50.667 54.166 -62 77.499c10.667 23.333 31.334 49.166 62.001 77.499s66.667 54.833 108 79.5
c102 59.333 200.667 90.333 296 93c3.39648 0.100586 6.80859 0.151367 10.2373 0.151367c87.4268 0 185.348 -32.7168 293.763 -98.1504c41.333 -25.333 78.333 -52.166 111 -80.499s55.334 -52.166 68.001 -71.499c-12.667 -19.333 -35.334 -43.166 -68.001 -71.499
s-69.667 -55.166 -111 -80.499c-108.375 -64.7686 -206.264 -97.1523 -293.666 -97.1523c-3.46191 0 -6.90723 0.0507812 -10.3359 0.152344zM489.001 121.997c4.2041 -0.150391 8.43262 -0.224609 12.6846 -0.224609c90.1328 0 190.905 33.7422 302.316 101.226
c45.333 27.333 85.666 56.166 120.999 86.499s59.333 56.166 72 77.499l3 5l-3 6c-13.333 21.333 -37.333 47 -72 77s-75 58.667 -121 86c-112.386 67.4316 -213.945 101.147 -304.679 101.147c-3.45605 0 -6.89648 -0.0488281 -10.3213 -0.146484
c-98.667 -3.33301 -200 -35 -304 -95c-45.333 -26.667 -84.333 -55 -117 -85s-54.667 -58.667 -66 -86l-2 -4l2 -4c11.333 -27.333 33 -56 65 -86s71 -58.333 117 -85c104 -60 205.667 -91.667 305 -95z" />
</svg>
