<?xml version="1.0" standalone="no"?>
<!DOCTYPE svg PUBLIC "-//W3C//DTD SVG 1.1//EN" "http://www.w3.org/Graphics/SVG/1.1/DTD/svg11.dtd" >
<svg xmlns="http://www.w3.org/2000/svg" xmlns:xlink="http://www.w3.org/1999/xlink" version="1.1" viewBox="-10 0 810 1000">
   <path fill="currentColor"
d="M361.124 147.62c5.61621 1.86426 8.88184 2.9541 9.79785 3.27148c0.915039 0.317383 3.97656 -0.652344 9.18457 -2.9082s11.8379 -3.38379 19.8887 -3.38379s18.6465 2.58691 31.7861 7.76074c2.77344 -1.87793 5.71777 -3.40137 8.83203 -4.57031
c-3.43164 -1.3623 -7.20508 -3.96777 -11.3203 -7.81641c-4.11621 -3.84863 -6.84082 -8.04004 -8.17383 -12.5732c-1.33301 -4.53418 -0.666016 -7.86719 2.00098 -10v-0.800781c0.329102 -0.262695 0.671875 -0.499023 1.02832 -0.708984
c-9.12012 -5.86328 -16.6631 -9.09277 -22.6289 -9.68945c-7.23145 0.657227 -16.0986 4.04297 -26.6025 10.1572c0.359375 0.307617 0.693359 0.655273 1.00293 1.04199v1.59961c4.3584 5.44824 2.0918 12.915 -6.7998 22.4004
c-2.55664 2.72656 -5.22168 4.7998 -7.99609 6.21973zM400.72 90.999h1.60156c2.45312 0 6.28613 0.700195 11.499 2.10156c0.787109 -2.06738 0.6875 -3.83496 -0.299805 -5.30176c-0.34668 -1.2002 -2.21289 -1.4668 -5.59961 -0.799805l0.799805 -15.2002
c14.8535 0.799805 21.5234 7.69727 20.0107 20.6924c28.1797 -31.6621 54.1631 -51.2188 77.9512 -58.6689c23.5459 -7.88281 46.0918 -19.2246 67.6387 -34.0244h0.799805l8 12h-0.799805c-26.2139 22.7998 -45.8672 36.4453 -58.96 40.9365
c-12.9072 4.8418 -30.8545 16.7959 -53.8418 35.8623l-24.6133 21.6123c22.0625 19.1924 26.2666 34.1221 12.6133 44.7891c-1.67969 1.33301 -4.87988 2.93262 -9.59961 4.79883l0.799805 0.799805c12.1865 6.93359 24.9863 21.0674 38.3994 42.4004
c1.25293 2 2.67188 5.7959 4.25586 11.3867l17.3438 -4.18652l9.60059 -68l64 -42.4004v-0.799805l9.59961 12l-46.4004 44c-2.34668 41.333 -7.14648 65.0664 -14.3994 71.2002l-26.2812 24.8604c5.78711 5.64746 8.68066 17.5127 8.68066 35.5957v13.1436
c0.320312 3.4668 1.36426 6.1123 3.13281 7.9375c22.8984 -5.8252 37.3213 -4.4707 43.2676 4.0625c13.3867 10.7998 35.7871 40.3994 67.2002 88.7988l67.2002 60v0.800781l0.799805 0.799805l-9.60059 12l-0.799805 -0.799805l-78.3994 -51.2002
c-1.54688 -2.7998 -10.1689 -15.2441 -25.8672 -37.333c-15.6357 -21.9111 -24.6133 -33.8662 -26.9336 -35.8662c-3.0127 -2.66699 -7.95215 -3.48828 -14.8174 -2.46387c10.1982 36.3096 13.8037 74.3311 10.8164 114.064
c-0.34668 4.2666 -0.424805 8.3623 -0.235352 12.2871c21.1436 14.7422 30.8223 22.9131 29.0361 24.5137c-46.1426 43.001 -70.3428 64.0674 -72.6006 63.1992c65.5205 24.9336 83.5869 54.1338 54.2002 87.6006c-9.94629 11.2002 -15.2021 17.8242 -15.7676 19.873
c-0.767578 1.95117 -1.22266 3.14844 -1.36426 3.5918c-0.524414 0.223633 -0.524414 1.3418 0 3.35449c0.141602 13.3203 0.25293 21.3652 0.333008 24.1357v27.0449l0.799805 15.5996v3.60059l29.5996 44.7998h0.800781l-11.2002 9.59961l-52.7998 -56l-0.800781 -87.2002
c7.65332 -7.06641 18.4238 -20.5029 32.3115 -40.3105c23.4463 -32.1924 35.0762 -51.0225 34.8896 -56.4893l-30.668 -31.2695c-4.03418 38.3135 -9.74023 65.0742 -17.1172 80.2832c-7.29004 15.458 -14.1611 26.1865 -20.6143 32.1865
c-5.27148 5.70215 -10.7383 9.96875 -16.4004 12.7998l-16.7998 8.40039c-6.08008 1.86621 -12.3467 4.39941 -18.7998 7.59961c-6.87988 2.7998 -13.1465 5.4668 -18.7998 8c-5.67969 2.13379 -10.8799 4.26758 -15.5996 6.40137
c-9.94629 3.86621 -15.6797 5.86621 -17.2002 6v1.59961h-4l-0.799805 -0.799805c-27.9463 -11.333 -52.7461 -21.4668 -74.3994 -30.4004c-22.3467 -9.7334 -38.0801 -23.8662 -47.2002 -42.3994c-10.8799 -22.1338 -18.083 -53.5508 -21.6094 -94.252
c-17.1396 17.3682 -29.1367 29.3184 -35.9902 35.8516c0.186523 4.13379 10.0537 19.8672 29.6006 47.2002l36.7998 48l1.59961 1.59961l-0.799805 87.2002l-52 55.2002l-0.799805 0.799805l-12 -9.59961h0.799805l30.4004 -45.6006v-29.5996
c-0.213867 -26.667 0.319336 -40.8008 1.59961 -42.4014l-7.2002 -12c-0.479492 -0.399414 -4.0791 -4.66602 -10.7988 -12.7998c-30.6133 -35.2002 -46.6621 -63.4463 -48.1475 -84.7393c-1.84863 -26.04 11.4004 -50.8604 39.7471 -74.4609
c6.32031 -5.06641 11.1201 -8.93262 14.4004 -11.5996c3.38672 -2.66699 5.52051 -4.40039 6.40039 -5.2002l1.59961 -0.799805l1.77637 -1.1416c-1.13086 -52.5723 2.13867 -93.1855 9.80957 -121.839c-9.00391 -4.0127 -14.7324 -4.35254 -17.1855 -1.01953
c-2.87988 2.66699 -5.01367 5.06738 -6.40039 7.20117c-1.28027 1.86621 -4.34668 5.86621 -9.2002 12c-8.47949 11.2002 -13.1465 17.333 -14 18.3994l-24 36l-0.799805 1.60059l-78.4004 51.2002l-1.59961 0.799805l-8.7998 -12l0.799805 -0.799805v-0.800781l67.2002 -60
c9.91992 -13.7334 19.2529 -26.7998 28 -39.1992c19.2529 -26.9336 32.0527 -43.4668 38.3994 -49.6006c5.65332 -5.2002 15.5205 -7.33301 29.6006 -6.39941l16.9717 3.08496c3.61816 -3.35938 5.42773 -6.42676 5.42773 -9.20312v-7.48242
c0.320312 -0.533203 3.03027 -13.4971 8.12891 -38.8906c-11.7656 -10.6064 -20.1426 -18.3818 -25.1299 -23.3262c-4.3457 -5.05566 -7.6123 -11.6504 -9.79883 -19.7842c-3.81348 -17.8662 -6.34668 -36.1328 -7.59961 -54.7998l-46.4004 -42.4004l-1.59961 -1.59961
l8.7998 -12l64 43.2002l9.59961 68l21.6963 5.42383c1.85645 -5.74902 3.4248 -9.95703 4.70508 -12.624c6.71973 -17.333 19.2529 -31.4668 37.5996 -42.4004v-0.799805h0.800781c-5.54688 -2.5332 -9.41406 -5.06641 -11.6006 -7.59961
c-2.47949 -2.13379 -3.94629 -6.66699 -4.39941 -13.6006c-0.879883 -8.39941 5.01074 -17.6758 17.6729 -27.8291c-35.3291 -31.8467 -59.2979 -50.0791 -71.9062 -54.6982c-18.0586 -6.04785 -40.7812 -20.8047 -68.168 -44.2715l8.7998 -12h0.799805
c21.6533 14.7998 42.7197 25.7334 63.1992 32.7998c20.8535 6.93359 41.9199 20.8008 63.2002 41.6006l19.3301 19.8828c-0.833008 -5.38867 0.421875 -10.3691 3.76465 -14.9424c3.32324 -4.09375 8.4248 -6.54102 15.3047 -7.34082l0.799805 15.2002
c-2.74707 0 -4.61426 0.266602 -5.60156 0.799805c-0.34668 0.133789 -0.111328 2.1416 0.706055 6.02441c5.84961 -1.88281 10.6807 -2.82422 14.4941 -2.82422zM512.721 223.799l-16 3.99902l3.2002 8c1.70215 -1.16797 3.83594 -3.03418 6.40039 -5.59863z
M527.921 179.398l-3.99902 25.1992c2.71973 -9.7334 4.05273 -18.1328 3.99902 -25.1992zM550.722 322.598c-0.479492 -1.06641 -3.18848 -1.85156 -8.13086 -2.35547c-4.3916 -0.829102 -7.82031 -0.841797 -10.2861 -0.0380859
c-2.20117 0.529297 -3.55469 0.921875 -4.05957 1.17871c0.504883 0.410156 0.865234 0.948242 1.08008 1.61523h0.998047l4.7998 11.2002c11.2529 -4.7998 20.3193 -4 27.1992 2.39941c-6.87988 -8.39941 -10.7471 -13.0664 -11.6006 -14zM528.724 741.398
l-0.800781 -26.4004c0.0537109 -24.667 -0.212891 -38.5332 -0.799805 -41.5996c-0.743164 -2.9209 0.19043 -6.12109 2.80078 -9.60059l8.40039 -11.2002c11.7861 -15.0664 18.9863 -24.666 21.5996 -28.7998c6.05371 -7.2002 13.5205 -21.333 22.4004 -42.3994
c-7.54688 13.7334 -27.0137 40.1328 -58.4004 79.1992l0.799805 76.8008zM288.723 224.598c2.85352 2.93359 6.85352 6.40039 12 10.4004l3.2002 -7.2002zM270.323 321.398l-4.80176 -0.799805c-11.0127 0.266602 -16.7725 0.786133 -17.2783 1.55859
c-0.827148 1.22754 -3.86719 4.97461 -9.12012 11.2412c7.25293 -3.60059 15.2529 -3.33398 24 0.799805l4.7998 -11.2002h1.59961zM215.922 581.399c9.38672 21.0664 16.0518 34.2676 19.998 39.6006c4.05371 5.33301 8.58691 11.1992 13.5996 17.5986
c4.9873 6.93359 8.85449 12.1338 11.6016 15.6006c6.58691 8.5332 9.78711 15.4541 9.60059 20.7637c-0.479492 5.35742 -0.746094 14.7031 -0.799805 28.0361c0.0537109 13.333 -0.0800781 21.333 -0.400391 24v14.4004l4 -4l0.800781 -76.8008
c-30.8799 -39.0664 -50.3467 -65.4658 -58.4004 -79.1992zM587.55 572.53c-1.7002 2.97949 -2.91016 5.13672 -3.62988 6.46973c1.38672 -2.66699 2.59668 -4.82324 3.62988 -6.46973zM210.69 572.531c0.873047 1.64648 2.08301 3.80176 3.62988 6.46875
c-0.213867 -1.33301 -1.42383 -3.48926 -3.62988 -6.46875zM434.32 170.2c-12.2139 -7.4668 -22.6611 -11.2012 -31.3369 -11.2012c-8.65723 0 -18.5918 2.28516 -29.8037 6.85547c-1.4541 1.42969 -2.88477 2.50391 -4.29199 3.22168
c-1.92578 0.615234 -3.18164 1.25586 -3.76855 1.92285c-0.74707 0.666992 -1.54688 1.06738 -2.40039 1.20117c-0.479492 0.533203 -1.14648 0.933594 -2 1.2002c-15.1465 9.06641 -25.9463 21.5996 -32.3994 37.5996c-12.8799 34 -20.5908 59.0664 -23.1318 75.2002
h54.7314l14.4004 13.5996h52.7998l16.7998 -16h53.4893c-0.272461 -1.2002 -3.0957 -11.9092 -8.46973 -32.127c-2.62598 -11.1152 -7.76562 -25.7393 -15.4189 -43.873c-5.0127 -12.5332 -18.0791 -25.0664 -39.1992 -37.5996zM498.396 298.199h-48.8818l-16 16.7998
h-25.5996v271.2l90.1035 43.916c18.6514 -18.0771 30.1523 -56.2832 34.5029 -114.618l-0.606445 0.302734l2.19922 -35.7305c-0.0791016 -2.0459 -0.0117188 -8.53613 0.202148 -19.4697c0.453125 -59.7334 -5.41406 -102.667 -17.6006 -128.801
c-1.81348 -3.86621 -5.54688 -8.5332 -11.2002 -14c-5.0127 -5.86621 -7.53809 -10.4316 -7.57617 -13.6953c0.0380859 -3.40332 0.19043 -5.37109 0.457031 -5.9043zM316.693 640.26c8.20117 5.82617 36.4746 17.9395 84.8213 36.3389
c10.9873 -5.06641 26.7207 -11.5996 47.2002 -19.5996c20.8535 -8.66699 33.0879 -14.1025 36.7041 -16.3076l-85.5039 -41.6924zM304.501 629.611l88.2148 -42.6133v-272h-24.7998l-14.4004 -14.4004h-49.1914c-0.21875 5.60059 -3 11.1797 -8.34375 16.7373
c-5.32324 5.10938 -9.07812 9.66406 -11.2646 13.6641c-11.8135 22 -17.2803 66.7998 -16.4004 134.4c1.12012 86.3994 13.1816 141.137 36.1855 164.212z" />
</svg>
