<?xml version="1.0" standalone="no"?>
<!DOCTYPE svg PUBLIC "-//W3C//DTD SVG 1.1//EN" "http://www.w3.org/Graphics/SVG/1.1/DTD/svg11.dtd" >
<svg xmlns="http://www.w3.org/2000/svg" xmlns:xlink="http://www.w3.org/1999/xlink" version="1.1" viewBox="-10 0 1020 1000">
   <path fill="currentColor"
d="M0 229h999v52h-14l-141 68l96 141l-48 30h108v52h-999v-52h57l74 -46l-100 -145l99 -48h-131v-52zM250 281l-142 68l97 141l-50 30h151l73 -46l-100 -145l100 -48h-129zM498 281l-142 68l96 141l-49 30h151l75 -46l-100 -145l99 -48h-130zM747 281l-142 68l97 141l-50 30
h140l75 -46l-99 -145l98 -48h-119z" />
</svg>
