<?xml version="1.0" standalone="no"?>
<!DOCTYPE svg PUBLIC "-//W3C//DTD SVG 1.1//EN" "http://www.w3.org/Graphics/SVG/1.1/DTD/svg11.dtd" >
<svg xmlns="http://www.w3.org/2000/svg" xmlns:xlink="http://www.w3.org/1999/xlink" version="1.1" viewBox="-11 0 821 1000">
   <path fill="currentColor"
d="M399.8 1.7998c54.4004 0 106.265 10.5381 155.598 31.6055c49.333 21.0664 91.8662 49.4658 127.6 85.1992s64.1338 78.2666 85.2012 127.6c21.0664 49.333 31.5996 100.933 31.5996 154.799s-10.5332 105.466 -31.5996 154.799
c-21.0674 49.333 -49.6006 91.8662 -85.6006 127.6s-78.5332 64.1328 -127.6 85.1992c-49.0664 21.0674 -100.8 31.6006 -155.2 31.6006c-54.3994 0 -106.266 -10.5332 -155.599 -31.6006c-49.333 -21.0664 -91.8662 -49.4658 -127.6 -85.1992
s-64.1328 -78.1338 -85.1992 -127.2c-21.0674 -49.0674 -31.6006 -100.935 -31.6006 -155.602s10.5332 -106.4 31.6006 -155.2c21.0664 -48.7998 49.5996 -91.0664 85.5996 -126.8s78.5332 -64.1328 127.6 -85.1992c49.0674 -21.0674 100.801 -31.6006 155.2 -31.6006z
M548.997 48.2051c-47.2002 -20.2666 -94.2695 -30.3984 -141.203 -30.3984c-46.9326 0 -89.999 6.5332 -129.199 19.6006c-75.9795 25.3262 -138.774 70.876 -188.385 136.65s-74.415 141.157 -74.415 226.149c0 52.2666 10.1338 102.267 30.4004 150
s47.5996 88.667 82 122.801c34.3994 34.1338 75.1992 61.2002 122.399 81.2002s96.9336 30 149.2 30s102 -10 149.2 -30s87.8672 -47.0664 122.001 -81.2002s61.4668 -75.0674 82 -122.801s30.7998 -97.6006 30.7998 -149.601s-10.1328 -101.6 -30.3994 -148.8
s-47.5996 -87.8672 -81.999 -122.001c-34.4004 -34.1338 -75.2002 -61.334 -122.4 -81.6006zM395.794 241.807c42.667 0 79.2002 15.0664 109.601 45.2002c30.3994 30.1338 45.5996 66.5342 45.5996 109.201s-15.2002 79.334 -45.5996 110.001
c-30.4004 30.667 -66.9336 46 -109.601 46s-79.0674 -15.333 -109.201 -46c-30.1328 -30.667 -45.1992 -67.334 -45.1992 -110.001s15.0664 -79.0674 45.1992 -109.201c30.1338 -30.1338 66.5342 -45.2002 109.201 -45.2002z" />
</svg>
