<?xml version="1.0" encoding="UTF-8" standalone="no"?>
<!-- Created with Inkscape (http://www.inkscape.org/) -->

<svg
   width="5.27mm"
   height="2.1549289mm"
   version="1.1"
   viewBox="0 0 5.27 2.1549289"
   id="svg842"
   sodipodi:docname="Marca_carga.svg"
   inkscape:version="1.1.2 (b8e25be833, 2022-02-05)"
   xmlns:inkscape="http://www.inkscape.org/namespaces/inkscape"
   xmlns:sodipodi="http://sodipodi.sourceforge.net/DTD/sodipodi-0.dtd"
   xmlns="http://www.w3.org/2000/svg"
   xmlns:svg="http://www.w3.org/2000/svg"
   xmlns:rdf="http://www.w3.org/1999/02/22-rdf-syntax-ns#"
   xmlns:cc="http://creativecommons.org/ns#"
   xmlns:dc="http://purl.org/dc/elements/1.1/">
  <defs
     id="defs846" />
  <sodipodi:namedview
     id="namedview844"
     pagecolor="#ffffff"
     bordercolor="#666666"
     borderopacity="1.0"
     inkscape:pageshadow="2"
     inkscape:pageopacity="0.0"
     inkscape:pagecheckerboard="0"
     inkscape:document-units="mm"
     showgrid="false"
     inkscape:zoom="56.631879"
     inkscape:cx="9.7559892"
     inkscape:cy="4.0789747"
     inkscape:window-width="1920"
     inkscape:window-height="1057"
     inkscape:window-x="-8"
     inkscape:window-y="-8"
     inkscape:window-maximized="1"
     inkscape:current-layer="svg842" />
  <metadata
     id="metadata836">
    <rdf:RDF>
      <cc:Work
         rdf:about="">
        <dc:format>image/svg+xml</dc:format>
        <dc:type
           rdf:resource="http://purl.org/dc/dcmitype/StillImage" />
      </cc:Work>
    </rdf:RDF>
  </metadata>
  <g
     transform="translate(-63.546,-107.15499)"
     id="g840">
    <path
       class="fil2 str1"
       d="m 63.546,107.44 h 1.57 c 0.31,0 0.31,-0.01 0.3,0.09 -0.01,0.11 -0.04,0.33 0,0.57 0.04,0.24 0.13,0.51 0.28,0.69 0.15,0.19 0.34,0.29 0.51,0.33 0.17,0.04 0.32,0 0.45,-0.08 0.13,-0.08 0.25,-0.2 0.34,-0.4 0.09,-0.19 0.16,-0.46 0.2,-0.67 0.04,-0.21 0.04,-0.37 0.04,-0.47 0,-0.1 0,-0.13 0.26,-0.15 0.26,-0.02 0.79,-0.02 1.32,-0.02"
       clip-rule="evenodd"
       fill="none"
       image-rendering="optimizeQuality"
       shape-rendering="geometricPrecision"
       stroke="#000000"
       stroke-width="0.5"
       id="path838"
       style="stroke-width:0.35;stroke-miterlimit:4;stroke-dasharray:none" />
  </g>
</svg>
