<?xml version="1.0" encoding="UTF-8" standalone="no"?>
<!-- Created with Inkscape (http://www.inkscape.org/) -->

<svg
   width="7.29mm"
   height="3.0302625mm"
   version="1.1"
   viewBox="0 0 7.29 3.0302625"
   id="svg842"
   sodipodi:docname="Estrutura_chama.svg"
   inkscape:version="1.1.2 (b8e25be833, 2022-02-05)"
   xmlns:inkscape="http://www.inkscape.org/namespaces/inkscape"
   xmlns:sodipodi="http://sodipodi.sourceforge.net/DTD/sodipodi-0.dtd"
   xmlns="http://www.w3.org/2000/svg"
   xmlns:svg="http://www.w3.org/2000/svg"
   xmlns:rdf="http://www.w3.org/1999/02/22-rdf-syntax-ns#"
   xmlns:cc="http://creativecommons.org/ns#"
   xmlns:dc="http://purl.org/dc/elements/1.1/">
  <defs
     id="defs846" />
  <sodipodi:namedview
     id="namedview844"
     pagecolor="#ffffff"
     bordercolor="#666666"
     borderopacity="1.0"
     inkscape:pageshadow="2"
     inkscape:pageopacity="0.0"
     inkscape:pagecheckerboard="0"
     inkscape:document-units="mm"
     showgrid="false"
     inkscape:zoom="20"
     inkscape:cx="17.275"
     inkscape:cy="5.75"
     inkscape:window-width="1920"
     inkscape:window-height="1057"
     inkscape:window-x="-8"
     inkscape:window-y="-8"
     inkscape:window-maximized="1"
     inkscape:current-layer="svg842" />
  <metadata
     id="metadata836">
    <rdf:RDF>
      <cc:Work
         rdf:about="">
        <dc:format>image/svg+xml</dc:format>
        <dc:type
           rdf:resource="http://purl.org/dc/dcmitype/StillImage" />
      </cc:Work>
    </rdf:RDF>
  </metadata>
  <g
     transform="translate(-64.174,-106.24473)"
     id="g840">
    <path
       class="fil2 str1"
       d="m 64.174,109.03 c 0.68,0 1.36,0 1.71,-0.01 0.35,-0.01 0.38,-0.03 0.48,-0.18 0.1,-0.15 0.28,-0.43 0.42,-0.64 0.14,-0.21 0.25,-0.34 0.4,-0.48 0.15,-0.14 0.36,-0.28001 0.59,-0.42001 0.23,-0.15 0.5,-0.3 0.81,-0.44 0.31,-0.15 0.67,-0.29 0.91,-0.37 0.24,-0.09 0.35,-0.12 0.22,0.09 -0.13,0.22 -0.5,0.68 -0.76,1 -0.26,0.32 -0.41,0.49 -0.54,0.67 -0.13,0.19 -0.25,0.4 -0.31,0.53 -0.06,0.13 -0.07,0.17 -0.05,0.21 0.02,0.04 0.08,0.07 0.65,0.09 0.57,0.02 1.67,0.02 2.76,0.02"
       clip-rule="evenodd"
       fill="none"
       image-rendering="optimizeQuality"
       shape-rendering="geometricPrecision"
       stroke="#000000"
       stroke-width="0.5"
       id="path838"
       style="stroke-width:0.35;stroke-miterlimit:4;stroke-dasharray:none" />
  </g>
</svg>
