<?xml version="1.0" standalone="no"?>
<!DOCTYPE svg PUBLIC "-//W3C//DTD SVG 1.1//EN" "http://www.w3.org/Graphics/SVG/1.1/DTD/svg11.dtd" >
<svg xmlns="http://www.w3.org/2000/svg" xmlns:xlink="http://www.w3.org/1999/xlink" version="1.1" viewBox="-10 0 810 1000">
   <path fill="currentColor"
d="M121.377 634.477c-3.02246 0 -4.84375 -1.07031 -5.46582 -3.2041c-0.62207 -2.13281 -1.19922 -3.73242 -1.73242 -4.79883v-2.40039l0.799805 -1.59961c0 -0.533203 0.266602 -1.33301 0.799805 -2.39941c6.93262 -18.665 25.4639 -45.9961 55.5928 -81.9922
c30.1309 -35.9971 54.5283 -62.5273 73.1934 -79.5918c10.666 -9.59961 39.3301 -26.5312 85.9922 -50.7939c46.6611 -24.2646 76.6133 -42.4297 89.8564 -54.4951c13.2422 -12.0654 27.2852 -53.4941 42.1289 -124.286c6.41699 -30.6016 11.9541 -51.7178 16.6113 -63.3477
c4.6582 -11.6309 13.2529 -24.9121 25.7842 -39.8428c12.5322 -14.9316 28.1309 -33.5967 46.7959 -55.9941c22.9307 -26.1309 41.5957 -46.6621 55.9941 -61.5947l6.40039 -6.39844c2.13184 1.06641 4.93164 2.66602 8.39844 4.79883
c3.46582 2.13379 6.39844 3.86719 8.79785 5.2002c2.40039 1.33301 7.125 4.56348 14.1738 9.69141c7.0498 5.12598 13.9824 12.5918 20.7979 22.3965c6.81641 9.80566 9.82422 17.9082 9.02344 24.3076c-0.799805 6.40039 -5.19922 13.4668 -13.1982 21.1982
c-7.99902 7.7334 -15.8643 15.333 -23.5967 22.7988c-7.7334 7.46582 -15.666 15.2646 -23.7979 23.3975c-8.13281 8.13281 -25.3311 37.4639 -51.5957 87.9922c-26.2637 50.5283 -41.6621 86.7246 -46.1953 108.589c-7.72754 37.2783 1.33887 80.3408 27.1992 129.188
c14.583 27.5459 44.8467 78.0742 90.791 151.585c8.53223 14.3984 13.3311 25.0645 14.3975 31.9971c3.7334 12.7979 5.33301 28.5293 4.7998 47.1943c-0.53418 18.665 -2.13379 30.6641 -4.7998 35.9971h-0.799805c-1.59961 1.59961 -2.66602 2.39941 -3.2002 2.39941
l-1.59863 0.799805h-1.60059c-3.36523 0 -7.7334 -5.99121 -13.1055 -17.9746s-41.2666 -62.2529 -107.684 -150.808c-1.06641 -1.60059 -6.04395 -5.06738 -14.9316 -10.4004s-15.8203 -7.99902 -20.7979 -7.99902c-4.97656 0 -7.99805 0.267578 -9.06445 0.801758
h-0.800781c-0.532227 1.59863 -1.06543 4.26465 -1.59863 7.99805l-3.2002 67.1924c-2.66699 51.7275 -7.06641 87.3242 -13.1992 106.789c-6.13184 19.4639 -15.3896 36.3955 -27.7725 50.7949c-12.3828 14.3975 -20.5898 21.5967 -24.6221 21.5967h-3.19922
c-1.60059 0 -3.69238 -1.29199 -6.27637 -3.87598c-2.58496 -2.58496 -2.89258 -7.15918 -0.922852 -13.7227c20.2646 -78.3916 23.4639 -159.717 9.59863 -243.975c-2.66699 -14.9316 -10.7988 -27.5967 -24.3965 -37.9961
c-13.5986 -10.3994 -33.4639 -15.332 -59.5957 -14.7979c-55.1113 1.31152 -113.372 42.9072 -174.782 124.787c-10.3975 13.8652 -16.1299 21.0645 -17.1973 21.5977h-0.799805v1.60059l-0.798828 0.799805c-0.533203 0 -1.33301 0.266602 -2.40039 0.799805h-3.2002z" />
</svg>
