<?xml version="1.0" standalone="no"?>
<!DOCTYPE svg PUBLIC "-//W3C//DTD SVG 1.1//EN" "http://www.w3.org/Graphics/SVG/1.1/DTD/svg11.dtd" >
<svg xmlns="http://www.w3.org/2000/svg" xmlns:xlink="http://www.w3.org/1999/xlink" version="1.1" viewBox="-10 0 1020 1000">
   <path fill="currentColor"
d="M716 221c57.333 0 111 13.5 161 40.5s91 62.833 123 107.5l-17 12c-30 -42 -68.5 -75.833 -115.5 -101.5s-97.5 -38.5 -151.5 -38.5c-81.333 0 -165.333 31.667 -252 95h-1c-54.667 30.667 -112.167 46 -172.5 46s-115.166 -12.167 -164.499 -36.5
s-90.666 -58.5 -123.999 -102.5l16 -11c31.333 41.333 70.166 73.333 116.499 96s98.166 34 155.499 34s111.666 -14.333 162.999 -43c90.3066 -65.333 177.974 -98 263.001 -98zM714 405c57.333 0 111.168 13.501 161.501 40.501s91.166 63.167 122.499 108.5l-17 11
c-30 -42 -68.5 -75.833 -115.5 -101.5s-97.5 -38.5 -151.5 -38.5c-80.667 0 -164.667 31.667 -252 95l-1 1c-54 30 -111.5 45 -172.5 45s-116 -12.333 -165 -37s-90.167 -58.334 -123.5 -101.001l16 -13c31.333 40.667 70.333 72.667 117 96s98.5 35 155.5 35
s110.833 -14.333 161.5 -43c90.667 -65.333 178.667 -98 264 -98z" />
</svg>
