<?xml version="1.0" standalone="no"?>
<!DOCTYPE svg PUBLIC "-//W3C//DTD SVG 1.1//EN" "http://www.w3.org/Graphics/SVG/1.1/DTD/svg11.dtd" >
<svg xmlns="http://www.w3.org/2000/svg" xmlns:xlink="http://www.w3.org/1999/xlink" version="1.1" viewBox="-10 0 885 1000">
   <path fill="currentColor"
d="M485.443 141.102c0 12.3838 -3.16797 18.5762 -9.50293 18.5762c-6.33691 0 -9.50488 -6.19238 -9.50488 -18.5762s3.16797 -18.5752 9.50488 -18.5752c6.33496 0 9.50293 6.19141 9.50293 18.5752zM361.028 183.87c5.18359 -11.5205 10.6553 -16.2725 16.415 -14.2559
c5.76074 2.01562 6.19336 9.07129 1.29785 21.168c-4.89648 12.0967 -9.93652 16.9922 -15.1201 14.6875c-5.18457 -1.15137 -6.04883 -8.35156 -2.59277 -21.5996zM416.323 155.357c5.18457 -11.5205 10.8027 -16.415 16.8506 -14.6865
c6.04688 1.72754 7.19824 6.91113 3.45508 15.5508c-6.55957 15.1367 -12.4639 22.0488 -17.7129 20.7363c-6.91211 -1.72754 -7.77637 -8.92773 -2.59277 -21.6006zM377.445 629.695c4.03223 10.9434 2.88184 17.8564 -3.4541 20.7363
c-2.87988 0.576172 -5.75977 -0.576172 -8.63965 -3.45605s-5.04004 -6.62402 -6.48047 -11.2324c-3.46387 -11.085 -2.45605 -17.9971 3.02344 -20.7363c2.87988 -0.576172 5.90332 0.576172 9.07129 3.45605s5.32812 6.62402 6.47949 11.2324zM375.719 679.809
c6.30859 -1.2627 10.9111 3.89551 13.8047 15.4707c2.89355 11.5742 1.74805 18.5137 -3.43652 20.8174c-5.89355 1.17871 -10.79 -3.42969 -14.6885 -13.8252c-2.87988 -11.5205 -1.43945 -19.0078 4.32031 -22.4629zM361.896 563.17
c2.87988 12.0957 1.43945 18.4316 -4.32031 19.0078c-2.87988 0.575195 -5.75977 -0.577148 -8.63965 -3.45703s-4.89648 -6.62402 -6.04883 -11.2314c-3.45605 -12.6729 -2.01562 -19.585 4.32031 -20.7363c2.87988 -0.575195 5.75977 0.577148 8.63965 3.45703
s4.89648 6.62402 6.04883 11.2314v1.72852zM331.656 439.618c3.45605 11.5205 2.01758 18.4326 -4.31836 20.7363c-6.42969 1.28613 -11.6133 -3.32129 -15.5518 -13.8232c-2.87988 -11.5205 -1.72852 -19.0088 3.45508 -22.4648
c3.5752 -1.19141 6.62891 0.238281 9.16113 4.29004s4.37402 7.80566 5.52539 11.2617h1.72852zM361.034 493.186c3.45605 12.6719 2.01465 19.873 -4.32129 21.6016c-2.87988 0.576172 -5.75977 -0.719727 -8.63965 -3.8877
c-2.87988 -3.16895 -5.47168 -9.2168 -7.77539 -18.1445c-2.30371 -8.92871 -1.2959 -13.9688 3.02344 -15.1201c7.84668 -2.09277 13.751 2.80273 17.7129 14.6865v0.864258zM583.081 400.739c-0.576172 5.18359 -2.01758 9.64746 -4.32129 13.3916
s-4.60742 5.04004 -6.91113 3.8877c-5.75977 0 -8.35156 -6.62402 -7.77539 -19.8721c1.80566 -9.03223 3.98535 -14.3145 6.53906 -15.8467c2.55176 -1.53223 4.4043 -2.00977 5.55664 -1.43262c6.33594 0 8.63965 6.62402 6.91211 19.8721zM408.984 459.059
c1.44043 3.74414 1.72949 8.20801 0.865234 13.3926c-0.864258 5.18359 -2.44824 9.64746 -4.75195 13.3916c-2.30469 3.74414 -4.6084 5.32812 -6.91211 4.75195c-6.33691 0 -8.6416 -6.91211 -6.91406 -20.7354c0.577148 -5.18457 2.01758 -9.50488 4.32129 -12.96
c2.30371 -3.45605 4.60742 -4.6084 6.91113 -3.45703c2.87988 0 5.04004 1.87207 6.48047 5.61621zM405.098 554.531c-0.577148 5.18359 -2.01758 9.50293 -4.32129 12.959c-2.30469 3.45605 -4.6084 4.89648 -6.91211 4.32129
c-2.87988 0 -5.18359 -2.0166 -6.91113 -6.04883c-1.72852 -4.03223 -2.16016 -8.78418 -1.2959 -14.2559c2.0625 -13.0654 6.23828 -18.9697 12.5283 -17.7119c5.75977 0 8.35156 6.91211 7.77539 20.7363h-0.863281zM405.961 376.546
c5.75977 0 8.49609 4.75098 8.20801 14.2549s-1.72852 15.9834 -4.32129 19.4395c-2.5918 3.45605 -5.04004 4.89648 -7.34375 4.32031c-5.75977 -1.15137 -8.49609 -6.33496 -8.20801 -15.5508s1.72852 -15.4082 4.32129 -18.5762
c2.5918 -3.16797 5.04004 -4.46387 7.34375 -3.8877zM435.337 565.761c6.33594 0.576172 8.92676 5.47168 7.77539 14.6875c-1.15234 9.21582 -2.88086 15.5518 -5.18457 19.0078s-4.31934 4.89648 -6.04688 4.32129c-6.33594 0 -8.63965 -6.62402 -6.91211 -19.8721
c0.576172 -5.18457 2.01562 -9.64844 4.31934 -13.3926c2.30469 -3.74316 4.32129 -5.32715 6.04883 -4.75195zM416.327 329.889c-2.18262 13.0957 -5.6377 18.8564 -10.3672 17.2803c-5.76074 0 -8.35254 -4.89648 -7.77539 -14.6885
c0.957031 -16.2822 4.70117 -23.7705 11.2314 -22.4648c6.33594 0 8.35156 6.62402 6.04785 19.873h0.863281zM373.993 357.104c-1.15234 9.50391 -2.73633 15.9844 -4.75293 19.4404c-2.01562 3.45605 -4.46289 4.89648 -7.34277 4.32031
c-5.76074 0 -8.35254 -6.91211 -7.77637 -20.7363c1.91992 -11.5195 6 -17.2793 12.2393 -17.2793c6.24023 0 8.78418 4.75195 7.63281 14.2549zM377.448 428.385c-2.41895 12.0967 -6.16211 18.1445 -11.2314 18.1445c-6.33594 0 -8.63965 -6.91211 -6.91211 -20.7363
c0.576172 -5.18457 2.0166 -9.50488 4.32031 -12.9609s4.46387 -5.04004 6.48047 -4.75293c2.01562 0.288086 3.74316 1.44043 5.18262 3.45703c3.15332 4.41309 4.16113 10.0293 3.02441 16.8486h-0.864258zM311.786 360.129
c5.75977 0.575195 8.49512 5.61523 8.20703 15.1201c-0.506836 16.7178 -4.39551 24.3496 -11.665 22.8955c-6.33496 0 -8.35059 -6.62402 -6.04688 -19.8721c0.577148 -5.18359 1.87305 -9.64746 3.88867 -13.3916c2.0166 -3.74414 3.88867 -5.32812 5.61621 -4.75195z
M442.248 266.817c-5.18359 11.5195 -10.5117 16.5605 -15.9834 15.1211c-5.47168 -1.44043 -6.47949 -8.78418 -3.02441 -22.0322c5.18457 -11.5205 10.5127 -16.417 15.9844 -14.6895c5.47168 1.72852 6.47949 8.92871 3.02344 21.6006zM459.528 206.338
c-5.44043 10.8799 -10.5449 15.7598 -15.3125 14.6396s-5.42383 -8.01562 -1.96875 -20.6875c5.18457 -11.5205 10.3691 -16.7041 15.5527 -15.5518c5.18457 1.15137 6.33691 8.35156 3.45703 21.5996h-1.72852zM342.024 229.666
c5.75977 1.15137 6.7666 6.04883 3.02246 14.6885s-6.91211 14.5439 -9.50391 17.7119c-2.5918 3.16895 -5.04004 4.17676 -7.34375 3.02441c-5.18457 -1.15234 -6.04883 -8.35254 -2.59277 -21.5996c5.18457 -11.5205 10.6572 -16.1289 16.418 -13.8252zM454.343 705.732
c-5.18457 11.5195 -10.3682 16.5596 -15.5518 15.1201c-5.18359 -1.44043 -6.33594 -8.49707 -3.45605 -21.1699c5.18457 -11.5205 10.5127 -16.5605 15.9844 -15.1201s6.47949 8.49707 3.02344 21.1699zM341.159 314.34
c-5.18457 11.5205 -10.6543 16.7051 -16.4141 15.5537c-5.18457 -1.15332 -6.04883 -8.35352 -2.59277 -21.6006c5.18359 -11.5205 10.7998 -16.417 16.8477 -14.6895s6.76758 8.63965 2.15918 20.7363zM382.633 266.82c7.5166 4.1748 6.6543 13.9678 -2.59082 29.376
c-3.58887 5.98145 -6.75684 8.28516 -9.50391 6.91113c-5.18457 -1.15137 -6.33691 -8.35156 -3.45703 -21.5996c5.18457 -11.5205 10.3682 -16.416 15.5518 -14.6875zM690.219 305.701c-5.18457 11.5195 -10.6553 16.416 -16.415 14.6885
c-2.87988 -0.576172 -4.46387 -3.16797 -4.75195 -7.77539c-0.288086 -4.6084 0.431641 -8.78516 2.15918 -12.5303c1.72754 -3.74316 3.45508 -6.91113 5.18262 -9.50293c3.82324 -5.7334 7.85547 -7.89355 12.0967 -6.48047
c5.18457 2.87988 6.04883 10.0801 2.59277 21.6006h-0.864258zM734.283 247.814c-5.18359 11.5195 -10.5127 16.5605 -15.9844 15.1211c-5.47168 -1.44043 -6.47949 -8.78418 -3.02344 -22.0322c5.18457 -12.0967 10.6562 -16.417 16.416 -12.9609
c4.98828 1.125 5.85254 7.74902 2.5918 19.8721zM407.69 230.535c-5.18359 11.5205 -10.5127 16.5596 -15.9844 15.1191s-6.47949 -8.78418 -3.02344 -22.0322c5.18457 -11.5205 10.8008 -16.2725 16.8486 -14.2568c6.04785 2.0166 6.76758 9.07324 2.15918 21.1699z
M578.762 440.485c5.75977 3.45605 6.19238 10.8008 1.29688 22.0322c-4.89648 11.2314 -10.2246 15.9834 -15.9844 14.2559c-2.30371 -0.576172 -3.59961 -3.02441 -3.8877 -7.34473c-0.288086 -4.31934 1.2959 -10.5107 4.75195 -18.5742
c3.45605 -8.06445 8.06348 -11.5205 13.8232 -10.3691zM780.938 268.551c-5.18457 11.5205 -10.3672 16.1279 -15.5518 13.8242c-2.87988 -0.576172 -4.46387 -3.02441 -4.75195 -7.34473c-0.288086 -4.31934 0.719727 -8.7832 3.02344 -13.3916
c1.15137 -4.6084 3.31152 -8.49609 6.48047 -11.6641c3.16699 -3.16797 6.19043 -4.46387 9.07031 -3.88867c5.18457 1.15332 6.04883 8.6416 2.59277 22.4648h-0.863281zM639.243 357.542c-5.18359 11.5205 -10.5137 16.5615 -15.9854 15.1211
s-6.47949 -8.78418 -3.02344 -22.0322c5.64551 -11.29 10.542 -15.8984 14.6895 -13.8252c6.91113 1.72754 7.77539 8.63965 2.5918 20.7363h1.72754zM488.906 583.911c5.92383 1.18457 8.125 6.08984 6.60254 14.7129c-2.77832 15.7451 -7.57129 22.9365 -14.3789 21.5742
c-6.91211 -1.72754 -8.63965 -8.35156 -5.18359 -19.8721c4.14648 -12.4414 8.4668 -17.9131 12.96 -16.415zM456.938 629.704c1.15137 4.03223 1.15137 8.63965 0 13.8232c-1.15234 5.18457 -2.88086 9.2168 -5.18457 12.0967s-4.89551 4.03125 -7.77539 3.4541
c-2.87988 -0.575195 -4.89648 -3.02246 -6.04883 -7.3418c-1.15137 -4.32031 -1.00781 -9.07227 0.431641 -14.2568c1.44043 -5.18359 3.45605 -9.07129 6.04785 -11.6631c2.59277 -2.59277 5.04102 -3.60059 7.34473 -3.02441s4.03223 2.87988 5.18457 6.91211z
M596.042 328.167c-0.575195 5.18457 -2.16113 9.3623 -4.75391 12.5303c-2.5918 3.16699 -5.32715 4.46289 -8.20703 3.8877c-2.87988 -0.576172 -4.89551 -2.87988 -6.04688 -6.91211c-1.15234 -4.03223 -0.864258 -8.64062 0.864258 -13.8252
c2.87988 -12.0957 7.2002 -17.5674 12.9609 -16.416c6.30762 1.26172 8.03516 7.59766 5.18262 19.0078v1.72754zM622.824 478.505c-8.06445 9.79199 -14.2578 12.5273 -18.5781 8.20801c-4.31934 -4.32031 -3.59961 -9.93652 2.16016 -16.8477
c10.7354 -12.8818 18.3154 -17.1104 22.7402 -12.6855s2.89355 11.5332 -4.59473 21.3252h-1.72754zM559.751 510.472c5.75977 2.87988 5.61523 7.91992 -0.432617 15.1201c-11.6768 13.9014 -19.5967 18.0771 -23.7598 12.5273
c-5.18359 -3.45508 -3.16797 -10.0791 6.04785 -19.8721c8.06445 -9.79199 14.1123 -12.3838 18.1445 -7.77539zM694.535 370.937c-1.15234 4.31934 -3.45801 8.34863 -6.91406 12.0918c-3.45605 3.74414 -7.34375 6.33594 -11.6631 7.77637
c-4.32031 1.44043 -7.34473 1.00879 -9.07227 -1.29492c-5.18359 -3.45605 -4.75098 -8.63965 1.29688 -15.5508c6.04785 -6.91211 11.0879 -11.2324 15.1201 -12.9609c4.03223 -1.72754 7.2002 -1.58301 9.50391 0.433594s2.87988 5.18457 1.72852 9.50488z
M627.142 410.245c-5.18457 11.5205 -10.3691 16.1289 -15.5527 13.8252s-6.33496 -9.21582 -3.45508 -20.7363c5.18359 -11.5205 10.6553 -16.7041 16.415 -15.5518c5.18359 2.30371 6.04785 9.79102 2.59277 22.4629zM532.102 481.958
c-5.18457 11.5195 -10.5127 16.1289 -15.9844 13.8252c-5.47168 -2.30469 -6.47949 -7.34473 -3.02344 -15.1201c6.57715 -14.7998 11.7607 -21.5684 15.5508 -20.3057c6.33691 1.72852 7.48926 8.92871 3.45703 21.6006zM736.869 328.166
c-2.30371 4.6084 -4.89746 8.49707 -7.77734 11.666c-2.87988 3.16797 -5.18359 4.17578 -6.91113 3.02441c-5.18457 -2.87988 -6.04883 -10.0801 -2.59277 -21.6006c5.18359 -11.5205 10.6553 -16.1289 16.416 -13.8252c5.18457 2.87988 6.04883 9.79199 2.59277 20.7354
h-1.72754zM506.18 546.759c-5.18457 11.5195 -10.6572 16.4141 -16.417 14.6865c-5.75977 -2.87988 -6.76758 -8.35156 -3.02344 -16.415c6.83203 -14.7148 12.4482 -21.3389 16.8477 -19.8721c5.18359 1.72852 6.04785 8.92871 2.59277 21.6006zM660.835 239.174
c-5.18359 11.5205 -10.3682 16.1279 -15.5527 13.8232c-5.18359 -2.30371 -6.33496 -9.21582 -3.45508 -20.7363c5.18359 -11.5205 10.6553 -16.7041 16.415 -15.5518c6.43066 1.28613 7.29492 8.19824 2.59277 20.7363v1.72852zM642.691 301.382
c-5.18457 11.5205 -10.5137 16.5605 -15.9854 15.1201s-6.19141 -8.78418 -2.15918 -22.0322c5.18359 -11.5205 10.3682 -16.2725 15.5527 -14.2559c5.18359 2.01562 6.04785 9.07129 2.5918 21.168zM774.882 206.342c-5.18359 11.5205 -10.3682 16.5605 -15.5527 15.1201
s-6.62402 -5.9043 -4.31934 -13.3926c2.30371 -7.4873 4.46387 -12.5273 6.48047 -15.1191c4.15039 -5.33691 7.75 -7.49707 10.7998 -6.48047c6.62402 1.68652 7.48828 8.31055 2.5918 19.8721zM713.537 194.245c-4.6084 11.5205 -9.79199 16.417 -15.5518 14.6895
c-5.76074 -1.72852 -6.76855 -6.91309 -3.02441 -15.5527c6.5791 -15.1826 11.9072 -22.0947 15.9844 -20.7363c5.18359 1.15234 6.04785 8.06445 2.5918 20.7363v0.863281zM811.17 168.325c-4.6084 11.5205 -10.0811 16.1279 -16.417 13.8242
c-5.18359 -1.15137 -6.33594 -8.06348 -3.45605 -20.7354c5.18457 -11.5205 10.6562 -16.7041 16.416 -15.5518c5.75977 1.15137 6.91211 8.06348 3.45703 20.7354v1.72754zM761.921 104.389c6.91211 2.87988 7.91992 10.0801 3.02441 21.5996
c-4.89648 11.5205 -10.2246 16.417 -15.9844 14.6895c-4.60742 -2.30371 -5.75977 -9.21582 -3.45605 -20.7354c5.18359 -11.5205 10.6553 -16.7051 16.416 -15.5537zM710.081 142.404c-4.60742 11.5205 -9.79102 16.416 -15.5518 14.6885
c-6.91211 -3.45605 -7.91992 -10.7998 -3.02441 -22.0322c4.89648 -11.2314 10.0811 -15.8398 15.5527 -13.8242c5.47168 2.0166 6.47949 9.07227 3.02344 21.168zM739.457 90.5635c-5.18457 11.5205 -10.6553 16.1279 -16.415 13.8242
c-5.18457 -1.15137 -6.04883 -8.06348 -2.59277 -20.7354c5.76074 -11.5205 10.9443 -16.7051 15.5518 -15.5537c6.2998 1.26074 7.16406 8.74902 2.5918 22.4648h0.864258zM812.898 113.892c-5.18457 11.5195 -10.3672 16.7031 -15.5518 15.5508
c-4.6084 -2.30371 -5.47266 -9.79199 -2.59277 -22.4639c5.18457 -11.5195 10.3682 -16.415 15.5518 -14.6875c5.18457 1.72754 6.04883 8.92773 2.59277 21.6006zM410.275 119.939c-5.18359 11.5195 -10.6562 15.9834 -16.416 13.3916
c-5.76074 -2.59277 -6.76855 -7.77637 -3.02441 -15.5518c3.74414 -7.77637 6.91211 -13.249 9.50391 -16.417c2.5918 -3.16699 5.04004 -4.46289 7.34375 -3.8877c6.33691 2.87988 7.20117 10.3682 2.59277 22.4648zM179.587 341.555
c0 12.3838 -3.02441 18.5762 -9.07227 18.5762s-9.07227 -6.19238 -9.07227 -18.5762s3.02441 -18.5762 9.07227 -18.5762s9.07227 6.19238 9.07227 18.5762zM412.867 613.715c0 12.3838 -3.16797 18.5762 -9.50488 18.5762c-6.33496 0 -9.50293 -6.19238 -9.50293 -18.5762
s3.16797 -18.5762 9.50293 -18.5762c6.33691 0 9.50488 6.19238 9.50488 18.5762zM67.2666 456.034c9.2168 9.2168 11.5205 15.8408 6.91211 19.873c-1.72852 2.30371 -4.75293 2.73535 -9.07227 1.29492c-4.32031 -1.44043 -9.2168 -5.61621 -14.6885 -12.5273
c-5.47168 -6.91211 -6.91113 -11.8086 -4.31836 -14.6885c5.45703 -6.06348 12.5127 -4.04785 21.167 6.04785zM152.802 515.219c8.63965 8.92871 10.9443 15.6963 6.91211 20.3037c-4.03223 4.6084 -10.6562 2.30469 -19.8721 -6.91113
c-9.61426 -8.24121 -12.0176 -14.7656 -7.20996 -19.5732c4.80664 -4.80762 11.5303 -2.74707 20.1699 6.18066zM115.651 456.899c4.03223 3.45508 6.7666 7.19824 8.20703 11.2305s1.00781 6.91211 -1.29688 8.64062c-4.60742 4.60742 -11.5195 2.30371 -20.7354 -6.91211
c-8.06348 -9.79199 -10.0791 -16.7041 -6.04688 -20.7363s10.6562 -1.43945 19.8721 7.77734zM82.8174 405.922c9.21582 9.21582 11.5205 15.9854 6.91309 20.3047c-4.6084 4.32031 -11.5205 2.0166 -20.7363 -6.91211
c-9.21582 -8.92773 -11.6641 -15.4072 -7.34473 -19.4395c4.32031 -4.03223 11.376 -2.0166 21.168 6.04688zM132.498 409.38c6.04785 -2.87988 11.5215 1.43945 16.417 12.96s4.46387 18.8643 -1.2959 22.0322c-5.75977 3.16699 -11.2314 -1.15332 -16.416 -12.9609
s-4.75293 -19.1514 1.29492 -22.0312zM188.66 528.611c5.47168 -2.87988 10.8008 1.58301 15.9844 13.3906c5.18457 11.8086 4.89648 19.1523 -0.863281 22.0322c-6.33691 1.72852 -11.5215 -2.87891 -15.5537 -13.8232
c-5.18359 -11.5195 -5.03906 -18.7197 0.432617 -21.5996zM225.381 539.842c5.76074 -1.72754 11.0879 3.02539 15.9834 14.2568c4.89648 11.2324 4.6084 18.1445 -0.863281 20.7363s-10.7998 -1.87207 -15.9844 -13.3926
c-5.18359 -11.5205 -4.89551 -18.7207 0.864258 -21.6006zM199.178 474.104c5.37207 11.5703 5.17871 18.5088 -0.581055 20.8125c-2.30371 1.15137 -5.04004 0.575195 -8.20898 -1.72852c-3.16797 -2.30371 -5.61621 -6.04785 -7.34375 -11.2324
c-5.18457 -11.5205 -5.13477 -18.6016 0.149414 -21.2432s10.6123 1.82227 15.9844 13.3916zM154.102 465.972c5.47168 -3.16797 10.7979 1.15234 15.9824 12.9609c5.18457 11.8076 5.04102 19.1514 -0.430664 22.0312
c-5.47266 2.87988 -10.8008 -1.44043 -15.9844 -12.9609c-5.18359 -11.5195 -5.03906 -18.8633 0.432617 -22.0312zM157.123 245.22c5.18457 0 9.21582 5.75977 12.0957 17.2803h0.864258c2.30371 12.0957 0 18.7197 -6.91113 19.8721
c-6.08008 0 -10.4004 -5.75977 -12.9609 -17.2803c-1.72754 -11.5195 0.576172 -18.1436 6.91211 -19.8721zM409.41 663.396c6.33594 -1.2666 9.50391 4.20508 9.50391 16.417c1.72754 12.0957 -0.288086 19.0078 -6.04785 20.7354
c-6.04785 0 -9.71973 -4.32031 -11.0156 -12.96c-2.41895 -16.1279 0.100586 -24.1924 7.55957 -24.1924zM167.49 385.187c5.875 0 9.50488 4.03223 10.8877 12.0957c1.38184 8.06445 1.35254 14.1123 -0.0878906 18.1445
c-1.43945 4.03223 -3.45605 6.04785 -6.04883 6.04785c-5.91992 0 -9.63184 -5.9043 -11.1348 -17.7119c-1.50391 -11.8076 0.624023 -18 6.38379 -18.5762zM327.331 637.475c4.03223 3.45605 6.625 7.20117 7.77734 11.2334
c1.15137 4.03223 0.863281 6.91211 -0.865234 8.63965c-4.60742 4.6084 -11.375 2.44824 -20.3027 -6.47949c-8.92871 -8.92871 -11.2324 -15.6973 -6.91211 -20.3057c4.31934 -4.60742 11.0869 -2.30371 20.3027 6.91211zM227.973 615.012
c4.03223 3.45605 6.62402 7.19824 7.77539 11.2305s0.431641 7.34473 -2.16016 9.93652s-8.7832 -0.144531 -18.5752 -8.20801c-9.21582 -9.21582 -11.6641 -15.9834 -7.34473 -20.3027c4.32031 -4.32031 11.0889 -1.87207 20.3047 7.34375zM188.228 576.993
c8.06348 9.79199 10.7998 16.2725 8.20801 19.4404s-6.04785 4.03223 -10.3672 2.5918c-4.32031 -1.43945 -9.36035 -5.61523 -15.1201 -12.5273c-5.76074 -6.91211 -6.625 -12.5283 -2.59277 -16.8477c4.03223 -4.32031 10.6562 -1.87305 19.8721 7.34277zM293.204 691.041
c8.92773 9.2168 11.2314 15.9854 6.91211 20.3047c-4.32031 4.32031 -10.9443 2.0166 -19.873 -6.91211c-8.92676 -8.92871 -11.2305 -15.6963 -6.91113 -20.3037c4.32031 -4.6084 10.9443 -2.30469 19.8721 6.91113zM268.58 593.41
c4.03223 3.45605 6.62402 7.2002 7.77539 11.2324c1.15234 4.03223 0.576172 6.91211 -1.72754 8.63965c-4.6084 4.6084 -11.2324 2.30469 -19.8721 -6.91113c-8.85254 -7.58789 -11.1562 -14.2119 -6.91211 -19.8721c4.6084 -4.6084 11.5205 -2.30469 20.7363 6.91113z
M277.22 643.521c9.21582 9.21582 11.5186 16.127 6.91113 20.7354c-4.6084 4.6084 -11.2324 2.30469 -19.8721 -6.91113c-8.06348 -9.79199 -10.7988 -16.1279 -8.20605 -19.0078c5.70996 -6.3457 12.7656 -4.61816 21.167 5.18359zM329.922 704.865
c-9.9248 -8.50684 -11.9404 -15.709 -6.04688 -21.6025c2.87988 -2.87988 7.77539 -1.43945 14.6865 4.32031c13.3701 11.1416 17.1143 18.918 11.2324 23.3291c-4.6084 4.6084 -11.2324 2.59277 -19.8721 -6.04688zM405.091 61.1826
c2.87988 -16.7041 16.126 -23.041 39.7422 -19.0088s39.7441 13.248 48.3838 27.6484c4.6084 6.91113 5.47266 14.3994 2.59277 22.4639c-2.87988 8.06348 -9.50391 12.5273 -19.8721 13.3916s-21.0244 -0.719727 -31.9678 -4.75098
c-10.9443 -4.03223 -20.4482 -9.79199 -28.5117 -17.2793c-8.06445 -7.48828 -11.5205 -14.9766 -10.3672 -22.4648zM194.271 759.294l0.0078125 -4.31641c0 -1.15137 0.288086 -2.15918 0.865234 -3.02344c4.8623 -7.29395 27.9023 -15.79 69.1201 -25.4883
c-2.22168 0 -6.95312 -2.30371 -14.1943 -6.91211s-11.8691 -7.91992 -13.8848 -9.93555c-6.43262 -6.43262 -11.4248 -12.5771 -14.9766 -18.4336s-7.2002 -10.9443 -10.9443 -15.2637c-3.74414 -4.32031 -7.05664 -8.06445 -9.93652 -11.2314
c-8.63965 -9.50488 -21.167 -22.8975 -37.582 -40.1777c-16.416 -17.2803 -28.5117 -36.7207 -36.2881 -58.3213c-7.77637 -21.5996 -18.4326 -36.7197 -31.9688 -45.3594c-13.5352 -8.63965 -31.8232 -16.1279 -54.8633 -22.4639
c-10.3682 -2.87988 -18.8643 -9.35938 -25.4883 -19.4385c-6.62402 -10.0801 -10.8008 -21.7441 -12.5293 -34.9922c-4.60742 -31.6807 3.16895 -56.4492 23.3291 -74.3057c10.9434 -8.63965 21.0234 -12.2393 30.2402 -10.7988
c9.21582 1.43945 19.7275 5.03906 31.5352 10.7998c11.8076 5.75977 20.3037 9.35938 25.4883 10.7998s10.5127 0.144531 15.9844 -3.8877c11.001 -8.10645 13.7363 -26.5381 8.20605 -55.2949l-5.18359 -25.9199c-11.2861 -56.4346 -9.70215 -92.1465 4.75195 -107.137
c7.77637 -8.06348 16.5605 -10.7998 26.3525 -8.20801c9.79199 2.59277 18.4316 8.06445 25.9189 16.416c7.48828 8.35254 10.8008 18.4326 9.93652 30.2402s5.61523 71.5674 19.4385 179.279c4.76074 33.3213 23.4805 75.5137 56.1602 126.576
c13.8242 21.6006 22.8965 37.7285 27.2168 48.3838c4.31934 10.6562 8.92676 17.7119 13.8223 21.168c8.35254 5.89551 12.5283 5.31934 12.5283 -1.72852c-0.576172 -7.4873 -5.32812 -16.9912 -14.2559 -28.5107c-8.92871 -11.5205 -13.1045 -21.6006 -12.5283 -30.2402
c-0.576172 -4.03223 0.431641 -8.92871 3.02441 -14.6885c2.5918 -5.76074 3.16797 -12.5283 1.72754 -20.3037c-1.43945 -7.77637 -7.63184 -19.7285 -18.5762 -35.8564c-21.3115 -32.832 -25.6318 -69.9844 -12.96 -111.456
c1.72754 -5.75977 4.31934 -13.248 7.77539 -22.4639s6.04785 -16.416 7.77539 -21.6006c4.87695 -14.6299 6.31738 -26.4375 4.32031 -35.4229c-4.03223 -20.7363 4.60742 -51.2646 25.9189 -91.585c2.30469 -4.03223 5.3291 -9.64844 9.07227 -16.8486
s6.91113 -13.248 9.50391 -18.1445c2.5918 -4.89551 5.47168 -10.9434 8.63965 -18.1436c3.16699 -7.2002 6.04688 -13.6797 8.63965 -19.4395c6.41113 -14.249 12.4062 -29.4756 17.9844 -45.6797s14.415 -29.4902 26.5117 -39.8584
c12.0967 -9.21582 25.3447 -13.248 39.7441 -12.0967c23.04 1.15234 45.2158 12.3848 66.5283 33.6963c15.2725 14.2549 20.0986 43.7383 14.4785 88.4512c-5.62012 44.7119 -15.918 83.0518 -30.8936 115.02s-26.7832 76.752 -35.4229 134.353
c-1.72754 12.0967 -5.47168 48.9609 -11.2314 110.593c-0.577148 8.06348 0.430664 14.6875 3.02344 19.8721c5.57812 11.1572 12.085 11.499 19.5195 1.02539c7.43457 -10.4756 13.168 -24.9287 17.2002 -43.3604c4.03223 -18.4326 9.21582 -31.9688 15.5508 -40.6084
c2.87988 -3.45605 7.91992 -7.05566 15.1201 -10.7998c7.2002 -3.74316 12.5283 -9.64746 15.9844 -17.7119c3.45605 -8.06348 6.33594 -24.4795 8.63965 -49.248c3.45605 -43.7764 21.3115 -86.4004 53.5674 -127.872c28.5215 -34.2256 46.1641 -58.6221 52.9277 -73.1895
c6.7627 -14.5674 11.584 -25.5957 14.4639 -33.084c14.9756 -42.0479 33.1191 -73.1514 54.4307 -93.3105c21.3115 -20.1602 40.752 -30.6729 58.3203 -31.5371c17.5674 -0.864258 34.9912 5.61621 52.2715 19.4404s28.6562 27.5039 34.1279 41.04
s7.34375 28.2246 5.61621 44.0654c-3.68555 33.7881 -17.5098 85.4844 -41.4727 155.089c-11.708 31.2217 -33.3076 66.3574 -64.7998 105.407c-14.3994 17.8564 -26.6396 31.6807 -36.7197 41.4727s-17.2803 17.7119 -21.6006 23.7598
c-4.31934 6.04785 -7.34277 10.5117 -9.07031 13.3916s-5.04004 8.92773 -9.93652 18.1436c-4.89551 9.2168 -7.63086 14.1133 -8.20703 14.6895c-13.8242 26.4951 -31.6807 44.0625 -53.5684 52.7021c-19.584 8.63965 -43.2002 32.5439 -70.8477 71.7119
c-5.18457 7.48828 -11.665 16.9922 -19.4414 28.5127c-18.6035 27.5605 -30.2676 43.1123 -34.9922 46.6553c-4.6084 4.6084 -6.91211 7.77637 -6.91211 9.50488v3.45508c5.53027 4.6084 14.1133 6.76855 25.749 6.48047
c11.6348 -0.288086 22.9238 0.864258 33.8682 3.45703c10.9443 2.5918 29.2324 11.2314 54.8643 25.9199c25.6318 14.6875 40.1758 23.4717 43.6318 26.3516c6.33594 5.28027 9.50391 9.60059 9.50391 12.9609v2.5918c-2.87988 5.76074 -5.86816 8.64062 -8.96387 8.64062
h-10.0439c-2.87988 -0.575195 -8.49609 -1.72754 -16.8477 -3.45605c-8.35254 -1.72754 -16.8486 -2.87988 -25.4883 -3.45605c7.48828 7.4873 11.2324 12.2393 11.2324 14.2559v5.61621c0 1.15137 -0.288086 2.15918 -0.864258 3.02344
c-0.576172 0.863281 -1.15234 1.87109 -1.72852 3.02344c-3.29199 3.29199 -9.73047 3.68262 -19.3164 1.17285c-9.58691 -2.50977 -15.8203 -4.05273 -18.7002 -4.62891c-39.7441 -11.5205 -69.2646 -12.0967 -88.5605 -1.72852s-41.3281 12.6719 -66.0967 6.91211
s-44.6406 -13.248 -59.6162 -22.4648c-8.63965 -3.45605 -35.7119 -5.18359 -81.2168 -5.18359l-64.7998 -1.72852c-4.03223 0 -6.91211 -2.5918 -8.64062 -7.77539zM808.58 29.3115c-12.0029 -8.62012 -21.0713 -12.7842 -27.2041 -12.4922
c-6.13379 0.292969 -10.4424 0.704102 -12.9268 1.23438c13.0713 1.04199 26.4482 4.79492 40.1309 11.2578zM569.255 761.891c0.936523 -7.48828 5.34668 -11.3721 13.2305 -11.6602s19.8896 1.2959 36.0176 4.75195l-1.72754 -1.72754l-54.4326 -28.9443
c-18.9082 -9.02441 -32.1309 -13.0811 -39.6689 -12.1699c-7.53809 0.913086 -15.7705 0.649414 -24.6973 -0.791016c-8.92871 -1.44043 -16.2725 -4.46484 -22.0322 -9.07324c-5.76074 -4.6084 -8.06445 -10.3682 -6.91211 -17.2803
c1.15137 -6.91113 4.46289 -12.8154 9.93457 -17.7119c5.47266 -4.89551 10.6562 -11.0869 15.5518 -18.5752c19.71 -30.1436 32.8145 -49.4395 39.3135 -57.8877c28.7998 -40.8965 54.7197 -66.2402 77.7598 -76.0322c11.5205 -5.18457 20.5928 -11.2324 27.2168 -18.1445
s11.8076 -13.9678 15.5508 -21.168c3.74512 -7.2002 6.76953 -12.96 9.07324 -17.2803c2.30371 -4.31934 4.17578 -7.91895 5.61621 -10.7988s3.45703 -6.62402 6.0498 -11.2324c2.5918 -4.60742 5.03906 -8.49512 7.34277 -11.6631
c5.37598 -7.3916 15.2158 -18.2393 29.5195 -32.543s31.9678 -36.1436 52.9922 -65.5195c21.0234 -29.376 34.9912 -53.5674 41.9043 -72.5752c34.1816 -97.6631 47.1416 -157.855 38.8799 -180.577c-1.29785 -2.94922 -2.76465 -5.84473 -4.40039 -8.68555
c-0.251953 2.60742 -1.08887 5.21484 -2.51074 7.82227c-8.63965 9.21582 -21.0234 11.376 -37.1514 6.48047c-16.1279 -4.89648 -29.9561 -12.9805 -41.4844 -24.2529c-11.5283 -11.2715 -16.1357 -20.2705 -13.8223 -26.9971
c-29.5107 18.6865 -53.4111 52.9053 -71.7012 102.656c-6.66699 19.0479 -14.0938 34.8975 -22.2803 47.5488c-8.18652 12.6523 -18.04 26.3223 -29.5605 41.0107s-19.873 25.0566 -25.0576 31.1045c-5.18359 6.04785 -10.6553 14.2559 -16.416 24.624
c-15.2725 27.4912 -23.9121 56.291 -25.9199 86.3994c-2.87988 26.4971 -6.47949 45.2168 -10.7998 56.1602c-4.31934 10.9443 -11.0879 18.1445 -20.3047 21.6006c-7.4873 4.03223 -11.8076 7.2002 -12.9609 9.50391c-5.18359 6.33594 -9.79102 18.7197 -13.8232 37.1523
c-4.03223 18.4316 -9.93652 33.1191 -17.7129 44.0635s-16.416 16.1279 -25.9199 15.5508c-9.50391 -0.576172 -16.9922 -5.75977 -22.4648 -15.5518c-5.47168 -9.79199 -7.34375 -20.1602 -5.61523 -31.1045c6.33594 -62.7842 10.0801 -99.9365 11.2324 -111.456
c8.63965 -59.3281 20.4473 -104.832 35.4229 -136.513c14.9766 -31.6797 24.4805 -62.4951 28.5127 -92.4473c6.90234 -51.2744 4.59863 -82.666 -6.91211 -94.1758c-18.4326 -18.4326 -36.8643 -28.2246 -55.2959 -29.377
c-23.9121 -1.32812 -41.1924 14.5117 -51.8398 47.5205l-8.64062 24.1914c-2.87988 8.06445 -6.47949 16.417 -10.7998 25.0566c-10.7998 21.6006 -21.5996 43.2002 -32.3994 64.7998c-19.584 37.4404 -27.9355 64.5127 -25.0557 81.2168
c2.63281 14.0459 0.266602 31.0938 -7.09766 51.1426s-11.6221 32.0898 -12.7734 36.1221c-11.5205 36.2881 -7.77637 68.5439 11.2314 96.7676c12.0957 17.8555 19.1514 31.8232 21.168 41.9033c2.01562 10.0801 1.58301 18.5762 -1.29688 25.4893
c-2.87988 6.91113 -4.17578 11.9512 -3.8877 15.1201c0.288086 3.16699 3.88867 9.64648 10.8008 19.4385h0.864258c9.79199 13.2471 14.9756 25.4873 15.5518 36.7207c0.575195 11.2314 -3.3125 18.5752 -11.6641 22.0312
c-8.35254 3.45605 -16.9922 1.87207 -25.9199 -4.75195c-8.92871 -6.62402 -15.6973 -15.4082 -20.3057 -26.3516c-4.60742 -10.9443 -13.9678 -27.2168 -28.0801 -48.8174c-34.0225 -52.0752 -53.4629 -96.5713 -58.3213 -133.488
c-2.46777 -22.2168 -5.24512 -45.0508 -8.33105 -68.5029c-3.08594 -23.4512 -5.49219 -42.0889 -7.21973 -55.9131c-2.87988 -23.04 -4.32031 -39.6416 -4.32031 -49.8047s-0.603516 -16.6865 -1.81055 -19.5703c-0.78418 4.82324 -4.42285 7.7998 -10.916 8.92871
c-6.49121 1.12891 -12.1914 0.578125 -17.0996 -1.65332c-4.9082 -2.23047 -8.05957 -4.48438 -9.45508 -6.76172c-3.13379 15.9912 -1.97852 36.3623 3.46582 61.1123c5.44531 24.749 9.03223 42.3076 10.7598 52.6758c4.84668 29.0771 -0.913086 49.5254 -17.2793 61.3447
c-9.79199 6.91211 -18.8643 9.36035 -27.2158 7.34375c-8.35254 -2.01562 -18.1445 -5.90332 -29.377 -11.6641c-11.2314 -5.75977 -19.8711 -9.07227 -25.9189 -9.93652c-6.04785 -0.863281 -12.2393 1.58496 -18.5752 7.34473
c1.85059 -0.856445 3.57812 -0.856445 5.18359 0c8.64062 4.03223 9.79297 18 3.45605 41.9033c-6.33594 23.9043 -13.5361 35.2803 -21.5996 34.1289h-0.55957c4.84668 12.3438 11.6572 19.832 20.4316 22.4639l0.863281 0.864258
c25.3447 7.4873 43.2012 14.1113 53.5693 19.8721c20.1602 12.6719 34.2725 30.2393 42.3359 52.7031s23.0391 45.5039 44.9268 69.1201c25.6729 25.6729 40.7314 42.459 45.1758 50.3584c4.44238 7.89941 8.3916 13.8652 11.8477 17.8975s6.76758 7.48828 9.93555 10.3682
s6.48047 5.32812 9.93652 7.34375c3.45605 2.0166 6.47949 3.88867 9.07129 5.61621c6.04785 4.03223 10.2246 6.04785 12.5293 6.04785l1.72754 0.864258l-2.59277 17.2803h-2.5918l-33.6953 7.77539c-6.91211 1.72852 -10.6562 2.59277 -11.2324 2.59277l31.9678 0.863281
c52.7998 0 83.04 2.30371 90.7197 6.91211h0.864258c12.6719 9.21582 29.8076 16.2715 51.4082 21.167c21.6006 4.89648 42.4805 2.16016 62.6396 -8.20801v0.864258c19.584 -10.3682 50.9756 -9.21582 94.1758 3.45605c2.30469 1.15137 5.47266 1.72754 9.50488 1.72754
c-5.18457 -5.18359 -7.77637 -10.3672 -7.77637 -15.5508zM28.1582 393.068c-1.01465 1.49609 -1.94531 3.0459 -2.79199 4.65039c0.951172 -1.69629 1.88184 -3.24609 2.79199 -4.65039z" />
</svg>
