<?xml version="1.0" standalone="no"?>
<!DOCTYPE svg PUBLIC "-//W3C//DTD SVG 1.1//EN" "http://www.w3.org/Graphics/SVG/1.1/DTD/svg11.dtd" >
<svg xmlns="http://www.w3.org/2000/svg" xmlns:xlink="http://www.w3.org/1999/xlink" version="1.1" viewBox="-10 0 1021 1000">
   <path fill="currentColor"
d="M965 210l35.002 42.0039c-68.667 56 -116.667 90.667 -144 104s-55 19.666 -83 18.999c-8.66699 14 -17 26.333 -25 37c-23.333 28 -49.333 50.667 -78 68h-1v1c-41.333 21.333 -88.333 35.833 -141 43.5s-101 2.16699 -145 -16.5l-1 -1
c-31.333 -14 -66.333 -38.667 -105 -74c-53.333 31.333 -136.333 81.333 -249 150l-28 -46c128 -79.333 217.333 -133 268 -161c79.333 -46.667 141.166 -75.834 185.499 -87.501s94.166 -12.167 149.499 -1.5c17.333 3.33301 40.5 8.66602 69.5 15.999s49.167 12 60.5 14
c36.5742 8.0459 68.5508 5.39062 95.9307 -7.96582s72.7363 -46.3682 136.069 -99.0352zM713.002 368.004c-96.333 -22.667 -156.75 -34.001 -181.251 -34.001c-24.5 0 -50.417 3.66699 -77.75 11s-69.666 27.333 -126.999 60c29.333 24.667 55 42 77 52
c35.333 14 76 18.333 122 13c42.667 -6.66699 81.667 -19 117 -37c23.333 -14 44.333 -32.333 63 -55c0.666992 -1.33301 3 -4.66602 7 -9.99902z" />
</svg>
