<?xml version="1.0" encoding="UTF-8" standalone="no"?>
<!-- Created with Inkscape (http://www.inkscape.org/) -->

<svg
   width="4.0700002mm"
   height="4.0100002mm"
   version="1.1"
   viewBox="0 0 4.07 4.01"
   id="svg12"
   sodipodi:docname="Concrecao_silicosa.svg"
   inkscape:version="1.1.2 (b8e25be833, 2022-02-05)"
   xmlns:inkscape="http://www.inkscape.org/namespaces/inkscape"
   xmlns:sodipodi="http://sodipodi.sourceforge.net/DTD/sodipodi-0.dtd"
   xmlns="http://www.w3.org/2000/svg"
   xmlns:svg="http://www.w3.org/2000/svg"
   xmlns:rdf="http://www.w3.org/1999/02/22-rdf-syntax-ns#"
   xmlns:cc="http://creativecommons.org/ns#"
   xmlns:dc="http://purl.org/dc/elements/1.1/">
  <defs
     id="defs16" />
  <sodipodi:namedview
     pagecolor="#ffffff"
     bordercolor="#666666"
     borderopacity="1"
     objecttolerance="10"
     gridtolerance="10"
     guidetolerance="10"
     inkscape:pageopacity="0"
     inkscape:pageshadow="2"
     inkscape:window-width="1920"
     inkscape:window-height="1057"
     id="namedview14"
     showgrid="false"
     inkscape:zoom="40"
     inkscape:cx="7.6625"
     inkscape:cy="7.55"
     inkscape:window-x="-8"
     inkscape:window-y="-8"
     inkscape:window-maximized="1"
     inkscape:current-layer="svg12"
     inkscape:pagecheckerboard="0"
     inkscape:document-units="mm" />
  <metadata
     id="metadata2">
    <rdf:RDF>
      <cc:Work
         rdf:about="">
        <dc:format>image/svg+xml</dc:format>
        <dc:type
           rdf:resource="http://purl.org/dc/dcmitype/StillImage" />
      </cc:Work>
    </rdf:RDF>
  </metadata>
  <g
     transform="translate(-63.335,-108.716)"
     id="g10">
    <g
       transform="matrix(0.01,0,0,0.01,-84.66,77.551)"
       clip-rule="evenodd"
       fill-rule="evenodd"
       image-rendering="optimizeQuality"
       shape-rendering="geometricPrecision"
       text-rendering="geometricPrecision"
       id="g8">
      <path
         style="fill:none;stroke:#000000;stroke-width:25;stroke-miterlimit:4;stroke-dasharray:none"
         d="m 15194,3317 a 191,188 0 0 1 -191,188 191,188 0 0 1 -191,-188 191,188 0 0 1 191,-188 191,188 0 0 1 191,188 z"
         id="ellipse4" />
      <g
         aria-label="S"
         style="font-weight:bold;font-size:246.94px;font-family:Arial;fill:#000000"
         id="text6" />
    </g>
  </g>
  <path
     class="fil1"
     d="m 1.3081121,2.3462023 0.2205996,-0.0193 c 0.0103,0.088499 0.034601,0.1608926 0.072899,0.2177006 0.0382,0.056804 0.0975,0.1024989 0.1777995,0.137498 0.080201,0.034999 0.1707999,0.052199 0.2712008,0.052199 0.089304,0 0.1678924,-0.0131 0.2361995,-0.0395 0.068305,-0.026698 0.1194099,-0.062895 0.1526953,-0.1090031 0.033409,-0.0465 0.050196,-0.096697 0.050196,-0.1514976 0,-0.055503 -0.016,-0.1036964 -0.048503,-0.145303 C 2.409091,2.2474924 2.3560039,2.2128856 2.2822889,2.1848863 2.2345911,2.1663864 2.129986,2.1375808 1.9674891,2.0984933 1.8052893,2.0593851 1.6912893,2.0226929 1.626288,1.9881934 1.5418875,1.9440925 1.4788871,1.8889942 1.4373878,1.8234932 c -0.0412,-0.0654 -0.061801,-0.1386005 -0.061801,-0.2200999 0,-0.0889 0.0251,-0.1725012 0.075699,-0.2498998 0.0507,-0.0777 0.1248012,-0.1365998 0.2219005,-0.1768993 0.0975,-0.04 0.2054004,-0.060099 0.3243004,-0.060099 0.1313034,0 0.2465009,0.021 0.3468998,0.063401 0.1001037,0.0419 0.1769984,0.1040992 0.2309012,0.1860012 0.0535,0.0819 0.0828,0.1749005 0.086909,0.2786011 l -0.2242999,0.0169 C 2.4254977,1.5498987 2.3847898,1.4650977 2.3152047,1.4082979 c -0.069503,-0.0572 -0.1720015,-0.0856 -0.3078001,-0.0856 -0.1416009,0 -0.2445003,0.025899 -0.3094995,0.077799 -0.064601,0.051801 -0.097201,0.1144006 -0.097201,0.1872008 0,0.0638 0.023099,0.1160999 0.068801,0.1568001 0.045301,0.0412 0.1624992,0.083201 0.3527002,0.1260009 0.1901101,0.043201 0.3206001,0.080601 0.3914016,0.1127012 0.1028912,0.047799 0.1790013,0.1079005 0.2280001,0.1803001 0.048999,0.072806 0.073302,0.1568043 0.073302,0.2515001 0,0.094198 -0.026802,0.1826974 -0.080694,0.2658012 -0.053892,0.083193 -0.1313034,0.1478015 -0.2321008,0.1943018 -0.100909,0.046108 -0.2145001,0.06911 -0.3403999,0.06911 -0.1600997,0 -0.2943001,-0.023002 -0.4021016,-0.069895 -0.1082,-0.0465 -0.193001,-0.1164985 -0.2547997,-0.2103002 -0.061301,-0.093496 -0.0938,-0.1996085 -0.096701,-0.3178156 z"
     id="path30"
     style="clip-rule:evenodd;fill:#000000;fill-rule:nonzero;stroke-width:20.6484;image-rendering:optimizeQuality;shape-rendering:geometricPrecision;text-rendering:geometricPrecision" />
</svg>
