<?xml version="1.0" encoding="UTF-8" standalone="no"?>
<!-- Created with Inkscape (http://www.inkscape.org/) -->

<svg
   width="9.3186407mm"
   height="2.5992913mm"
   version="1.1"
   viewBox="0 0 9.318641 2.5992914"
   id="svg850"
   sodipodi:docname="Marca_ondul_simetrica.svg"
   inkscape:version="1.1.2 (b8e25be833, 2022-02-05)"
   xmlns:inkscape="http://www.inkscape.org/namespaces/inkscape"
   xmlns:sodipodi="http://sodipodi.sourceforge.net/DTD/sodipodi-0.dtd"
   xmlns="http://www.w3.org/2000/svg"
   xmlns:svg="http://www.w3.org/2000/svg"
   xmlns:rdf="http://www.w3.org/1999/02/22-rdf-syntax-ns#"
   xmlns:cc="http://creativecommons.org/ns#"
   xmlns:dc="http://purl.org/dc/elements/1.1/">
  <defs
     id="defs854" />
  <sodipodi:namedview
     id="namedview852"
     pagecolor="#ffffff"
     bordercolor="#666666"
     borderopacity="1.0"
     inkscape:pageshadow="2"
     inkscape:pageopacity="0.0"
     inkscape:pagecheckerboard="0"
     inkscape:document-units="mm"
     showgrid="false"
     inkscape:zoom="31.926275"
     inkscape:cx="17.242851"
     inkscape:cy="4.8862575"
     inkscape:window-width="1920"
     inkscape:window-height="1057"
     inkscape:window-x="-8"
     inkscape:window-y="-8"
     inkscape:window-maximized="1"
     inkscape:current-layer="svg850" />
  <metadata
     id="metadata840">
    <rdf:RDF>
      <cc:Work
         rdf:about="">
        <dc:format>image/svg+xml</dc:format>
        <dc:type
           rdf:resource="http://purl.org/dc/dcmitype/StillImage" />
      </cc:Work>
    </rdf:RDF>
  </metadata>
  <g
     transform="translate(-63.42768,-100.04071)"
     id="g848">
    <g
       transform="matrix(0.01,0,0,0.01,43.332,54.315)"
       clip-rule="evenodd"
       fill="none"
       fill-rule="evenodd"
       image-rendering="optimizeQuality"
       shape-rendering="geometricPrecision"
       stroke="#000000"
       stroke-width="50"
       id="g846">
      <path
         class="fil2 str1"
         d="m 2013,4653 c 50,10 101,19 144,28 44,9 81,17 112,13 31,-4 57,-20 82,-38 25,-18 50,-38 78,-51 29,-13 61,-18 90,-13 29,5 55,20 78,37 24,17 46,37 63,49 17,13 28,19 56,19 28,0 72,-5 112,-11 40,-7 75,-15 110,-22"
         id="path842"
         style="stroke-width:35;stroke-miterlimit:4;stroke-dasharray:none" />
      <path
         class="fil2 str1"
         d="m 2013,4771 c 50,10 101,19 144,28 44,9 81,17 112,13 31,-4 57,-20 82,-38 25,-18 50,-38 78,-51 29,-13 61,-18 90,-13 29,5 55,20 78,37 24,17 46,37 63,49 17,13 28,19 56,19 28,0 72,-5 112,-11 40,-7 75,-15 110,-22"
         id="path844"
         style="stroke-width:35;stroke-miterlimit:4;stroke-dasharray:none" />
    </g>
  </g>
</svg>
