<?xml version="1.0" standalone="no"?>
<!DOCTYPE svg PUBLIC "-//W3C//DTD SVG 1.1//EN" "http://www.w3.org/Graphics/SVG/1.1/DTD/svg11.dtd" >
<svg xmlns="http://www.w3.org/2000/svg" xmlns:xlink="http://www.w3.org/1999/xlink" version="1.1" viewBox="-11 0 952 1000">
   <path fill="currentColor"
d="M256.756 395.084c-53.377 0 -98.8408 18.7754 -136.391 56.3262c-37.5508 37.5498 -56.3262 83.0137 -56.3262 136.391c0 53.3779 18.7754 98.8418 56.3262 136.392c37.5498 37.5498 83.0137 56.3252 136.391 56.3252c53.3779 0 98.8418 -18.7754 136.392 -56.3252
s56.3252 -83.0137 56.3252 -136.392c0 -53.377 -18.7754 -98.8408 -56.3252 -136.391c-37.5498 -37.5508 -83.0137 -56.3262 -136.392 -56.3262zM256.756 376.464c58.3428 0 108.307 20.6387 149.892 61.9131c33.1719 32.9248 53.1133 71.3789 59.8242 115.362
c6.23242 -45.0732 26.3242 -84.458 60.2744 -118.155c41.585 -41.2744 91.5488 -61.9111 149.892 -61.9111s108.151 20.6367 149.426 61.9111s61.9111 91.083 61.9111 149.426c0 9.63184 -0.5625 19.0352 -1.6875 28.21c16.6416 -47.1104 24.9629 -98.502 24.9629 -154.176
s-11.793 -111.13 -35.3779 -166.369c-47.7734 -111.892 -126.753 -191.182 -236.939 -237.87c-23.2842 -9.86621 -47.0986 -17.6416 -71.4434 -23.3262c16.4902 9.44141 31.9258 21.4062 46.3066 35.8945c41.2744 41.585 61.9111 91.5488 61.9111 149.892
c0 38.4814 -9.46484 74.0146 -28.3955 106.6s-44.5332 58.1875 -76.8076 76.8076s-67.9629 27.9297 -107.065 27.9297c-58.3428 0 -108.151 -20.6367 -149.426 -61.9111s-61.9111 -91.083 -61.9111 -149.426s20.6367 -108.307 61.9111 -149.892
c13.8086 -13.9131 28.5898 -25.498 44.3428 -34.7549c-81.4463 19.9854 -151.001 59.0342 -208.664 117.146c-39.7227 40.0342 -71.377 87.6709 -94.9629 142.91c-23.585 55.2393 -35.377 111.611 -35.377 169.117c0 57.5049 9.56348 111.366 28.6895 161.584
c-1.74805 -11.335 -2.62207 -23.0381 -2.62207 -35.1094c0 -58.6533 20.6367 -108.617 61.9111 -149.892s91.083 -61.9111 149.426 -61.9111zM463.438 24.5479c-35.3779 0 -67.6523 8.53516 -96.8232 25.6035s-52.4463 40.498 -69.8252 70.29
s-26.0684 62.0664 -26.0684 96.8232c0 53.3779 18.7754 98.8418 56.3252 136.393c37.5508 37.5498 83.0146 56.3252 136.392 56.3252c53.3779 0 98.8418 -18.7754 136.393 -56.3252c37.5498 -37.5508 56.3252 -83.0146 56.3252 -136.393
c0 -53.377 -18.7754 -98.8408 -56.3252 -136.392c-37.5508 -37.5498 -83.0146 -56.3252 -136.393 -56.3252zM676.638 392.294c-52.7568 0 -97.9102 18.7754 -135.46 56.3252c-37.5498 37.5508 -56.3252 83.0146 -56.3252 136.392c0 53.3779 18.7754 98.8418 56.3252 136.392
s82.7031 56.3252 135.46 56.3252s98.0654 -18.7754 135.926 -56.3252s56.791 -83.0137 56.791 -136.392c0 -53.377 -18.9307 -98.8408 -56.791 -136.392c-37.8604 -37.5498 -83.1689 -56.3252 -135.926 -56.3252zM465.3 0.342773c63.3086 0 123.669 12.2588 181.08 36.7754
c57.4111 24.5156 106.909 57.5664 148.494 99.1514c41.585 41.584 74.6357 91.082 99.1523 148.493c24.5166 57.4121 36.7744 117.772 36.7744 181.08c0 63.3086 -12.2578 123.669 -36.7744 181.08s-57.5674 106.909 -99.1523 148.494s-91.083 74.6357 -148.494 99.1523
s-117.771 36.7744 -181.08 36.7744c-63.3076 0 -123.668 -12.2578 -181.08 -36.7744c-57.4111 -24.5166 -106.909 -57.5674 -148.493 -99.1523c-41.585 -41.585 -74.6357 -91.083 -99.1514 -148.494c-24.5166 -57.4111 -36.7754 -117.771 -36.7754 -181.08
c0 -63.3076 12.2588 -123.668 36.7754 -181.08c24.5156 -57.4111 57.5664 -106.909 99.1514 -148.493c41.584 -41.585 91.082 -74.6357 148.493 -99.1514c57.4121 -24.5166 117.772 -36.7754 181.08 -36.7754zM466.944 619.533
c-6.20801 45.3486 -26.3086 84.8896 -60.2988 118.626c-41.585 41.2744 -89.9199 61.9111 -145.005 61.9111s-101.807 -16.2852 -140.165 -48.8564c44.6709 54.5498 97.9365 95.1055 159.797 121.667s123.203 39.8418 184.028 39.8418s118.702 -11.792 173.631 -35.377
c69.8672 -30 127.285 -72.8896 172.254 -128.668c-38.2002 32.4014 -84.7607 48.6016 -139.682 48.6016s-103.174 -20.793 -144.759 -62.3779c-33.1357 -33.1357 -53.0693 -71.5918 -59.8008 -115.368z" />
</svg>
