<?xml version="1.0" standalone="no"?>
<!DOCTYPE svg PUBLIC "-//W3C//DTD SVG 1.1//EN" "http://www.w3.org/Graphics/SVG/1.1/DTD/svg11.dtd" >
<svg xmlns="http://www.w3.org/2000/svg" xmlns:xlink="http://www.w3.org/1999/xlink" version="1.1" viewBox="-11 0 1022 1000">
   <path fill="currentColor"
d="M811 191c-8.66699 7.33301 -16.6699 14.6709 -24.0029 22.0039c-3.33301 4 -10.5 11.833 -21.5 23.5s-19.833 21.167 -26.5 28.5c-20.667 21.333 -37.334 37.666 -50.001 48.999c-18 15.333 -32.333 24 -43 26c-7.11133 0.888672 -22.3701 1.33301 -45.7773 1.33301
c-11.7041 0 -25.4453 -0.111328 -41.2227 -0.333984c-14 0 -37.833 -0.333008 -71.5 -1s-60.167 -1.33398 -79.5 -2.00098c-34.333 -0.666992 -63.75 -1 -88.25 -1s-44.083 0.333008 -58.75 1c-18.667 0.666992 -36.334 1.66699 -53.001 3
c-14 1.33301 -22.333 2.66602 -25 3.99902c-28.667 15.333 -60.334 37.333 -95.001 66c-19.333 15.333 -35.333 30.333 -48 45c-13.333 14.667 -20 26.334 -20 35.001c-0.0634766 1.42871 -0.0957031 2.85352 -0.0957031 4.27441c0 28.4199 12.6982 55.3281 38.0947 80.7246
c27.333 26.667 58.333 40 93 40c16.667 0 42 -14.667 76 -44c3.33301 -3.33301 9.33301 -8.83301 18 -16.5s15 -13.167 19 -16.5c14 -12 25 -18.667 33 -20c8 -2 16.5 -3.5 25.5 -4.5s17.167 -1.83301 24.5 -2.5s16.833 -0.833984 28.5 -0.500977
s20.334 0.666016 26.001 0.999023s15.334 1 29.001 2s22.834 1.83301 27.501 2.5s14.834 1.83398 30.501 3.50098s24.834 2.83398 27.501 3.50098c39.2002 4.2666 74.2939 6.40039 105.28 6.40039c46.4805 0 83.7207 -4.7998 111.721 -14.3994
c2.66699 -1.33301 7.66699 -4 15 -8l28 -20c23.333 -16.667 48.666 -35.334 75.999 -56.001c30.667 -24 56 -45 76 -63c15.333 -13.333 28 -25 38 -35c-41.333 -0.666992 -77.166 -15 -107.499 -43s-46.166 -61.333 -47.499 -100zM855.997 179.005
c-6 -0.666992 -14.334 -0.331055 -25.001 1.00195c-0.124023 2.26758 -0.185547 4.51855 -0.185547 6.75195c0 33.876 14.2285 63.792 42.6855 89.7471c27.667 25.2344 59.3545 37.8516 95.0625 37.8516c3.44141 0 6.9209 -0.117188 10.4375 -0.351562
c1.57422 -7.7373 2.36133 -15.2432 2.36133 -22.5166c0 -29.6992 -13.1201 -55.5273 -39.3604 -77.4834c-23.333 -20.667 -52 -32.334 -86 -35.001zM856.996 159.008c38 3.33301 70.666 16.667 97.999 40c18 15.333 31 34.333 39 57
c4.36328 12.3633 6.54492 25.0244 6.54492 37.9834c0 10.7988 -1.51562 21.8047 -4.5459 33.0166h-1l-1 3c0 0.666992 -0.333008 1.66699 -1 3s-1 2.33301 -1 3l-3 2l-1 1c-8.66699 10.667 -24.667 26 -48 46c-17.333 14.667 -43 35 -77 61c-32 24.667 -57.333 44 -76 58
l-28 20c-9.33301 6 -15.666 9.33301 -18.999 10c-31.333 10.667 -68.166 16 -110.499 16s-80.833 -2.66699 -115.5 -8c-2.66699 0 -11 -0.833008 -25 -2.5s-22.833 -2.66699 -26.5 -3s-11.667 -1.16602 -24 -2.49902s-21 -2 -26 -2s-12.667 -0.333008 -23 -1
s-18.5 -0.833984 -24.5 -0.500977s-13 0.666016 -21 0.999023s-15.333 1 -22 2s-13.334 2.16699 -20.001 3.5c-5.33301 1.33301 -14 7 -26 17c-4 3.33301 -10 8.83301 -18 16.5s-14.333 13.167 -19 16.5c-36.667 32 -66 48.333 -88 49c-40.667 0 -76.5 -15.333 -107.5 -46
c-29.1211 -28.8076 -43.6816 -59.9688 -43.6816 -93.4834c0 -2.16211 0.0605469 -4.33398 0.181641 -6.51562c1.33301 -14 9.66602 -29.333 24.999 -46c12.667 -14 29.334 -30 50.001 -48c35.333 -28.667 68.333 -51.334 99 -68.001c6 -3.33301 16.667 -5.5 32 -6.5
s33.333 -1.83301 54 -2.5c16 -0.333008 36.417 -0.5 61.25 -0.5s54.083 0.166992 87.75 0.5c14.667 0 31.5 0.333008 50.5 1s37.333 1 55 1h44.5c23 0.333008 41.583 0.5 55.75 0.5s23.917 -0.166992 29.25 -0.5c6.66699 -1.33301 17.667 -8.66602 33 -21.999
c14.667 -13.333 31 -29.333 49 -48c6.66699 -6.66699 15.5 -16 26.5 -28s17.833 -20 20.5 -24c17.333 -18.667 29 -29.667 35 -33l10 -6h2c7.2002 -1.2002 14.5205 -1.7998 21.9609 -1.7998c4.95996 0 9.97363 0.266602 15.04 0.799805z" />
</svg>
