<?xml version="1.0" standalone="no"?>
<!DOCTYPE svg PUBLIC "-//W3C//DTD SVG 1.1//EN" "http://www.w3.org/Graphics/SVG/1.1/DTD/svg11.dtd" >
<svg xmlns="http://www.w3.org/2000/svg" xmlns:xlink="http://www.w3.org/1999/xlink" version="1.1" viewBox="-10 0 1021 1000">
   <path fill="currentColor"
d="M236 536v-281h57v110h111v-110h58v281h-58v-123h-111v123h-57zM591.5 468c15 16.667 34.4668 25 58.4014 25c23.9326 0 46.2988 -8 67.0986 -24v-36h-66v-47h123v112c-12 11.333 -29.333 21.333 -52 30s-47.167 13 -73.5 13s-50.333 -6.16699 -72 -18.5
s-38 -29.833 -49 -52.5s-16.5 -48.167 -16.5 -76.5s6.16699 -54 18.5 -77c23.7725 -44.333 63.9395 -66.5 120.5 -66.5c69.3164 0 109.649 27.667 121 83l-57 11c-8.57129 -30 -29.9043 -45 -63.999 -45c-24.667 0 -44.334 7.83301 -59.001 23.5s-22 39.667 -22 72
s7.5 56.833 22.5 73.5zM0.000976562 357h167v80h-167v-80zM831.001 357h169v80h-169v-80z" />
</svg>
