<?xml version="1.0" standalone="no"?>
<!DOCTYPE svg PUBLIC "-//W3C//DTD SVG 1.1//EN" "http://www.w3.org/Graphics/SVG/1.1/DTD/svg11.dtd" >
<svg xmlns="http://www.w3.org/2000/svg" xmlns:xlink="http://www.w3.org/1999/xlink" version="1.1" viewBox="-11 0 1021 1000">
   <path fill="currentColor"
d="M354 115l85 -2c2.66699 113.333 4.16699 200.5 4.5 261.5s-3.16699 113.167 -10.5 156.5c-9.33301 57.333 -30 98.333 -62 123c-20.667 15.333 -53.334 26 -98.001 32s-135.667 8 -273 6l1 -85c133.333 2.66699 217.166 1.83398 251.499 -2.49902
s56.833 -10.5 67.5 -18.5c25.333 -19 38 -90.833 38 -215.5c0 -57.0703 -1.33301 -142.237 -3.99805 -255.501zM544.998 113.001l84 2c-2 112.667 -3 198 -3 256s2.83301 104.333 8.5 139s13.5 58.334 23.5 71.001c18 18 78.5 27 181.5 27c47 0 99.5 -0.666992 157.5 -2
l3 84c-58 2 -111.833 3 -161.5 3s-93.834 -2.33301 -132.501 -7s-69.334 -15 -92.001 -31c-30.667 -24 -50.5 -61.333 -59.5 -112s-13.5 -106.5 -13.5 -167.5s1.33398 -148.5 4.00195 -262.501z" />
</svg>
