<?xml version="1.0" encoding="UTF-8" standalone="no"?>
<!-- Creator: CorelDRAW -->

<svg
   xml:space="preserve"
   width="7.5138092mm"
   height="5.2390809mm"
   style="clip-rule:evenodd;fill-rule:evenodd;image-rendering:optimizeQuality;shape-rendering:geometricPrecision;text-rendering:geometricPrecision"
   viewBox="0 0 1.4257787 0.99414064"
   version="1.1"
   id="svg1156"
   sodipodi:docname="Geodo.svg"
   inkscape:version="1.1.2 (b8e25be833, 2022-02-05)"
   xmlns:inkscape="http://www.inkscape.org/namespaces/inkscape"
   xmlns:sodipodi="http://sodipodi.sourceforge.net/DTD/sodipodi-0.dtd"
   xmlns="http://www.w3.org/2000/svg"
   xmlns:svg="http://www.w3.org/2000/svg"><sodipodi:namedview
   id="namedview1158"
   pagecolor="#ffffff"
   bordercolor="#666666"
   borderopacity="1.0"
   inkscape:pageshadow="2"
   inkscape:pageopacity="0.0"
   inkscape:pagecheckerboard="0"
   inkscape:document-units="mm"
   showgrid="false"
   inkscape:zoom="42.76329"
   inkscape:cx="14.20611"
   inkscape:cy="9.8916618"
   inkscape:window-width="1920"
   inkscape:window-height="1057"
   inkscape:window-x="-8"
   inkscape:window-y="-8"
   inkscape:window-maximized="1"
   inkscape:current-layer="SIMBOLOS" />
 <defs
   id="defs1140">
  <style
   type="text/css"
   id="style1138">
   <![CDATA[
    .str0 {stroke:black;stroke-width:0.0144593}
    .str2 {stroke:black;stroke-width:0.0379509}
    .str1 {stroke:white;stroke-width:0.113853}
    .fil1 {fill:none}
    .fil0 {fill:black}
   ]]>
  </style>
 </defs>
 <g
   id="SIMBOLOS"
   inkscape:label="SIMBOLOS"
   inkscape:groupmode="layer">
  <metadata
   id="CorelCorpID_0Corel-Layer" />
  <ellipse
   class="fil0 str0"
   cx="0.71322799"
   cy="0.49718601"
   rx="0.69425899"
   ry="0.47821"
   id="ellipse1143" />
  
  <path
   style="color:#000000;clip-rule:nonzero;fill:#ffffff;fill-rule:nonzero;-inkscape-stroke:none;shape-rendering:auto"
   d="M 0.68359375,0.02539063 0.5703125,0.03320312 c 0.001249,0.01627516 0.003342,0.03265765 0.003906,0.04492188 5.6177e-4,0.01218858 0,0.02121201 0,0.03125 0,0.010038 -0.002456,0.0321983 0.0117188,0.0566406 0.008826,0.0152817 0.0102036,0.0128801 0.0136719,0.015625 -0.003922,0.007566 -0.010051,0.006861 -0.007813,0.0292969 0.003858,0.0386704 0.023281,0.0495238 0.03125,0.0585938 0.007984,0.00907 0.0153614,0.0223028 0.0136719,0.0175781 0,0 -0.001953,0.001953 -0.001953,0.001953 -0.002164,0.0130106 -0.006718,0.0287053 0,0.0527344 0.006612,0.0238616 0.0259014,0.0405885 0.0390625,0.0488281 0.006564,0.004091 0.0143723,0.0106006 0.0273438,0.0136719 0.0129714,0.003071 0.0342513,0.002555 0.0527344,-0.007813 0.0184571,-0.010405 0.02285,-0.0208787 0.0273438,-0.0273438 0.004494,-0.006465 0.006666,-0.0116302 0.009766,-0.015625 h 0.001953 C 0.7991896,0.345471 0.8126283,0.3305677 0.8261717,0.3144525 0.8379048,0.3004465 0.8452836,0.2886352 0.8515623,0.2773431 0.8707713,0.2745341 0.9017777,0.2576975 0.9121092,0.2382806 0.9188052,0.2255994 0.9181642,0.2198562 0.9199222,0.21289 c 0.006937,-1.8149e-4 0.0132105,0.002101 0.0195313,0 C 0.967154,0.203601 0.9704918,0.1935099 0.978516,0.1874994 c 0.008017,-0.006016 0.0168756,-0.009562 0.0175781,-0.009766 6.8166e-4,-1.986e-4 0.002894,-0.001723 0.009766,0 0.00689,0.00172 0.024327,0.0172204 0.064453,0.007813 0.040218,-0.009429 0.052603,-0.0360367 0.060547,-0.046875 L 1.0390625,0.07226562 c -0.0029,-4.3936e-4 0.00544,-0.0015722 -0.00391,-0.0039063 -0.019921,-0.0049944 -0.0450737,-0.0073536 -0.0703125,0 -0.024555,0.0071081 -0.0407624,0.02032089 -0.0527344,0.02929688 -3.4171e-4,2.562e-4 -0.001618,-2.5114e-4 -0.001953,0 C 0.8954376,0.0939515 0.8721686,0.0927438 0.8554651,0.1035156 0.8364091,0.117083 0.8326719,0.1276098 0.8281213,0.1367187 c -0.004551,0.009109 -0.007078,0.017304 -0.009766,0.0253906 -0.00135,0.004037 -7.956e-4,0.002459 -0.001953,0.005859 -0.007946,2.6419e-4 -0.005907,-0.003905 -0.0214844,0.003906 -0.03392,0.0169116 -0.0355184,0.0400943 -0.0390625,0.046875 -0.003613,0.006912 -0.00745,0.0136786 -0.015625,0.0234375 C 0.7304554,0.2196756 0.718274,0.203917 0.7089804,0.1933587 0.7139324,0.1748567 0.7145714,0.146504 0.7011674,0.1269524 0.686547,0.1057136 0.6805851,0.1007912 0.6855424,0.1093743 c 0,0 0.001953,0 0.001953,0 0,-0.01003799 6.9061e-4,-0.02212519 0,-0.03710938 C 0.68680748,0.05731839 0.6848444,0.04175254 0.6835894,0.02538993 Z"
   id="path1147" />
  <path
   style="color:#000000;clip-rule:nonzero;fill:#ffffff;fill-rule:nonzero;-inkscape-stroke:none;shape-rendering:auto"
   d="m 1.2382812,0.16992187 c -0.00993,0.007828 -0.018056,0.0153529 -0.027344,0.0214844 -0.0093,0.006113 -0.023202,0.0114827 -0.041016,0.0292969 -0.017814,0.0178138 -0.024353,0.0377302 -0.027344,0.0449219 -0.00302,0.00723 -0.00647,0.0103021 -0.00586,0.009766 5.351e-4,-4.6746e-4 -0.00714,0.005387 -0.019531,0.009766 -0.012338,0.004359 -0.028186,0.006951 -0.048828,0.0195313 -0.020607,0.0125348 -0.033566,0.030371 -0.039063,0.0390625 -0.00554,0.008766 -0.00829,0.0139888 -0.00586,0.0117188 0.00233,-0.002171 0.00273,-0.001346 -0.00977,0.003906 -0.012587,0.005263 -0.0322963,0.0129209 -0.0488282,0.0214844 -0.0164954,0.008531 -0.0376152,0.0209646 -0.046875,0.0488281 -0.004687,0.0139772 -0.005166,0.0335656 0.001953,0.0507813 0.007119,0.0172156 0.0212412,0.0298362 0.0351563,0.0371094 0.0278584,0.0145062 0.0465585,0.0137826 0.0664063,0.015625 0.019769,0.001835 0.036544,0.002296 0.042969,0.003906 0.00642,0.0016 0.011753,0.0049 0.025391,0.0117188 0.013709,0.006865 0.037193,0.0168807 0.064453,0.0175781 0.027257,6.9808e-4 0.048499,-0.004196 0.0625,-0.005859 0.013969,-0.001675 0.024352,-7.3663e-4 0.03125,0 0.0068,7.2768e-4 0.01085,0.001269 0.019531,0.003906 0.00857,0.002603 0.024763,0.007881 0.044922,0.009766 0.020102,0.001882 0.038123,0.00175 0.052734,0 0.014671,-0.001757 0.018217,-0.003942 0.017578,-0.003906 -7.183e-4,4.237e-5 0.00945,0.001093 0.019531,0.001953 l 0.00977,-0.11328124 c -0.00992,-8.4731e-4 -0.020282,-0.00283 -0.035156,-0.001953 -0.014832,8.3281e-4 -0.019151,0.003159 -0.025391,0.003906 -0.0063,7.5453e-4 -0.022644,6.2282e-4 -0.029297,0 -0.00663,-6.202e-4 -0.010814,-0.002618 -0.021484,-0.005859 -0.010559,-0.003207 -0.024403,-0.006035 -0.041016,-0.007813 -0.016556,-0.001768 -0.035468,-0.002538 -0.056641,0 -0.021142,0.002511 -0.041532,0.005996 -0.046875,0.005859 -0.00538,-1.3757e-4 -0.00592,-9.9791e-4 -0.015625,-0.005859 -0.00704,-0.00352 -0.020998,-0.008358 -0.035156,-0.0136719 0.011109,-0.0117121 0.017563,-0.0230964 0.021484,-0.0292969 0,0 0,-0.001953 0,-0.001953 -0.0014,8.5396e-4 0.011219,-0.004068 0.027344,-0.009766 0.01607,-0.005678 0.037945,-0.0132113 0.058594,-0.03125 0.020689,-0.0181077 0.02979,-0.0379357 0.035156,-0.0507813 0.00536,-0.0128843 0.00387,-0.009725 0.00195,-0.007813 -0.00191,0.001913 0.00936,-0.008321 0.023437,-0.0175781 0.014052,-0.009277 0.025159,-0.0175072 0.035156,-0.0253906 z"
   id="path1149" />
  <path
   style="color:#000000;clip-rule:nonzero;fill:#ffffff;fill-rule:nonzero;stroke-width:0.810253;stroke-miterlimit:4;stroke-dasharray:none;shape-rendering:auto"
   d="m 0.6484375,0.49804688 c -8.1342e-4,9.754e-5 -0.0246714,0.007377 -0.0253906,0.007812 -7.1924e-4,4.3592e-4 -0.0102019,0.009845 -0.0136719,0.0136719 -0.01388,0.0153079 -0.0157844,0.0231492 -0.0175781,0.0273438 -0.003602,0.008381 -0.006684,0.0159784 -0.0117188,0.0273438 -0.004959,0.0111362 -0.0111167,0.0253541 -0.015625,0.0351563 -0.004703,0.0101694 -0.00862,0.0172014 -0.0136719,0.0273438 -0.005041,0.0100081 -0.0118839,0.025196 -0.0175781,0.0429687 -0.005947,0.0184387 -0.007338,0.0340313 -0.007813,0.046875 -4.7506e-4,0.0128484 -0.001114,0.0250746 -0.001953,0.0332031 -8.348e-4,0.008082 7.109e-5,0.008861 -0.003906,0.015625 -0.003983,0.006765 -0.0173332,0.0219094 -0.0292969,0.0371094 -0.0120117,0.0152134 -0.0231698,0.0317896 -0.0332031,0.0507813 -0.0100342,0.0189933 -0.0198217,0.039223 -0.0292969,0.0605469 L 0.53125,0.97070313 c 0.009462,-0.0212951 0.020376,-0.0414984 0.0273438,-0.0546875 0.006969,-0.0131907 0.0117123,-0.0208262 0.0214844,-0.0332031 0.009782,-0.0124282 0.0243563,-0.0291214 0.0371094,-0.0507813 0.012759,-0.021699 0.0178613,-0.0443784 0.0195313,-0.0605469 0.001665,-0.0161221 0.001593,-0.0293302 0.001953,-0.0390625 3.6003e-4,-0.009737 3.4788e-4,-0.0145541 0.001953,-0.0195313 0.001597,-0.004984 0.006695,-0.0153613 0.0117188,-0.0253906 0.003661,-0.007349 0.00824,-0.0141853 0.0117188,-0.0214844 0.007486,0.0112191 0.0155741,0.022393 0.0214844,0.03125 0.005864,0.008788 0.0127306,0.0206117 0.0234375,0.0332031 0.0106746,0.0125533 0.0251671,0.0249143 0.0449219,0.0351563 0.0196863,0.0101906 0.0360646,0.0147608 0.0527344,0.0195313 0.0166603,0.00475 0.037148,0.0100536 0.0527344,0.015625 0.0156551,0.005596 0.0251387,0.0102507 0.0390625,0.0175781 0.0139075,0.007319 0.0325719,0.0176762 0.0449219,0.0253906 0.0123235,0.007709 0.0226191,0.0165169 0.0410156,0.0234375 0.0149025,0.005578 0.0221554,0.005313 0.0253906,0.005859 7.778e-4,9.7227e-4 0.00548,0.006822 0.011719,0.0175781 0.00621,0.0107428 0.013652,0.0239039 0.021484,0.0371094 L 1.140625,0.86914063 C 1.132859,0.85604617 1.124886,0.84392473 1.1191406,0.83398438 v -0.001953 c -0.00576,-0.009927 -0.01029,-0.0177453 -0.019531,-0.0292969 -0.00926,-0.0115631 -0.026259,-0.0261089 -0.044922,-0.0332031 -0.018554,-0.007053 -0.027646,-0.009148 -0.029297,-0.009766 -0.00168,-6.3177e-4 -0.00705,-0.002691 -0.021484,-0.0117188 -0.0144432,-0.009022 -0.034839,-0.0198794 -0.0527343,-0.0292969 -0.017879,-0.009409 -0.0332469,-0.0184248 -0.0527344,-0.0253906 -0.019556,-0.00699 -0.0420646,-0.0123089 -0.0605469,-0.0175781 -0.0184728,-0.005286 -0.0303087,-0.008267 -0.0332031,-0.009766 -0.002864,-0.001485 -0.006209,-0.005583 -0.009766,-0.009766 -0.003525,-0.004145 -0.008092,-0.0101963 -0.015625,-0.0214844 -0.007486,-0.011219 -0.0155742,-0.0223931 -0.0214844,-0.03125 -0.005864,-0.008788 -0.009032,-0.0161876 -0.0175781,-0.03125 -0.004278,-0.00754 -0.0111254,-0.0171289 -0.0175781,-0.0273438 -0.006453,-0.0102149 -0.007902,-0.0205641 -0.0273438,-0.0351563 -0.004866,-0.003652 -0.0186089,-0.009456 -0.0195313,-0.009766 -9.2234e-4,-3.0946e-4 -0.0265303,-0.002051 -0.0273438,-0.001953 z"
   id="path1151" />
  
 <path
   style="color:#000000;clip-rule:nonzero;fill:#ffffff;fill-rule:nonzero;-inkscape-stroke:none;shape-rendering:auto"
   d="M 0.10546875,0.24023438 0.06445312,0.34570313 c 0.02655817,0.0102015 0.05384557,0.0230443 0.08984375,0.0253906 0.0287304,0.001873 0.0388141,-0.001819 0.0390625,-0.003906 0.009709,0.008677 0.0255991,0.0222136 0.046875,0.0253906 0.0157641,0.002331 0.0266261,-4.0758e-4 0.0390625,-0.001953 -2.2237e-4,0.001456 -0.001808,0.002482 -0.001953,0.003906 0.007172,-0.0133716 -0.001454,-0.00168 -0.003906,0 -0.001238,8.4522e-4 -0.001731,0.001496 -0.005859,0.003906 -0.002064,0.001205 -0.005523,0.002695 -0.009766,0.005859 -0.002121,0.001582 -0.007455,0.007451 -0.007813,0.007813 -3.5797e-4,3.6108e-4 -0.009557,0.0113511 -0.009766,0.0117188 -2.1111e-4,3.6527e-4 -0.005796,0.0191545 -0.005859,0.0195313 -2.876e-5,1.7124e-4 4.8e-7,0.005338 0,0.009766 -0.002615,0.002427 -0.003318,0.002799 -0.005859,0.005859 -0.0099,0.0118257 -0.0264424,0.0316248 -0.0214844,0.0664062 0.003109,0.021807 0.008516,0.022773 0.0136719,0.0292969 -0.0155278,0.0135571 -0.0268841,0.0283863 -0.03125,0.0488281 -0.003517,0.0161668 0.003713,0.0332823 0.009766,0.046875 -0.006942,0.003406 -0.0171697,0.01005 -0.0253906,0.0195313 -0.0146498,0.0168958 -0.013733,0.0197246 -0.0136719,0.0214844 -0.001546,-1.3352e-4 -0.003639,3.16e-6 -0.003906,0 -8.029e-4,-9.49e-6 -0.0167168,0.001714 -0.0175781,0.001953 -8.6131e-4,2.3957e-4 -0.0130668,0.003221 -0.0175781,0.005859 -0.0180452,0.0105548 -0.0198959,0.0179428 -0.02539063,0.0234375 l 0.078125,0.078125 c -0.002472,9.6952e-4 -0.00629,0.002073 -0.005859,0.001953 0.002761,1.3065e-4 0.004732,1.0349e-4 0.007813,0 0.005391,-1.8113e-4 0.008015,0.001328 0.0136719,0 0.0171258,-0.004019 0.0379604,-0.0115789 0.0546875,-0.03125 0.013019,-0.015312 0.0125056,-0.0206168 0.0117169,-0.0214838 0.002993,-0.001259 0.004735,-0.001001 0.009766,-0.003906 0.0183646,-0.0106508 0.0286787,-0.0210514 0.0410156,-0.0390625 0.0122637,-0.0179668 0.0188907,-0.0539516 0.009766,-0.0761719 -0.001747,-0.004226 -0.002166,-0.002588 -0.003906,-0.005859 0.006522,-0.004087 0.007243,-4.1e-5 0.0175781,-0.0175781 0.0200817,-0.0342302 0.008347,-0.0619575 0.007813,-0.0644531 -3.8423e-4,-0.001799 -0.005837,-0.0118717 -0.009766,-0.0214844 4.7955e-4,-4.0639e-4 0.001462,4.2772e-4 0.001953,0 0.002597,-0.002261 0.006583,-0.004312 0.009766,-0.007813 0.001591,-0.00175 0.002046,-0.005289 0.003906,-0.007813 0.00186,-0.002524 0.005596,-0.009244 0.005859,-0.009766 h 0.001953 c 3.975e-4,-7.9861e-4 0.002273,-0.0163611 0.003906,-0.0253906 0.006831,-0.005785 0.0138452,-0.007242 0.0214844,-0.0214844 V 0.447265 c 0.00394,-0.007411 0.002814,-0.014923 0.003906,-0.0234375 0.002125,-0.001238 -3.5327e-4,7.1935e-4 0.007813,-0.003906 0.013869,-0.007868 0.0292529,-0.0168866 0.0429687,-0.0273438 0.003419,-0.002606 0.006286,-0.006459 0.009766,-0.009766 0.00174,-0.001653 0.003609,-0.003211 0.005859,-0.005859 0.001125,-0.001324 0.003755,-0.00369 0.003906,-0.003906 1.5126e-4,-2.1594e-4 0.003821,-0.009589 0.003906,-0.009766 8.538e-5,-1.7641e-4 0.005842,-0.0174439 0.005859,-0.0175781 8.63e-6,-6.713e-5 8.83e-6,-0.0155689 0,-0.015625 -8.83e-6,-5.609e-5 -0.007786,-0.0214397 -0.007813,-0.0214844 -2.657e-5,-4.472e-5 -0.0136273,-0.015592 -0.0136719,-0.015625 -4.46e-5,-3.303e-5 -0.0175152,-0.009745 -0.0175781,-0.009766 -1.2581e-4,-4.201e-5 -0.0193305,-0.001961 -0.0195313,-0.001953 -2.0072e-4,8.08e-6 -0.0114408,0.001892 -0.0117188,0.001953 -2.7791e-4,6.08e-5 -0.004109,0.001384 -0.005859,0.001953 -0.0035,0.001138 -0.005457,8.9574e-4 -0.007813,0.001953 -0.003311,0.001487 -0.003593,0.002777 -0.005859,0.003906 -0.004029,-0.003771 -0.002115,-0.005435 -0.009766,-0.009766 -0.0207003,-0.0116949 -0.0406766,-0.0110757 -0.0527344,-0.009766 -0.0120578,0.00131 -0.0192357,0.004728 -0.0253906,0.005859 -0.0114554,0.002105 -0.0233273,0.001638 -0.0234375,0.001953 -0.008052,-0.008677 -0.0235107,-0.0273438 -0.0566406,-0.0273438 -0.0377001,0 -0.0362544,0.00617 -0.0410156,0.005859 -0.004761,-3.1032e-4 -0.0301434,-0.0074 -0.0566406,-0.0175781 z m 0.0410156,0.5625 c 0,0 0.001953,0.001953 0.001953,0.001953 9.0824e-4,2.0183e-4 0.00452,-2.2135e-4 0.005859,0 8.0291e-4,9.49e-6 -0.006779,-0.001755 -0.007812,-0.001953 z"
   id="path1145" /><path
   style="color:#000000;clip-rule:nonzero;fill:#000000;fill-rule:nonzero;-inkscape-stroke:none;shape-rendering:auto"
   d="M 0.71289062,0 C 0.51764461,0 0.34028684,0.05348148 0.2109375,0.14257812 0.08158816,0.23167477 0,0.35854886 0,0.49804688 0,0.63754489 0.08158816,0.76246585 0.2109375,0.8515625 c 0.12934934,0.0890967 0.30670711,0.14257813 0.50195312,0.14257813 0.19524602,0 0.37260378,-0.0534815 0.50195308,-0.14257813 0.1293494,-0.0890967 0.2109376,-0.21401761 0.2109375,-0.35351562 0,-0.13949802 -0.081588,-0.26637211 -0.2109375,-0.35546876 C 1.0854944,0.05348148 0.90813664,0 0.71289062,0 Z m 0,0.03710937 c 0.18818226,10e-9 0.35854598,0.0527376 0.48046878,0.13671875 0.1219227,0.0839812 0.1953125,0.19960894 0.1953125,0.32421876 0,0.12460981 -0.07339,0.23828446 -0.1953125,0.32226562 -0.1219228,0.0839812 -0.29228652,0.13671875 -0.48046878,0.13671875 -0.18818225,0 -0.35854601,-0.0527376 -0.48046874,-0.13671875 C 0.11049914,0.73633134 0.03710937,0.62265669 0.03710937,0.49804688 0.03710938,0.37343706 0.11049914,0.25780928 0.23242188,0.17382812 0.35434461,0.08984697 0.52470837,0.03710937 0.71289062,0.03710937 Z"
   id="ellipse1153" /></g>
</svg>
