<?xml version="1.0" standalone="no"?>
<!DOCTYPE svg PUBLIC "-//W3C//DTD SVG 1.1//EN" "http://www.w3.org/Graphics/SVG/1.1/DTD/svg11.dtd" >
<svg xmlns="http://www.w3.org/2000/svg" xmlns:xlink="http://www.w3.org/1999/xlink" version="1.1" viewBox="-10 0 810 1000">
   <path fill="currentColor"
d="M424.75 439.2l-2.40234 -16l24 -24c15.8271 -13.8486 27.251 -43.1777 34.2715 -87.9873s3.33008 -94.1475 -11.0703 -148.014c-3.71582 -14.8643 -8.64453 -27.7803 -14.7861 -38.748s-10.0127 -18.3184 -11.6123 -22.0518l-14.4004 -20
c7.4668 19.7334 10.1338 41.333 8 64.7998s-5.4668 38.667 -10 45.5996c-4.5332 6.93359 -9.59961 13.6006 -15.2002 20c-9.33301 10.667 -24.7998 27.334 -46.3994 50.001c-113.485 119.09 -169.886 217.356 -169.2 294.8c0 71.4668 20.2666 126.934 60.7998 166.4
s93.333 59.2002 158.4 59.2002c60.4238 0 106.957 -17.4668 139.6 -52.4004c30.625 -32.7744 46.4912 -70.7744 47.5996 -114c1.1084 -40.998 -15.1582 -81.7979 -48.7998 -122.399c-15.1123 -19.2334 -34.9785 -35.2334 -59.5996 -48
c-14.4004 -7.4668 -24.8672 -11.2002 -31.4004 -11.2002s-19.1328 1.33301 -37.7998 4zM449.548 420l3.99902 -0.798828c38.4639 0 75.9463 21.8662 112.447 65.5996c54.5791 65.3936 67.3633 131.66 38.3516 198.8c-20.4395 47.3037 -54.7061 80.7705 -102.8 100.4
c-26.1338 10.667 -54.9336 16 -86.3994 16c-69.333 0 -126 -21.333 -170 -64s-66 -102.134 -66 -178.4c0 -64.5332 36.2666 -142.399 108.8 -233.6c30.0439 -36.9775 66.0439 -76.4443 108 -118.4c8 -8.5332 12.7998 -13.8662 14.3994 -16
c11.2002 -18.667 14.667 -45.4668 10.4004 -80.3994c-4.2666 -34.9336 -22.1328 -67.0674 -53.5986 -96.4004l11.1992 -12.7998h0.800781v0.799805c0.533203 0.533203 0.799805 1.06641 0.799805 1.60059c32.8721 27.3936 61.6719 62.7266 86.3994 105.999
c9.60059 16.7998 16.2676 33.1992 20.001 49.1992c13.8672 54.4004 17.0674 106.934 9.60059 157.601s-20.7998 83.2002 -40 97.5996z" />
</svg>
