<?xml version="1.0" standalone="no"?>
<!DOCTYPE svg PUBLIC "-//W3C//DTD SVG 1.1//EN" "http://www.w3.org/Graphics/SVG/1.1/DTD/svg11.dtd" >
<svg xmlns="http://www.w3.org/2000/svg" xmlns:xlink="http://www.w3.org/1999/xlink" version="1.1" viewBox="-10 0 1021 1000">
   <path fill="currentColor"
d="M1 234l1000 -0.000976562v55h-67c-19.792 40.998 -38.459 72.3311 -56 94c-16.667 18.667 -42.5 43.667 -77.5 75s-69.333 56.333 -103 75s-74.5 31.834 -122.5 39.501c-87.6543 14.001 -175.987 0.833984 -265 -39.5c-34.667 -16.667 -71 -39.667 -109 -69v-1
c-36 -30 -63 -57 -81 -81s-36.333 -55 -55 -93h-64v-55zM128 288.999c11.9951 23.3242 24.9961 44.4902 39.002 63.498c14 19 37.667 41.833 71 68.5s65 47.334 95 62.001c77.6123 34.792 154.612 46.459 231 35.001c43.333 -7.33301 79.5 -19 108.5 -35
s59.833 -38.833 92.5 -68.5s56.667 -52.5 72 -68.5c11.0303 -13.3936 19.4541 -25.9092 25.2715 -37.5459l9.72754 -19.4541h-100c-8.66699 14 -15 23 -19 27c-24 30 -44 51.667 -60 65c-28.667 22.667 -62.834 39.667 -102.501 51
c-77.7012 22.2002 -154.868 13.2002 -231.5 -27c-38 -20 -66.667 -39.333 -86 -58s-35 -38 -47 -58h-98zM293.002 288.997l10 9.99805c22 20.667 50 39.834 84 57.501s64.333 28.167 91 31.5h1c32 4 64.333 1 97 -9s58 -22.167 76 -36.5s35.333 -32.166 52 -53.499h-411z
" />
</svg>
