<?xml version="1.0" standalone="no"?>
<!DOCTYPE svg PUBLIC "-//W3C//DTD SVG 1.1//EN" "http://www.w3.org/Graphics/SVG/1.1/DTD/svg11.dtd" >
<svg xmlns="http://www.w3.org/2000/svg" xmlns:xlink="http://www.w3.org/1999/xlink" version="1.1" viewBox="-10 0 1020 1000">
   <path fill="currentColor"
d="M979 325c-9.33301 30.667 -26.3311 61.999 -50.998 93.999c-29.333 38.667 -77.666 82.334 -144.999 131.001c-54 39.333 -131 66 -231 80c-48 6.66699 -95 10 -141 10c-50.667 0 -100.334 -4 -149.001 -12c-46 -7.33301 -81.667 -24 -107 -50
c-22 -22.667 -35.333 -51.334 -40 -86.001c-1.33301 -10 -2 -20 -2 -30c0 -24.667 4 -51.667 12 -81c-20.667 24 -35.334 41.167 -44.001 51.5s-19.334 24.833 -32.001 43.5s-21.667 35.334 -27 50.001l-1 3c-1.33301 6 -0.666016 11.667 2.00098 17
c4.66699 11.333 12 23 22 35c24 30 57.333 57 100 81c32 18 66 32.333 102 43c47.333 14 89.666 21 126.999 21h26c3.66699 0.133789 7.37012 0.200195 11.1104 0.200195c33.6602 0 70.29 -5.40039 109.89 -16.2002c166 -45.333 286 -102 360 -170
c65.5703 -62.999 98.3555 -128.636 98.3555 -196.909c0 -2.42969 -0.0410156 -4.8623 -0.124023 -7.29785c-0.154297 -4.52832 -0.231445 -8.12598 -0.231445 -10.793zM931.002 196.999c-2 25.333 -13.6699 51.665 -35.0029 78.998c-30 40.667 -81 84 -153 130
c-69.333 46 -146.666 70 -231.999 72c-3.5 0.0664062 -6.97266 0.0996094 -10.418 0.0996094c-65.4551 0 -120.982 -12.0332 -166.582 -36.0996c-32.3281 -17.582 -48.4922 -46.7441 -48.4922 -87.4873c0 -7.14746 0.49707 -14.6514 1.49219 -22.5117
c4 -28.667 14.333 -59 31 -91c-27.333 14 -47.666 25 -60.999 33c-50 28 -81.333 48.667 -94 62c-10 20 -18 44.167 -24 72.5c-3.59961 17 -5.39941 33.46 -5.39941 49.3799c0 10.6133 0.799805 20.9863 2.39941 31.1201c4.66699 31.333 16 56.666 34 75.999
c22 22.667 53.667 37.334 95 44.001c47.4111 7.50391 95.4326 11.2559 144.065 11.2559c46.4219 0 93.4004 -3.41895 140.936 -10.2559c97.333 -14 171 -39.333 221 -76c62.667 -46.667 109.667 -89.667 141 -129c36.9229 -45.5381 55.3848 -89.3721 55.3848 -131.502
c0 -3.51074 -0.12793 -7.00977 -0.384766 -10.4971h2c-8 -23.333 -20.667 -45.333 -38 -66zM866.999 142.998c-0.666992 27.333 -11.333 55.835 -32 85.502s-50.667 57.5 -90 83.5c-30 19.333 -62.667 33.166 -98 41.499
c-26.7676 6.31348 -52.5791 9.46973 -77.4336 9.46973c-7.95312 0 -15.8086 -0.323242 -23.5664 -0.969727c-32 -2.66699 -59.667 -10.334 -83 -23.001c-17.333 -10 -28.666 -25 -33.999 -45c-1.59961 -6.13379 -2.39941 -12.8008 -2.39941 -20.001
c0 -10.7998 1.7998 -22.7998 5.39941 -36c5.33301 -20.667 14.333 -42.667 27 -66c-3.33301 2 -8.83301 4.66699 -16.5 8s-13.834 6.33301 -18.501 9c-20 10 -44 21.667 -72 35c-25.333 38 -40.333 75 -45 111c-0.804688 6.33984 -1.20703 12.3984 -1.20703 18.1758
c0 32.499 12.7363 56.1074 38.208 70.8242c42.7773 22.6855 96.2676 34.0283 160.471 34.0283c1.83398 0 3.67676 -0.00878906 5.52832 -0.0273438c82 -1.33301 156 -24 222 -68c70 -45.333 119.667 -87.333 149 -126c19.9189 -26.748 29.8779 -51.7959 29.8779 -75.1436
c0 -4.00195 -0.292969 -7.9541 -0.87793 -11.8564l1 -1c-14 -11.333 -28.667 -22.333 -44 -33zM578 117c-4 2 -32.666 15.001 -85.999 39.001c-19.333 28.667 -33 57.667 -41 87c-2.72266 10.8887 -4.08398 20.7568 -4.08398 29.6045
c0 6.31934 0.694336 12.1182 2.08301 17.3955c3.33301 14 11 24.333 23 31c20 11.333 45 18.166 75 20.499c6.77441 0.527344 13.6416 0.791016 20.6025 0.791016c23.8672 0 48.833 -3.09668 74.8975 -9.29004c33.667 -8 64.167 -21 91.5 -39
c40.667 -26.667 70.5 -55 89.5 -85c16.1641 -25.5225 24.2461 -48.3906 24.2461 -68.6055c0 -3.54688 -0.249023 -7.01172 -0.746094 -10.3945c-8.66699 -4.66699 -16.667 -9 -24 -13c-0.666992 31.333 -18.334 58.666 -53.001 81.999c-37.333 24 -77.666 36 -120.999 36
c-14 0 -26 -2.83301 -36 -8.5s-18.167 -12.5 -24.5 -20.5s-10.833 -17.333 -13.5 -28c-1.92188 -7.96094 -2.88281 -16.0908 -2.88281 -24.3906c0 -11.8574 1.96094 -24.0605 5.88281 -36.6094zM689.001 76.001c-8 -0.666992 -14.001 -0.331055 -18.001 1.00195
c-5.33301 2 -14.333 5.66699 -27 11c-5.33301 2 -18.666 8 -39.999 18c-8.29883 14.8506 -12.4482 29.5576 -12.4482 44.1221c0 7.66504 1.14941 15.291 3.44824 22.877c6.66699 26.667 24.667 40.334 54 41.001c1.15723 0.0195312 2.31152 0.0292969 3.46387 0.0292969
c38.0244 0 73.5361 -10.6768 106.536 -32.0293c29.6416 -19.3584 44.4629 -41.1865 44.4629 -65.4854c0 -2.47949 -0.154297 -4.98438 -0.462891 -7.51562c-29.333 -12.667 -55.333 -21.334 -78 -26.001c-16 -4 -28 -6.33301 -36 -7zM677 56.0039c2 0 6.33301 0.333008 13 1
c12.667 1.33301 25.667 3.66602 39 6.99902c35.333 8 69.666 19.667 102.999 35c96.667 46 151.334 110.333 164.001 193c2.38281 15.0225 3.57422 29.8193 3.57422 44.3906c0 79.1943 -35.1914 151.73 -105.574 217.608c-84 78.667 -206.667 137.334 -368 176.001
c-42 11.3076 -83.3477 16.9619 -124.043 16.9619c-9.68945 0 -19.3418 -0.320312 -28.957 -0.960938c-50 -3.33301 -93.833 -10.5 -131.5 -21.5s-73.167 -25.833 -106.5 -44.5c-44 -25.333 -79.333 -54 -106 -86c-4 -4.66699 -7.33301 -9.33398 -10 -14.001
s-5.33398 -9.16699 -8.00098 -13.5s-4.66699 -8.5 -6 -12.5c-3.28223 -8.61523 -4.92285 -16.4736 -4.92285 -23.5742c0 -4.4375 0.640625 -8.5791 1.92285 -12.4248l3 -6c9.33301 -17.333 21 -35.5 35 -54.5s33.333 -43.333 58 -73s40.334 -48.834 47.001 -57.501h1v-1v-1
c12.667 -15.333 46.334 -38.333 101.001 -69c43.333 -24.667 99.333 -53.334 168 -86.001c9.33301 -4.66699 21.166 -10.167 35.499 -16.5s23.5 -10.166 27.5 -11.499l1 -1c59.333 -27.333 92.333 -42.666 99 -45.999c1.33301 -0.666992 3.33301 -1.5 6 -2.5
s4.66699 -1.83301 6 -2.5v-1h1c23.333 -10.667 38.333 -17 45 -19c14.667 -6.66699 24.667 -10.667 30 -12c3.33301 -1.33301 7 -2 11 -2z" />
</svg>
