<?xml version="1.0" standalone="no"?>
<!DOCTYPE svg PUBLIC "-//W3C//DTD SVG 1.1//EN" "http://www.w3.org/Graphics/SVG/1.1/DTD/svg11.dtd" >
<svg xmlns="http://www.w3.org/2000/svg" xmlns:xlink="http://www.w3.org/1999/xlink" version="1.1" viewBox="-10 0 872 1000">
   <path fill="currentColor"
d="M698.272 138.717l9.36133 14.4717l-257.948 151.533c0.567383 3.40527 1.41895 7.37793 2.55469 11.918c2.27051 18.7295 3.68945 32.918 4.25684 42.5664c2.27051 22.7021 5.67578 63.2812 10.2158 121.738c2.83789 42.5654 5.3916 82.5771 7.66211 120.034
c1.70215 26.6758 2.26953 40.0137 1.70215 40.0137v6.80957v5.95898v3.83203v1.27734v0.849609v1.70312l-17.0264 -4.25684v-3.40527v-2.97949v-3.83008v-4.25781c0 -2.83691 -0.141602 -6.38379 -0.425781 -10.6406
c-0.283203 -4.25586 -0.708984 -9.36328 -1.27637 -15.3223c-0.567383 -5.95996 -0.851562 -10.9258 -0.851562 -14.8975c-2.27051 -36.3232 -4.82422 -76.0518 -7.66113 -119.186c-3.97363 -58.457 -6.81152 -99.0361 -8.51367 -121.737
c-1.70215 -17.0264 -3.4043 -30.9316 -5.10645 -41.7158c0 -1.13379 -0.567383 -5.38965 -1.70312 -12.7676c0 -1.13574 -0.28418 -2.55469 -0.851562 -4.25684v-0.851562l-1.70312 -0.851562c-1.70215 -1.13477 -5.10742 -3.12109 -10.2158 -5.95801
c-6.81152 -3.97363 -17.8789 -9.64941 -33.2021 -17.0273c-27.2412 -12.4854 -60.4424 -27.2412 -99.6035 -44.2676l-141.316 -59.5928l6.81055 -15.3232c47.1055 19.2959 94.4951 39.1602 142.169 59.5918c44.8359 19.2959 77.7539 34.0518 98.7529 44.2676
c14.7568 7.37891 26.3916 13.0547 34.9043 17.0264c5.67578 2.83691 9.36523 5.10742 11.0674 6.81055c0.567383 0.567383 1.13477 1.13574 1.70312 1.7041l1.70215 0.849609zM699.973 15.2764c-15.8916 0 -31.7793 3.11816 -47.6709 9.36133
c-8.51367 2.83691 -17.3105 6.80957 -26.3916 11.918c-9.08008 5.1084 -16.7412 9.50684 -22.9844 13.1963c-6.24316 3.68848 -14.8984 9.22168 -25.9658 16.6006c-11.0674 7.37695 -18.8711 12.4844 -23.4111 15.3232c-40.2959 25.5381 -76.335 38.875 -108.117 40.0107
c-40.8633 1.70215 -89.6719 -4.54102 -146.426 -18.7295c-59.5918 -14.7568 -103.293 -32.0674 -131.103 -51.9316c-24.4043 -17.5928 -49.376 -23.2676 -74.916 -17.0244c-24.9717 6.80957 -46.5381 23.5518 -64.6992 50.2266
c-15.8916 23.2695 -14.7568 49.0928 3.4043 77.4697c15.8916 24.9717 40.5801 47.1055 74.0645 66.4023c2.27051 1.13574 18.1621 9.08105 47.6748 23.8369c29.5117 14.7559 52.7803 27.5254 69.8066 38.3096c51.6475 31.7822 82.2949 63.5645 91.9424 95.3467
c11.3506 32.3506 20.1475 83.1455 26.3906 152.386c2.83789 27.8096 5.95898 72.0781 9.36426 132.806c1.70215 28.3779 9.64746 52.7822 23.8359 73.2139c17.0264 25.5381 40.8633 38.3076 71.5107 38.3076c35.1875 0 64.1318 -9.93164 86.833 -29.7949
c21.5674 -19.2969 31.7832 -44.5527 30.6475 -75.7676c-0.567383 -11.3506 -2.12793 -30.5049 -4.68164 -57.4629c-2.55371 -26.959 -4.39844 -47.249 -5.53418 -60.8691c-3.4043 -51.6455 0.568359 -87.9678 11.9189 -108.967h-0.851562
c5.6748 -11.3506 21.2822 -29.2275 46.8223 -53.6309c18.7285 -18.1611 43.9844 -41.4307 75.7666 -69.8086c5.1084 -4.54004 17.1689 -15.1816 36.1816 -31.9248c19.0127 -16.7412 32.7754 -29.085 41.2881 -37.0303c24.4043 -21.5674 40.0127 -36.6074 46.8242 -45.1201
c14.7549 -19.2969 22.416 -40.5801 22.9834 -63.8486c0.567383 -23.2695 -7.09375 -47.1064 -22.9834 -71.5107v-0.851562c-12.4873 -18.7285 -28.5215 -33.627 -48.1025 -44.6943c-19.5801 -11.0674 -40.7207 -16.3164 -63.4219 -15.748zM699.977 -1.75391
c25.5391 -0.567383 49.2363 5.38672 71.0869 17.8721c21.8506 12.4863 40.1533 29.2295 54.9082 50.2295c18.1621 27.8086 26.6758 55.334 25.541 82.5771c-1.13574 27.2412 -9.93262 51.9297 -26.3906 74.0645c-6.81152 9.08105 -22.9863 24.9717 -48.5254 47.6729
c-9.08008 7.94629 -23.5527 20.5742 -43.417 37.8838c-19.8643 17.3105 -31.499 27.3848 -34.9043 30.2236c-32.917 28.9443 -58.1729 52.2129 -75.7676 69.8057c-23.8369 23.2695 -37.7422 39.4443 -41.7158 48.5254c-9.64746 18.1611 -12.7686 51.6465 -9.36328 100.456
c0.567383 12.4863 2.26953 32.6338 5.10645 60.4434s4.54004 47.3896 5.1084 58.7402c1.70215 35.7549 -10.5 65.5508 -36.6064 89.3877c-25.54 22.7021 -58.457 33.7695 -98.752 33.2021c-36.3232 0 -64.7002 -15.04 -85.1309 -45.1201
c-15.8916 -23.2686 -24.9727 -50.7939 -27.2432 -82.5762c-3.40527 -59.0244 -6.52637 -103.009 -9.36426 -131.953c-6.81152 -68.6729 -15.041 -118.333 -24.6895 -148.98c-9.08008 -28.3779 -37.7412 -57.0391 -85.9824 -85.9844
c-15.8916 -10.2148 -38.5938 -22.7002 -68.1064 -37.457c-29.5117 -14.7549 -45.6865 -22.9844 -48.5244 -24.6875c-35.7549 -19.8643 -62.4297 -43.9844 -80.0234 -72.3604c-21.5664 -34.6201 -22.418 -66.4023 -2.55371 -95.3467
c20.999 -30.6475 45.6875 -49.6602 74.0654 -57.0381c30.6475 -7.94531 60.4434 -1.70215 89.3877 18.7285c25.5391 18.7295 66.9697 35.1885 124.292 49.377c56.1865 13.6211 103.576 19.8643 142.169 18.7295c28.377 -1.70312 61.8623 -14.4727 100.455 -38.3086
c4.54004 -2.83887 12.3438 -7.80566 23.4111 -14.9004c11.0674 -7.09375 19.7227 -12.627 25.9658 -16.6006c6.24316 -3.97266 14.1885 -8.5127 23.8369 -13.6201c9.64844 -5.1084 19.0127 -9.08105 28.0928 -11.918c17.5947 -7.37793 35.4727 -11.0674 53.6338 -11.0674z
" />
</svg>
