<?xml version="1.0" encoding="UTF-8" standalone="no"?>
<!-- Creator: CorelDRAW -->

<svg
   xml:space="preserve"
   width="9.6891mm"
   height="3.1768mm"
   style="shape-rendering:geometricPrecision; text-rendering:geometricPrecision; image-rendering:optimizeQuality; fill-rule:evenodd; clip-rule:evenodd"
   viewBox="0 0 0.565209 0.185317"
   version="1.1"
   id="svg39"
   sodipodi:docname="Estratificação de mara_2.svg"
   inkscape:version="1.1.2 (b8e25be833, 2022-02-05)"
   xmlns:inkscape="http://www.inkscape.org/namespaces/inkscape"
   xmlns:sodipodi="http://sodipodi.sourceforge.net/DTD/sodipodi-0.dtd"
   xmlns="http://www.w3.org/2000/svg"
   xmlns:svg="http://www.w3.org/2000/svg"><sodipodi:namedview
   id="namedview41"
   pagecolor="#ffffff"
   bordercolor="#666666"
   borderopacity="1.0"
   inkscape:pageshadow="2"
   inkscape:pageopacity="0.0"
   inkscape:pagecheckerboard="0"
   inkscape:document-units="mm"
   showgrid="false"
   inkscape:zoom="12"
   inkscape:cx="18.291667"
   inkscape:cy="6"
   inkscape:window-width="960"
   inkscape:window-height="1057"
   inkscape:window-x="-8"
   inkscape:window-y="-8"
   inkscape:window-maximized="0"
   inkscape:current-layer="SIMBOLOS" />
 <defs
   id="defs28">
  <style
   type="text/css"
   id="style26">
   <![CDATA[
    .str0 {stroke:black;stroke-width:0.0204171}
    .fil0 {fill:none}
   ]]>
  </style>
 </defs>
 <g
   id="SIMBOLOS"
   inkscape:label="SIMBOLOS">
  <metadata
   id="CorelCorpID_0Corel-Layer" />
  <g
   id="_262701632">
   <path
   id="_262701344"
   style="color:#000000;clip-rule:nonzero;fill:#000000;fill-rule:nonzero;stroke-width:64.7906;-inkscape-stroke:none;shape-rendering:auto"
   d="M 0 0 L 0 1.265625 L 6.2011719 1.265625 L 1.6445312 3.5429688 L 5.1875 8.8574219 L 2.2363281 10.628906 L 0 10.628906 L 0 12.021484 L 36.570312 12.021484 L 36.570312 10.628906 L 31.722656 10.628906 L 34.041016 9.2382812 L 30.371094 4.0488281 L 36.191406 1.265625 L 36.570312 1.265625 L 36.570312 0 L 35.685547 0 L 0 0 z M 9.3652344 1.265625 L 15.265625 1.265625 L 10.628906 3.5429688 L 14.298828 8.8574219 L 11.347656 10.628906 L 4.7675781 10.628906 L 7.0859375 9.2382812 L 3.5429688 4.0488281 L 9.3652344 1.265625 z M 18.349609 1.265625 L 24.376953 1.265625 L 19.740234 3.5429688 L 23.410156 8.8574219 L 20.457031 10.628906 L 13.878906 10.628906 L 16.197266 9.2382812 L 12.527344 4.0488281 L 18.349609 1.265625 z M 27.460938 1.265625 L 33.109375 1.265625 L 28.472656 3.5429688 L 32.142578 8.8574219 L 29.189453 10.628906 L 22.990234 10.628906 L 25.308594 9.2382812 L 21.638672 4.0488281 L 27.460938 1.265625 z "
   transform="scale(0.01543434)" />
   
   
   
   
   
  </g>
 </g>
</svg>
