<?xml version="1.0" standalone="no"?>
<!DOCTYPE svg PUBLIC "-//W3C//DTD SVG 1.1//EN" "http://www.w3.org/Graphics/SVG/1.1/DTD/svg11.dtd" >
<svg xmlns="http://www.w3.org/2000/svg" xmlns:xlink="http://www.w3.org/1999/xlink" version="1.1" viewBox="-10 0 810 1000">
   <path fill="currentColor"
d="M459 456c-13.333 0 -20.0029 -7.33301 -20.0029 -22c0 -8.66699 5.66699 -23 17 -43s17 -34 17 -42c0 -3.33301 -1.66699 -4.66602 -5 -3.99902c-8.66699 1.33301 -20.667 6 -36 14c-21.333 11.333 -32.666 17.333 -33.999 18c-2.66699 2 -8.33398 3 -17.001 3
c-6.66699 0 -11.667 -2 -15 -6s-5 -10 -5 -18c0 -8.66699 3 -18.334 9 -29.001l10 -18l2 -4l1 -2v-3c0.666992 -1.33301 1.33398 -2.33301 2.00098 -3l-154 125l1 1l-8 5c-12 6.66699 -30 21.667 -54 45c-23.333 22.667 -42 45 -56 67s-24.667 44.667 -32 68
c-8.66699 27.333 -13 50.333 -13 69c35.333 33.333 76 59.333 122 78s94.667 28 146 28c72 0 139 -18 201 -54c60.667 -35.333 108.334 -83.666 143.001 -144.999l-24 12c-22.667 11.333 -36.667 17 -42 17c-14 -0.666992 -21 -8.33398 -21 -23.001
c0 -8.66699 4.66699 -21 14 -37c13.333 -22.667 20 -37 20 -43c0 -4 -1.33301 -6.33301 -4 -7h-1c-4.66699 -0.666992 -16 4 -34 14c-24 13.333 -40 20 -48 20h-1c-7.33301 -0.666992 -13 -3 -17 -7v0c-4 -4.66699 -6 -9.33398 -6 -14.001c0 -11.333 5 -25.666 15 -42.999
c12.667 -22 19 -35.667 19 -41c0 -6 -1.66699 -9 -5 -9c-6 0 -18 5 -36 15c-14.0166 7.34277 -25.6201 13.0234 -34.8096 17.042c-1.45996 0.638672 -6.85645 0.958008 -16.1895 0.958008zM384.765 260.47c2.1377 3.20703 4.47656 4.81055 7.01562 4.81055
c2.53809 0 5.81152 -1.60352 9.82031 -4.81055c0 -0.53418 0.266602 -1.33594 0.800781 -2.40527l-4.80859 -8.81934l-10.4238 3.20703zM306.596 266.082c-9.78027 -3.91309 -14.6699 -15.25 -14.6699 -34.0146l0.146484 -13.4092
c0 -18.0908 -1.17188 -27.1367 -3.51465 -27.1367h-0.802734c-3.25684 1.63184 -8.74805 7.91992 -16.4736 18.8633c-11.7812 16.6895 -20.4541 26.7041 -26.0186 30.0439c-3.25098 1.44434 -6.24707 2.16699 -8.98828 2.16699
c-8.61426 0 -14.7041 -7.13672 -18.2705 -21.4092c-0.53418 -5.34473 -0.53418 -13.6299 0 -24.8545c0.736328 -15.4658 0.202148 -24.5518 -1.60352 -27.2588v-0.800781c-1.85742 0.926758 -6.86523 7.30469 -15.0225 19.1338
c-9.34668 13.5537 -17.4346 23.7441 -24.2627 30.5723l-4.00879 0.800781c-2.22754 12.0264 -3.34082 23.3105 -3.34082 33.8525c0 2.1084 0.0449219 4.18652 0.133789 6.23535c0 55.5869 16.8359 105.562 50.5088 149.926l161.15 -129.883
c-10.1553 -5.34473 -15.2324 -13.0947 -15.2324 -23.25c0 -2.67285 0.801758 -5.6123 2.4043 -8.81836c-1.06934 -4.27637 -1.7373 -10.0225 -2.00391 -17.2383s-1.46973 -11.3584 -3.6084 -12.4277h-0.801758c-3.2998 1.64941 -8.53418 7.80762 -15.7031 18.4736
c-11.9531 17.7842 -20.6084 27.7031 -25.9668 29.7568s-10.042 2.2793 -14.0508 0.675781zM624.485 486.562c13.8975 0 20.8477 6.94727 20.8477 20.8438c0 9.35254 -5.07812 22.6484 -15.2334 39.8867c-10.1553 17.2373 -15.9014 28.5283 -17.2373 33.873
s-2.00391 8.81934 -2.00391 10.4238c0 1.60254 0.267578 2.6709 0.801758 3.20508h0.801758c0.53418 0.53418 1.46875 0.801758 2.80469 0.801758c5.0791 0 17.9072 -5.47852 38.4844 -16.4355c20.5781 -10.957 33.2725 -16.9697 38.083 -18.0391
c26.7236 -54.5186 40.0859 -112.377 40.0859 -173.576c0 -61.2002 -14.6982 -120.662 -44.0947 -178.386c-6.78711 5.08887 -12.7598 6.62793 -17.9189 4.61719c-8.65723 -3.37305 -20.5293 -12.6025 -35.6162 -27.6885
c-22.0342 -22.0342 -34.9229 -33.0508 -38.666 -33.0508c-1.06836 -0.535156 -1.87012 -0.802734 -2.4043 -0.802734c-2.93848 2.94629 -4.07422 7.42383 -3.40625 13.4336c0.667969 6.01074 2.87207 17.0332 6.61328 33.0684
c4.44043 19.0273 6.66016 32.9062 6.66016 41.6377c0 3.21387 -0.300781 5.73047 -0.902344 7.5498c-3.87109 11.7109 -10.0645 17.5664 -18.5791 17.5664c-11.8252 0 -28.1289 -11.2939 -48.9111 -33.8828c-18.5908 -18.5908 -30.3115 -27.8857 -35.1621 -27.8857
c-0.727539 0 -1.30078 0.208984 -1.71973 0.626953c-1.56348 1.56348 -2.34473 4.81836 -2.34473 9.76465c0 6.49316 1.34766 15.9014 4.04199 28.2246c5.63379 25.7588 8.4502 43.2471 8.4502 52.4648c0 2.60352 -0.224609 4.54688 -0.673828 5.83105
c-2.04004 5.83008 -5.59863 10.2148 -10.6758 13.1543c-8.36719 4.84375 -16.9395 4.38477 -25.7168 -1.37793c-8.77832 -5.7627 -18.5127 -13.8555 -29.2031 -24.2783s-18.9746 -17.5049 -24.8535 -21.2461c-1.60449 3.74121 -3.74219 6.68066 -6.41406 8.81836v0.801758
l-0.801758 0.800781c-0.899414 9.8916 -5.93457 22.9209 -15.1064 39.0879c-11.3096 19.9365 -16.9639 32.4365 -16.9639 37.5s1.60352 8.12988 4.81055 9.19824c5.27051 0 16.209 -4.67676 32.8154 -14.0303c25.1455 -14.1621 41.8076 -21.2432 49.9863 -21.2432
c0.288086 0 0.56543 0.00878906 0.832031 0.0263672c7.84863 0.516602 13.7773 2.7793 17.7861 6.78809c6.01367 6.01367 7.18262 14.5322 3.50781 25.5547c-3.6748 11.0234 -9.25391 23.2168 -16.7373 36.5791c-7.48242 13.3623 -11.8916 22.3154 -13.2285 26.8584
s-2.00488 8.41797 -2.00488 11.625c0 3.20801 1.46973 4.81152 4.40918 4.81152c6.60352 0 18.7441 -4.81055 36.4219 -14.4316c23.5693 -12.8281 40.4258 -19.2422 50.5684 -19.2422c13.3623 0 20.0439 6.94824 20.0439 20.8447
c0 10.3672 -4.54297 24.1836 -13.6299 41.4492c-13.3779 25.4189 -20.0674 40.4463 -20.0674 45.082c0 4.31348 1.74414 6.46973 5.2334 6.46973c2.94043 0 6.81543 -0.667969 11.626 -2.00391c4.81055 -1.33691 13.8965 -6.01367 27.2588 -14.0303
c19.8164 -11.8896 34.6143 -17.835 44.3926 -17.835c1.02539 0 1.99512 0.0654297 2.91016 0.196289zM365.525 98.5195c-14.0498 -2.81055 -21.0732 -8.7207 -21.0732 -17.7285c0 -3.88184 1.30469 -8.33984 3.91406 -13.373
c2.99023 -5.7666 12.3867 -13.0137 28.1895 -21.7412s25.5977 -15.541 29.3857 -20.4404c1.82031 -2.35547 -7.90918 -4.65234 -29.1895 -6.89062c-46.501 7.48242 -87.5234 26.5908 -123.067 57.3242s-59.9971 68.2812 -73.3594 112.644
c1.33887 -1.33887 2.20801 -2.60938 2.60742 -3.81152c1.67676 -5.04199 5.53613 -11.0127 11.5781 -17.9121c8.46191 -9.66016 15.835 -14.4902 22.1191 -14.4902c1.59766 0 3.125 0.3125 4.58203 0.936523c7.72461 1.93066 12.0615 6.55566 13.0098 13.875
s1.15527 16.5908 0.620117 27.8145c-0.942383 19.7764 -0.408203 29.6641 1.60254 29.6641c0 0.535156 0.267578 0.802734 0.802734 0.802734h0.800781c3.69238 -1.23242 9.57227 -8.44824 17.6396 -21.6465c13.7568 -18.6699 25.3252 -28.0049 34.7051 -28.0049
c5.48145 0 10.2148 3.18848 14.2012 9.56445c3.6543 5.48145 5.48145 14.3867 5.48145 26.7148l-0.208008 13.6543c0 14.5518 1.18164 23.0098 3.54492 25.373v-0.801758c2.54883 -0.848633 7.72949 -6.80664 15.541 -17.874
c12.9629 -18.3643 21.7646 -28.5283 26.4053 -30.4922c4.63965 -1.96387 9.76562 -2.01074 15.3779 -0.140625c8.28418 2.76172 12.4268 12.5166 12.4268 29.2646c3.20703 -1.60352 6.68164 -2.1377 10.4229 -1.60352h0.801758v-0.801758
c4.81055 -4.27637 12.9619 -9.75488 24.4531 -16.4355c17.9053 -10.4102 26.8574 -16.958 26.8574 -19.6426c0 -0.535156 -0.53418 -0.936523 -1.60254 -1.20312c-1.06934 -0.266602 -3.34082 -0.93457 -6.81445 -2.00391
c-3.47461 -1.06934 -11.4922 -1.87109 -24.0527 -2.40527c-22.0518 -0.9375 -35.3809 -3.44336 -39.9883 -7.51758c-9.24219 -8.1709 -12.1709 -15.5078 -8.78516 -22.0107s7.2168 -11.4922 11.4932 -14.9668c4.27637 -3.47363 11.8926 -8.41797 22.8496 -14.832
c17.9053 -10.4805 26.8584 -17.0283 26.8584 -19.6426c0 -3.0127 -8.95215 -4.90137 -26.8574 -5.66602s-28.9961 -1.94922 -33.2734 -3.55273zM419.245 15.1367c1.60254 2.13867 2.40039 3.73535 2.40039 4.80371v0.802734
c1.53125 7.65234 -0.891602 14.2422 -7.26953 19.7695s-15.1787 11.498 -26.4033 17.9121c-18.0029 10.2881 -27.0049 17.0215 -27.0049 20.2002c0 3.18262 8.88672 5.17188 26.6602 5.96777c22.7285 1.0166 38.0762 3.51855 46.043 7.50586
c4.27637 2.67285 6.94922 6.41406 8.01855 11.2246v0.801758c1.78223 8.01758 -0.979492 14.832 -8.28418 20.4443c-11.9521 9.18164 -27.8975 19.4707 -47.8359 30.8662c-2.13867 2.1377 -3.47461 4.00879 -4.00879 5.61328l-0.802734 0.800781v0.801758
c0 2.72559 8.68555 4.87695 26.0566 6.4541c26.4141 2.39746 41.7705 5.12793 46.0684 8.19141c5.98828 4.27051 8.98242 9.12012 8.98242 14.5498c0 6.10449 -3.78516 12.9424 -11.3555 20.5127c-4.81055 3.74121 -10.8232 7.75 -18.0391 12.0264
s-13.7637 8.55176 -19.6426 12.8271c2.67285 2.67285 4.54297 6.68164 5.61133 12.0264c6.12598 1.53125 15.9424 8.72852 29.4492 21.5928s22.5322 20.6328 27.0762 23.3057c6.99902 4.11719 11.0869 5.81445 12.2646 5.09277
c3.21289 -1.97168 4.44434 -6.25293 3.69336 -12.8438s-2.86328 -17.7695 -6.33691 -33.5361c-3.85059 -17.4775 -5.77637 -30.6172 -5.77637 -39.4189c0 -3.28906 0.268555 -5.97266 0.806641 -8.0498c3.08887 -11.9404 9.08789 -17.9102 17.9971 -17.9102
c5.97363 0 13.2568 2.68457 21.8486 8.05469c5.87988 4.27637 14.6992 12.2939 26.458 24.0527c19.1543 19.1543 31.3047 28.7314 36.4502 28.7314c1.89062 0 2.83594 -1.29199 2.83594 -3.87695c0.398438 -1.59473 0.597656 -3.66211 0.597656 -6.20215
c0 -7.10449 -1.55859 -17.9092 -4.6748 -32.4131c-4.85449 -22.5908 -7.28125 -38.4785 -7.28125 -47.6621c0 -3.11426 0.279297 -5.45703 0.836914 -7.0293c3.69141 -10.4033 9.66113 -15.6045 17.9092 -15.6045c6.15527 0 13.5801 2.89746 22.2744 8.69238
c5.34473 4.27637 13.8965 12.6953 25.6553 25.2559c17.7139 18.9229 29.0947 28.3838 34.1426 28.3838c0.806641 0 1.45117 -0.241211 1.93457 -0.724609c0.53418 -0.53418 1.06934 -1.06836 1.60547 -1.60254l0.800781 -4.80957
c-32.0693 -55.0527 -74.0264 -99.416 -125.871 -133.089l-2.40625 -0.802734c-39.0176 -26.7236 -82.8457 -40.6201 -131.484 -41.6895zM283.346 33.1699c40.3896 -23.2715 85.6758 -34.916 135.857 -34.9365c49.9971 0 96.5098 14.7197 139.538 44.1582l2.40625 0.801758
l0.801758 0.801758c56.6572 36.8799 101.955 86.0527 135.895 147.519c33.9404 61.4668 50.9102 127.477 50.9102 198.029c0 92.501 -26.457 173.477 -79.3721 242.927c-54.04 70.9277 -121.386 119.834 -202.037 146.719
c-41.6904 13.8965 -87.3896 20.8447 -137.098 20.8447s-98.8809 -9.88867 -147.52 -29.665c-51.3652 -20.8838 -95.1934 -49.4785 -131.485 -85.7852v-3.20703c0 -20.1055 4.40918 -44.2402 13.2285 -72.4033s20.4443 -54.0039 34.876 -77.5215
c32.0693 -50.2432 69.2168 -87.6582 111.442 -112.245c-38.4844 -49.708 -57.7266 -100.618 -57.7266 -152.73s11.626 -98.2119 34.877 -138.299s55.0527 -71.7559 95.4062 -95.0068z" />
</svg>
