<?xml version="1.0" standalone="no"?>
<!DOCTYPE svg PUBLIC "-//W3C//DTD SVG 1.1//EN" "http://www.w3.org/Graphics/SVG/1.1/DTD/svg11.dtd" >
<svg xmlns="http://www.w3.org/2000/svg" xmlns:xlink="http://www.w3.org/1999/xlink" version="1.1" viewBox="-10 0 879 1000">
   <path fill="currentColor"
d="M454 496c0 -44.667 22.667 -67 68 -67h102c74.667 0 123.334 -5 146.001 -15c0.666992 -3.33301 2 -11 4 -23c-1.33301 -4 -3.66602 -8.66699 -6.99902 -14s-12.333 -8.66602 -27 -9.99902c-22.667 -0.666992 -65.667 -1 -129 -1
c-9.33301 -0.666992 -28.333 -1.33398 -57 -2.00098s-49.334 -4.66699 -62.001 -12c-16.667 -11.333 -25.667 -34.333 -27 -69c-0.666992 -18 -1.16699 -48.333 -1.5 -91s-1.83301 -71.334 -4.5 -86.001c-13.333 -12.667 -21.333 -19 -24 -19c-15.333 2 -26 6 -32 12
c-0.666992 8.66699 -1 20 -1 34l1 154c0 10.667 -0.666992 19 -2 25c-6 25.333 -21.333 41.333 -46 48c-6.66699 0.666992 -36.667 1 -90 1s-97.333 0.666992 -132 2l-44 2c0 0.666992 -0.5 7.66699 -1.5 21s-0.5 23 1.5 29c2.66699 0.666992 5.33398 2 8.00098 4
c10 6 32.333 9 67 9h152h30c13.333 2.66699 23.833 8.33398 31.5 17.001s12.167 16.834 13.5 24.501s2 34.334 2 80.001s0.333008 78.667 1 99s3.66699 38.166 9 53.499c7.33301 7.33301 15.333 11.666 24 12.999c8.66699 -2 15.667 -4.66699 21 -8
c6 -17.333 9 -48.333 9 -93zM28.002 306c21.333 -14.667 52.5 -23.167 93.5 -25.5s104.5 -3.5 190.5 -3.5c4 -9.33301 5.83301 -32 5.5 -68s-0.5 -61.333 -0.5 -76v-15c0.666992 -30.667 6.66699 -53 18 -67c28 -34 59.667 -51.667 95 -53c6 0.666992 12.667 1.66699 20 3
c19.333 6.66699 38.666 18 57.999 34c10 8.66699 17.667 17 23 25c4.66699 8 8.66699 19.667 12 35s4.83301 45.333 4.5 90s0.166992 74.334 1.5 89.001c4.66699 3.33301 14.334 5.33301 29.001 6c14 0.666992 39.5 1 76.5 1s68.833 0.666992 95.5 2
s48.334 6.33301 65.001 15c34.667 21.333 48.667 54.666 42 99.999c-2.66699 20 -5.33398 35.167 -8.00098 45.5s-8.66699 19.833 -18 28.5c-28 28 -97 42 -207 42h-84v12c0 6.66699 0.166992 19.167 0.5 37.5s0.5 32.833 0.5 43.5s0.5 24.667 1.5 42s-0.5 37.333 -4.5 60
c-5.33301 22.667 -15.666 41.667 -30.999 57c-40.667 32.667 -81 41.334 -121 26.001c-20 -7.33301 -35 -17 -45 -29c-18.667 -26 -29 -66 -31 -120c-1.33301 -34.667 -1.66602 -74 -0.999023 -118c0 -4.66699 -15.333 -8 -46 -10l-99 -3c-9.33301 0 -20 0.5 -32 1.5
s-29.167 -1.33301 -51.5 -7s-39.333 -15.667 -51 -30s-20.5 -34.833 -26.5 -61.5c-2.66699 -22 -2.83398 -41.833 -0.500977 -59.5s10.833 -34.167 25.499 -49.501z" />
</svg>
