<?xml version="1.0" standalone="no"?>
<!DOCTYPE svg PUBLIC "-//W3C//DTD SVG 1.1//EN" "http://www.w3.org/Graphics/SVG/1.1/DTD/svg11.dtd" >
<svg xmlns="http://www.w3.org/2000/svg" xmlns:xlink="http://www.w3.org/1999/xlink" version="1.1" viewBox="-10 0 1020 1000">
   <path fill="currentColor"
d="M52 379l108.997 -195.999l50 28c-51.1729 90.1611 -82.5059 146.161 -94 168h167c53.9678 -95.2383 90.3008 -160.571 108.999 -196l50 28c-42 74 -73 130 -93 168h166c11.333 -20 27.666 -50 48.999 -90c26.667 -46.667 46.334 -82 59.001 -106l50 28
c-14 24.667 -31.333 55.667 -52 93s-34.667 62.333 -42 75h205l51 -90c26 -46.667 45.667 -82 59 -106l49 28c-14 24 -31.167 54.667 -51.5 92s-34.166 62.666 -41.499 75.999h149v57h-151c36.8486 64.4854 68.5156 121.818 95.001 172l-49 27
c-2.66699 -4.66699 -40 -71 -112 -199h-200c37.333 65.333 69.333 122.666 96 171.999l-50 27c-50.0742 -87.6299 -87.0742 -153.963 -111 -199h-167c43.9111 76.8447 75.5781 134.178 95.001 172l-50 27l-111 -199h-170c25.4229 48.5332 57.4229 105.866 96 172l-50 27
c-13.333 -23.333 -32.666 -58.333 -57.999 -105c-24 -41.333 -41.667 -72.666 -53 -93.999h-50v-57h52z" />
</svg>
