<?xml version="1.0" standalone="no"?>
<!DOCTYPE svg PUBLIC "-//W3C//DTD SVG 1.1//EN" "http://www.w3.org/Graphics/SVG/1.1/DTD/svg11.dtd" >
<svg xmlns="http://www.w3.org/2000/svg" xmlns:xlink="http://www.w3.org/1999/xlink" version="1.1" viewBox="-10 0 1020 1000">
   <path fill="currentColor"
d="M172 95l41 89l49 -99l29 107l45 -129l34 152l60 -131l120 515l30 -112l32 2l18 134l61 -141l30 151l82 -166l28 156l137 -489l32 8l-156 560l-33 -2l-23 -128l-81 164l-27 -143l-68 152l-21 -167l-26 96l-32 -1l-113 -487l-61 132l-30 -133l-41 120l-35 -127l-42 84
l-39 -86l-142 305l-30 -14z" />
</svg>
