<?xml version="1.0" standalone="no"?>
<!DOCTYPE svg PUBLIC "-//W3C//DTD SVG 1.1//EN" "http://www.w3.org/Graphics/SVG/1.1/DTD/svg11.dtd" >
<svg xmlns="http://www.w3.org/2000/svg" xmlns:xlink="http://www.w3.org/1999/xlink" version="1.1" viewBox="-10 0 1020 1000">
   <path fill="currentColor"
d="M1000 222l-12 60c-28.667 -6 -50 -8.66699 -64 -8c-17.333 0 -40 7 -68 21c-26 12.667 -59.667 31 -101 55c-50 30 -92.667 48.333 -128 55c-10.667 2 -22 3 -34 3c-36.667 -0.666992 -73.667 -10.667 -111 -30c-11.333 -6 -28 -16.333 -50 -31
c-28.667 -18 -49.667 -29.333 -63 -34c-5.33301 -2 -11.666 -3 -18.999 -3c-18 0 -47.667 9 -89 27c-34 14.667 -112.667 51 -236 109l-25 -55c126.667 -59.333 205.334 -95.666 236.001 -108.999c49.333 -22 87.333 -33.333 114 -34c12 0 24.667 2 38 6
c17.333 6 43 20 77 42c20 12.667 35.333 22 46 28c27.333 14.667 54.666 22.334 81.999 23.001c7.33301 0 15 -0.666992 23 -2c28 -5.33301 64.333 -21.333 109 -48c38 -22.667 73 -41.334 105 -56.001c34.667 -17.333 65 -26.666 91 -27.999
c18 -1.33301 44.333 1.66602 78.999 8.99805zM1000 366.002l-12 59c-28.667 -6 -50 -8.66699 -64 -8c-17.333 0.666992 -40 8 -68 22c-26 12 -59.667 30 -101 54c-50 30 -92.667 48.333 -128 55c-10.667 2 -22 3 -34 3c-36.667 0 -73.667 -9.66699 -111 -29
c-11.333 -6 -28 -16.333 -50 -31c-28.667 -18.667 -49.667 -30.334 -63 -35.001c-5.33301 -2 -11.666 -3.33301 -18.999 -4c-18 1.33301 -47.667 10.666 -89 27.999c-34 14.667 -112.667 51 -236 109l-25 -55c126.667 -59.333 205.334 -96 236.001 -110
c49.333 -20.667 87.333 -31.334 114 -32.001c12 0 24.667 2 38 6c17.333 6 43 20 77 42c20 12.667 35.333 22 46 28c27.333 14.667 54.666 22.334 81.999 23.001c7.33301 0 15 -0.666992 23 -2c28 -5.33301 64.333 -21.333 109 -48c38 -23.333 73 -42.333 105 -57
c34.667 -16.667 65 -25.667 91 -27c18 -1.33301 44.333 1.66797 78.999 9.00195z" />
</svg>
