<?xml version="1.0" standalone="no"?>
<!DOCTYPE svg PUBLIC "-//W3C//DTD SVG 1.1//EN" "http://www.w3.org/Graphics/SVG/1.1/DTD/svg11.dtd" >
<svg xmlns="http://www.w3.org/2000/svg" xmlns:xlink="http://www.w3.org/1999/xlink" version="1.1" viewBox="-11 0 1021 1000">
   <path fill="currentColor"
d="M79 397c-52.667 -28.667 -79.001 -60.002 -79.001 -94.002c0 -16.667 7.16699 -32.334 21.5 -47.001s30.5 -22 48.5 -22c4.66699 0 12.5 1 23.5 3s27 11.167 48 27.5s38.833 35.166 53.5 56.499h610c14.667 -22.667 32.334 -42 53.001 -58
c25.333 -20 47.833 -30 67.5 -30s37 7.5 52 22.5s22.5 30.833 22.5 47.5c0 18.667 -8.16699 36.334 -24.5 53.001s-34.833 30.334 -55.5 41.001c53.333 28.667 80 59.667 80 93c0 16.667 -7.16699 32.334 -21.5 47.001s-30.833 22.334 -49.5 23.001
c-4.66699 0 -12.5 -1 -23.5 -3s-26.5 -11 -46.5 -27s-37.667 -35.333 -53 -58h-611c-14.667 22.667 -32 42 -52 58c-26 20.667 -48.833 31 -68.5 31s-37 -7.5 -52 -22.5s-22.5 -31.167 -22.5 -48.5c0 -18 8.33301 -35.5 25 -52.5s34.667 -30.5 54 -40.5zM812.999 453.998
c44 58.667 82.666 88.002 115.999 88.002c14 0 26.5 -5.66699 37.5 -17c10.3711 -10.6855 15.5566 -21.9639 15.5566 -33.835c0 -0.719727 -0.0185547 -1.44141 -0.0566406 -2.16504c0 -20 -16.333 -41.667 -49 -65c-9.33301 -6.66699 -17 -11.667 -23 -15l-9 -5l-15 -7
l15 -8c22 -11.333 40.333 -24.333 55 -39c17.333 -16.667 26 -31.667 26 -45s-5.66699 -25.833 -17 -37.5s-23.666 -17.5 -36.999 -17.5c-24.667 0 -53.334 17.333 -86.001 52c-8.66699 10 -15 18 -19 24l-10 13h-626l-3 -4c-14.667 -22 -31.667 -40.667 -51 -56
c-23.333 -18.667 -43 -28 -59 -28s-29.667 5.83301 -41 17.5c-10.7041 11.0186 -16.0557 21.8887 -16.0557 32.6094c0 0.630859 0.0185547 1.26074 0.0556641 1.89062c0 26.667 24.333 53.667 73 81l24 13l-15 7c-22 11.333 -40.333 24.666 -55 39.999
c-18 17.333 -27 32.166 -27 44.499s6 24.5 18 36.5s25 18 39 18c16 0 31.667 -6.33301 47 -19c24.667 -19.333 43.334 -38.333 56.001 -57l10 -13h626z" />
</svg>
