<?xml version="1.0" standalone="no"?>
<!DOCTYPE svg PUBLIC "-//W3C//DTD SVG 1.1//EN" "http://www.w3.org/Graphics/SVG/1.1/DTD/svg11.dtd" >
<svg xmlns="http://www.w3.org/2000/svg" xmlns:xlink="http://www.w3.org/1999/xlink" version="1.1" viewBox="-10 0 810 1000">
   <path fill="currentColor"
d="M575.3 489.8l-11.999 33.6016c-12.2666 25.0664 -41.7334 55.5996 -88.4004 91.5996s-88.667 61.2002 -126 75.5996h-0.800781c-20.7998 5.86719 -39.0664 13.7344 -54.7998 23.6006c-20.0684 12.585 -30.1025 23.2588 -30.1025 32.0225
c0 1.5166 0.300781 2.97559 0.901367 4.37695c2.13379 5.33301 8 12 17.5996 20c9.60059 8 21.2012 12.7998 34.8018 14.4004c3.70996 0.436523 7.29004 0.654297 10.7412 0.654297c9.20312 0 17.4893 -1.55176 24.8584 -4.6543
c10.1338 -4.2666 20.4004 -8.7998 30.8008 -13.5996c29.0771 -13.4209 50.8125 -22.2432 65.207 -26.4668c14.3955 -4.22363 32.2598 -14.0684 53.5928 -29.5342c21.333 -15.4668 41.5996 -33.6006 60.7998 -54.4004s34.667 -42 46.4004 -63.5996
c10.5361 -19.3955 15.8037 -34.4912 15.8037 -45.2871l-3.00391 -40.7129c-0.533203 -13.8672 -1.4668 -21.6006 -2.7998 -23.2012c-2.13281 -2.55957 -15.333 -5.22559 -39.6006 -7.99902c-2.13379 8.5332 -3.2002 13.0664 -3.2002 13.5996h-0.799805zM567.301 433.801
c-42.1338 24 -83.0674 40.4014 -122.801 49.2012l-150.8 18c-13.333 1.06641 -26.7998 5.7334 -40.4004 14c-13.5996 8.2666 -24.666 19.0664 -33.2002 32.3994c-12.1982 17.2031 -18.2969 34.0391 -18.2969 50.5078c0 11.6133 3.03223 23.0439 9.09766 34.292
c14.667 27.2002 31.6006 44.5332 50.8008 52c6.80469 2.64648 14.6318 3.96973 23.4805 3.96973c16.1162 0 35.623 -4.38965 58.5195 -13.1699c35.4668 -13.6006 75.4668 -37.8672 120 -72.8008c44.5332 -34.9326 72.666 -63.8652 84.3994 -86.7979
c0.527344 -1.58105 4.52734 -11.7148 12 -30.4014l0.800781 -0.799805c3.7334 -16 5.86621 -32.7998 6.39941 -50.4004zM501.701 283.402c-11.2002 2.66699 -21.8662 5.33301 -32 8c-29.8662 10.667 -53.999 25.334 -72.3984 44.001
c-17.8926 18.1514 -35.8926 31.751 -54.001 40.7998l-0.799805 0.799805c-14.8232 6.91797 -30.8682 10.377 -48.1338 10.377c-10.6875 0 -21.8428 -1.3252 -33.4658 -3.97656c-12.7998 -2.66699 -22.4004 -1.86719 -28.8008 2.39941
c-6.39941 4.2666 -9.73242 10.2666 -9.99902 18s1.60059 16 5.60059 24.7998s9.4668 15.0664 16.3994 18.7998c20.7998 11.7334 38.1328 23.7334 51.999 36c81.0137 -5.20312 148.747 -16.4033 203.2 -33.6006c32.2305 -14.0127 54.0977 -24.6797 65.6006 -32
l9.59961 -5.59961c30.3994 -17.0674 45.8662 -34.667 46.4004 -52.7998c0 -13.501 -11.2002 -24.9678 -33.6006 -34.4004c-54.9893 -16.8203 -83.3896 -29.7539 -85.2012 -38.7998c-0.266602 -1.33301 -0.399414 -2.2666 -0.399414 -2.7998zM496.102 191.401
c-0.799805 2.40039 -1.60156 4 -2.40137 4.7998h-0.799805c-1.60156 1.59961 -3.86816 2.39941 -6.80078 2.39941h-9.19922c-3.7334 -0.533203 -10.7998 -1.59961 -21.1992 -3.19922c-29.3994 -4.52344 -54.3486 -6.78516 -74.8467 -6.78516
c-26.7842 0 -45.9688 3.86133 -57.5537 11.585c-31.4668 19.7334 -54.9336 42.667 -70.3994 68.8008c-10.4307 17.625 -15.6465 37.918 -15.6465 60.8789c0 11.085 1.21582 22.792 3.64648 35.1211h0.799805c8 0 15.4668 0.533203 22.3994 1.59961h0.800781
c10.5166 2.18262 20.5625 3.27441 30.1377 3.27441c20.6816 0 39.1689 -5.0918 55.4629 -15.2744c9.06641 -6.39941 17.5996 -13.333 25.5996 -20.7998c36.0693 -33.665 73.0029 -55.3984 110.801 -65.2002l21.1992 -5.19922h0.800781
c29.8477 -12.9082 44.7715 -32.1562 44.7715 -57.7451c0 -4.7959 -0.524414 -9.81445 -1.57227 -15.0557c-3.2002 -17.5996 -15.7334 -45.8662 -37.5996 -84.7998c-9.60059 -16 -32.2676 -36 -68.001 -60c17.3311 25.0996 28.2646 57.5 32.8008 97.2002
c1.06738 9.33301 2.00098 17.0664 2.80078 23.2002s3.06641 10.4004 6.7998 12.7998c4.7998 3.08496 7.19922 5.88477 7.19922 8.39941v4zM400.1 0.201172c70.0068 39.0205 112.938 71.2842 128.799 96.7969c0 2.13672 2.66699 7.4707 8 16.002
c5.33301 8.53223 9.73242 16.3984 13.1982 23.5986c3.4668 7.2002 6.13379 12.8008 8 16.8008c3.29785 7.06445 6.58887 19.5635 9.87402 37.498c1.05566 5.76465 1.58301 11.3193 1.58301 16.6641c0 11.2822 -2.35254 21.6279 -7.05664 31.0371
c-6.93359 13.8672 -21.8672 26.4004 -44.7998 37.6006l-1.60059 2.39941c9.06738 9.06738 34.4004 19.7344 76 32.001c29.4609 10.1982 44.1914 25.1494 44.1914 44.8535c0 24.0693 -16.3301 46.7188 -48.9912 67.9482c0 9.59961 -1.59961 21.8662 -4.7998 36.7998
c16.5332 1.59961 28.2666 3.19922 35.1992 4.7998c6.93359 1.60059 11.7334 4.80078 14.4004 9.60059s4.40039 14.4004 5.2002 28.8008c0.799805 14.3994 1.7334 26.1328 2.7998 35.1992c0.269531 2.50195 0.404297 5.04688 0.404297 7.63477
c0 33.2725 -22.2676 73.6611 -66.8037 121.166c-45.2002 48.8643 -85.7334 78.7305 -121.6 89.5986c-15.9795 4.43848 -33.1738 11.1484 -51.583 20.1289c-18.4102 8.98047 -31.3486 14.5371 -38.8154 16.6709c-12.1006 4.0332 -23.8223 6.0498 -35.166 6.0498
c-21.6562 0 -41.9346 -7.34961 -60.834 -22.0498c-13.0752 -10.7666 -19.6123 -21.1807 -19.6123 -31.2422c0 -3.15625 0.643555 -6.27832 1.92969 -9.36523c5.3877 -12.9277 15.8154 -24.1914 31.2822 -33.791c-32.3281 -1.79785 -60.3281 -23.9316 -84 -66.4004
c-6.95312 -14.3418 -10.4297 -28.3203 -10.4297 -41.9365c0 -17.8721 5.99023 -35.1182 17.9697 -51.7383c21.1064 -29.2832 45.5264 -47.6582 73.2598 -55.125c-12.7998 -10.1338 -25.333 -18.8008 -37.5996 -26.001
c-21.9268 -12.8701 -32.8906 -31.6846 -32.8906 -56.4434c0 -14.7266 5.62988 -25.6455 16.8906 -32.7568l0.799805 -0.799805h0.799805c-3.56543 -14.4492 -5.34766 -28.2715 -5.34766 -41.4658c0 -24.3066 6.0498 -46.4854 18.1484 -66.5352
c18.667 -30.9326 44.5332 -56.5322 77.5996 -76.7988c14.4727 -9.0459 37.127 -13.5684 67.9619 -13.5684c19.0303 0 41.1768 1.72266 66.4395 5.16797c5.86621 0.799805 11.0664 1.4668 15.5996 2s8.13281 1.06641 10.7998 1.59961
c-6.39941 -9.59961 -9.86621 -16.1328 -10.3994 -19.5996c-0.53418 -3.4668 -0.93457 -7.60059 -1.20117 -12.4004s-0.533203 -9.86621 -0.799805 -15.1992c-2.24512 -44.8691 -25.0449 -84.3359 -68.3994 -118.4l-3.2002 -3.2002
c0 -9.06641 2.93359 -13.5996 8.7998 -13.5996z" />
</svg>
