<?xml version="1.0" standalone="no"?>
<!DOCTYPE svg PUBLIC "-//W3C//DTD SVG 1.1//EN" "http://www.w3.org/Graphics/SVG/1.1/DTD/svg11.dtd" >
<svg xmlns="http://www.w3.org/2000/svg" xmlns:xlink="http://www.w3.org/1999/xlink" version="1.1" viewBox="-10 0 1020 1000">
   <path fill="currentColor"
d="M143 336c69.042 -40.6689 137.875 -61.0029 206.501 -61.0029c19.667 0 47.5 3 83.5 9s75.333 17 118 33c8 3.33301 30.167 13.833 66.5 31.5s65.166 31.334 86.499 41.001s50 18.834 86 27.501c60.2715 14.5098 113.271 12.1768 159 -7h1c14 -6 23 -10 27 -12l23 40
c-36.4658 19.8906 -72.249 31.1963 -107.35 33.918c-71.2021 5.52051 -149.086 -11.7852 -233.651 -51.917c-10.667 -4.66699 -30 -14 -58 -28s-50.667 -24.333 -68 -31c-25.333 20.667 -54.166 41 -86.499 61s-73 36.833 -122 50.5s-92.5 17.667 -130.5 12
s-80.667 -18.5 -128 -38.5l-37 28l-29 -36c58 -46.667 105.667 -80.667 143 -102zM481 343.997c-73.4473 -20.7158 -133.31 -26.8955 -179.587 -18.5381c-46.2764 8.3584 -91.4141 25.2041 -135.414 50.5371c-16.667 10 -35.667 22.333 -57 37
c32 13.333 59.667 21.333 83 24c38 5.33301 78.833 1.83301 122.5 -10.5s78.834 -26.666 105.501 -42.999s47 -29.5 61 -39.5z" />
</svg>
