<?xml version="1.0" standalone="no"?>
<!DOCTYPE svg PUBLIC "-//W3C//DTD SVG 1.1//EN" "http://www.w3.org/Graphics/SVG/1.1/DTD/svg11.dtd" >
<svg xmlns="http://www.w3.org/2000/svg" xmlns:xlink="http://www.w3.org/1999/xlink" version="1.1" viewBox="-10 0 810 1000">
   <path fill="currentColor"
d="M402 701c-42 12 -85.333 19.1328 -130 21.3994c39.4668 41.0664 82.5332 61.5996 129.2 61.5996s89.7334 -21.0664 129.2 -63.2002c-45.6006 -1.86621 -88.4004 -8.46582 -128.4 -19.7988zM543.2 641.599c-2.66699 2.13379 -16.5332 9.4668 -41.6006 22
c-25.0664 12.5342 -46.666 22.2676 -64.7998 29.2002c41.0674 8 77.0674 12 108 12c12.8711 -14.8018 25.9375 -34.8018 39.2002 -60c-15.4668 -0.533203 -29.0664 -1.59961 -40.7998 -3.2002zM368.801 692.799c-44.9775 -16.4912 -81.5117 -33.8252 -109.601 -52
c-11.7334 1.60059 -25.6006 2.93359 -41.6006 4c10.5342 20.0146 24.1348 40.5479 40.8018 61.6006c38.3994 -0.53418 75.1992 -5.06738 110.399 -13.6006zM284 635.198c28.7949 17.7178 68.5293 34.5166 119.201 50.3984c36.2666 -11.2002 64.2666 -22 84 -32.4004
c19.7334 -10.3994 29.8672 -15.8662 30.4004 -16.3994c-35.7334 -6.93262 -74.9336 -19.999 -117.601 -39.1992c-34.667 15.4668 -73.334 28 -116.001 37.6006zM194.401 591.197c4.7998 12.7998 10.1328 25.333 16 37.5996c10.1328 -0.533203 19.4658 -1.33301 28 -2.39941
c-14.9336 -9.60059 -29.6006 -21.334 -44 -35.2002zM607.201 590.397c-11.2002 11.2002 -25.332 23.4668 -42.3994 36.7998c8.5332 1.06641 17.333 1.59961 26.4004 1.59961c5.86621 -12.2666 11.1992 -25.0664 15.999 -38.3994zM539.203 623.197
c45.6582 -33.207 73.3916 -59.6074 83.2002 -79.2002v-1.59961c-35.2002 -1.60059 -66.667 -6.40039 -94.4004 -14.4004c-5.33301 3.7334 -19.8662 12.7998 -43.5996 27.1992c-23.7334 14.4004 -43.6006 25.6006 -59.6006 33.6006c45.8662 18.667 84 30.1338 114.4 34.4004z
M184.003 554.397c9.64648 15.0039 35.7822 37.9385 78.4023 68.8008c29.333 -4.7998 66.9326 -16.2666 112.799 -34.4004c-9.06738 -4.2666 -25.7344 -13.4668 -50.001 -27.6006s-42 -25.2002 -53.2002 -33.2002c-29.8662 8.5332 -60.7998 13.333 -92.7998 14.4004
c0.533203 1.59961 1.2002 3.86621 2 6.7998c0.799805 2.93262 1.4668 4.93262 2 6zM292.005 522.398c27.2041 18.1357 63.2051 37.5996 108.001 58.3975c30.9336 -13.333 55.0674 -25.4658 72.4004 -36.3984c17.333 -10.9336 28.9326 -18 34.7988 -21.2002
c-40 -13.8662 -75.7334 -28 -107.2 -42.4004c-40 19.2002 -76 33.0674 -108 41.6016zM640.006 436.795c-12.8232 16.7686 -43.7559 43.168 -92.7998 79.2002c30.9326 5.86621 57.333 9.06641 79.2002 9.59961c6.39941 -28.7998 10.9326 -58.3994 13.5996 -88.7998z
M161.606 436.794c2.66699 30.9336 7.20215 60.5332 13.6025 88.7998c22.9326 -1.06641 49.0654 -4 78.3984 -8.7998c-44.8271 -32.5215 -75.4941 -59.1885 -92.001 -80zM172.009 424.794c14.0186 17.3174 47.8838 45.8535 101.598 85.6025
c19.1953 -4.26562 33.3271 -8.53223 42.3965 -12.7998c11.3164 -5.32422 30.7842 -14.124 58.4043 -26.4004c-3.2002 -1.60059 -7.06738 -3.73438 -11.6006 -6.40137s-8.39941 -4.93359 -11.5996 -6.7998s-6.93359 -4.13281 -11.2002 -6.7998
s-13.5996 -8.13379 -27.999 -16.4004s-27.4658 -16.667 -39.1992 -25.2012c-32 9.06738 -65.5996 14.1338 -100.8 15.2002zM525.607 409.597c-11.7334 8.53418 -24.4004 16.666 -38.001 24.3994c-13.5996 7.7334 -25.999 15.0664 -37.1992 22s-19.7334 12 -25.5996 15.2002
c4.7998 2.13379 10.7998 4.93359 18 8.39941c7.2002 3.4668 12.7998 6 16.7998 7.60059c4 1.59961 9.06641 3.73242 15.2002 6.39941s11.6006 4.80078 16.4004 6.40137c12.792 4.26465 24.5254 7.73145 35.2002 10.4004c48.6836 -34.7744 82.8164 -63.041 102.399 -84.8008
c-22.9326 0 -57.333 -5.33301 -103.2 -16zM293.607 403.995c21.6504 14.4326 56.8506 34.166 105.601 59.2002c28.8418 -14.0693 63.7754 -33.8027 104.8 -59.2002c-32.5332 -9.06641 -67.7334 -22.3994 -105.6 -40c-37.8672 17.6006 -72.8008 30.9336 -104.801 40z
M163.208 317.595c-2.66699 24.5342 -3.99902 42.8018 -3.99902 54.8018s0.266602 24.3994 0.799805 37.1992c29.333 -1.06641 60.7998 -5.06641 94.4004 -12c-17.6006 -12.7998 -32.001 -24.2666 -43.2012 -34.4004c-24 -19.2002 -40 -34.4004 -48 -45.6006z
M638.409 315.996c-16.8018 19.6025 -48.002 46.8027 -93.6006 81.5996c34.667 7.4668 66.9336 11.4668 96.7998 12c0.53418 -12.7998 0.800781 -25.1992 0.800781 -37.1992s-1.33301 -30.7998 -4 -56.4004zM268.809 290.396c-27.2002 8 -59.1992 12.5342 -95.999 13.6006
c19.7334 21.333 34.5332 36.2666 44.3994 44.7998s29.4658 22.9336 58.7988 43.2002c26.1338 -6.39941 58.1338 -18.3994 96 -36c-4.80566 -2.40332 -14.1387 -8.80371 -27.999 -19.2002c-32.5332 -18.1338 -57.5996 -33.6006 -75.2002 -46.4004zM531.21 289.597
c-21.7607 16.5088 -59.6289 38.6445 -113.602 66.4023c38.4004 16.5332 73.334 28.2666 104.801 35.2002c35.2002 -25.6006 54.667 -39.4678 58.4004 -41.6016c24.5332 -20.2666 39.7334 -35.4668 45.6006 -45.6006c-25.6006 -0.533203 -57.334 -5.33301 -95.2002 -14.4004z
M402.409 241.599c-39.4668 19.7334 -77.0674 34.4004 -112.801 44c45.5605 28.0371 82.0938 48.5703 109.601 61.6006c37.0322 -17.9189 74.0986 -38.7188 111.2 -62.4004c-33.0674 -9.06641 -69.0674 -23.4668 -108 -43.2002zM183.209 215.199
c-6.93359 24.5332 -12.2666 48.8008 -16 72.8008c25.5996 -0.533203 53.5996 -3.7334 84 -9.59961c-0.533203 -0.53418 -1.2002 -0.93457 -2 -1.20117s-1.4668 -0.666992 -2 -1.2002c-30.9336 -25.6006 -52.2666 -45.8672 -64 -60.7998zM617.608 213.6
c-18.1328 22.9336 -41.332 44.2666 -69.5986 64c28.2666 5.86719 57.0664 9.33398 86.3994 10.4004c-3.7334 -24.5332 -9.33398 -49.333 -16.8008 -74.4004zM532.01 156c-28.2666 26.667 -65.8662 52.001 -112.799 76.001c38.9326 18.1338 75.4658 31.4668 109.6 40
c37.333 -27.7334 65.0664 -54.4004 83.2002 -80.001c-1.60059 -4.7998 -4.53418 -12 -8.80078 -21.5996c-21.333 -1.06738 -45.0664 -5.86719 -71.2002 -14.4004zM384.01 232.001c-40.752 -20.376 -78.8848 -45.9785 -114.399 -76.8027
c-32.1182 10.7041 -56.1182 16.3037 -72 16.7998c-3.7334 9.60059 -6.66699 16.8008 -8.80078 21.6006c8.30762 15.4287 30.9746 38.0957 68 68.001l15.2002 12c32.5332 -7.46582 69.8662 -21.332 112 -41.5986zM227.211 108.798
c-8 12.7998 -15.4678 28.2666 -22.4014 46.4004c14.9336 -2.13379 31.7334 -6.40039 50.4004 -12.7998c-11.7334 -11.2002 -21.0664 -22.4004 -27.999 -33.6006zM573.609 107.198c-9.06641 14.3994 -18.3994 26.4004 -28 36.001
c18.1338 5.33301 34.9336 8.7998 50.4004 10.3994c-6.93359 -18.667 -14.4004 -34.1338 -22.4004 -46.4004zM515.21 148.799c-38.1504 -13.5107 -76.8184 -30.5771 -116.001 -51.1992c-36.418 19.167 -73.751 36.2334 -112 51.1992
c35.8135 30.083 74.2139 54.8828 115.201 74.3994c13.333 -7.4668 21.5996 -11.7334 24.7998 -12.7998c33.5996 -20.7998 62.9326 -41.333 88 -61.5996zM383.209 88.7988c-41.8125 -25.3848 -68.4795 -46.7178 -80 -64c-19.2383 8.10059 -41.1055 30.7676 -65.6006 68
c6.40039 12.2666 18.1338 26.9336 35.2002 44c34.29 -12.3438 71.0898 -28.3438 110.4 -48zM416.809 88.7988c39.4688 19.7344 76.5342 35.7344 111.199 48c16.5332 -17.5996 28.2666 -32.5332 35.2002 -44.7998c-12.7998 -19.7334 -25.8662 -35.7334 -39.1992 -48
c-7.4668 -9.06641 -16.5332 -15.7334 -27.2002 -20c-10.8301 17.3291 -37.4971 38.9287 -80 64.7998zM393.708 16.7988h-37.2979c-15.7314 0 -28.3984 1.06641 -38.001 3.2002c8.5332 10.667 17.333 19.2002 26.4004 25.5996c9.06641 6.40039 27.4658 17.0674 55.1992 32
l40.7998 -23.1992c18.1338 -12.2666 31.4668 -23.7334 40 -34.4004c-11.96 -2.65723 -25.1826 -3.98535 -39.668 -3.98535c-2.19043 0 -4.41016 0.0302734 -6.65918 0.0908203c-17.1162 0.462891 -30.707 0.694336 -40.7734 0.694336zM401.21 0.798828l35.2002 -0.798828
h16.7998c34.6201 0 62.2197 10.9336 82.7998 32.7998c29.333 29.333 54.1328 66.5332 74.3994 111.601c20.2666 45.0664 33.8662 95.0664 40.7998 150c4.7998 32 7.2002 56 7.2002 72s-0.266602 30.9336 -0.800781 44.7998v0.799805
c-4.2666 103.467 -28.7998 191.733 -73.5996 264.8c-31.376 51.9336 -69.2422 87.9336 -113.599 108c-22.4004 10.1338 -45.4668 15.2002 -69.2002 15.2002s-46.9336 -5.06641 -69.6006 -15.2002c-44.5264 -19.9062 -82.5264 -55.9062 -114 -108
c-49.5996 -80.5332 -74.3994 -177.6 -74.3994 -291.2c0 -98.9658 19.2002 -186.565 57.5996 -262.8c37.9814 -75.4053 81.1816 -116.072 129.601 -122.001c6.75488 -0.710938 14.2217 -1.06641 22.3994 -1.06641c4.08887 0 8.35547 0.0888672 12.7998 0.266602z" />
</svg>
