<?xml version="1.0" standalone="no"?>
<!DOCTYPE svg PUBLIC "-//W3C//DTD SVG 1.1//EN" "http://www.w3.org/Graphics/SVG/1.1/DTD/svg11.dtd" >
<svg xmlns="http://www.w3.org/2000/svg" xmlns:xlink="http://www.w3.org/1999/xlink" version="1.1" viewBox="-10 0 828 1000">
   <path fill="currentColor"
d="M283 571v-331h227v56h-160v78h138v56h-138v141h-67zM808 400c0 110.667 -39.5 204.834 -118.5 282.501s-174.167 116.5 -285.5 116.5c-25.333 0 -50.666 -2.33301 -75.999 -7c-92.667 -16.667 -170.5 -61.5 -233.5 -134.5s-94.5 -158.833 -94.5 -257.5
c0 -24.667 2.33301 -49.667 7 -75c18 -90.667 63.833 -167 137.5 -229s160.167 -93 259.5 -93c124 0 227 47 309 141c63.333 72.667 94.999 158 94.999 255.999zM632.001 606.501c54.667 -58.333 82 -128.833 82 -211.5s-33 -155 -99 -217
c-58.667 -54.667 -129 -82 -211 -82c-8 -0.666992 -17 -0.333984 -27 0.999023c-79.333 8 -146.333 40.833 -201 98.5s-82 125.834 -82 204.501c0 88 33 162.667 99 224c58.667 54.667 129 82 211 82c8 0 17 -0.666992 27 -2c79.333 -6.66699 146.333 -39.167 201 -97.5z
" />
</svg>
