<?xml version="1.0" encoding="UTF-8" standalone="no"?>
<!-- Creator: CorelDRAW -->

<svg
   xml:space="preserve"
   width="5.4740844mm"
   height="3.0569468mm"
   style="clip-rule:evenodd;fill-rule:evenodd;image-rendering:optimizeQuality;shape-rendering:geometricPrecision;text-rendering:geometricPrecision"
   viewBox="0 0 0.76368409 0.42647099"
   version="1.1"
   id="svg35"
   sodipodi:docname="Vulcao de lama.svg"
   inkscape:version="1.1.2 (b8e25be833, 2022-02-05)"
   xmlns:inkscape="http://www.inkscape.org/namespaces/inkscape"
   xmlns:sodipodi="http://sodipodi.sourceforge.net/DTD/sodipodi-0.dtd"
   xmlns="http://www.w3.org/2000/svg"
   xmlns:svg="http://www.w3.org/2000/svg"><sodipodi:namedview
   id="namedview37"
   pagecolor="#ffffff"
   bordercolor="#666666"
   borderopacity="1.0"
   inkscape:pageshadow="2"
   inkscape:pageopacity="0.0"
   inkscape:pagecheckerboard="0"
   inkscape:document-units="mm"
   showgrid="false"
   inkscape:zoom="73.423218"
   inkscape:cx="10.344139"
   inkscape:cy="5.7883598"
   inkscape:window-width="1920"
   inkscape:window-height="1057"
   inkscape:window-x="-8"
   inkscape:window-y="-8"
   inkscape:window-maximized="1"
   inkscape:current-layer="SIMBOLOS" />
 <defs
   id="defs26">
  <style
   type="text/css"
   id="style24">
   <![CDATA[
    .str0 {stroke:black;stroke-width:0.0488281}
    .fil0 {fill:none}
   ]]>
  </style>
 </defs>
 <g
   id="SIMBOLOS"
   inkscape:label="SIMBOLOS"
   inkscape:groupmode="layer"
   transform="translate(0,6.8839069e-4)">
  <metadata
   id="CorelCorpID_0Corel-Layer" />
  <g
   id="_262086560">
   <path
   id="_262086728"
   style="color:#000000;clip-rule:nonzero;fill:#000000;fill-rule:nonzero;stroke-width:27.0916;-inkscape-stroke:none;shape-rendering:auto"
   d="M 11.886719,-0.01757813 C 11.06215,-0.00771366 10.159815,0.06521267 9.4179688,0.2109375 8.3853385,0.41370133 7.7263848,0.79984737 7.25,1.2167969 6.7739241,1.6334738 6.4620859,2.0865207 6.0859375,2.8046875 5.7098324,3.5227757 5.2239964,4.563734 4.7089844,5.4492188 4.1940593,6.3341915 3.6656667,7.0162053 2.9628906,7.4082031 2.260253,7.8001273 1.1667181,7.9817635 0,8.1484375 L 0.2109375,9.4707031 C 1.3776955,9.3040354 2.5670213,9.147142 3.5976562,8.5722656 4.6281679,7.9974624 5.268659,7.0867654 5.8203125,6.1386719 6.2192887,5.4526942 6.6017362,4.7058089 6.9179688,4.0859375 7.7473145,4.5905282 8.6012902,5.0782436 9.4863281,5.4355469 9.233705,6.2054846 8.9548508,6.9314815 8.625,7.4609375 8.2073147,8.1313851 7.6460134,8.6105843 7.0898438,8.8886719 6.533582,9.1668027 5.9579305,9.2650468 5.2910156,9.3652344 L 5.5039062,10.634766 C 6.1704093,10.534635 6.8947189,10.441321 7.671875,10.052734 8.4491205,9.664113 9.2361682,9.0359108 9.7890625,8.1484375 10.230422,7.4399978 10.514128,6.6399231 10.765625,5.8417969 c 0.231283,0.051793 0.461971,0.091731 0.691406,0.1210937 0.108119,0.6319975 0.25841,1.2928312 0.501953,1.921875 0.310202,0.8023216 0.782753,1.5083758 1.375,2.0625 0.592375,0.5542404 1.252207,0.8846634 1.640625,1.1113284 0.388188,0.226377 0.540781,0.343466 0.740235,0.476562 l 0.742187,-1.111328 C 16.256607,10.290077 16.020932,10.187273 15.609375,9.9472656 15.19729,9.7067732 14.675324,9.3539685 14.234375,8.9414062 13.793298,8.528712 13.412098,8.019424 13.175781,7.4082031 13.018274,7.0013804 12.908656,6.5210603 12.820312,6.015625 13.216401,5.996202 13.600585,5.946754 13.96875,5.8730469 c 0.553817,-0.1108755 1.054771,-0.2712965 1.523438,-0.4589844 0.08683,0.4157841 0.1906,0.8413325 0.328124,1.2539063 0.369652,1.1089582 0.953952,1.9770307 1.587891,2.5917968 0.634045,0.6148718 1.288982,0.9355794 1.746094,1.1113284 0.456719,0.175743 0.83115,0.271074 1.164062,0.371094 L 20.689453,9.4707031 C 20.35566,9.3704099 20.040406,9.2591518 19.630859,9.1015625 19.220952,8.9439704 18.827123,8.7583503 18.361328,8.3066406 17.895418,7.8548307 17.336119,7.1353084 17.039062,6.2441406 16.898895,5.8236391 16.808721,5.3392262 16.730469,4.8398438 c 0.08522,-0.043491 -0.08439,0.043769 0,0 L 16.582031,3.8691406 C 16.544258,3.6323012 16.503097,3.3998992 16.455078,3.1757812 16.240599,2.1762277 15.927518,1.3609232 15.291016,0.79296875 14.654931,0.22487257 13.817257,0.05225137 12.804688,0 12.519845,-0.01481014 12.209376,-0.02143813 11.886719,-0.01757813 Z m -0.08594,1.32226563 c 0.337902,-0.00367 0.663417,0.00262 0.951172,0.017578 0.921035,0.047527 1.343164,0.2108984 1.640625,0.4765625 0.297044,0.2650538 0.554082,0.8258294 0.740234,1.6933594 0.03874,0.1808032 0.07654,0.3761492 0.113282,0.5820313 C 14.747703,4.30451 14.244311,4.4955553 13.705078,4.6035156 12.750063,4.7947284 11.640037,4.751163 10.529297,4.3925781 9.585275,4.0878291 8.5611765,3.5424556 7.53125,2.9257812 7.7216808,2.602673 7.8701193,2.4200936 8.0957031,2.2226562 8.4190635,1.9396399 8.8491388,1.6462724 9.6835938,1.4824219 10.257105,1.3697637 11.057397,1.3127608 11.800781,1.3046875 Z"
   transform="scale(0.03691176)"
   sodipodi:nodetypes="sccccccccccccccccscccscccccccscsscccccsccccccsscccccccscss" />
   
   
   
  </g>
 </g>
</svg>
