<?xml version="1.0" standalone="no"?>
<!DOCTYPE svg PUBLIC "-//W3C//DTD SVG 1.1//EN" "http://www.w3.org/Graphics/SVG/1.1/DTD/svg11.dtd" >
<svg xmlns="http://www.w3.org/2000/svg" xmlns:xlink="http://www.w3.org/1999/xlink" version="1.1" viewBox="-10 0 810 1000">
   <path fill="currentColor"
d="M483.2 113.6c13.333 3.2002 24.9336 9.73438 34.7998 19.6006c14.2666 14.2666 21.4004 30.6338 21.4004 49.1016c0 23.1592 -11 42.6582 -33 58.4971l-9.60059 -13.5996c17.0664 -11.9463 25.5996 -26.2822 25.5996 -43.0078
c0 -15.0615 -4.66602 -27.2588 -13.999 -36.5918s-19.0664 -15.333 -29.2002 -18zM296.001 240.801c-21.9033 -15.7695 -32.8545 -35.8076 -32.8545 -60.1162c0 -11.8672 4.75586 -24.9355 14.2686 -39.2051c9.5127 -14.2686 23.4414 -23.5615 41.7861 -27.8779l4 16
c-13.1865 2.8252 -23.1494 8.73145 -29.8896 17.7188c-8.87402 11.833 -13.3105 25.1182 -13.3105 39.8555s8.5332 28.0791 25.5996 40.0254zM414.001 43.6016c-7.2002 0.266602 -15.4668 0.400391 -24.7998 0.400391h-14c-6.40039 1.06641 -11.7334 5.59961 -16 13.5996
c-12.2666 25.6006 -18.4004 102.001 -18.4004 229.201s18.9336 252.4 56.7998 375.601l0.772461 2.31543c0.824219 0.0556641 1.50098 0.0839844 2.03125 0.0839844s0.930664 -0.00292969 1.2002 -0.00878906l0.796875 -2.39062
c37.8662 -124.267 56.7998 -249.733 56.7998 -376.4s-6.13379 -202.801 -18.4004 -228.401c-4.2666 -8.5332 -9.59961 -13.0664 -16 -13.5996c0 -0.533203 -3.59961 -0.666992 -10.7998 -0.400391zM400.001 27.2021l17.1777 -0.930664
c17.6279 0 30.3027 8.04395 38.0244 24.1309c13.0166 27.5947 19.9336 96.1055 20.751 205.532l176.849 -1.53125v0.28418l40 -0.28418l20 59.1992v-51.1992c0 -33.0674 -8.2666 -64.668 -24.7998 -94.8018c-16.5332 -30.1328 -38.667 -56.2656 -66.4004 -78.3994
s-60.9336 -39.7334 -99.6006 -52.7998c-38.667 -13.0674 -82.8008 -19.6006 -132.401 -19.6006c-49.5996 0 -98.5332 11.0664 -146.8 33.2002s-86.2666 52 -114 89.5996c-27.7334 37.6006 -41.5996 78.5342 -41.5996 122.801v51.1992l20 -59.1992l40 0.28418v-0.28418
l176.813 0.761719c0.350586 -109.494 7.2793 -177.748 20.7861 -204.762c7.72168 -16.0869 20.3965 -24.1309 38.0244 -24.1309zM565.52 543.955c-15.6777 23.3643 -32.5508 44.9932 -50.6201 64.8848l35.5049 107.962l-16 5.60059l-32.709 -99.5498
c-18.4609 18.7666 -36.3291 33.1963 -53.6045 43.2891l-21.6865 133.861l-16 -3.2002l19.6621 -121.487c-2.70801 1.125 -5.31641 2.10254 -7.8252 2.93359c-2.79785 11.7236 -5.14355 20.5752 -7.03711 26.5547l-15.2002 48l-8 -24.7998c-7.33301 -28 -12 -44 -14 -48
s-4.42383 -5.77734 -7.27246 -5.33105l20.4727 122.131l-16 3.2002l-22.6367 -135.067c-17.042 -10.6221 -34.5303 -24.8408 -52.4648 -42.6572l-32.8975 100.125l-16 -5.60059l35.6387 -108.371c-17.8926 -19.6191 -34.7695 -41.2012 -50.6309 -64.7461l-42.6084 92.3174
l-15.1992 -6.40039l47.4014 -102.097c-15.8682 -25.6689 -29.9199 -53.5771 -42.1553 -83.7256l-43.6475 92.2227l-15.2002 -7.2002l51.082 -105.124c-8.58789 -24.4502 -15.3555 -48.6328 -20.3037 -72.5469l-41.9785 68.8711l-14.3994 -8.7998l52.2646 -85.1172
c-2.30957 -18.0557 -3.70312 -36.2783 -4.18066 -54.668l-28.8828 -0.21582l-31.2002 96.7998l-16 -2.40039v-103.199c-0.133789 -48.2666 14.4658 -92.4004 43.7988 -132.4s69.333 -71.667 120 -95s105.667 -35 165 -35s114.333 11.667 165 35
s90.6338 55.2871 119.9 95.8623s43.8994 84.7549 43.8994 132.538v103.199l-16 1.40039l-31.2002 -96.7998l-28.8789 0.108398c-0.480469 17.7939 -1.74805 35.4111 -3.80273 52.8516l52.6816 87.04l-14.3994 8.7998l-42.2305 -70.3828
c-4.64648 24.9219 -11.1885 49.3887 -19.626 73.4004l50.6562 105.782l-15.2002 7.2002l-43.0859 -92.5293c-11.8096 30.3525 -25.7539 58.4756 -41.833 84.3691l46.5186 101.759l-14.4004 6.40039zM325.115 320.003c-0.624023 -15.832 -0.985352 -31.585 -1.08398 -47.2598
l-158.42 -1.18652c0.352539 16.3252 1.51758 32.4736 3.49609 48.4463h156.008zM331.717 415.203c-2.72852 -29.1787 -4.69043 -55.5781 -5.88281 -79.2002h-154.463c4.28418 26.9072 10.9121 53.3076 19.8838 79.2002h140.462zM333.272 431.204h-136.189
c11.7295 30.8379 25.4258 59.2461 41.0889 85.2246l103.365 -15.6416c-3.09473 -22.4883 -5.84961 -45.6826 -8.26465 -69.583zM247.443 531.17c14.9785 22.8418 31.502 44.1201 49.5693 63.835l56.0654 -22.0479c-3.30957 -18 -6.36816 -36.5225 -9.1748 -55.5674z
M356.223 589.517l-46.6035 18.6416c14.8926 14.8311 30.1104 27.4775 45.6533 37.9395l8.25879 -21.7344c-2.54883 -11.3809 -4.98535 -22.9961 -7.30859 -34.8467zM370.272 652.859l-0.792969 1.93848c0.495117 0.270508 0.988281 0.535156 1.47852 0.794922
c-0.229492 -0.90918 -0.458008 -1.82031 -0.685547 -2.7334zM429.274 649.269c-0.650391 2.75684 -1.28906 5.43945 -1.91406 8.0498c1.37402 -0.669922 2.77246 -1.38477 4.19531 -2.14551zM474.989 320.003h155.997c1.92871 -16.0439 3.06641 -32.252 3.41309 -48.623
l-158.417 0.592773c-0.0830078 15.9795 -0.414062 31.9893 -0.993164 48.0303zM474.329 336.003c-1.21973 26.3174 -3.10547 52.7168 -5.65918 79.2002h140.959c8.63574 -25.9346 15.0234 -52.335 19.1641 -79.2002h-154.464zM467.048 431.202
c-2.45215 23.0361 -5.40723 46.1357 -8.86523 69.2979l105.706 15.9951c15.3975 -25.8926 28.7754 -54.3232 40.1338 -85.293h-136.975zM455.604 517.193c-2.90527 18.2119 -6.12012 36.4619 -9.64648 54.75l59.1455 23.2598
c18.249 -19.8086 34.7871 -41.126 49.6133 -63.9512zM442.696 588.438c-2.08887 10.3037 -4.27441 20.6191 -6.56055 30.9473l9.77441 27.1494c15.9248 -10.5498 31.4336 -23.2832 46.5264 -38.2002z" />
</svg>
