<?xml version="1.0" standalone="no"?>
<!DOCTYPE svg PUBLIC "-//W3C//DTD SVG 1.1//EN" "http://www.w3.org/Graphics/SVG/1.1/DTD/svg11.dtd" >
<svg xmlns="http://www.w3.org/2000/svg" xmlns:xlink="http://www.w3.org/1999/xlink" version="1.1" viewBox="-11 0 1021 1000">
   <path fill="currentColor"
d="M0 461l15 -54c50.667 13.333 94.334 19.666 131.001 18.999c50 -2.66699 102.5 -14.167 157.5 -34.5s103.167 -43.333 144.5 -69s89.333 -58.834 144 -99.501c48.6982 -34.667 85.6982 -52 111 -52c22 0.666992 44.5 10.5 67.5 29.5s48.667 48 77 87
s45.166 61.5 50.499 67.5c16 16 32.333 27.333 49 34c11.333 3.33301 29 5.66602 53 6.99902l-3 57c-28.667 -1.33301 -51.334 -4.66602 -68.001 -9.99902c-37.0156 -12.6631 -72.6826 -43.8301 -107 -93.5c-12.667 -18.333 -21 -30.166 -25 -35.499
c-42.584 -56.3613 -75.1162 -84.8613 -97.5977 -85.5c-11.7324 -0.333008 -41.8662 17.334 -90.4023 53.001c-44 32.333 -87.833 62.166 -131.5 89.499s-96 52.333 -157 75s-114.833 34.667 -161.5 36s-99.667 -5.66699 -158.999 -20.999zM-0.000976562 613.999l15 -55
c50.667 13.333 94.334 19.666 131.001 18.999c50 -2.66699 102.5 -14.167 157.5 -34.5s103.167 -43.333 144.5 -69s85.5 -55.834 132.5 -90.501s81.5 -54.334 103.5 -59.001c5.33301 -0.666992 11.666 -1 18.999 -1c22 0 44.5 9.5 67.5 28.5s48.667 48 77 87
s45.166 61.5 50.499 67.5c16 16 32.333 27.333 49 34c11.333 3.33301 29 5.66602 53 6.99902l-3 58c-28.667 -2 -51.334 -5.66699 -68.001 -11c-38.1084 -13.0371 -73.7754 -44.0371 -107 -93c-12.667 -18.667 -21 -30.667 -25 -36
c-42.584 -56.3613 -75.1162 -84.8613 -97.5977 -85.5c-11.7324 -0.333008 -41.8662 17.334 -90.4023 53.001c-44 32.333 -87.833 62.166 -131.5 89.499s-96 52.333 -157 75s-114.833 34.834 -161.5 36.501s-99.666 -5.16504 -158.998 -20.4971z" />
</svg>
