<?xml version="1.0" standalone="no"?>
<!DOCTYPE svg PUBLIC "-//W3C//DTD SVG 1.1//EN" "http://www.w3.org/Graphics/SVG/1.1/DTD/svg11.dtd" >
<svg xmlns="http://www.w3.org/2000/svg" xmlns:xlink="http://www.w3.org/1999/xlink" version="1.1" viewBox="-10 0 810 1000">
   <path fill="currentColor"
d="M479 433c18.667 -34 27.999 -67.0039 27.999 -99.0039c0 -17.333 -3.33301 -33.666 -10 -48.999l-14 -34l-12 -18l20 7c33.333 11.333 54.666 17 63.999 17c1.33301 0 2.66602 -0.333008 3.99902 -1s3.66602 -2.66699 6.99902 -6c31.333 -28.667 56 -66.334 74 -113.001
c3.33301 -8.66699 5.33301 -13.667 6 -15v-1h-1c-10 4.66699 -24.667 18.334 -44 41.001s-31 36 -35 40l-9 9c-4 4.66699 -8 7 -12 7c-9.33301 -0.666992 -24.666 -9 -45.999 -25l-32 -23l-2 -2v-76c0 -12 -7.33301 -27.333 -22 -46s-29.334 -28.667 -44.001 -30
c-15.333 1.33301 -30 11 -44 29c-14.667 18.667 -22 34.334 -22 47.001v76c-44.2959 33.3828 -70.6641 50.0742 -79.1045 50.0742c-0.325195 0 -0.623047 -0.0244141 -0.894531 -0.0742188c-4 -0.666992 -7.33301 -2.33398 -10 -5.00098l-12 -12
c-7.33301 -6.66699 -16.666 -16.334 -27.999 -29.001c-18.667 -21.333 -31.334 -33 -38.001 -35c-0.666992 -0.666992 -1.33398 -1 -2.00098 -1v1c2 10.667 9.66699 27 23 49c11.333 18 22 33.333 32 46c8.66699 10.667 14 17.334 16 20.001s3.66699 4 5 4v1h5
c0.444336 0.0742188 0.975586 0.111328 1.59277 0.111328c4.93848 0 15.4072 -2.37012 31.4072 -7.11133l30 -10l19 -8l-10 19c-16.7588 29.1729 -25.1377 55.167 -25.1377 77.9824c0 1.69043 0.0458984 3.36328 0.137695 5.01855
c0.666992 14.667 3.33398 30.334 8.00098 47.001s8.66699 28.667 12 36l5 9l3 7l-6 4c-64 32.667 -108.667 61.667 -134 87c-14 14 -21 24.333 -21 31c-0.0146484 0.311523 -0.0224609 0.623047 -0.0224609 0.93457c0 13.7041 14.3408 27.7266 43.0225 42.0674
c4 2 9.66699 4.66699 17 8c2.66699 1.33301 8.66699 4.66602 18 9.99902c14.667 8.66699 24.667 16 30 22c3.33301 4 18 22.667 44 56l12 19l-59 37c-22.667 18 -34 29.667 -34 35c0 4 7.33301 3.66699 22 -1c28.667 -10 56.667 -26.667 84 -50
c10.667 -8.66699 15.667 -14.667 15 -18c-1.33301 -11.333 -5.66602 -26.666 -12.999 -45.999c-9.33301 -24.667 -17.666 -41 -24.999 -49c-6.66699 -7.33301 -13.334 -14 -20.001 -20c-6 -6.66699 -12.333 -12.334 -19 -17.001c-8.66699 -6 -14.667 -10.667 -18 -14
c-6 -6 -12 -10.667 -18 -14l-8 -6l9 -6c19.333 -14 36 -21 50 -21h2l17 1c32 0 54.667 -9 68 -27h48c8 11.333 19 18.666 33 21.999c12.667 3.33301 22.334 5 29.001 5h1h14h6c9.33301 0 21 3 35 9l19 10l9 7l-9 6c-32.667 23.333 -56 43.666 -70 60.999h-1
c-15.333 16 -28 44 -38 84c-2.66699 10.667 -2.66699 17.667 0 21c8.66699 11.333 23.334 23 44.001 35c34 20 56.333 30 67 30c2.66699 0 4.66699 -0.333008 6 -1c2 -1.33301 0.333008 -5 -5 -11c-6 -6.66699 -14 -13.667 -24 -21l-63 -41
c32 -51.333 56.667 -81.666 74 -90.999c6 -3.33301 14.667 -7.66602 26 -12.999c42.8154 -20.1484 64.2227 -37.6211 64.2227 -52.417c0 -0.870117 -0.0742188 -1.73145 -0.222656 -2.58301c-0.666992 -4.66699 -2 -8.66699 -4 -12c-13.333 -24 -60 -57.333 -140 -100
l-11 -5zM255.999 201.996c3.33301 0 24.3281 -14.0039 62.9951 -42.0039v-68c0 -16 8.33301 -34.667 25 -56c18 -23.333 35.667 -35 53 -35h3c19.333 2.66699 37.333 14.334 54 35.001c17.333 21.333 26 40 26 56v69c36 27.333 57.333 41 64 41
c0.666992 0 2.33398 -1.33301 5.00098 -4c2 -1.33301 5.33301 -4.66602 10 -9.99902c19.333 -21.333 30 -33 32 -35c27.333 -32 46.333 -48 57 -48c2.66699 0 4.66699 0.333008 6 1c4 2 6 6.33301 6 13l0.0136719 0.71875
c-0.00878906 15.5205 -23.0137 56.9473 -69.0137 124.28c-10 14.667 -18.667 23.334 -26 26.001c-3.33301 1.33301 -6.66602 2 -9.99902 2c-16 -1.33301 -34.667 -6 -56 -14c14.667 26.667 22 53.667 22 81s-8 56.333 -24 87c24.667 12.667 50 27.334 76 44.001
c54 35.333 81 63.333 81 84c0 22 -16.667 41 -50 57c-20 10 -33 17 -39 21c-12 8.66699 -21.333 16.667 -28 24c-8 8.66699 -21.333 26.334 -40 53.001c52 30.667 80.667 55 86 73c2 6.66699 0.333008 11.667 -5 15c-6 4 -11.667 5.66699 -17 5
c-7.33301 -0.666992 -13.666 -2 -18.999 -4c-29.333 -10 -59 -27.667 -89 -53c-12.667 -10.667 -19 -19 -19 -25c0 -12.667 4.66699 -32 14 -58c8.66699 -24 19.334 -43 32.001 -57s33.667 -31.667 63 -53c-16 -9.33301 -26.333 -14 -31 -14h-9
c-2 0.666992 -5.66699 1 -11 1c-2 0 -3.95215 0.0429688 -5.85645 0.128906c-28.0957 -0.0859375 -50.4766 -9.12891 -67.1436 -27.1289h-40c-16.667 18 -41 27 -73 27h-9c-6.66699 -0.666992 -10.334 -1 -11.001 -1c-12.667 3.33301 -23.334 7.66602 -32.001 12.999
c29.333 22 50.333 40 63 54s22.667 30.333 30 49c8.66699 22.667 14.334 44.334 17.001 65.001c0.666992 5.33301 -5.33301 13.666 -18 24.999c-12 10.667 -26.333 21 -43 31c-29.333 17.333 -51.333 26 -66 26c-6.66699 0 -12 -1.33301 -16 -4s-6 -6.33398 -6 -11.001
c0 -5.33301 2.66699 -12 8 -20c10 -15.333 36 -34.333 78 -57c-26 -38 -45.667 -62 -59 -72c-7.33301 -5.33301 -16.666 -10.666 -27.999 -15.999c-32.667 -15.333 -52 -27.333 -58 -36c-8 -11.333 -12 -21.666 -12 -30.999c0 -6.66699 2 -13 6 -19
c20 -29.333 70 -65.666 150 -108.999c-15.333 -31.333 -23 -60 -23 -86c0 -26.667 7.33301 -54 22 -82c-25.333 9.33301 -43.666 14 -54.999 14c-2.66699 0 -5.66699 -0.666992 -9 -2c-7.33301 -3.33301 -15.666 -11.333 -24.999 -24c-28 -39.333 -44 -63.333 -48 -72
c-8 -18 -12.333 -29.333 -13 -34c-0.666992 -6.66699 1.33301 -12.334 6 -17.001c1.33301 -1.33301 3.66602 -2 6.99902 -2c12.667 1.33301 30 14.333 52 39l32 36l8 6h2z" />
</svg>
