<?xml version="1.0" standalone="no"?>
<!DOCTYPE svg PUBLIC "-//W3C//DTD SVG 1.1//EN" "http://www.w3.org/Graphics/SVG/1.1/DTD/svg11.dtd" >
<svg xmlns="http://www.w3.org/2000/svg" xmlns:xlink="http://www.w3.org/1999/xlink" version="1.1" viewBox="-10 0 810 1000">
   <path fill="currentColor"
d="M319 490c-21.333 -20 -31.999 -45.335 -31.999 -76.002c0 -6 0.333008 -12 1 -18c4.66699 -38.667 21.334 -72.667 50.001 -102c28 -28 52.667 -61.667 74 -101c20.667 -38 31 -69.667 31 -95s4.66699 -48 14 -68s21.333 -30 36 -30c15.333 0 28 10 38 30
c9.33301 19.333 14 43 14 71c0 25.333 -10.667 58.333 -32 99c-20.667 39.333 -45.334 73.333 -74.001 102c-26.667 26.667 -42.667 57.667 -48 93c-0.666992 4.66699 -1 9.66699 -1 15c0.666992 27.333 10.334 50.666 29.001 69.999c22 22.667 41 53.334 57 92.001
s24 74.334 24 107.001c0 50.667 -9.33301 87.334 -28 110.001c-6.66699 8 -14.334 11.667 -23.001 11c-16.667 -0.666992 -29.334 -13 -38.001 -37s-13 -51.667 -13 -83c0 -31.0693 -7.74121 -64.8359 -23.2246 -101.3
c-17.1836 -40.4668 -35.7754 -70.0332 -55.7754 -88.7002zM470.582 40.7979c-7.7627 15.4854 -11.6426 35.3438 -11.6426 59.5713l0.0185547 3.38379c0 25.1914 -10.4014 57.2734 -31.2051 96.2471c-21.0664 39.4668 -45.7334 73.333 -74 101.6
s-44.5332 59.7334 -48.7998 94.4004c-0.675781 5.49121 -1.01367 10.8252 -1.01367 16.002c0 27.5049 9.53809 50.5703 28.6143 69.1973c22.667 22.1338 42 52.4004 58 90.7998s24 73.4658 24 105.199s2.93359 55.334 8.7998 70.8008
c5.86719 15.4668 10.8008 25.333 14.8008 29.5996s7.7334 6.40039 11.1992 6.40039c8.44434 0 16.3555 -10 23.7334 -30s11.0664 -44.9336 11.0664 -74.7998s-8 -63.5996 -24 -101.2s-35.4668 -67.8672 -58.4004 -90.8008
c-18.9639 -18.9639 -28.4463 -43.3066 -28.4463 -73.0293c0 -6.2207 0.415039 -12.6777 1.24609 -19.3701c4.7998 -38.667 21.5996 -72.4004 50.3994 -101.2s53.333 -62.2666 73.5996 -100.4s30.3994 -68.9336 30.3994 -92.4004s-3.06641 -41.5996 -9.2002 -54.3994
c-9.45605 -19.7334 -18.0098 -29.6006 -25.6611 -29.6006s-15.4873 8 -23.5078 24z" />
</svg>
