<?xml version="1.0" standalone="no"?>
<!DOCTYPE svg PUBLIC "-//W3C//DTD SVG 1.1//EN" "http://www.w3.org/Graphics/SVG/1.1/DTD/svg11.dtd" >
<svg xmlns="http://www.w3.org/2000/svg" xmlns:xlink="http://www.w3.org/1999/xlink" version="1.1" viewBox="-10 0 810 1000">
   <path fill="currentColor"
d="M472.8 166.4c-42.0713 26.0439 -63.9404 47.375 -65.6025 63.998v171.882c17.8779 -19.0283 44.8115 -39.7891 80.7998 -62.2822c4.2666 -2.66699 8.40039 -5.33398 12.4004 -8.00098s7.59961 -4.93359 10.7998 -6.7998s5.86719 -3.59961 8.00098 -5.2002
c1.06641 -0.799805 3.4668 -2.13281 7.2002 -3.99902l8 12c-49.877 29.1963 -86.6768 55.0625 -110.4 77.5996c-9.49023 8.62793 -15.0898 16.3613 -16.7998 23.2002v144.8c10.7188 -17.417 42.4521 -41.9502 95.2002 -73.5996l8 -4.7998l6.39941 12.7998
c-35.0645 20.4541 -66.7979 43.3877 -95.2002 68.7998c-9.59961 9.60059 -14.3994 16.8008 -14.3994 21.6006v66.6172c13.8936 -2.22559 29.1006 -11.4854 45.6211 -27.7783c16.5195 -16.293 32.3799 -39.1064 47.5801 -68.4395s27.4668 -61.1992 36.7998 -95.5986
c9.33301 -34.4004 14 -66.8008 14 -97.2002c0 -51.7334 -26.1338 -126.934 -78.4004 -225.601c-23.4668 -44.2666 -47.7334 -85.333 -72.7998 -123.199c-26.667 39.4668 -50.9336 80.5332 -72.7998 123.2c-52.7998 99.2002 -78.9336 174.4 -78.4004 225.601
c0 60.7998 16.7998 124.8 50.4004 192c15.4668 29.8662 31.5723 53.0391 48.3174 69.5176c16.7451 16.4775 31.8389 25.7012 45.2822 27.6709v-65.9883h-0.799805v-0.799805c-0.938477 -9.38477 -18.8047 -26.9854 -53.5996 -52.8008l-56.8008 -37.5996l6.40039 -12.7998
c58.1162 33.9014 93.0498 60.7861 104.8 80.6553v-146.256h-1.59961l0.799805 -0.799805c-0.65625 -3.28223 -6.52246 -11.0156 -17.5996 -23.2002c-17.6436 -16.8037 -50.9766 -40.8037 -99.999 -72l-9.60059 -5.59961l8 -12c58.5771 34.8672 98.5771 64.208 120 88.0215
v-172.821h-1.59961l0.799805 -0.799805c-0.533203 -5.86719 -3.33301 -11.7344 -8.40039 -17.6006c-5.06641 -5.86621 -12.9326 -13.333 -23.5996 -22.3994l-34.4004 -24l8 -12c28.6904 18.2568 48.4238 33.8643 59.2002 46.8213v-122.021h14.4004v120.413
c12.3057 -13.2793 29.9053 -27.5508 52.7998 -42.8135l5.59961 -2.39941zM399.997 -0.00195312l6.39941 8.79883c26.667 39.4668 53.0664 84.5332 79.1992 135.2c53.8672 100.8 80.8008 178.133 80.8008 231.999c0 66.9336 -17.333 133.334 -52 199.2
c-16 31.4668 -33.5029 56.3193 -52.5098 74.5576c-19.0059 18.2383 -37.2363 28.4365 -54.6904 30.5957v119.646h-14.4004v-119.681c-17.0479 -2.26172 -35.043 -12.6133 -53.9854 -31.0557s-36.5469 -43.1299 -52.8135 -74.0625
c-34.9336 -66.4307 -52.4004 -132.831 -52.4004 -199.2c0 -76.876 49.8672 -193.676 149.601 -350.399l10.3994 -16.7998z" />
</svg>
