<?xml version="1.0" standalone="no"?>
<!DOCTYPE svg PUBLIC "-//W3C//DTD SVG 1.1//EN" "http://www.w3.org/Graphics/SVG/1.1/DTD/svg11.dtd" >
<svg xmlns="http://www.w3.org/2000/svg" xmlns:xlink="http://www.w3.org/1999/xlink" version="1.1" viewBox="-10 0 1021 1000">
   <path fill="currentColor"
d="M251 355c14 -32 44.501 -60.167 91.5029 -84.501c47 -24.333 106.833 -36.333 179.5 -36s135.667 13.833 189 40.5c42.667 22.667 71 50.334 85 83.001c37.333 1.33301 105.333 2 204 2v79c-26.667 0 -62.834 -0.166992 -108.501 -0.5s-77.834 -0.5 -96.501 -0.5
c-14 33.333 -42 61 -84 83c-53.333 26.667 -116.333 40 -189 40s-135.334 -13.333 -188.001 -40c-44 -23.333 -72.667 -52.333 -86 -87h-248v-79h251zM675.003 345.999c-42 -21.333 -93.167 -31.999 -153.5 -31.998c-60.333 0 -108.833 9.5 -145.5 28.5
s-55.334 37.5 -56.001 55.5c0 17.333 16 34.333 48 51c0.666992 0.666992 1.33398 1 2.00098 1c41.333 21.333 92 32 152 32s111 -10.667 153 -32c32 -16.667 48.167 -33.834 48.5 -51.501s-15.167 -34.834 -46.5 -51.501c-1.33301 0 -2 -0.333008 -2 -1zM525.003 395.001
l-3 -6l-2 6l2 6zM599.003 395.001c-0.666992 14 -5.5 25.5 -14.5 34.5s-18.5 15.167 -28.5 18.5c-22.667 8 -45 8 -67 0c-28.667 -11.0254 -43 -28.6924 -43 -53c0 -14.667 6 -28 18 -40c6.66699 -4.66699 15 -9 25 -13c36.71 -12.2373 68.21 -6.57031 94.5 17
c9.66699 8.66699 14.834 20.667 15.5 36z" />
</svg>
