<?xml version="1.0" standalone="no"?>
<!DOCTYPE svg PUBLIC "-//W3C//DTD SVG 1.1//EN" "http://www.w3.org/Graphics/SVG/1.1/DTD/svg11.dtd" >
<svg xmlns="http://www.w3.org/2000/svg" xmlns:xlink="http://www.w3.org/1999/xlink" version="1.1" viewBox="-10 0 810 1000">
   <path fill="currentColor"
d="M400.345 -1.94043l5.6543 5.65625c4.84863 4.84863 11.043 11.4473 18.584 19.7959s21.1426 26.9326 40.8037 55.752c19.6611 28.8184 37.3027 59.1182 52.9248 90.8994c15.6211 31.7812 30.165 72.1816 43.6318 121.2s21.0078 98.5752 22.623 148.67
c3.77148 112.582 -25.3164 206.579 -87.2627 281.992c-13.4668 16.6982 -28.0107 31.5117 -43.6328 44.4404c-15.6211 12.9287 -27.7412 22.0859 -36.3594 27.4727l-13.7373 6.46387l-5.65527 -2.42383l-6.46387 -2.4248
c-26.3945 -17.2373 -51.9814 -44.4395 -76.7607 -81.6074c-23.7002 -33.9365 -43.7656 -73.9326 -60.1953 -119.988s-25.4521 -99.249 -27.0674 -159.58c-1.07812 -35.5518 1.07617 -70.834 6.46289 -105.847c5.38672 -35.0137 12.9277 -66.3906 22.624 -94.1318
s20.6045 -54.1357 32.7246 -79.1836s24.375 -46.5947 36.7637 -64.6406c12.3896 -18.0449 23.7021 -33.8008 33.9375 -47.2676c10.2344 -13.4668 18.584 -23.4316 25.0479 -29.8955l9.69531 -9.69629zM408.424 31.498l0.00292969 747.785
c26.3154 -14.3018 52.1709 -36.8887 77.5664 -67.7607c58.7148 -71.6436 86.1865 -161.87 82.416 -270.68c-1.61621 -47.9414 -8.48438 -94.9404 -20.6045 -140.997c-12.1201 -46.0557 -25.0488 -83.8965 -38.7852 -113.523
c-13.7354 -29.626 -29.8955 -58.3096 -48.4795 -86.0508s-31.7812 -46.0557 -39.5918 -54.9434c-4.3877 -4.99219 -8.5625 -9.60254 -12.5244 -13.8301zM391.458 775.206v-744.574c-4.28516 4.54297 -8.86426 9.5752 -13.7363 15.0977
c-8.08008 9.15723 -21.1426 27.4717 -39.1875 54.9434c-18.0449 27.4727 -33.8008 56.0225 -47.2676 85.6484c-13.4668 29.627 -25.1836 66.7949 -35.1494 111.504c-9.96484 44.71 -14.1396 89.958 -12.5234 135.744c3.23242 105.579 30.9736 196.075 83.2236 271.488
c21.7461 30.5361 43.293 53.9189 64.6406 70.1484z" />
</svg>
