<?xml version="1.0" standalone="no"?>
<!DOCTYPE svg PUBLIC "-//W3C//DTD SVG 1.1//EN" "http://www.w3.org/Graphics/SVG/1.1/DTD/svg11.dtd" >
<svg xmlns="http://www.w3.org/2000/svg" xmlns:xlink="http://www.w3.org/1999/xlink" version="1.1" viewBox="-11 0 863 1000">
   <path fill="currentColor"
d="M424.116 474.537l-5.0498 0.842773c-19.0732 -0.561523 -35.6221 -6.73242 -49.6465 -18.5127c-55.7705 48.2334 -97.2021 90.8662 -124.295 127.898c-26.543 36.2812 -39.8145 63.1357 -39.8145 80.5635c0 34.5234 8.56055 62.3691 25.6826 83.5381
c19.1143 23.6318 44.0918 35.4482 74.9326 35.4482c9.65039 0 19.875 -1.15723 30.6738 -3.47168c35.5752 -7.62402 61.1006 -22.4912 76.5762 -44.6006c16.0459 -20.6279 24.0684 -58.8252 24.0684 -114.593c0 -22.3682 -1.29102 -47.5635 -3.87207 -75.585
c-2.24414 -25.2451 -5.3291 -49.0879 -9.25586 -71.5283zM483.862 439.195c-10.0977 16.2695 -24.6836 27.209 -43.7578 32.8193c13.418 75.4814 29.5352 134.042 48.3516 175.683s35.7979 66.6689 50.9443 75.084c25.8682 13.6152 49.4033 20.4229 70.6055 20.4229
c28.3096 0 52.46 -12.1367 72.4502 -36.4111c14.0244 -17.3906 23.001 -38.4277 26.9287 -63.1123c1.34082 -8.42871 2.01172 -16.4814 2.01172 -24.1582c0 -14.8047 -2.49414 -28.21 -7.48145 -40.2168c-16.9512 -40.8076 -90.3018 -87.5107 -220.053 -140.11z
M419.066 339.058c-16.2686 0 -30.293 5.88965 -42.0742 17.6699s-17.6719 24.543 -17.6719 38.2881s2.80469 25.1055 8.41504 34.0811c11.5703 18.5137 27.3662 27.7705 47.3877 27.7705s35.501 -5.46973 46.4395 -16.4092
c10.9395 -10.9395 16.4092 -24.6846 16.4092 -41.2344s-5.75 -30.7148 -17.25 -42.4951c-11.501 -11.7803 -25.3857 -17.6709 -41.6553 -17.6709zM272.646 350.837c-64.7334 -20.1758 -114.117 -30.2656 -148.153 -30.2656c-16.9922 0 -30.1592 2.51465 -39.5 7.54297
c-31.416 17.9521 -52.1729 39.2705 -62.2705 63.9551c-4.86914 11.2588 -7.30371 22.7236 -7.30371 34.3945c0 9.84668 1.73242 19.8408 5.19824 29.9814c7.57324 22.1592 20.6162 41.5137 39.1289 58.0635c18.5137 16.5498 37.8682 26.7881 58.0635 30.7148
c3.97168 0.772461 8.25 1.1582 12.834 1.1582c44.7803 0 118.762 -36.8506 221.944 -110.552c-6.73242 -11.7812 -10.0986 -22.2998 -10.0986 -31.5566s0.561523 -16.6904 1.68359 -22.3008c-24.6846 -10.0977 -42.0752 -17.5312 -52.1729 -22.2998
s-15.707 -7.29297 -16.8291 -7.57324s-1.96387 -0.701172 -2.52441 -1.2627zM484.704 360.092l-0.000976562 2.52832c6.73242 11.7803 10.0986 22.1592 10.0986 31.1357s-0.561523 15.708 -1.68359 20.1953v0.841797c69.9053 28.5977 127.493 46.2656 172.764 53.0039
c20.1309 2.99609 37.2832 4.49414 51.458 4.49414c17.7012 0 30.7578 -2.33691 39.1689 -7.00977c31.416 -17.3916 51.8926 -37.5879 61.4297 -60.5889c5.31543 -12.8203 7.97363 -25.5098 7.97363 -38.0684c0 -9.97363 -1.67578 -19.8643 -5.02832 -29.6729
c-7.57324 -22.1592 -20.6162 -41.5137 -39.1289 -58.0635c-23.752 -21.2314 -46.8574 -31.8477 -69.3164 -31.8477c-2.14551 0 -4.28516 0.0966797 -6.41895 0.290039c-35.9082 2.39453 -89.7637 26.2373 -161.567 71.5283
c-20.7568 12.9023 -40.6729 26.6465 -59.748 41.2334zM295.366 82.4004c-24.6836 -12.9033 -43.8975 -19.4951 -57.6426 -19.7754s-23.4229 -0.139648 -29.0332 0.421875c-22.4395 3.92676 -40.9521 15.0068 -55.5381 33.2393s-23.8428 39.8311 -27.7695 64.7959
c-1.37402 8.7373 -2.06152 17.0801 -2.06152 25.0273c0 14.7588 2.37012 28.1553 7.11035 40.1885c12.6641 32.1484 61.752 68.6133 147.263 109.396c0.560547 0 6.73145 2.10352 18.5127 6.31055s30.5752 10.7988 56.3818 19.7744
c9.53613 -16.2686 23 -27.4883 40.3916 -33.6592c-30.6865 -146.618 -63.2246 -228.524 -97.6143 -245.719zM609.436 47.8984c-17.8252 -21.3184 -44.1162 -31.9756 -78.8701 -31.9756c-25.6719 0 -47.0264 5.61035 -64.0635 16.8301s-30.1846 22.8604 -39.4414 34.9219
c-13.585 17.7012 -20.3779 53.0303 -20.3779 105.986c0 23.3691 1.32324 50.1709 3.96875 80.4053c2.24512 24.6846 5.33105 47.9658 9.25781 69.8438c20.7568 0 38.4277 7.29297 53.0137 21.8799c11.7812 -10.6592 32.6787 -30.8555 62.6924 -60.5879
c68.4297 -67.79 102.645 -118.634 102.645 -152.53c0 -33.5342 -9.6084 -61.792 -28.8242 -84.7734zM536.035 -0.90625c36.2773 0 64.7021 12.3438 85.2725 37.0273c22.2656 26.7188 33.3984 59.1826 33.3984 97.3916c0 37.1602 -37.5928 93.334 -112.779 168.521
c-0.561523 0.560547 -0.561523 0.84082 0 0.84082c73.9082 -47.3477 130.114 -71.0215 168.618 -71.0215c4.95508 0 9.61719 0.392578 13.9863 1.17676c24.124 4.48828 46.7041 15.708 67.7412 33.6602c21.0381 17.9521 35.7646 39.8311 44.1797 65.6367
c3.60645 11.0596 5.41016 22.1709 5.41016 33.334c0 14.8838 -3.20605 29.8594 -9.61719 44.9258c-11.2197 26.3672 -33.9404 49.3682 -68.1621 69.0029c-11.9688 7.10645 -27.4277 10.6592 -46.377 10.6592c-9.47461 0 -19.8223 -0.888672 -31.042 -2.66504
c-33.6602 -5.33008 -70.6865 -14.166 -111.078 -26.5068c33.0986 15.708 59.4658 30.8545 79.1006 45.4404c34.2217 23.001 55.54 44.5996 63.9551 64.7949v0.841797c6.35742 14.96 9.53613 30.9795 9.53613 48.0586c0 8.54004 -0.794922 17.3447 -2.38477 26.4141
c-4.76855 27.208 -15.708 51.4717 -32.8184 72.79s-39.6904 34.2217 -67.7402 38.71c-5.47266 0.875977 -11.0635 1.31348 -16.7715 1.31348c-23.5459 0 -49.0908 -7.4502 -76.6348 -22.3506c-28.3291 -15.9355 -54.9766 -65.0234 -79.9424 -147.263
c0.374023 8.97656 0.561523 18.0938 0.561523 27.3516c0 18.5117 -0.748047 37.585 -2.24414 57.2188c-2.24414 29.4521 -10.5186 53.5752 -24.8242 72.3691s-34.3613 33.0996 -60.167 42.917c-18.0645 6.87207 -36.335 10.3076 -54.8115 10.3076
c-7.91895 0 -15.875 -0.630859 -23.8691 -1.89355c-26.6475 -4.20703 -49.0879 -17.1104 -67.3203 -38.709c-19.9287 -23.6074 -29.8926 -54.8398 -29.8926 -93.6963c0 -43.1797 46.5693 -108.019 139.709 -194.518c-10.0986 7.85449 -18.2334 13.4648 -24.4043 16.8311
c-76.1279 49.5996 -133.971 74.3994 -173.528 74.3994c-5.00098 0 -9.70996 -0.396484 -14.126 -1.18945c-24.124 -4.4873 -46.5645 -15.8477 -67.3213 -34.0811c-20.7568 -18.2324 -35.4834 -40.252 -44.1797 -66.0576
c-3.79688 -11.2676 -5.69531 -22.5889 -5.69531 -33.9639c0 -14.6758 3.16016 -29.4414 9.48145 -44.2959c11.2197 -26.3672 33.6602 -49.3682 67.3203 -69.0029c11.2168 -6.66016 26.8213 -9.99023 46.8135 -9.99023c22.376 0 50.249 4.17188 83.6191 12.5146
c-51.3262 -31.1631 -81.6201 -58.6523 -90.8818 -82.4668c-6.48535 -15.2588 -9.72754 -31.6855 -9.72754 -49.2793c0 -8.28027 0.717773 -16.8184 2.1543 -25.6152c4.48828 -27.4893 15.0068 -51.7529 31.5557 -72.79s38.9883 -33.9404 67.3193 -38.709
c5.80273 -0.976562 11.7402 -1.46484 17.8135 -1.46484c23.5791 0 49.1973 7.36035 76.8555 22.0811c33.3262 18.7471 63.3398 79.6162 90.04 182.606c1.68457 6.73535 3.08691 11.7842 4.20703 15.1465c0 -2.24414 -0.139648 -3.50684 -0.419922 -3.78711
s-1.68262 -12.7627 -4.20703 -37.4473c-1.13574 -11.1074 -1.7041 -23.3223 -1.7041 -36.6445c0 -16.2842 0.848633 -34.2227 2.5459 -53.8154c3.08594 -35.623 11.2207 -62.1299 24.4043 -79.5205s30.5742 -31.1348 52.1729 -41.2334
c20.4619 -9.56641 41.5537 -14.3496 63.2764 -14.3496c1.20605 0 2.41406 0.0146484 3.62402 0.0439453z" />
</svg>
