<?xml version="1.0" encoding="UTF-8" standalone="no"?>
<!-- Created with Inkscape (http://www.inkscape.org/) -->

<svg
   width="4.0700002mm"
   height="4.0100002mm"
   version="1.1"
   viewBox="0 0 4.07 4.01"
   id="svg12"
   sodipodi:docname="Concrecao_piritosa.svg"
   inkscape:version="1.1.2 (b8e25be833, 2022-02-05)"
   xmlns:inkscape="http://www.inkscape.org/namespaces/inkscape"
   xmlns:sodipodi="http://sodipodi.sourceforge.net/DTD/sodipodi-0.dtd"
   xmlns="http://www.w3.org/2000/svg"
   xmlns:svg="http://www.w3.org/2000/svg"
   xmlns:rdf="http://www.w3.org/1999/02/22-rdf-syntax-ns#"
   xmlns:cc="http://creativecommons.org/ns#"
   xmlns:dc="http://purl.org/dc/elements/1.1/">
  <defs
     id="defs16" />
  <sodipodi:namedview
     pagecolor="#ffffff"
     bordercolor="#666666"
     borderopacity="1"
     objecttolerance="10"
     gridtolerance="10"
     guidetolerance="10"
     inkscape:pageopacity="0"
     inkscape:pageshadow="2"
     inkscape:window-width="1424"
     inkscape:window-height="1041"
     id="namedview14"
     showgrid="false"
     inkscape:zoom="40"
     inkscape:cx="7.6625"
     inkscape:cy="7.55"
     inkscape:window-x="104"
     inkscape:window-y="0"
     inkscape:window-maximized="0"
     inkscape:current-layer="svg12"
     inkscape:pagecheckerboard="0"
     inkscape:document-units="mm" />
  <metadata
     id="metadata2">
    <rdf:RDF>
      <cc:Work
         rdf:about="">
        <dc:format>image/svg+xml</dc:format>
        <dc:type
           rdf:resource="http://purl.org/dc/dcmitype/StillImage" />
      </cc:Work>
    </rdf:RDF>
  </metadata>
  <g
     transform="translate(-63.087,-108.991)"
     id="g10">
    <g
       transform="matrix(0.01,0,0,0.01,-84.908,73.146)"
       clip-rule="evenodd"
       fill-rule="evenodd"
       image-rendering="optimizeQuality"
       shape-rendering="geometricPrecision"
       text-rendering="geometricPrecision"
       id="g8">
      <path
         style="fill:none;stroke:#000000;stroke-width:25;stroke-miterlimit:4;stroke-dasharray:none"
         d="m 15194,3785 a 191,188 0 0 1 -191,188 191,188 0 0 1 -191,-188 191,188 0 0 1 191,-188 191,188 0 0 1 191,188 z"
         id="ellipse4" />
      <g
         aria-label="P"
         style="font-weight:bold;font-size:246.94px;font-family:Arial;fill:#000000"
         id="text6" />
    </g>
  </g>
  <path
     class="fil1"
     d="M 1.3766433,2.932434 V 1.1647315 h 0.6667009 c 0.1173039,0 0.2070007,0.0058 0.2687002,0.0169 0.086909,0.0144 0.1596951,0.042001 0.218601,0.082699 0.058394,0.040401 0.1058027,0.097601 0.1416071,0.1704012 0.035804,0.0733 0.0535,0.1535005 0.0535,0.2412006 0,0.1502009 -0.047801,0.2778002 -0.1433003,0.3819012 -0.095809,0.1037006 -0.2687002,0.156001 -0.5185009,0.156001 H 1.6103505 v 0.7186008 z m 0.233701,-0.9273007 h 0.4573011 c 0.151002,0 0.2584008,-0.0279 0.3217998,-0.084299 0.063391,-0.056399 0.095107,-0.1354001 0.095107,-0.2375004 0,-0.074099 -0.0185,-0.1375 -0.055999,-0.1900999 -0.037394,-0.052701 -0.086393,-0.0873 -0.1476983,-0.1042003 -0.0395,-0.0103 -0.1119971,-0.0156 -0.2182002,-0.0156 h -0.4523 z"
     id="path30"
     style="clip-rule:evenodd;fill:#000000;fill-rule:nonzero;stroke-width:20.6484;image-rendering:optimizeQuality;shape-rendering:geometricPrecision;text-rendering:geometricPrecision" />
</svg>
