<?xml version="1.0" standalone="no"?>
<!DOCTYPE svg PUBLIC "-//W3C//DTD SVG 1.1//EN" "http://www.w3.org/Graphics/SVG/1.1/DTD/svg11.dtd" >
<svg xmlns="http://www.w3.org/2000/svg" xmlns:xlink="http://www.w3.org/1999/xlink" version="1.1" viewBox="-10 0 863 1000">
   <path fill="currentColor"
d="M748.493 323.623c-21.3438 0 -39.7383 7.44238 -55.1846 22.3271c-15.4473 14.8848 -23.1709 33.1396 -23.1709 54.7646c0 21.626 7.58301 40.1621 22.749 55.6084s33.5615 23.1699 55.1865 23.1699s39.8799 -7.72363 54.7646 -23.1699
c14.8857 -15.4463 22.3281 -33.8418 22.3281 -55.1855c0 -21.3447 -7.44238 -39.6006 -22.3281 -54.7666c-14.8848 -15.165 -33 -22.748 -54.3447 -22.748zM748.073 305.929c26.1182 0 48.4453 9.4082 66.9814 28.2256s27.8037 41.1455 27.8037 66.9844
c0 25.8369 -9.26758 48.1641 -27.8037 66.9814c-18.5361 18.8164 -40.8633 28.2246 -66.9814 28.2246c-26.1191 0 -48.5869 -9.26758 -67.4033 -27.8037s-28.2246 -41.0039 -28.2246 -67.4033c0 -26.4004 9.4082 -48.8691 28.2246 -67.4053
s41.2842 -27.8037 67.4033 -27.8037zM568.612 17.7793c-21.0635 0 -39.3193 7.44238 -54.7666 22.3271c-15.4463 14.8857 -23.1689 33.1406 -23.1689 54.7656c0 21.626 7.58301 40.0215 22.748 55.1875c15.166 15.165 33.4209 22.748 54.7656 22.748
s39.459 -7.58301 54.3438 -22.748c14.8857 -15.166 22.3281 -33.5615 22.3281 -55.1875c0 -21.625 -7.44238 -39.8799 -22.3281 -54.7656c-14.8848 -14.8848 -32.8584 -22.3271 -53.9219 -22.3271zM568.19 0.0859375c16.8506 0 32.5762 4.21289 47.1807 12.6396
c14.6045 8.4248 25.9785 19.9395 34.123 34.5439c8.14551 14.6035 12.2178 32.5781 12.2178 53.9229c0 21.3438 -8.9873 41.4238 -26.9629 60.2412c-17.9736 18.8164 -40.1602 28.2246 -66.5596 28.2246s-48.7266 -9.26758 -66.9814 -27.8027
c-18.2549 -18.5361 -27.3818 -40.7236 -27.3818 -66.5615s9.26758 -48.165 27.8037 -66.9824c18.5352 -18.8174 40.7217 -28.2256 66.5605 -28.2256zM568.188 627.78c-21.3447 0 -39.5996 7.58301 -54.7656 22.748c-15.165 15.166 -22.748 33.5615 -22.748 55.1875
c0 21.625 7.58301 40.0205 22.748 55.1865c15.166 15.165 33.4209 22.748 54.7656 22.748s39.459 -7.58301 54.3438 -22.748c14.8857 -15.166 22.3281 -33.4209 22.3281 -54.7656s-7.44238 -39.7402 -22.3281 -55.1875
c-14.8848 -15.4463 -32.999 -23.1689 -54.3438 -23.1689zM501.628 639.154c18.5352 -18.2549 38.4736 -27.3809 59.8184 -27.3809s39.3193 4.21191 53.9238 12.6367c14.6045 8.42578 25.9785 19.9404 34.123 34.5439c8.14551 14.6045 12.2178 30.332 12.2178 47.1826
s-4.07227 32.5781 -12.2178 47.1816c-8.14453 14.6045 -19.5186 26.1191 -34.123 34.5439c-14.6045 8.42676 -30.332 12.6396 -47.1826 12.6396c-26.3994 0 -48.7266 -9.26758 -66.9814 -27.8037s-27.3818 -40.8633 -27.3818 -66.9824s9.26758 -48.3066 27.8037 -66.5615z
M462.027 286.131c-2.80859 -18.8174 -7.58105 -36.5098 -14.3213 -53.0801c-6.74121 -16.5693 -18.2559 -30.1904 -34.5439 -40.8623c-16.29 -10.6719 -39.7412 -16.0078 -70.3535 -16.0078s-65.0156 6.03809 -103.21 18.1133
c-38.1963 12.0762 -71.3369 26.6807 -99.4219 43.8135c-28.085 17.1309 -50.4121 33.9814 -66.9814 50.5518c-36.791 36.791 -55.1865 74.2842 -55.1865 112.48c0 29.208 10.5322 57.293 31.5957 84.2549c21.0635 26.9609 45.7773 49.2881 74.1426 66.9814
c28.3662 17.6934 55.0469 31.7354 80.042 42.127c49.3154 20.502 92.4668 30.7529 129.454 30.7529c36.9883 0 63.7676 -5.19531 80.3379 -15.5869c34.0186 -21.334 51.7119 -69.6396 53.0801 -144.918c0.280273 -15.4463 0.420898 -36.5098 0.420898 -63.1904
s-0.140625 -47.8848 -0.420898 -63.6123s-1.8252 -33 -4.63379 -51.8174zM234.543 178.285c39.3193 -12.6377 75.5479 -18.96 108.688 -18.96c61.8779 0 103.162 24.7148 123.853 74.1436c10.1133 24.2705 15.5898 58.6748 16.4297 103.213
c0.28125 14.8848 0.421875 36.3701 0.421875 64.4551s-0.140625 49.5693 -0.421875 64.4531c-1.55469 82.377 -21.3545 134.755 -59.3984 157.134c-20.2217 12.3574 -46.7617 18.8174 -79.6211 19.3799c-32.8584 0.560547 -69.2275 -5.33789 -109.107 -17.6953
c-39.8809 -12.3564 -77.7959 -29.6279 -113.744 -51.8145s-65.1562 -48.165 -87.623 -77.9346c-22.4678 -29.7705 -33.7021 -61.085 -33.7021 -93.9443c0 -32.8584 11.2344 -63.8916 33.7021 -93.0996c22.4668 -29.208 51.6748 -54.9053 87.623 -77.0918
s73.582 -39.5996 112.901 -52.2383z" />
</svg>
