<?xml version="1.0" standalone="no"?>
<!DOCTYPE svg PUBLIC "-//W3C//DTD SVG 1.1//EN" "http://www.w3.org/Graphics/SVG/1.1/DTD/svg11.dtd" >
<svg xmlns="http://www.w3.org/2000/svg" xmlns:xlink="http://www.w3.org/1999/xlink" version="1.1" viewBox="-11 0 1021 1000">
   <path fill="currentColor"
d="M0 231h178c12.667 0 21.667 0.333008 27 1c28.7314 5.22363 43.7314 19.8906 45 44c-10 42.667 -15.333 73.334 -16 92.001c2.46387 51.7393 13.2969 93.7393 32.5 126c8.33301 14 23 23 44 27s38.167 2.33301 51.5 -5c29.8877 -16.7373 48.8877 -53.9043 57 -111.501
c3.33301 -23.667 9.33301 -68.5 18 -134.5c2.66699 -21.333 9 -37.333 19 -48c17.2334 -16.085 59.9004 -21.752 128.001 -17.001c26.3857 3.29785 43.0527 13.6309 50 30.999c4 10 4.66699 24.667 2 44c-6.66699 24 -10 44.667 -10 62
c3.33301 35.333 12.666 70.333 27.999 105c14 26 27 42.833 39 50.5s25.333 11.5 40 11.5c16.667 -2.66699 30.667 -9.66699 42 -21c10.667 -12 17.667 -25.667 21 -41s7.16602 -44.333 11.499 -87s9.16602 -71.667 14.499 -87v-1c4.52539 -15.084 13.8584 -26.751 28 -35
c5.33301 -1.33301 12 -2.66602 20 -3.99902h130v79h-105c-2 10.667 -5.5 35.5 -10.5 74.5s-8.16699 61.5 -9.5 67.5c-6.66699 32.667 -19.334 60.667 -38.001 84c-30.5127 34 -65.1797 51 -104 51c-30.667 0 -58 -7.66699 -82 -23
c-1.33301 -1.33301 -3.33301 -2.66602 -6 -3.99902c-20.667 -14 -41 -40 -61 -78c-20.667 -44 -32.334 -81.333 -35.001 -112s-1.33398 -60.334 3.99902 -89.001c-8.66699 0 -16.667 0.166992 -24 0.5s-12 0.5 -14 0.5c-7.33301 55.333 -12 89.666 -14 102.999
c-5.33301 48.667 -13.333 85.667 -24 111c-18 40 -44 69.333 -78 88c-26.667 16 -61.334 20.167 -104.001 12.5s-76 -30.667 -100 -69s-37.333 -88.166 -40 -149.499c0 -26.667 2 -50 6 -70h-161z" />
</svg>
