<?xml version="1.0" standalone="no"?>
<!DOCTYPE svg PUBLIC "-//W3C//DTD SVG 1.1//EN" "http://www.w3.org/Graphics/SVG/1.1/DTD/svg11.dtd" >
<svg xmlns="http://www.w3.org/2000/svg" xmlns:xlink="http://www.w3.org/1999/xlink" version="1.1" viewBox="-11 0 1021 1000">
   <path fill="currentColor"
d="M266.193 193l-187.191 -0.00390625c-40 42 -59.833 83.167 -59.5 123.5c0.655273 79.3271 46.8223 146.494 138.5 201.501c94 55.333 208 83 342 83s248 -27.667 342 -83c44 -26 78 -56 102 -90s36 -70.667 36 -110s-20.667 -81 -62 -125h-186.478
c21.9111 12.7559 40.4033 27.0889 55.4775 43c25.333 26.667 38 53.834 38 81.501s-8.83301 53 -26.5 76s-41.167 42.833 -70.5 59.5c-63.333 34.667 -139.833 52 -229.5 52s-165.834 -17.333 -228.501 -52c-65.333 -35.5068 -98 -78.876 -98 -130.107
s31.3975 -94.5283 94.1924 -129.891zM310.581 192.996l0.416992 0.999023c-37.333 14.667 -66.666 33.334 -87.999 56.001s-32 46.334 -32 71.001c0 43.333 29.833 81.5 89.5 114.5s132.334 49.5 218.001 49.5s158.334 -16.333 218.001 -49s89.5 -71 89.5 -115
c0 -26 -10.7793 -49.9395 -32.3379 -71.8184s-50.5283 -40.6064 -86.9092 -56.1826h-376.173zM-0.00195312 320.995c0 -52.667 23 -102.001 69 -148.001h619.632l0.368164 -1c0.791016 0.332031 1.5791 0.665039 2.36426 1h236.636c48 48 72 97.333 72 148
c0 41.333 -13.167 80.333 -39.5 117s-62.5 68.667 -108.5 96c-97.333 57.333 -214.5 86 -351.5 86s-254.5 -28.667 -352.5 -86c-46.667 -27.333 -83 -59.166 -109 -95.499s-39 -75.5 -39 -117.5z" />
</svg>
