<?xml version="1.0" standalone="no"?>
<!DOCTYPE svg PUBLIC "-//W3C//DTD SVG 1.1//EN" "http://www.w3.org/Graphics/SVG/1.1/DTD/svg11.dtd" >
<svg xmlns="http://www.w3.org/2000/svg" xmlns:xlink="http://www.w3.org/1999/xlink" version="1.1" viewBox="-10 0 1021 1000">
   <path fill="currentColor"
d="M55 419l-55 -33c40 -65.333 71 -110.666 93 -135.999c64.9697 -72.4668 150.137 -98.7998 255.5 -79c49.667 9.33301 93.834 26 132.501 50c8.66699 5.33301 29.5 19.666 62.5 42.999s53.167 37.333 60.5 42c90.4639 49.958 162.131 55.958 215.001 18
c20.667 -16.667 44.667 -46 72 -88c10 -17.333 27.667 -49 53 -95l56 30c-25.333 47.333 -44 80.333 -56 99c-30.667 48.667 -59.667 83.667 -87 105c-33.333 24.667 -74.1992 37 -122.598 37s-102.532 -17 -162.402 -51c-17.333 -10.667 -39.5 -25.834 -66.5 -45.501
s-46.5 -33.167 -58.5 -40.5c-30 -19.333 -65 -32.666 -105 -39.999c-84.7627 -15.8936 -149.763 1.43945 -195 51.999c-22.667 25.333 -53.334 69.333 -92.002 132.001zM55.001 656.999l-55 -32c40 -66 71 -111.667 93 -137c65.4238 -71.7148 150.591 -97.7148 255.5 -78
c49.667 9.33301 93.834 26 132.501 50c8.66699 4.66699 29.5 18.834 62.5 42.501s53.167 37.834 60.5 42.501c88.8955 50.418 160.562 56.085 215 17c20.667 -16.667 44.667 -46 72 -88c10 -16.667 27.667 -48.334 53 -95.001l56 31c-25.333 46.667 -44 79.334 -56 98.001
c-30.667 48.667 -59.667 83.667 -87 105c-33.333 24.667 -71.666 37 -114.999 37h-19c-46.667 -3.33301 -97 -20.333 -151 -51c-17.333 -10.667 -39.5 -25.834 -66.5 -45.501s-46.5 -33.167 -58.5 -40.5c-30 -18.667 -65 -32 -105 -40
c-84.7627 -15.8936 -149.763 1.43945 -195 51.999c-22.667 25.333 -53.334 69.333 -92.002 132z" />
</svg>
