<?xml version="1.0" standalone="no"?>
<!DOCTYPE svg PUBLIC "-//W3C//DTD SVG 1.1//EN" "http://www.w3.org/Graphics/SVG/1.1/DTD/svg11.dtd" >
<svg xmlns="http://www.w3.org/2000/svg" xmlns:xlink="http://www.w3.org/1999/xlink" version="1.1" viewBox="-10 0 810 1000">
   <path fill="currentColor"
d="M115.808 23.5674l-53.3301 56.5625l106.657 70.2969c25.3174 15.082 52.251 35.0127 80.8008 59.791c57.6367 49.5576 96.1514 97.2295 115.543 143.017c16.5342 40.1514 24.8008 95.2676 24.8008 165.349c0 10.5322 -0.186523 21.4023 -0.560547 32.6104
c-1.61523 24.2393 -5.11621 98.0361 -10.5029 221.391l68.6797 9.69629l2.42285 -289.265c4.84863 -52.7891 11.8516 -94.1318 21.0088 -124.027s31.2422 -61.0039 66.2549 -93.3242c9.15723 -8.61914 21.4121 -19.3926 36.7646 -32.3193
c15.3525 -12.9287 27.877 -24.9141 37.5732 -35.9561c19.0879 -21.7393 60.5654 -55.2715 124.432 -100.597l-36.3594 -50.9043l-150.288 109.888c-50.0361 50.0967 -93.668 75.1445 -130.896 75.1445c-25.8555 0 -48.21 -7.00293 -67.0635 -21.0078
c-6.5127 -4.88379 -17.5674 -14.9932 -33.1641 -30.3271c-25.1055 -24.6826 -92.6963 -80.0215 -202.772 -166.018zM114.998 0.946289c11.3115 9.69629 45.5176 37.7109 102.616 84.0361s89.5537 72.7197 97.3643 79.1836s16.0254 14.1396 24.6436 23.0273
s15.8896 15.4863 21.8145 19.7959c16.1602 11.8506 35.1484 17.7754 56.9648 17.7754c33.1846 0 73.4502 -23.7012 120.796 -71.1045l164.832 -120.391l54.1357 77.5674l-61.4082 45.248c-39.3223 30.7041 -66.7939 55.2129 -82.416 73.5273
c-3.77051 4.30957 -9.29199 9.29199 -16.5635 14.9473c-63.0166 49.0146 -99.4424 90.0195 -109.277 123.016c-9.83398 32.9951 -17.1748 74.8096 -22.0234 125.443v0.808594l-2.42285 306.231l-101.809 -12.9277l12.1191 -237.553
c0.485352 -7.1123 0.727539 -14.9277 0.727539 -23.4463c0 -19.8701 -1.31934 -43.5664 -3.95801 -71.0889c-3.77148 -39.3232 -10.5049 -71.1045 -20.2002 -95.3447c-20.3096 -50.4648 -63.2686 -101.368 -128.877 -152.711
c-15.4834 -12.1182 -25.751 -19.8613 -30.8027 -23.2285c-5.05176 -3.36816 -9.19336 -6.26465 -12.4248 -8.68945c-3.23145 -2.42285 -6.3291 -4.57715 -9.29199 -6.46289c-2.96191 -1.88574 -4.98242 -3.36719 -6.06055 -4.44434l-2.42285 -0.807617v-0.808594
l-123.625 -79.9922c44.71 -46.8643 70.5664 -74.0664 77.5693 -81.6074z" />
</svg>
