<?xml version="1.0" standalone="no"?>
<!DOCTYPE svg PUBLIC "-//W3C//DTD SVG 1.1//EN" "http://www.w3.org/Graphics/SVG/1.1/DTD/svg11.dtd" >
<svg xmlns="http://www.w3.org/2000/svg" xmlns:xlink="http://www.w3.org/1999/xlink" version="1.1" viewBox="-10 0 1000 1000">
   <path fill="currentColor"
d="M129.36 701.88c24.8213 49.6475 37.8896 75.1279 39.2012 76.4404l415.521 -28.4199c-14.8369 -41.8145 -48.8105 -85.5879 -101.92 -131.32c-24.8271 -21.5596 -50.1436 -39.0361 -75.9502 -52.4297c-24.6064 -12.7705 -43.2734 -19.1562 -56 -19.1562
c-12.8467 0 -25.377 3.77148 -37.5908 11.3154c-15.8975 9.81836 -33.7549 25.0947 -53.5732 45.8291s-34.4639 35.6748 -43.9375 44.8213c-25.665 24.7793 -54.248 42.4189 -85.75 52.9199zM67.6221 44.2998c30.2529 34.4668 55.4053 66.1543 75.459 95.0615
c59.2803 87.0928 88.0615 154.778 86.3438 203.056c-0.282227 7.05566 -0.806641 13.6875 -1.57324 19.8945c-8.56641 51.793 -45.6426 95.0762 -111.229 129.85c-26.4131 13.8936 -53.5264 23.6934 -81.3398 29.3994c6.47949 12.2939 34.5723 66.8477 84.2783 163.661
c21.627 -6.81348 41.2275 -17.1035 58.8008 -30.8701c23.7598 -18.8994 44.9932 -38.9893 63.6992 -60.2695c35.96 -38.7197 60.7871 -59.1367 74.4805 -61.25c19.8965 -3.84863 30.4805 -5.68066 31.751 -5.49512c37.1396 -0.223633 86.0098 25.291 146.61 76.5439
c54.7334 46.0801 90.0137 91.4863 105.841 136.22c41.5068 -37.3994 85.2803 -78.8857 131.32 -124.459c115.919 -116.394 180.272 -196.101 193.061 -239.121c19.9199 -65.0127 29.8799 -118.52 29.8799 -160.52l-4.40039 -43.3203
c-38.3994 68.2139 -72.6992 115.907 -102.899 143.08c-21.1338 19.4932 -53.4736 38.7666 -97.0205 57.8203l-19.5996 7.83984l-9.7998 4.90039l-2.94043 -10.7803c-19.5596 -67.6934 -37.8525 -117.51 -54.8789 -149.45
c-16.9736 -31.3936 -43.7607 -71.7373 -80.3613 -121.031c0.961914 7.60742 2.05469 25.4961 3.2793 53.667c-0.211914 42.6211 -6.8584 76.0195 -19.9395 100.194c-12.2939 22.7197 -39.8975 55.0596 -82.8105 97.0195c-6.41992 6.04004 -10.1768 9.63281 -11.2695 10.7793
c-52.2402 -69.1465 -94.6924 -121.066 -127.356 -155.761c-38.0029 -39.9727 -67.0908 -68.4121 -87.2637 -85.3193c-34.4932 -28.4268 -95.5801 -55.2129 -183.26 -80.3594c-2.9873 -0.853516 -5.27441 -1.18066 -6.86133 -0.980469zM566.441 141.321l-6.86133 -69.5762
v-1.95996l17.6396 -6.86035c44.4268 56.8398 77.0938 104.533 98 143.08v0.980469c18.9463 36.5869 38.2197 87.2197 57.8203 151.899c41.8135 -16.9863 75.46 -36.4229 100.94 -58.3096s53.5732 -58.6367 84.2793 -110.25l38.2207 -72.5205l12.7393 -27.4395
l5.87988 30.3799c2.68457 42.9424 4.02637 75.915 4.02637 98.9189c0 57.9541 -12.5869 114.195 -37.7607 168.724c-33.3311 72.1973 -121.883 175.39 -265.656 309.577c-24.5 22.8662 -42.957 40.1797 -55.3701 51.9404l-19.5996 17.6396l-443.94 32.3398
c-15.6875 -27.4551 -62.7275 -119.575 -141.12 -276.36l-14.6992 -13.7197l18.6191 -3.91992c28.7471 -5.87988 58.1475 -16.0068 88.2012 -30.3799c60.1064 -30.7061 93.917 -69.7432 101.431 -117.11c0.803711 -5.06738 1.20605 -10.3867 1.20605 -15.959
c0 -46.5127 -28.0049 -110.61 -84.0156 -192.292c-28.4844 -42.7256 -57.2314 -79.8018 -86.2402 -111.229c-14.8965 -16.1387 -25.3496 -27.7354 -31.3594 -34.79l29.3994 6.86035c33.291 6.24023 73.4639 19.0703 120.519 38.4893s83.6484 39.9092 109.781 61.4697
c57.4932 44.4268 126.094 119.887 205.801 226.38c33.3193 -30.0537 57.6562 -57.4941 73.0098 -82.3213c13.1201 -21.2158 19.6807 -51.9736 19.6807 -92.2734c0 -6.85938 -0.19043 -13.9951 -0.570312 -21.4072z" />
</svg>
