<?xml version="1.0" standalone="no"?>
<!DOCTYPE svg PUBLIC "-//W3C//DTD SVG 1.1//EN" "http://www.w3.org/Graphics/SVG/1.1/DTD/svg11.dtd" >
<svg xmlns="http://www.w3.org/2000/svg" xmlns:xlink="http://www.w3.org/1999/xlink" version="1.1" viewBox="-17 0 518 1000">
   <path fill="currentColor"
d="M313 90c38.667 -57.333 59.001 -86.333 61.001 -87c2.66699 0.666992 19.334 12 50.001 34l50 34l-33 46c-20.667 30.667 -46.334 67.334 -77.001 110.001l-43 64l18 22c52 67.333 93.333 138 124 212c10 21.333 16.333 40 19 56c26.667 101.333 -6.33301 168 -99 200
c-44.667 14.667 -102 20.334 -172 17.001c-103.333 -4.66699 -168 -29.334 -194 -74.001c-10 -16 -15.333 -35 -16 -57c-4 -46 17.667 -111.667 65 -197c16 -28.667 35.667 -61.334 59 -98.001c30 -46.667 44.333 -72.334 43 -77.001
c-2 -5.33301 -31.667 -37.666 -89 -96.999s-86 -91.666 -86 -96.999c0.666992 -4.66699 14 -19.334 40 -44.001l42 -37l84 87c55.333 57.333 84.666 84 87.999 80c0.666992 -0.666992 4 -5.66699 10 -15c22 -32.667 40.667 -60 56 -82zM306.001 481
c-20.667 -34.667 -35.334 -58.001 -44.001 -70.001l-13 -14l-40 66c-54.667 88.667 -83.667 148.334 -87 179.001l-3 23l32 8c30 7.33301 78.333 8.33301 145 3c30 -2.66699 49 -6 57 -10c10.667 -8.66699 16.334 -17.667 17.001 -27c0 -30 -17.667 -76.667 -53 -140
c-3.33301 -6 -7 -12 -11 -18z" />
</svg>
