<?xml version="1.0" standalone="no"?>
<!DOCTYPE svg PUBLIC "-//W3C//DTD SVG 1.1//EN" "http://www.w3.org/Graphics/SVG/1.1/DTD/svg11.dtd" >
<svg xmlns="http://www.w3.org/2000/svg" xmlns:xlink="http://www.w3.org/1999/xlink" version="1.1" viewBox="-10 0 1021 1000">
   <path fill="currentColor"
d="M298 370c-1.33301 -1.33301 -2 -9.99902 -2 -25.999h-25c-35.333 0 -125.333 1.66699 -270 5l-1 -60c142.667 -3.33301 224.334 -5 245.001 -5s34.5 -0.166992 41.5 -0.5s12.167 -0.5 15.5 -0.5h9c12.667 0 21.167 1.66699 25.5 5c6.93359 5.33301 12.4336 8 16.5 8
l56 27h1c15.333 6 35.5 10.333 60.5 13s44.167 3 57.5 1h2c11.333 -0.666992 21.5 -3 30.5 -7s18.333 -7.83301 28 -11.5s16.167 -6.16699 19.5 -7.5l1 -1c8 -3.33301 15.333 -6.66602 22 -9.99902h2l1 -1c12 -4.66699 22 -7.5 30 -8.5s23.333 -1.83301 46 -2.5v1h22
c36 -0.666992 125.333 -1.33398 268 -2.00098v61c-176.667 0 -273.667 0.666992 -291 2c-2.38672 23.8662 -6.05371 42.8662 -11 57l-1 1c-13.2256 32.3291 -36.2256 60.3291 -69 84c-46.3994 30.9336 -102.399 40.9336 -168 30c-27.333 -6 -49.833 -12.833 -67.5 -20.5
c-35.5518 -15.4277 -62.7188 -42.5947 -81.501 -81.5l-1 -1v-1c-6 -16.667 -10 -32.334 -12 -47.001v-1zM295 323.501v1.5v-1.5z" />
</svg>
