<?xml version="1.0" standalone="no"?>
<!DOCTYPE svg PUBLIC "-//W3C//DTD SVG 1.1//EN" "http://www.w3.org/Graphics/SVG/1.1/DTD/svg11.dtd" >
<svg xmlns="http://www.w3.org/2000/svg" xmlns:xlink="http://www.w3.org/1999/xlink" version="1.1" viewBox="-10 0 810 1000">
   <path fill="currentColor"
d="M428.56 421.8c-7.46582 -14.3994 -16.5322 -21.5996 -27.1992 -21.5996s-20.2666 7.33301 -28.7998 22c-8.80859 15.1387 -13.2129 34.2051 -13.2129 57.2002c0 21.2275 4.1377 38.6943 12.4121 52.3994c8.5332 14.1338 18 21.334 28.4004 21.6006
c0.188477 0.00488281 0.376953 0.00683594 0.56543 0.00683594c10.168 0 19.1797 -7.06934 27.0342 -21.207c9.60059 -15.4668 14.4004 -33.8672 14.4004 -55.2002s-4.5332 -39.7334 -13.6006 -55.2002zM400.56 265c-8 0 -15.335 5.7334 -22.002 17.2002
c-6.41016 11.0254 -9.61523 24.6387 -9.61523 40.8408c0 17.8955 3.47168 32.8154 10.416 44.7588c6.66699 11.4668 13.334 17.2002 20.001 17.2002s12.4004 -2.93359 17.2002 -8.7998l4.80078 -9.60059c6.67578 -12.2393 10.0137 -27.2236 10.0137 -44.9541
c0 -16.2832 -3.60449 -29.832 -10.8145 -40.6455c-5.33301 -10.667 -12 -16 -20 -16zM400.558 157c-5.86621 0 -11.332 4.26562 -16.3984 12.7988c-4.81348 8.10645 -7.2207 18.499 -7.2207 31.1777c0 14.4189 2.54004 26.4268 7.62012 36.0225
c4.7998 8 10.1328 12 15.999 12c5.86719 0 11.334 -4.40039 16.4004 -13.2002c4.81348 -8.36035 7.21973 -18.7666 7.21973 -31.2188c0 -14.0928 -2.54004 -26.2197 -7.62012 -36.3799c-4.7998 -7.4668 -10.1328 -11.2002 -16 -11.2002zM446.959 531.399
c-11.3799 25.5996 -26.9033 38.3994 -46.5762 38.3994s-35.0801 -12.5332 -46.2217 -37.5996l-55.2002 268l-16 -3.2002l49.5996 -316.8l11.2002 -7.2002c0.533203 -21.333 4.7998 -39.7334 12.7998 -55.2002l-170.399 212.8l-12.7998 -8.7998l186.399 -256.8
c-1.59961 -4.2666 -2.93262 -9.33301 -4 -15.1992l-223.2 -236.8l12 -12l204 197.6l-136.8 -291.199l14.4004 -7.2002l142.399 268.8c3.7334 -5.86621 7.7334 -10.1328 12 -12.7998c-3.7334 -3.7334 -6.93359 -7.2002 -9.60059 -10.4004
c-6.93359 -11.7334 -10.4004 -26 -10.4004 -42.7998s3.7334 -31.4668 11.2002 -44s17.0664 -18.7998 28.7998 -18.7998s21.2002 6.2666 28.4004 18.7998c7.47168 13.0068 11.208 29.5264 11.208 49.5586c0 19.2246 -6.53613 35.3721 -19.6084 48.4414
c4.2666 3.2002 8 7.2002 11.2002 12l141.601 -268.8l14.3994 7.2002l-136 291.199l203.2 -197.6l12 12l-221.6 235.2c-1.06738 6.39941 -2.66797 11.7324 -4.80176 15.999l185.601 257.6l-12.7998 8.7998l-166.4 -208c6.93359 14.9336 10.4004 31.7334 10.4004 50.4004
l11.1992 7.2002l48 316.8l-16 3.2002z" />
</svg>
