<?xml version="1.0" standalone="no"?>
<!DOCTYPE svg PUBLIC "-//W3C//DTD SVG 1.1//EN" "http://www.w3.org/Graphics/SVG/1.1/DTD/svg11.dtd" >
<svg xmlns="http://www.w3.org/2000/svg" xmlns:xlink="http://www.w3.org/1999/xlink" version="1.1" viewBox="-11 0 1021 1000">
   <path fill="currentColor"
d="M500 348l23.9971 -22h1c44.667 -39.333 74.334 -63.5 89.001 -72.5c58.2002 -35.7139 129.533 -59.5469 213.999 -71.499c40 -6 96 -10.333 168 -13l2 83c-69.333 2.66699 -128.5 7.66699 -177.5 15s-89 18.666 -120 33.999s-68.5 42.333 -112.5 81
c-3.33301 2.66699 -6 4.66699 -8 6v1c-4 2.66699 -9 7 -15 13c2 1.33301 5.33301 3.33301 10 6c8 6.66699 14 11.334 18 14.001c52.667 38.667 95.667 67 129 85c44.667 22 86 36 124 42c15.333 2.66699 42 3.83398 80 3.50098s62.667 0.166992 74 1.5l-9 83
c-9.33301 -0.666992 -32.5 -1 -69.5 -1c-42.333 0 -72.166 -1.33301 -89.499 -4c-46.667 -8 -96 -25 -148 -51l-1 -1c-37.333 -20 -84 -50 -140 -90l-43 -35c-22 17.333 -36 28.666 -42 33.999v1h-1c-56.667 41.333 -103.334 71.333 -140.001 90l-1 1
c-52.667 26 -102 43 -148 51c-21.333 2.66699 -51 4 -89 4s-61 0.333008 -69 1l-10 -83c12.667 -1.33301 38 -2 76 -2c46 0 72 -1 78 -3c38.667 -6 77.667 -19 117 -39s84.666 -49.333 135.999 -88c4 -2.66699 9.16699 -6.5 15.5 -11.5s10.5 -7.83301 12.5 -8.5
c-6 -6 -11 -10.333 -15 -13c-47.9482 -42.3076 -87.9355 -71.3848 -119.962 -87.2305c-55.8447 -27.6318 -155.19 -44.2217 -298.037 -49.7695l2 -83c73.333 2.66699 129.333 7 168 13c70.667 10.667 129.334 27.334 176.001 50.001
c30.667 15.333 69.334 43.666 116.001 84.999c4.66699 4 8.33398 7 11.001 9h1c0.666992 1.33301 8.66699 8.66602 24 21.999z" />
</svg>
