<?xml version="1.0" standalone="no"?>
<!DOCTYPE svg PUBLIC "-//W3C//DTD SVG 1.1//EN" "http://www.w3.org/Graphics/SVG/1.1/DTD/svg11.dtd" >
<svg xmlns="http://www.w3.org/2000/svg" xmlns:xlink="http://www.w3.org/1999/xlink" version="1.1" viewBox="-10 0 1010 1000">
   <path fill="currentColor"
d="M480 39c-1.33301 6.66699 -6.33496 34.998 -15.002 84.998c-29.333 178.667 -58.666 294.334 -87.999 347.001c-20.667 36.667 -82.667 102.667 -186 198c-33.333 30.667 -55 50.334 -65 59.001c-16 14 -32.333 29.333 -49 46c13.333 5.33301 24.666 8 33.999 8
c40.667 0 73 -14.667 97 -44c38.667 -47.333 76.334 -84.333 113.001 -111c30.667 -22.667 69.667 -38.334 117 -47.001c7.33301 -1.33301 25.666 -2.66602 54.999 -3.99902l44 -2h2c11.333 0 35.333 3.33301 72 10s67.334 16 92.001 28c26.667 12 65.667 36 117 72
s80 56.167 86 60.5s13 9.16602 21 14.499c-44 -80 -89.667 -137.333 -137 -172c-22.667 -16.667 -70 -37 -142 -61c-66 -22 -107.333 -42 -124 -60c-14.667 -16 -22 -41.667 -22 -77c0 -25.333 1.66699 -50 5 -74c4.66699 -33.333 7.33398 -58 8.00098 -74
c0.666992 -15.333 1.16699 -26.166 1.5 -32.499s-0.166992 -10.833 -1.5 -13.5c-7.33301 -67.333 -19 -119.333 -35 -156zM470.998 14.998l6 -3c7.33301 0 13.166 4.66699 17.499 14s10.666 28.833 18.999 58.5s14.833 66.167 19.5 109.5
c1.33301 4 1.83301 9.16699 1.5 15.5s-0.5 12.5 -0.5 18.5l-10 113c-2 18.667 -3 33.334 -3 44.001s0.666992 22.334 2 35.001s6 23.667 14 33c14.667 15.333 53.334 34 116.001 56c2 0.666992 5.33301 1.66699 10 3c66 22 111.667 42 137 60h1c36 25.333 72.667 67 110 125
c28 42 42 68.667 42 80c0 0.666992 -0.5 1.66699 -1.5 3s-0.833008 2 0.5 2c-2 4 -5 6 -9 6h-2c-9.33301 0 -45 -24 -107 -72c-66.667 -46 -112.667 -75 -138 -87s-55 -21 -89 -27s-58 -9 -72 -9h-26c-62 1.33301 -112.667 12.333 -152 33
c-25.333 13.333 -46.666 28.666 -63.999 45.999c-22.667 22.667 -45 46.667 -67 72c-25.333 30 -56 48 -92 54c-4 0.666992 -12.333 1.33398 -25 2.00098c-10 0 -19.5 -2 -28.5 -6s-14.167 -6 -15.5 -6c-8 -2.66699 -12 -5.33398 -12 -8.00098c0 -0.666992 1 -3 3 -7
s3.16699 -6 3.5 -6s0.833008 -0.333008 1.5 -1c4 -8.66699 43.667 -45.334 119 -110.001c93.333 -80 154.333 -146 183 -198c33.333 -59.333 64 -186.666 92 -381.999c4 -28.667 8.66699 -48.334 14 -59.001l1 -1c0 -0.666992 0.333008 -1 1 -1z" />
</svg>
