<?xml version="1.0" standalone="no"?>
<!DOCTYPE svg PUBLIC "-//W3C//DTD SVG 1.1//EN" "http://www.w3.org/Graphics/SVG/1.1/DTD/svg11.dtd" >
<svg xmlns="http://www.w3.org/2000/svg" xmlns:xlink="http://www.w3.org/1999/xlink" version="1.1" viewBox="-10 0 821 1000">
   <path fill="currentColor"
d="M374.2 475.2l14.3994 4.7998c-26.4727 78.1582 -58.2061 133.092 -95.1992 164.801c-20.2666 18.3369 -40.9697 27.5049 -62.1094 27.5049c-2.22559 0 -4.45605 -0.101562 -6.69141 -0.304688l1.60059 -16c1.58496 0.135742 3.1709 0.204102 4.75879 0.204102
c32.7324 0 66.0791 -28.8682 100.041 -86.6045c15.4287 -26.7432 28.2285 -53.6768 38.4004 -80.8008zM433.4 472c10.667 32.5332 24.3975 63.334 41.1973 92.4014c34.4082 59.5312 68.8652 89.2969 103.371 89.2969c1.14355 0 2.28711 -0.0322266 3.43066 -0.0976562
l1.59961 16c-2.4707 0.224609 -4.92188 0.336914 -7.35352 0.336914c-20.6699 0 -42.1875 -10.1387 -64.5527 -30.417c-24.0801 -21.833 -47.1777 -56.873 -69.2939 -105.12c-2.93262 -6.40039 -5.73242 -12.4004 -8.39941 -18
c-5.03711 -10.5791 -10.1035 -23.5127 -15.1992 -38.8008zM365.397 455.201l4.7998 14.3994c-32.5332 10.667 -63.333 24.4004 -92.4004 41.2002c-61.4492 35.5166 -91.1826 71.1162 -89.2002 106.8l-15.1992 1.60059
c-0.224609 -2.4707 -0.336914 -4.92188 -0.336914 -7.35352c0 -20.6699 8.58984 -40.4785 25.7686 -59.4258c35.123 -38.7393 85.8457 -69.8125 152.168 -93.2207zM442.197 452.801c78.1572 26.4727 133.091 58.207 164.8 95.2012
c18.3369 20.2666 27.5049 40.9697 27.5049 62.1094c0 2.22559 -0.101562 4.45605 -0.304688 6.69141l-16 -1.59961c0.152344 -1.77441 0.228516 -3.54688 0.228516 -5.31641c0 -42.334 -43.543 -83.0957 -130.629 -122.285
c-16.5332 -7.2002 -29.0664 -12.4004 -37.5996 -15.6006l-12.7998 -4.7998zM340.597 425.602c-67.9834 33.417 -126.744 50.125 -176.277 50.125c-34.4766 0 -59.9844 -10.042 -76.5234 -30.125l13.6006 -10.3994c13.8438 16.9902 37.7295 25.4854 71.6572 25.4854
s83.1084 -14.0947 147.543 -42.2852l12.8008 -6.40039zM470.195 410.402c30.3994 14.9326 60.9893 26.6543 91.7676 35.1621s58.625 12.7617 83.5391 12.7617s43.8125 -7.97461 56.6943 -23.9238l12.7998 9.59961c-16.2725 19.7598 -41.3604 29.6396 -75.2637 29.6396
s-75.749 -8.94629 -125.537 -26.8389c-17.0674 -6.13379 -29.6006 -11.334 -37.6006 -15.6006l-13.5996 -6.40039zM333.396 405.603c-64.082 -31.4775 -119.837 -47.2168 -167.259 -47.2168c-30.3535 0 -51.9346 8.53906 -64.7432 25.6172l-13.6006 -10.4004
c16.6934 -20.8662 42.3574 -31.2998 76.9922 -31.2998c21.5352 0 48.5635 4.45508 81.085 13.3643s59.8301 18.8877 81.9248 29.9355l12.7998 5.60059zM462.993 390.403c67.165 -33.0137 125.554 -49.5186 175.166 -49.5186c35.1592 0 61.0371 10.373 77.6338 31.1191
l-13.5996 10.4004c-13.5029 -16.5723 -35.3555 -24.8584 -65.5566 -24.8584s-69.0156 8.55273 -116.443 25.6582c-16.2666 5.86621 -28.667 10.9326 -37.2002 15.1992l-12.7998 6.39941zM404.593 373.604c31.79 -64.7139 47.6865 -120.616 47.6865 -167.706
c0 -29.5615 -8.16211 -50.9932 -24.4854 -64.2939l11.2002 -12.7998c19.6016 16.1426 29.4023 41.0684 29.4023 74.7773s-9.13379 75.583 -27.4023 125.623c-6.13379 16.7998 -11.334 29.4668 -15.6006 38l-6.40039 13.5996zM383.794 380.805
c-32.2412 -65.5938 -48.3613 -123.812 -48.3613 -174.651c0 -35.1172 9.9873 -60.9004 29.9619 -77.3506l10.3994 12.7998c-16.3564 13.3281 -24.5352 35.5283 -24.5352 66.6006s9.91211 72.7393 29.7354 125.001c2.93359 7.7334 5.86719 14.667 8.7998 20.8008
l9.2002 19.5996zM400.595 16.0029c-52.2666 0 -102 10.2666 -149.2 30.7998s-88 47.8662 -122.399 82s-61.5996 74.9336 -81.5996 122.4s-30 94.5332 -30 141.2s6.2666 89.6006 18.7998 128.801c23.9648 74.9551 69.1748 137.494 135.63 187.616
s142.712 75.1836 228.77 75.1836c52.2666 0 102 -10.1338 149.2 -30.4004s88 -47.4668 122.4 -81.6006c34.3994 -34.1338 61.5996 -74.9336 81.5996 -122.4c20 -47.4658 30 -97.1992 30 -149.199s-10 -101.733 -30 -149.2s-47.2002 -88.4004 -81.5996 -122.8
c-34.4004 -34.4004 -75.2002 -61.7334 -122.4 -82s-96.9336 -30.4004 -149.2 -30.4004zM400.595 0.00292969c54.4004 0 106.268 10.5322 155.601 31.5986c49.333 21.0674 91.8662 49.4678 127.6 85.2012s64.1338 78.4004 85.2002 128
c21.0664 49.6006 31.5996 98.8008 31.5996 147.601s-6.66699 93.5996 -20 134.399c-25.4297 77.8145 -73.0117 142.802 -142.746 194.961s-148.819 78.2393 -237.254 78.2393c-54.3994 0 -106.266 -10.5332 -155.599 -31.5996
c-49.333 -21.0674 -91.8662 -49.4678 -127.6 -85.2012s-64.1338 -78.2666 -85.2002 -127.6c-21.0674 -49.333 -31.6006 -101.066 -31.6006 -155.199c0 -54.1338 10.5332 -105.867 31.6006 -155.2c21.0664 -49.333 49.4668 -92 85.2002 -128s78.2666 -64.5332 127.6 -85.6006
c49.333 -21.0664 101.199 -31.5996 155.599 -31.5996z" />
</svg>
