<?xml version="1.0" encoding="UTF-8" standalone="no"?>
<!-- Created with Inkscape (http://www.inkscape.org/) -->

<svg
   width="7.1830678mm"
   height="2.8808866mm"
   version="1.1"
   viewBox="0 0 7.1830676 2.8808866"
   id="svg850"
   sodipodi:docname="Estrutura_escorregamento.svg"
   inkscape:version="1.1.2 (b8e25be833, 2022-02-05)"
   xmlns:inkscape="http://www.inkscape.org/namespaces/inkscape"
   xmlns:sodipodi="http://sodipodi.sourceforge.net/DTD/sodipodi-0.dtd"
   xmlns="http://www.w3.org/2000/svg"
   xmlns:svg="http://www.w3.org/2000/svg"
   xmlns:rdf="http://www.w3.org/1999/02/22-rdf-syntax-ns#"
   xmlns:cc="http://creativecommons.org/ns#"
   xmlns:dc="http://purl.org/dc/elements/1.1/">
  <defs
     id="defs854" />
  <sodipodi:namedview
     id="namedview852"
     pagecolor="#ffffff"
     bordercolor="#666666"
     borderopacity="1.0"
     inkscape:pageshadow="2"
     inkscape:pageopacity="0.0"
     inkscape:pagecheckerboard="0"
     inkscape:document-units="mm"
     showgrid="false"
     inkscape:zoom="41.516546"
     inkscape:cx="13.307947"
     inkscape:cy="5.4676996"
     inkscape:window-width="1920"
     inkscape:window-height="1057"
     inkscape:window-x="-8"
     inkscape:window-y="-8"
     inkscape:window-maximized="1"
     inkscape:current-layer="svg850" />
  <metadata
     id="metadata840">
    <rdf:RDF>
      <cc:Work
         rdf:about="">
        <dc:format>image/svg+xml</dc:format>
        <dc:type
           rdf:resource="http://purl.org/dc/dcmitype/StillImage" />
      </cc:Work>
    </rdf:RDF>
  </metadata>
  <g
     transform="translate(-63.579534,-108.08207)"
     id="g848">
    <g
       transform="matrix(0.01,0,0,0.01,-21.695,-10.584)"
       clip-rule="evenodd"
       fill="none"
       fill-rule="evenodd"
       image-rendering="optimizeQuality"
       shape-rendering="geometricPrecision"
       stroke="#000000"
       stroke-width="50"
       id="g846">
      <path
         class="fil2 str1"
         d="m 8531,12026 c 34,-5 67,-11 99,-19 32,-9 62,-21 85,-33 23,-12 40,-23 62,-35 22,-12 50,-24 80,-33 30,-9 61,-14 85,-18 24,-4 41,-6 46,0 5,7 -1,22 -12,39 -11,17 -27,34 -35,46 -8,12 -9,18 0,24 10,6 30,11 71,13 41,2 103,0 145,0 42,0 65,0 88,1"
         id="path842"
         style="stroke-width:35;stroke-miterlimit:4;stroke-dasharray:none" />
      <path
         class="fil2 str1"
         d="m 8528,12111 c 32,-1 64,-2 90,-6 25,-5 43,-13 63,-24 19,-11 40,-25 68,-36 27,-11 62,-19 86,-24 24,-5 37,-7 38,0 0,7 -12,25 -26,40 -13,15 -28,29 -33,40 -5,11 -2,19 15,25 17,6 47,10 88,11 41,1 93,-2 146,-6 52,-4 105,-8 158,-13"
         id="path844"
         style="stroke-width:35;stroke-miterlimit:4;stroke-dasharray:none" />
    </g>
  </g>
</svg>
