<?xml version="1.0" standalone="no"?>
<!DOCTYPE svg PUBLIC "-//W3C//DTD SVG 1.1//EN" "http://www.w3.org/Graphics/SVG/1.1/DTD/svg11.dtd" >
<svg xmlns="http://www.w3.org/2000/svg" xmlns:xlink="http://www.w3.org/1999/xlink" version="1.1" viewBox="-10 0 1021 1000">
   <path fill="currentColor"
d="M893 408c0 -16 6.33301 -26.333 19 -31c2.66699 -0.666992 5.33398 -1 8.00098 -1c13.333 0 21.666 7 24.999 21c1.33301 4 2 7.66699 2 11c0 15.333 -6.33301 25.333 -19 30c-2.66699 1.33301 -5.33398 2 -8.00098 2c-13.333 0 -21.666 -7 -24.999 -21
c-1.33301 -4 -2 -7.66699 -2 -11zM744 408c0 -16 6.66699 -26.333 20.001 -31c3.33301 -0.666992 5.66602 -1 6.99902 -1c13.333 0 22.333 7 27 21c0.666992 4 1 7.66699 1 11c0 15.333 -6.66699 25.333 -20 30c-2.66699 1.33301 -5.33398 2 -8.00098 2
c-13.333 0 -21.666 -7 -24.999 -21c-1.33301 -4 -2 -7.66699 -2 -11zM600.001 408c0 -16 6.33301 -26.333 19 -31c2.66699 -0.666992 5.33398 -1 8.00098 -1c13.333 0 21.666 7 24.999 21c1.33301 4 2 7.66699 2 11c0 15.333 -6.33301 25.333 -19 30
c-2.66699 1.33301 -5.33398 2 -8.00098 2c-13.333 0 -21.666 -7 -24.999 -21c-1.33301 -4 -2 -7.66699 -2 -11zM490.001 408c0 -16 6.66699 -26.333 20.002 -31c3.33301 -0.666992 6 -1 8 -1c13.333 0 22 7 26 21c0.666992 4 1 7.66699 1 11
c0 15.333 -6.66699 25.333 -20 30c-2.66699 1.33301 -5 2 -7 2c-12.667 0 -21.334 -7 -26.001 -21c-0.666992 -4 -1.33398 -7.66699 -2.00098 -11zM366.003 408c0 -16 6.66699 -26.333 20 -31c2.66699 -0.666992 5.33398 -1 8.00098 -1c13.333 0 21.666 7 24.999 21
c1.33301 4 2 7.66699 2 11c0 15.333 -6.66699 25.333 -20 30c-2.66699 1.33301 -5 2 -7 2c-13.333 0 -22 -7 -26 -21c-1.33301 -4 -2 -7.66699 -2 -11zM247.003 408c0 -16 6.66602 -26.333 19.999 -31c2.66699 -0.666992 5 -1 7 -1c13.333 0 22 7 26 21
c1.33301 4 2 7.66699 2 11c0 15.333 -6.66699 25.333 -20 30c-3.33301 1.33301 -6 2 -8 2c-13.333 0 -21.666 -7 -24.999 -21c-1.33301 -4 -2 -7.66699 -2 -11zM128.002 408c0 -16 6.33301 -26.333 18.999 -31c2.66699 -0.666992 5.33398 -1 8.00098 -1c13.333 0 22 7 26 21
c1.33301 4 2 7.66699 2 11c0 15.333 -6.66699 25.333 -20 30c-3.33301 1.33301 -6 2 -8 2c-13.333 0 -22 -7 -26 -21c-0.666992 -4 -1 -7.66699 -1 -11zM911.001 600c0 -22.667 9 -38.334 27 -47.001c6 -2.66699 12 -4.33398 18 -5.00098c18.667 0 32 10.333 40 31
c2.66699 7.33301 4 14.333 4 21c0 22.667 -9 38.334 -27 47.001c-6 2.66699 -11.667 4 -17 4c-19.333 0 -33 -9.66699 -41 -29c-2.66699 -7.33301 -4 -14.666 -4 -21.999zM762.001 600c0 -22.667 9 -38.334 27 -47.001c6 -2.66699 11.667 -4.33398 17 -5.00098
c18.667 0 32 10.333 40 31c2.66699 7.33301 4 14.333 4 21c0 22.667 -9 38.334 -27 47.001c-6 2.66699 -11.667 4 -17 4c-18.667 0 -32 -9.66699 -40 -29c-2.66699 -7.33301 -4 -14.666 -4 -21.999zM584.001 600c0 -22.667 9 -38.334 27.001 -47.001
c6 -2.66699 12 -4.33398 18 -5.00098c18.667 0 32 10.333 40 31c2.66699 7.33301 4 14.333 4 21c0 22.667 -9 38.334 -27 47.001c-6 2.66699 -11.667 4 -17 4c-18.667 0 -32.334 -9.66699 -41.001 -29c-2 -7.33301 -3.33301 -14.666 -4 -21.999zM384.002 600
c0 -22.667 8.66699 -38.334 26 -47.001c6 -2.66699 12 -4.33398 18 -5.00098c18.667 0 32 10.333 40 31c2.66699 7.33301 4 14.333 4 21c0 22.667 -9.33301 38.334 -28 47.001c-6 2.66699 -11.333 4 -16 4c-18.667 0 -32 -9.66699 -40 -29
c-2.66699 -7.33301 -4 -14.666 -4 -21.999zM192.002 600c0 -22.667 9.33301 -38.334 28 -47.001c6 -2.66699 11.333 -4.33398 16 -5.00098c19.333 0 33 10.333 41 31c2.66699 7.33301 4 14.333 4 21c0 22.667 -9 38.334 -27 47.001c-6 2.66699 -12 4 -18 4
c-18.667 0 -32 -9.66699 -40 -29c-2.66699 -7.33301 -4 -14.666 -4 -21.999zM0.00195312 600c0 -22.667 9 -38.334 27 -47.001c6 -2.66699 11.667 -4.33398 17 -5.00098c19.333 0 33 10.333 41 31c2.66699 7.33301 4 14.333 4 21c0 22.667 -9 38.334 -27 47.001
c-6 2.66699 -12 4 -18 4c-18.667 0 -32 -9.66699 -40 -29c-2.66699 -7.33301 -4 -14.666 -4 -21.999zM911.002 191c0 -22.667 9 -38.334 27 -47c6 -2.66699 12 -4 18 -4c18.667 0 32 9.66699 40 29c2.66699 7.33301 4 14.666 4 21.999c0 22.667 -9 38.334 -27 47.001
c-6 2.66699 -11.667 4 -17 4c-19.333 0 -33 -10 -41 -30c-2.66699 -6.66699 -4 -13.667 -4 -21zM762.002 191.001c0 -22.667 9 -38.334 27 -47c6 -2.66699 11.667 -4 17 -4c18.667 0 32 9.66699 40 29c2.66699 7.33301 4 14.666 4 21.999c0 22.667 -9 38.334 -27 47.001
c-6 2.66699 -11.667 4 -17 4c-18.667 0 -32 -10 -40 -30c-2.66699 -6.66699 -4 -13.667 -4 -21zM584.002 191.002c0 -22.667 9 -38.334 27.001 -47c6 -2.66699 12 -4 18 -4c18.667 0 32 9.66699 40 29c2.66699 7.33301 4 14.666 4 21.999c0 22.667 -9 38.334 -27 47.001
c-6 2.66699 -11.667 4 -17 4c-18.667 0 -32.334 -10 -41.001 -30c-2 -6.66699 -3.33301 -13.667 -4 -21zM384.003 191.003c0 -22.667 8.66699 -38.334 26 -47c6 -2.66699 12 -4 18 -4c18.667 0 32 9.66699 40 29c2.66699 7.33301 4 14.666 4 21.999
c0 22.667 -9.33301 38.334 -28 47.001c-6 2.66699 -11.333 4 -16 4c-18.667 0 -32 -10 -40 -30c-2.66699 -6.66699 -4 -13.667 -4 -21zM192.003 191.004c0 -22.667 9.33301 -38.334 28 -47c6 -2.66699 11.333 -4 16 -4c19.333 0 33 9.66699 41 29
c2.66699 7.33301 4 14.666 4 21.999c0 22.667 -9 38.334 -27 47.001c-6 2.66699 -12 4 -18 4c-18.667 0 -32 -10 -40 -30c-2.66699 -6.66699 -4 -13.667 -4 -21zM0.00292969 191.005c0 -22.667 9 -38.334 27 -47c6 -2.66699 11.667 -4 17 -4c19.333 0 33 9.66699 41 29
c2.66699 7.33301 4 14.666 4 21.999c0 22.667 -9 38.334 -27 47.001c-6 2.66699 -12 4 -18 4c-18.667 0 -32 -10 -40 -30c-2.66699 -6.66699 -4 -13.667 -4 -21z" />
</svg>
