<?xml version="1.0" standalone="no"?>
<!DOCTYPE svg PUBLIC "-//W3C//DTD SVG 1.1//EN" "http://www.w3.org/Graphics/SVG/1.1/DTD/svg11.dtd" >
<svg xmlns="http://www.w3.org/2000/svg" xmlns:xlink="http://www.w3.org/1999/xlink" version="1.1" viewBox="-10 0 1126 1000">
   <path fill="currentColor"
d="M818 799c-39.333 0 -76.499 -7.33398 -111.499 -22.001s-65.5 -35 -91.5 -61s-46.667 -56.5 -62 -91.5s-23.333 -72.167 -24 -111.5h-2c-1.33301 -31.333 -8.33301 -60.833 -21 -88.5s-29.667 -51.834 -51 -72.501s-46.166 -36.834 -74.499 -48.501
s-58.5 -17.5 -90.5 -17.5s-62 6 -90 18s-52.5 28.333 -73.5 49s-37.833 44.834 -50.5 72.501s-19.334 57.167 -20.001 88.5h-53c0.666992 -38.667 8.66699 -75.167 24 -109.5s36 -64.166 62 -89.499s56.167 -45.333 90.5 -60s71.166 -22 110.499 -22
c38.667 0 75.334 7.16699 110.001 21.5s65.167 34.166 91.5 59.499s47.166 55.166 62.499 89.499s23.666 70.833 24.999 109.5h2c0 32 6.33301 62.333 19 91s29.834 53.667 51.501 75s46.834 38 75.501 50s59 18 91 18s62.333 -6.16699 91 -18.5s53.667 -29.166 75 -50.499
s38.166 -46.166 50.499 -74.499s18.833 -58.5 19.5 -90.5h52c0 39.333 -7.66699 76.333 -23 111s-36 64.834 -62 90.501s-56.333 46.167 -91 61.5s-72 23 -112 23z" />
</svg>
