<?xml version="1.0" standalone="no"?>
<!DOCTYPE svg PUBLIC "-//W3C//DTD SVG 1.1//EN" "http://www.w3.org/Graphics/SVG/1.1/DTD/svg11.dtd" >
<svg xmlns="http://www.w3.org/2000/svg" xmlns:xlink="http://www.w3.org/1999/xlink" version="1.1" viewBox="-10 0 1020 1000">
   <path fill="currentColor"
d="M8 219l-5.00293 -0.000976562l-2 -18c-0.666992 -6 -0.666992 -9 0 -9l17 17c12.667 13.333 22.667 23.333 30 30c50.29 46.3193 118.957 82.9863 206 110c105.333 31.6006 220.666 44.2676 345.999 38.001c82.667 -4.13379 157 -21.8008 223 -53.001
c61.501 -27.6123 105.168 -62.9453 131.001 -105.999c3.33301 -6 7.33301 -15 12 -27s7.83398 -18.167 9.50098 -18.5s4.33398 2.16699 8.00098 7.5s7.5 18.833 11.5 40.5c8.77539 47.5342 4.77539 89.3672 -12 125.499c-11.333 25.333 -26.333 50 -45 74
c-38.9297 53.2041 -94.2627 94.8711 -166 125.001c-36.667 16 -73.667 27.333 -111 34s-85.666 9 -144.999 7c-131.22 -4.42285 -244.553 -34.4229 -340 -90c-93.7041 -59.7529 -146.704 -122.42 -159 -188c-2 -11.333 -5 -44.333 -9 -99z" />
</svg>
