<?xml version="1.0" encoding="UTF-8" standalone="no"?>
<!-- Created with Inkscape (http://www.inkscape.org/) -->

<svg
   width="6.3009062mm"
   height="1.9032642mm"
   version="1.1"
   viewBox="0 0 6.300906 1.9032642"
   id="svg16"
   sodipodi:docname="Olho de passaro_birdseye_2.svg"
   inkscape:version="1.1.2 (b8e25be833, 2022-02-05)"
   xmlns:inkscape="http://www.inkscape.org/namespaces/inkscape"
   xmlns:sodipodi="http://sodipodi.sourceforge.net/DTD/sodipodi-0.dtd"
   xmlns="http://www.w3.org/2000/svg"
   xmlns:svg="http://www.w3.org/2000/svg"
   xmlns:rdf="http://www.w3.org/1999/02/22-rdf-syntax-ns#"
   xmlns:cc="http://creativecommons.org/ns#"
   xmlns:dc="http://purl.org/dc/elements/1.1/">
  <defs
     id="defs20" />
  <sodipodi:namedview
     pagecolor="#ffffff"
     bordercolor="#666666"
     borderopacity="1"
     objecttolerance="10"
     gridtolerance="10"
     guidetolerance="10"
     inkscape:pageopacity="0"
     inkscape:pageshadow="2"
     inkscape:window-width="958"
     inkscape:window-height="1048"
     id="namedview18"
     showgrid="false"
     inkscape:zoom="26.4"
     inkscape:cx="11.950758"
     inkscape:cy="3.4280303"
     inkscape:window-x="953"
     inkscape:window-y="0"
     inkscape:window-maximized="0"
     inkscape:current-layer="svg16"
     inkscape:pagecheckerboard="0"
     inkscape:document-units="mm" />
  <metadata
     id="metadata2">
    <rdf:RDF>
      <cc:Work
         rdf:about="">
        <dc:format>image/svg+xml</dc:format>
        <dc:type
           rdf:resource="http://purl.org/dc/dcmitype/StillImage" />
      </cc:Work>
    </rdf:RDF>
  </metadata>
  <g
     transform="translate(-57.871106,-109.92399)"
     id="g14">
    <g
       transform="matrix(0.01,0,0,0.01,-88.628,30.557)"
       clip-rule="evenodd"
       fill="none"
       fill-rule="evenodd"
       image-rendering="optimizeQuality"
       shape-rendering="geometricPrecision"
       stroke="#000000"
       stroke-width="50"
       id="g12">
      <path
         d="m 14999,8026 a 23,12 0 0 1 -23,12 23,12 0 0 1 -23,-12 23,12 0 0 1 23,-12 23,12 0 0 1 23,12 z"
         id="ellipse10"
         style="stroke-width:25;stroke-miterlimit:4;stroke-dasharray:none" />
    </g>
  </g>
  <g
     id="_262083512"
     style="clip-rule:evenodd;fill-rule:evenodd;image-rendering:optimizeQuality;shape-rendering:geometricPrecision;text-rendering:geometricPrecision"
     transform="matrix(13.167776,0,0,13.167776,0,2.1509643e-5)">
    <path
       id="_262083800"
       style="color:#000000;clip-rule:nonzero;fill:#000000;fill-rule:nonzero;stroke-width:49.768;-inkscape-stroke:none;shape-rendering:auto"
       d="M 12.363281,0 C 10.714639,0.01152375 9.2122791,0.38576901 8.0683594,0.97265625 7.1452797,1.4462416 6.4000367,2.0885244 6.1328125,2.9160156 H 0 v 1.2636719 h 6.1015625 c 0.2362595,0.9011237 1.0051147,1.6452815 1.9667969,2.1386719 1.1620822,0.5962054 2.6935916,0.875 4.3730466,0.875 1.679455,0 3.212923,-0.2787747 4.375,-0.875 0.925393,-0.4747739 1.672006,-1.1815116 1.9375,-2.0371094 1.681024,0.00666 3.385631,-0.018828 5.060547,-0.00391 V 3.0136719 C 22.139694,2.998752 20.435058,2.9446241 18.753906,2.921875 18.48838,2.0914415 17.741756,1.4474061 16.816406,0.97265625 15.654328,0.37645334 14.120863,0 12.441406,0 c -0.02624,0 -0.05196,-1.8291668e-4 -0.07813,0 z m -0.06055,1.3613281 c 0.04651,-5.937e-4 0.09192,0 0.138672,0 1.496065,0 2.87208,0.3058868 3.791016,0.7773438 0.918936,0.471457 1.263672,0.9907994 1.263672,1.4570312 0,0.4662314 -0.344726,1.0851832 -1.263672,1.5566407 -0.918936,0.471452 -2.294951,0.7773437 -3.791016,0.7773437 C 10.945341,5.929688 9.5693264,5.6237958 8.6503906,5.1523438 7.7314549,4.6808868 7.3867188,4.0619355 7.3867188,3.5957031 c 0,-0.4662313 0.3447261,-0.9855732 1.2636718,-1.4570312 0.8902191,-0.456724 2.2106234,-0.7589396 3.6523434,-0.7773438 z"
       transform="scale(0.02009324)" />
  </g>
</svg>
