<?xml version="1.0" encoding="UTF-8" standalone="no"?>
<!-- Created with Inkscape (http://www.inkscape.org/) -->

<svg
   width="6.3000002mm"
   height="2.3626738mm"
   version="1.1"
   viewBox="0 0 6.3 2.3626737"
   id="svg842"
   sodipodi:docname="Estrutura_convoluta.svg"
   inkscape:version="1.1.2 (b8e25be833, 2022-02-05)"
   xmlns:inkscape="http://www.inkscape.org/namespaces/inkscape"
   xmlns:sodipodi="http://sodipodi.sourceforge.net/DTD/sodipodi-0.dtd"
   xmlns="http://www.w3.org/2000/svg"
   xmlns:svg="http://www.w3.org/2000/svg"
   xmlns:rdf="http://www.w3.org/1999/02/22-rdf-syntax-ns#"
   xmlns:cc="http://creativecommons.org/ns#"
   xmlns:dc="http://purl.org/dc/elements/1.1/">
  <defs
     id="defs846" />
  <sodipodi:namedview
     id="namedview844"
     pagecolor="#ffffff"
     bordercolor="#666666"
     borderopacity="1.0"
     inkscape:pageshadow="2"
     inkscape:pageopacity="0.0"
     inkscape:pagecheckerboard="0"
     inkscape:document-units="mm"
     showgrid="false"
     inkscape:zoom="47.373014"
     inkscape:cx="11.662758"
     inkscape:cy="4.4962307"
     inkscape:window-width="1920"
     inkscape:window-height="1057"
     inkscape:window-x="-8"
     inkscape:window-y="-8"
     inkscape:window-maximized="1"
     inkscape:current-layer="svg842" />
  <metadata
     id="metadata836">
    <rdf:RDF>
      <cc:Work
         rdf:about="">
        <dc:format>image/svg+xml</dc:format>
        <dc:type
           rdf:resource="http://purl.org/dc/dcmitype/StillImage" />
      </cc:Work>
    </rdf:RDF>
  </metadata>
  <g
     transform="translate(-63.69,-107.00707)"
     id="g840">
    <path
       class="fil2 str1"
       d="m 63.69,107.35 h 1.12 c 0.22,0 0.22,0 0.19,0.1 -0.03,0.1 -0.09,0.3 -0.08,0.58 0.01,0.28 0.09,0.63 0.22,0.84 0.13,0.21 0.32,0.28 0.49,0.31 0.17,0.03 0.32,0.02 0.46,-0.06 0.15,-0.08 0.29,-0.24 0.37,-0.43 0.08,-0.19 0.11,-0.4 0.14,-0.64 0.03,-0.24 0.07,-0.52 0.09,-0.67 0.02,-0.15 0.03,-0.18 0.16,-0.19 0.13,-0.01 0.37,-0.01 0.5,0 0.12,0.01 0.12,0.04 0.1,0.16 -0.03,0.12 -0.08,0.33 -0.06,0.56 0.02,0.23 0.11,0.48 0.2,0.67 0.1,0.19 0.2,0.34 0.34,0.42 0.14,0.09 0.32,0.12 0.47,0.1 0.15,-0.03 0.27,-0.11 0.37,-0.22 0.09,-0.11 0.15,-0.23 0.19,-0.42 0.04,-0.19 0.06,-0.45 0.08,-0.64 0.02,-0.19 0.05,-0.33 0.07,-0.39 0.02,-0.07 0.04,-0.07 0.19,-0.07 h 0.69"
       clip-rule="evenodd"
       fill="none"
       image-rendering="optimizeQuality"
       shape-rendering="geometricPrecision"
       stroke="#000000"
       stroke-width="0.5"
       id="path838"
       style="stroke-width:0.35;stroke-miterlimit:4;stroke-dasharray:none" />
  </g>
</svg>
