<?xml version="1.0" standalone="no"?>
<!DOCTYPE svg PUBLIC "-//W3C//DTD SVG 1.1//EN" "http://www.w3.org/Graphics/SVG/1.1/DTD/svg11.dtd" >
<svg xmlns="http://www.w3.org/2000/svg" xmlns:xlink="http://www.w3.org/1999/xlink" version="1.1" viewBox="-10 0 810 1000">
   <path fill="currentColor"
d="M425.772 742.56c-32.915 38.4004 -64.9141 57.6006 -95.999 57.6006c-22.9336 0 -49.7334 -10.7998 -80.4004 -32.4004c-30.667 -21.5996 -49.0547 -41.4844 -55.1631 -59.6553s-11.4414 -60.3047 -16 -126.4c-2.87598 -41.7002 -4.31348 -74.7041 -4.31348 -99.0117
c0 -14.2207 0.492188 -25.4648 1.47656 -33.7324c2.66699 -22.3994 10.4004 -50.5332 23.2002 -84.4004c12.7998 -33.8662 28.9336 -65.1992 48.4004 -93.999c19.4658 -28.7998 67.8652 -86.9336 145.198 -174.4v-96h16v96.7998
c27.7334 36.7998 56.5332 78.666 86.3994 125.599c60.2666 96 94.9336 168.533 104.001 217.601c4.2666 22.3994 6.39941 46.2656 6.39941 71.5986c0 62.2881 -10.4814 129.338 -31.4434 201.149c-6.2373 21.3682 -14.9561 38.8525 -26.1562 52.4531
c-11.2002 13.5996 -21.8672 21.4658 -32.001 23.5996h-0.799805c-0.833008 0.138672 -1.72168 0.208008 -2.66699 0.208008c-8.0752 0 -20.2412 -5.07129 -36.4971 -15.2139c-18.1572 -11.3291 -34.7021 -21.7939 -49.6348 -31.3945zM400.173 113.76
c-76.2666 86.4004 -123.066 142.399 -140.399 167.999c-17.333 25.6006 -32.3994 55.2002 -45.1992 88.7998c-12.7998 33.6006 -20.1328 58.1338 -21.999 73.6006c-1.18848 9.84277 -1.78223 23.7881 -1.78223 41.8359c0 10.3145 0.194336 21.9688 0.582031 34.9639
c54.3994 19.7334 113.333 29.5996 176.8 29.5996c35.2002 0 74.2666 -2.66699 117.2 -8s77.2002 -14.666 102.8 -27.999c0 -26.1328 -2.13281 -49.8662 -6.39941 -71.1992c-8.53418 -46.9336 -42.4014 -117.601 -101.602 -212
c-26.667 -42.667 -53.334 -81.8672 -80.001 -117.601zM391.373 340.959c13.8662 0 25.7324 4.93359 35.5986 14.7998c9.86719 9.86621 14.8008 21.8662 14.8008 36s-4.93359 26.1338 -14.8008 36c-9.86621 9.86621 -21.7324 14.7998 -35.5986 14.7998
s-25.8662 -4.93359 -36 -14.7998s-15.2002 -21.8662 -15.2002 -36s5.06641 -26.1338 15.2002 -36s22.1338 -14.7998 36 -14.7998zM391.373 356.959c-9.60059 0 -17.7344 3.4668 -24.4014 10.4004c-6.66699 6.93262 -10 15.0654 -10 24.3984s3.33301 17.333 10 24
s14.8008 10 24.4014 10s17.7344 -3.33301 24.4014 -10s10 -14.667 10 -24s-3.33301 -17.4658 -10 -24.3984c-6.66699 -6.93359 -14.8008 -10.4004 -24.4014 -10.4004zM588.173 532.159c-48.7334 22.9326 -122.066 34.3984 -220 34.3984
c-62.9326 0 -121.333 -9.33301 -175.2 -28c1.06738 25.6006 1.73438 39.8672 2.00098 42.8008c0.266602 2.93262 0.533203 6.26562 0.799805 9.99902s0.666016 6.40039 1.19922 8.00098c40.5342 14.9326 104.001 22.666 190.4 23.1992h11.2002
c25.0664 0 44.666 -0.266602 58.7998 -0.799805c43.834 -1.65332 85.834 -11.7861 126 -30.3984c2.66699 -20.2666 4.2666 -40 4.7998 -59.2002zM423.373 721.758c52.9199 33.0752 82.793 49.6152 89.6143 49.6152c5.92871 0 13.791 -5.7373 23.5869 -17.2129
c15.3447 -17.9756 29.8779 -65.8428 43.5996 -143.602c-22.9326 9.60059 -47.333 16.5342 -73.2002 20.8008c-25.8662 4.2666 -45.0664 6.5332 -57.5996 6.7998s-33.2002 0.399414 -62 0.399414c-83.0059 0 -145.939 -6.93359 -188.8 -20.7998
c3.93262 45.2334 7.99316 74.2705 12.1816 87.1113c4.1875 12.8408 20.1377 29.2656 47.8496 49.2744s51.9678 30.0137 72.7676 30.0137s45.0664 -13.8672 72.7998 -41.6006l14.4004 -16z" />
</svg>
