<?xml version="1.0" standalone="no"?>
<!DOCTYPE svg PUBLIC "-//W3C//DTD SVG 1.1//EN" "http://www.w3.org/Graphics/SVG/1.1/DTD/svg11.dtd" >
<svg xmlns="http://www.w3.org/2000/svg" xmlns:xlink="http://www.w3.org/1999/xlink" version="1.1" viewBox="-10 0 1020 1000">
   <path fill="currentColor"
d="M617 155l73.998 129c32 8 64.167 18.333 96.5 31s60.166 25.334 83.499 38.001s44.333 24.667 63 36s33 21 43 29l13 11l10 8l-11 6l-17 8.5c-7.33301 3.66699 -23.166 10.667 -47.499 21s-49.166 19.833 -74.499 28.5s-56.833 17.167 -94.5 25.5
s-74.5 14.166 -110.5 17.499l-120 112l-12 -8l41 -102c-59.333 -2.66699 -120.166 -16.667 -182.499 -42s-121.166 -58 -176.499 -98c-42 24.667 -80 50.5 -114 77.5s-56.667 47.833 -68 62.5l-13 -11c8 -10.667 20.333 -23 37 -37s38 -30.167 64 -48.5
s53.333 -35.833 82 -52.5c-80 -60 -135 -117.333 -165 -172l13 -8c14 26 35.667 54.333 65 85s62.666 59.667 99.999 87c137.333 -80 259 -120 365 -120c14 0 29 0.666992 45 2l-4 -112zM560.998 284c-52 0 -109.334 10.8311 -172.001 32.498s-122.667 48.834 -180 81.501
l1 1c56 38.667 116.167 70.334 180.5 95.001s124.833 37 181.5 37c40.667 0 81.667 -3.33301 123 -10s76 -14 104 -22s56.167 -17.833 84.5 -29.5s46.833 -19.5 55.5 -23.5s17.334 -8.66699 26.001 -14c-9.33301 -7.33301 -19.5 -14.833 -30.5 -22.5
s-30.833 -19.667 -59.5 -36s-57.667 -30.333 -87 -42s-64.5 -22.5 -105.5 -32.5s-81.5 -15 -121.5 -15z" />
</svg>
