<?xml version="1.0" standalone="no"?>
<!DOCTYPE svg PUBLIC "-//W3C//DTD SVG 1.1//EN" "http://www.w3.org/Graphics/SVG/1.1/DTD/svg11.dtd" >
<svg xmlns="http://www.w3.org/2000/svg" xmlns:xlink="http://www.w3.org/1999/xlink" version="1.1" viewBox="-10 0 1021 1000">
   <path fill="currentColor"
d="M392 580l-13.999 -10l-19 17l-98 43l-66 59l-24 45l51 30l-13 -69l70 -32l86 -56l77 -4c-15.333 -4 -27.333 -8.5 -36 -13.5s-13.334 -8.16699 -14.001 -9.5zM622.001 570l-23.001 16c-13.333 7.33301 -26.666 13 -39.999 17l76 4l86 56l70 32l-13 69l51 -30l-24 -45
l-66 -59l-98 -43zM771 529l-122.999 8.99902h-1c-2.66699 4.66699 -4.33398 8.33398 -5.00098 11.001l119 -7l82 29l68 43l13 27l-8 -33l-63 -53zM229.001 528.999l-82 26l-63 53l-8 33l13 -27l68 -43l82 -29l119 7c-1.33301 -2 -3 -5.66699 -5 -11h-1zM904.001 446.999
l-88 9l-151 52l-5 9l159 -51l83 -10l75 53l2 9v-15zM96.001 446.999l-75 56v15l2 -9l75 -53l83 10l159 51l-5 -9l-151 -52zM689.001 464.999l-1 3.5c0 0.333008 -0.333008 0.833008 -1 1.5l106 -39l87 -101l-4 -48l-1 53l-81 82l-91 33c-6 6 -10.667 11 -14 15z
M124.001 281.999l-3.99805 48l88 101l104 39c-0.666992 -0.666992 -0.833984 -1.16699 -0.500977 -1.5s0.166016 -1 -0.500977 -2l-3 -4.5c-5.77734 -8.66699 -9.44434 -13 -11 -13l-91 -32l-81 -82zM676.003 456.999v-2.49707c0 -1 5.66699 -7.16699 17 -18.5h1
c6.66699 -6 13.334 -11 20.001 -15c0.666992 -0.666992 1 -2.83398 1 -6.50098s-2.5 -11.167 -7.5 -22.5s-16.5 -26 -34.5 -44c-48.667 -46.667 -106.667 -70 -174 -70s-125 23.333 -173 70c-17.333 16.667 -28.5 31.167 -33.5 43.5s-7.5 20.166 -7.5 23.499
s0.333008 5.33301 1 6c20.667 12.667 40.167 35.834 58.5 69.501s31.833 54.667 40.5 63s18.334 15.166 29.001 20.499l1 1l13 6c0.666992 0 1.5 0.166992 2.5 0.5c11.667 3.88867 18.5 5.94434 20.5 6.16699l23 3.33301c1.33301 0 4 0.333008 8 1
s14.167 0.833984 30.5 0.500977c23.9785 -0.489258 43.1455 -4.32227 57.5 -11.5h2l15 -7c12.8799 -7.36035 23.0996 -15.0342 30.6592 -23.0205s16.0059 -20.8135 25.3389 -38.4805s14.333 -26.834 15 -27.501v-1c6 -12 12 -21 18 -27zM682.003 333.002
c1 2 2.08301 3.33301 3.25 4s5.41699 6 12.75 16l1 -1l6 8v1h1c6.66699 8.66699 11.667 15.667 15 21l53 -96l-16 -70l-68 -119l-32 17l-15 46l55 70l6 60zM309.003 96.002l-68 119.001l-15 70l53 96c7.2002 -13.2002 15.167 -24.167 23.9004 -32.9004l14.0996 -14.0996
c0.666992 -0.666992 1 -1.33398 1 -2.00098l-22 -43l6 -61l55 -68l-15 -46zM582.003 73.0029l49 71l10 -30zM419.003 71.0029l-60 42l10 31zM608.003 40.0029l43 59l26 -14zM393.003 38.0029l-72 46l28 15zM421.003 0.00292969l12 12l-46 61l60 -42l12 12l-85 123l-57 69
l-5 50l19 36c48.9326 -40.3359 104.752 -60.5039 167.457 -60.5039c0.513672 0 1.02832 0.000976562 1.54297 0.00390625c63.333 0.333008 119.333 20.5 168 60.5l19 -34l-4 -50l-57 -70l-85 -123l13 -12l58 42l-45 -61l12 -12l121 79l74 130l18 78l-63 114
c1.33301 6 2 10 2 12s-0.333008 4.66699 -1 8l55 -19l73 -75l5 -194v-1h17v1l17 202l-93 107l8 -3l97 -10l85 64l6 91l-17 3l-20 -68l-65 -46l-76 8l-107 35l58 -4l87 26l72 60l23 106v2l-15 5l-42 -86l-62 -40l-78 -27l-115 7l6 6l99 43l70 64l34 60l-96 58l16 -93l-59 -26
l-84 -55l-129 -7l-129 7l-84 55l-59 26l16 93l-96 -58l34 -60l69 -64l100 -43l6 -6l-116 -7l-77 27l-62 40l-42 86l-15 -5v-2l23 -106l72 -60l87 -26l58 4l-107 -35l-76 -8l-65 46l-20 68l-17 -3l6 -91l85 -64l97 10l8 3l-93 -107l17 -202v-1h17v1l5 194l73 75l55 19l-1 -6
c0 -4.66699 0.666992 -10 2 -16l-63 -113l19 -78l73 -130z" />
</svg>
