<?xml version="1.0" standalone="no"?>
<!DOCTYPE svg PUBLIC "-//W3C//DTD SVG 1.1//EN" "http://www.w3.org/Graphics/SVG/1.1/DTD/svg11.dtd" >
<svg xmlns="http://www.w3.org/2000/svg" xmlns:xlink="http://www.w3.org/1999/xlink" version="1.1" viewBox="-10 0 871 1000">
   <path fill="currentColor"
d="M637.031 388.287c-54.3994 0 -100.583 19.126 -138.55 57.376s-56.9502 84.4336 -56.9502 138.551c0 54.1162 19.125 100.3 57.375 138.55s84.4336 57.375 138.55 57.375s100.158 -19.125 138.125 -57.375s56.9502 -84.292 56.9502 -138.125
c0 -35.7002 -8.6416 -68.5674 -25.9248 -98.6016c-17.2832 -30.0332 -41.083 -53.833 -71.4004 -71.3994c-30.3164 -17.5674 -63.041 -26.3506 -98.1748 -26.3506zM422.831 -1.01172c58.9336 0 109.225 20.9668 150.874 62.9004
c41.6504 41.9326 62.4756 92.083 62.4756 150.45c0 58.3662 -20.8252 108.374 -62.4756 150.023c-41.6494 41.6504 -91.6572 62.4756 -150.023 62.4756c-58.3672 0 -108.518 -20.8252 -150.45 -62.4756c-41.9336 -41.6494 -62.9004 -91.7998 -62.9004 -150.45
c0 -58.6494 20.6836 -108.799 62.0498 -150.448c41.3672 -41.6504 91.5176 -62.4756 150.45 -62.4756zM422.83 16.8389c-26.6338 0 -52.1338 5.09961 -76.5 15.2998s-45.0498 23.9414 -62.0498 41.2246c-37.9668 38.5996 -56.9502 84.7285 -56.9502 138.387
s19.125 99.8965 57.375 138.714c38.25 38.8164 84.4336 58.2246 138.55 58.2246c54.1172 0 100.442 -19.2666 138.976 -57.7998s57.7998 -84.8584 57.7998 -138.976c0 -54.1162 -19.4082 -100.158 -58.2246 -138.125c-38.8174 -37.9658 -85.1426 -56.9492 -138.976 -56.9492
zM212.88 372.988c58.9336 0 107.598 18.9375 145.99 56.8115s60.5312 80.2637 66.417 127.17c5.60742 -47.1191 27.5664 -89.7041 65.877 -127.755s86.9326 -57.0762 145.866 -57.0762s109.226 20.542 150.875 61.625s62.4746 91.2334 62.4746 150.45
c0 59.2158 -20.6836 109.649 -62.0498 151.3c-41.3662 41.6494 -91.6582 62.4746 -150.875 62.4746s-107.914 -19.0889 -146.092 -57.2666s-60.1602 -80.6201 -65.9463 -127.326c-3.47949 27.8037 -13.5635 56.0283 -30.2529 84.6738s-41.4678 52.7432 -74.334 72.293
s-68.8496 29.3252 -107.95 29.3252c-58.9326 0 -109.082 -21.1084 -150.448 -63.3252c-41.3672 -42.2168 -62.0508 -92.5088 -62.0508 -150.875s20.6836 -108.374 62.0508 -150.023c41.3662 -41.6504 91.5156 -62.4756 150.448 -62.4756zM351.856 447.364
c-38.25 -38.25 -84.4336 -57.375 -138.55 -57.375c-54.1172 0 -100.159 19.125 -138.125 57.375c-37.9668 38.25 -56.9502 84.292 -56.9502 138.125s18.9834 100.017 56.9502 138.55c37.9658 38.5342 84.0078 57.8008 138.125 57.8008
c54.1162 0 100.3 -19.2666 138.55 -57.8008c38.25 -38.5332 57.375 -84.7168 57.375 -138.55s-19.125 -99.875 -57.375 -138.125z" />
</svg>
