<?xml version="1.0" standalone="no"?>
<!DOCTYPE svg PUBLIC "-//W3C//DTD SVG 1.1//EN" "http://www.w3.org/Graphics/SVG/1.1/DTD/svg11.dtd" >
<svg xmlns="http://www.w3.org/2000/svg" xmlns:xlink="http://www.w3.org/1999/xlink" version="1.1" viewBox="-10 0 810 1000">
   <path fill="currentColor"
d="M376.1 299.2c-9.40625 0 -19.5381 -14.9297 -30.3984 -44.7959c-12.5547 -32.2812 -22.4219 -61.8818 -29.6006 -88.8008c-26.1943 -76.4854 -46.7471 -114.728 -61.6582 -114.728c-0.796875 0 -1.57812 0.109375 -2.34277 0.328125
c-3.56055 0.711914 -5.34082 3.9082 -5.34082 9.58789c0 16.8389 15.6475 55.5098 46.9414 116.013c20.0215 38.709 30.0322 61.5742 30.0322 68.5957c0 12.7451 -6.67969 19.1172 -20.0381 19.1172c-13.0029 0 -32.334 -6.03711 -57.9932 -18.1123
c-26.1338 -11.7334 -52.2676 -25.334 -78.4014 -40.8008c-7.4668 -4.2666 -14.7998 -12.2666 -22 -24s-15.333 -26 -24.3994 -42.7998c-12.917 -23.9326 -20.917 -37.1328 -24 -39.5996c0 6.64551 5.33301 22.3066 16 46.9834s22.667 47.6816 36 69.0146
c5.86621 9.59961 20.7998 18.3994 44.7998 26.3994c50.3652 14.3965 81.0898 26.1289 92.1738 35.1973c39.5605 32.3682 59.3408 84.5264 59.3408 156.475c0 25.6025 -2.50488 53.7119 -7.51465 84.3281c-5.86621 35.2002 -14.7998 76.1338 -26.7998 122.801
c-12.2715 47.7236 -18.4072 79.0654 -18.4072 94.0254c0 15.0684 7.20215 26.793 21.6064 35.1738c14.667 8.53418 43.6006 13.334 86.8008 14.4004c43.7334 -1.06641 72.7998 -5.86621 87.1992 -14.4004c14.4004 -8.5332 21.6006 -20.5332 21.6006 -36
c0 -15.4658 -6.13379 -46.666 -18.4004 -93.5996s-21.333 -87.4668 -27.2002 -121.6c-5.07324 -31.1904 -7.60938 -59.7412 -7.60938 -85.6523c0 -73.4854 20.4033 -125.735 61.21 -156.749l16.7998 -10.4004c10.667 -4.2666 24.667 -8.93359 42 -14.001
c45.0596 -13.1709 70.5264 -25.3037 76.4004 -36.3994c12.2666 -20.2666 23.333 -41.4668 33.1992 -63.6006c9.86719 -22.1328 15.334 -35.7324 16.4004 -40.7988c1.06641 -5.06738 1.86621 -8.66797 2.40039 -10.8018c-4.80078 4.80078 -12.2676 16.9346 -22.4014 36.4004
c-20.6338 39.6387 -36.6338 62.7051 -48 69.1992c-66.7373 39.498 -112.047 59.2471 -135.928 59.2471c-8.80078 0 -14.6914 -2.68262 -17.6719 -8.04688c-1.25098 -2.08496 -1.87695 -4.73047 -1.87695 -7.93555c0 -6.2373 2.37012 -14.5947 7.11133 -25.0723
c7.17676 -15.8604 14.7656 -31.6572 22.7656 -47.3906c30.5703 -60.124 45.8555 -98.6318 45.8555 -115.523c0 -5.6084 -1.68555 -8.83398 -5.05566 -9.67676c-0.413086 -0.0595703 -0.830078 -0.0888672 -1.25098 -0.0888672c-15.1602 0 -35.8096 38.1631 -61.9492 114.488
c-9.30957 31.0264 -18.0371 56.916 -26.1826 77.6699c-12.8818 32.8213 -20.4209 49.5977 -22.6172 50.3301c-3.2002 3.7334 -6.5332 5.60059 -10 5.60059c-8.11426 0 -12.876 -4.93359 -14.2852 -14.7998c-1.40918 -9.86719 -2.11426 -20.4004 -2.11426 -31.6006
s0.133789 -22.1338 0.400391 -32.8008c0.754883 -30.2637 1.81055 -60.4961 3.16699 -90.6982c0.553711 -12.3486 0.831055 -23.7686 0.831055 -34.2588c0 -33.3389 -2.7998 -57.2861 -8.39844 -71.8428c-1.42188 -4.2666 -2.97754 -6.40039 -4.66699 -6.40039
c-10.3369 0 -15.5059 28.3086 -15.5059 84.9248c0 14.1816 0.324219 30.1396 0.972656 47.875c2.13379 34.1045 3.2002 68.0703 3.2002 101.898c0 31.916 -4.50977 47.874 -13.5303 47.874c-0.540039 0 -1.09668 -0.0576172 -1.66992 -0.171875zM401.301 0.00390625
c14.6855 0 23.4902 14.4033 26.4141 43.2031c2.14258 21.1025 3.21387 41.3467 3.21387 60.7324c0 7.07031 -0.142578 14.0264 -0.427734 20.8682c-1.06641 25.5996 -1.7334 45.333 -2 59.1992s-0.666992 26 -1.2002 36.4004
c-0.533203 10.3994 -0.799805 20.7988 -0.799805 31.1982c0 10.4004 0.533203 19.334 1.59961 26.8008l0.800781 -0.800781c2.43066 0 9.43848 -17.5996 21.0234 -52.7998s21.2441 -64.4004 28.9775 -87.6006c14.1328 -42.3984 29.999 -73.1982 47.5996 -92.4004
c8.5332 -8.5332 17.333 -11.8662 26.4004 -10c11.8564 2.44043 17.7852 10.8711 17.7852 25.292c0 5.49902 -0.862305 11.8682 -2.58594 19.1084c-6.09277 22.8525 -16.9492 49.8984 -32.5693 81.1387c-25.7539 51.5088 -39.4307 81.2627 -41.0293 89.2607h1.59961
c10.7021 0 28.9775 -5.86621 54.8262 -17.5996s51.04 -25.0664 75.5732 -40l0.799805 -0.799805c8.8623 -4.92285 19.8779 -20.1533 33.0469 -45.6914c19.2822 -37.3955 31.4668 -57.3652 36.5537 -59.9082c5.33301 -4.2666 10 -5.86621 14 -4.79883
c10.4834 2.7959 13.8379 11.0947 10.0625 24.8965c-11.002 40.2217 -28.8896 79.3896 -53.6631 117.503c-10.0518 15.4111 -35.1182 29.0107 -75.2002 40.7988c-34.0283 10.0088 -56.1348 18.7773 -66.3203 26.3057c-10.1865 7.5293 -19.2793 17.9609 -27.2793 31.2939
c-17.3164 29.0908 -25.9746 66.5029 -25.9746 112.236c0 24.6953 2.52441 51.8164 7.57422 81.3643c5.33301 33.0664 14.1328 73.0664 26.3994 120c12.8154 49.0303 19.2227 80.9307 19.2227 95.7002c0 23.9668 -8.94043 41.1338 -26.8223 51.5
c-18.4004 10.667 -51.0674 16.5332 -98 17.5996c-45.8672 -1.06641 -78.1338 -6.7998 -96.8008 -17.1992c-18.1475 -10.1113 -27.2217 -27.1533 -27.2217 -51.127c0 -16.793 6.27441 -48.9512 18.8223 -96.4736c12.5332 -47.4668 21.2002 -87.4668 26 -120
c4.56641 -28.8584 6.84961 -55.4023 6.84961 -79.6318c0 -46.5215 -8.41699 -84.5107 -25.25 -113.969c-8 -13.333 -17.333 -24 -28 -32l-12.7998 -8h-0.799805c-24.3584 -9.47168 -48.8916 -17.7383 -73.6006 -24.7998
c-27.7334 -9.59961 -45.333 -20.7998 -52.7998 -33.5996c-31.5957 -51.04 -49.1953 -89.1738 -52.7998 -114.4c-2.7002 -11.6992 -2.8418 -18.8906 -0.424805 -21.5742c4.05176 -4.49902 8.28418 -6.74805 12.6973 -6.74805c6.69336 0 13.8027 5.17383 21.3281 15.5225
c5.33301 7.4668 12.1328 19.4668 20.3994 36c17.7451 35.4883 30.6787 55.4883 38.8008 60c65.8271 38.3994 109.561 57.5996 131.2 57.5996h0.799805c-1.77734 -8.8877 -5.02148 -18.1758 -9.73242 -27.8652c-4.71191 -9.68945 -10.9346 -22.5342 -18.668 -38.5342
s-13.7334 -27.4668 -18 -34.4004c-20.2373 -43.5869 -30.3564 -72.8652 -30.3564 -87.834c0 -15.582 6.38477 -24.4375 19.1553 -26.5654c9.60059 -1.60059 17.8672 1.33301 24.8008 8.7998c20.6572 22.2471 46.3906 82.3799 77.2002 180.399
c8.71191 27.7217 15.7783 45.4551 21.2002 53.2002v0.799805l0.799805 0.800781c1.59668 -11.9795 2.39551 -23.8945 2.39551 -35.7451c0 -4.49121 -0.114258 -8.97266 -0.34375 -13.4443c-0.834961 -16.2744 -1.51855 -31.4785 -2.05176 -45.6123
c-0.533203 -14.1328 -1.33301 -34.3994 -2.39941 -60.7988c-0.411133 -10.1748 -0.617188 -19.7178 -0.617188 -28.6279c0 -62.7822 10.2051 -94.1729 30.6162 -94.1729z" />
</svg>
