<?xml version="1.0" standalone="no"?>
<!DOCTYPE svg PUBLIC "-//W3C//DTD SVG 1.1//EN" "http://www.w3.org/Graphics/SVG/1.1/DTD/svg11.dtd" >
<svg xmlns="http://www.w3.org/2000/svg" xmlns:xlink="http://www.w3.org/1999/xlink" version="1.1" viewBox="-11 0 962 1000">
   <path fill="currentColor"
d="M267.047 390.815c-53.9102 0 -99.8281 18.9629 -137.754 56.8896c-37.9258 37.9258 -56.8887 83.8447 -56.8887 137.756s18.9629 99.8301 56.8887 137.756s83.8438 56.8887 137.754 56.8887c53.9111 0 99.8301 -18.9629 137.756 -56.8887
c37.9268 -37.9258 56.8896 -83.8447 56.8896 -137.756s-18.9629 -99.8301 -56.8896 -137.756c-37.9258 -37.9268 -83.8447 -56.8896 -137.756 -56.8896zM476.737 17.5137c-53.9111 0 -99.8301 18.9629 -137.757 56.8877c-37.9258 37.9268 -56.8887 83.8457 -56.8887 137.757
s18.9629 99.8301 56.8887 137.757c37.9268 37.9258 83.8457 56.8887 137.757 56.8887s99.8291 -18.9629 137.755 -56.8887c37.9258 -37.9268 56.8887 -83.8457 56.8887 -137.757s-18.9629 -99.8301 -56.8887 -137.757
c-37.9258 -37.9248 -83.8438 -56.8877 -137.755 -56.8877zM476.268 -2.2334c59.2393 0 109.705 20.8447 151.392 62.5312s62.5303 91.9941 62.5303 150.922c0 58.9258 -20.8438 109.389 -62.5303 151.388c-41.6865 42.001 -92.1494 63.002 -151.389 63.002
c-34.1143 0 -65.3174 -6.96387 -93.6104 -20.8926c12.7432 8.23145 24.8262 18.0166 36.25 29.3545c34.3408 34.083 54.5371 74.2275 60.5889 120.434c5.89844 -46.6514 26.1357 -87.2656 60.7129 -121.843c41.6865 -41.6875 91.9932 -62.5312 150.919 -62.5312
c38.8662 0 74.5977 9.55957 107.194 28.6787c32.5977 19.1201 58.3613 44.71 77.291 76.7686c18.9287 32.0576 28.8701 66.085 29.8242 102.081c10.083 -37.5791 15.124 -76.3525 15.124 -116.32h19.7461c0 63.9424 -12.3809 124.906 -37.1416 182.892
c-24.7617 57.9854 -58.1426 107.979 -100.143 149.979c-42.001 42 -91.8379 75.3809 -149.511 100.144c-57.6729 24.7607 -118.637 37.1406 -182.892 37.1406c-64.2539 0 -125.374 -12.3799 -183.36 -37.1406c-57.9854 -24.7627 -107.979 -58.1436 -149.979 -100.144
c-42.001 -42.001 -75.3818 -91.9941 -100.143 -149.979c-24.7617 -57.9854 -37.1426 -118.949 -37.1426 -182.892h19.7461c0 101.983 28.6797 191 86.0391 267.05c59.5557 78.9609 133.526 132.872 221.913 161.732c46.0752 15.0449 96.6953 22.5674 151.859 22.5674
c55.165 0 110.486 -11.9102 165.965 -35.7314c61.7168 -26.5 113.878 -63.0303 156.483 -109.591c-32.8486 20.4033 -69.8076 30.6045 -110.878 30.6045c-58.9258 0 -109.232 -20.8438 -150.919 -62.5303c-34.3408 -34.3408 -54.5371 -74.6367 -60.5889 -120.889
c-5.89746 46.6963 -26.1348 87.4629 -60.7119 122.3c-41.6865 41.999 -92.1494 62.999 -151.389 62.999c-59.2402 0 -109.704 -21 -151.391 -62.999c-41.6865 -42.001 -62.5303 -92.6211 -62.5303 -151.86c0 -59.2402 20.8438 -109.547 62.5303 -150.921
c41.6865 -41.373 92.1504 -62.0596 151.391 -62.0596c34.5693 0 66.1494 7.04395 94.7412 21.1328c-13.1592 -8.50684 -25.6201 -18.6855 -37.3828 -30.5371c-41.6865 -41.999 -62.5303 -92.4619 -62.5303 -151.388c0 -58.9277 20.8438 -109.235 62.5303 -150.922
c41.6875 -41.6865 92.1514 -62.5303 151.391 -62.5303zM691.131 388.937c-53.9111 0 -99.8301 18.9629 -137.756 56.8887c-37.9258 37.9268 -56.8887 83.8457 -56.8887 137.757s18.9629 99.8301 56.8887 137.756s83.8447 56.8887 137.756 56.8887
s99.8301 -18.9629 137.756 -56.8887s56.8887 -83.8447 56.8887 -137.756s-18.9629 -99.8301 -56.8887 -137.757c-37.9258 -37.9258 -83.8447 -56.8887 -137.756 -56.8887z" />
</svg>
