<?xml version="1.0" encoding="UTF-8" standalone="no"?>
<!-- Creator: CorelDRAW -->

<svg
   xml:space="preserve"
   width="7.5023851mm"
   height="2.0834429mm"
   style="clip-rule:evenodd;fill-rule:evenodd;image-rendering:optimizeQuality;shape-rendering:geometricPrecision;text-rendering:geometricPrecision"
   viewBox="0 0 1.4355159 0.39864977"
   version="1.1"
   id="svg35"
   sodipodi:docname="Seixo pingado.svg"
   inkscape:version="1.1.2 (b8e25be833, 2022-02-05)"
   xmlns:inkscape="http://www.inkscape.org/namespaces/inkscape"
   xmlns:sodipodi="http://sodipodi.sourceforge.net/DTD/sodipodi-0.dtd"
   xmlns="http://www.w3.org/2000/svg"
   xmlns:svg="http://www.w3.org/2000/svg"><sodipodi:namedview
   id="namedview37"
   pagecolor="#ffffff"
   bordercolor="#666666"
   borderopacity="1.0"
   inkscape:pageshadow="2"
   inkscape:pageopacity="0.0"
   inkscape:pagecheckerboard="0"
   inkscape:document-units="mm"
   showgrid="false"
   inkscape:zoom="20"
   inkscape:cx="14.175"
   inkscape:cy="3.55"
   inkscape:window-width="1920"
   inkscape:window-height="1057"
   inkscape:window-x="-8"
   inkscape:window-y="-8"
   inkscape:window-maximized="1"
   inkscape:current-layer="SIMBOLOS" />
 <defs
   id="defs26">
  <style
   type="text/css"
   id="style24">
   <![CDATA[
    .str0 {stroke:black;stroke-width:0.0478355}
    .fil0 {fill:none}
    .fil1 {fill:black}
   ]]>
  </style>
 </defs>
 <g
   id="SIMBOLOS"
   inkscape:label="SIMBOLOS"
   inkscape:groupmode="layer"
   transform="translate(0,-0.04348973)">
  <metadata
   id="CorelCorpID_0Corel-Layer" />
  <g
   id="_262089080">
   <path
   id="path391"
   style="color:#000000;clip-rule:nonzero;fill:#000000;fill-rule:nonzero;stroke-width:19.7528;-inkscape-stroke:none;shape-rendering:auto"
   d="m 6.8789062,3.4257812 c -0.1750587,0.00155 -0.3997781,0.00574 -0.7070312,0.00781 -1.2289945,0.00829 -3.7053512,10e-8 -6.171875,0 v 0.9648437 c 2.4665238,0 4.9343854,-0.030727 6.171875,-0.039063 0.5958358,-0.00402 0.8783992,-0.00736 1.0039062,0 C 7.2901497,4.4996986 7.5231543,4.7931633 7.9472656,5.2089844 8.3911692,5.6442007 9.0212332,6.1645839 9.6445312,6.7128906 9.8231298,6.8700007 10.005261,7.0313727 10.191406,7.1914062 9.8908017,7.0821159 9.6050433,6.9566732 9.375,6.828125 8.9314618,6.5799356 8.6495109,6.2917354 8.3339844,6.0957031 8.1758636,5.997611 7.9507312,5.9242891 7.6777344,5.9023438 c -0.2729969,-0.021945 -0.6499473,-2e-7 -1.3125,0 H 0.0390625 V 6.828125 h 6.3261719 c 0.6625507,0 1.0406005,-0.015573 1.234375,0 0.1937745,0.015573 0.1486544,0.026175 0.2324218,0.078125 0.1675034,0.1040575 0.5401821,0.4303114 1.0800782,0.7324219 0.5398012,0.3016423 1.2367736,0.5757568 1.8906246,0.7324219 0.653137,0.1565998 1.245,0.1904512 1.8125,0.2324218 v -0.00195 c 0.493556,0.1207384 1.015751,0.1552193 1.582032,0.1171875 0.745718,-0.050078 1.577906,-0.2254745 2.33789,-0.5039062 0.429489,-0.050417 0.87564,-0.1107772 1.365235,-0.2675782 0.498188,-0.159701 0.943699,-0.3943157 1.351562,-0.578125 0.407693,-0.1838981 0.807651,-0.3111124 1.195313,-0.4628906 0.387213,-0.1516024 0.698925,-0.2959001 1.195312,-0.3476562 0.49609,-0.052068 1.236335,-0.016719 2.392578,0 1.155872,0.016719 2.733227,0.039063 4.283203,0.039062 V 5.6328125 c -1.549978,0 -3.100549,0.016541 -4.24414,0 -1.143981,-0.016541 -1.926489,-0.065105 -2.546875,0 -0.620079,0.064651 -1.048462,0.2362723 -1.427735,0.3847656 C 19.99059,6.0602633 19.87832,6.1038824 19.763672,6.1484375 20.041667,5.9243235 20.2772,5.7410018 20.486328,5.59375 20.82088,5.3578429 21.126315,5.1915884 21.566406,5.015625 22.006004,4.839707 22.526009,4.661412 23.148438,4.5527344 23.77057,4.4436992 24.518642,4.4066546 25.308594,4.3984375 c 0.789715,-0.00821 1.641706,0.030727 2.160156,0.039063 0.51845,0.00834 0.703413,0 0.886719,0 V 3.4726562 c -0.183306,0 -0.371864,0.00829 -0.886719,0 -0.514855,-0.00829 -1.350372,-0.00842 -2.160156,0 -0.810298,0.00842 -1.603917,0.029756 -2.314453,0.1542969 -0.710981,0.1241461 -1.298836,0.3483596 -1.775391,0.5390625 -0.476812,0.1906536 -0.874748,0.375117 -1.273438,0.65625 -0.398622,0.2806787 -0.784051,0.6130268 -1.310546,1.0410156 -0.526538,0.4276471 -1.155947,0.9176214 -1.929688,1.2734376 -0.773962,0.3559149 -1.746303,0.602483 -2.546875,0.65625 C 13.357363,7.8467555 12.71781,7.7178244 12.113281,7.4082031 11.508752,7.0985815 10.888921,6.5693169 10.261719,6.0175781 9.6347512,5.4660438 9.0483097,4.9505256 8.6425781,4.5527344 8.2364517,4.1545489 7.9981081,3.8577691 7.8710938,3.703125 7.8550537,3.6836589 7.8319212,3.6644834 7.7929688,3.6269531 7.7540163,3.5894031 7.6565284,3.5208248 7.6386719,3.5117188 7.6208255,3.5025977 7.502714,3.4457417 7.4453125,3.4335938 c -0.057402,-0.012158 -0.098634,0.00413 -0.1542969,0 -0.1113196,-0.00826 -0.2370506,-0.00936 -0.4121094,-0.00781 z"
   transform="matrix(0.05062586,0,0,0.05062586,-2.0773914e-6,0)" />
   
   
   
  </g>
 <path
   class="fil0 str1"
   d="m 0.80796289,0.04540333 c -0.0306147,-0.001913 -0.07271,0.00574 -0.10715152,0.0210476 -0.0344416,0.0153074 -0.0612294,0.0382684 -0.0784502,0.0650563 -0.0172208,0.0248745 -0.0248745,0.0516623 -0.0267879,0.0765368 -0.001913,0.0248745 0.003827,0.0459221 0.0133939,0.0650563 0.009567,0.0191342 0.0248745,0.036355 0.0478355,0.0440087 0.022961,0.009567 0.0554892,0.0114805 0.0861039,0.00574 0.0306147,-0.00574 0.059316,-0.0191342 0.0822771,-0.0401818 0.022961,-0.0191342 0.0420952,-0.0440087 0.0554892,-0.0707965 0.0133939,-0.0248745 0.0191342,-0.0516623 0.0172208,-0.0765368 -0.001913,-0.0248745 -0.0133939,-0.0459221 -0.0267879,-0.0631429 -0.0133939,-0.0172208 -0.0325281,-0.0267879 -0.0612294,-0.0287013 z"
   id="path12"
   style="fill:#000000;stroke-width:0;stroke-miterlimit:4;stroke-dasharray:none;stroke-dashoffset:0" /></g>
</svg>
