<?xml version="1.0" standalone="no"?>
<!DOCTYPE svg PUBLIC "-//W3C//DTD SVG 1.1//EN" "http://www.w3.org/Graphics/SVG/1.1/DTD/svg11.dtd" >
<svg xmlns="http://www.w3.org/2000/svg" xmlns:xlink="http://www.w3.org/1999/xlink" version="1.1" viewBox="-10 0 831 1000">
   <path fill="currentColor"
d="M279 460l65.0049 -6.99805c4 21.333 11.833 37.166 23.5 47.499s28.167 15.5 49.5 15.5s37.5 -4.66699 48.5 -14s16.5 -19 16.5 -29s-2.33301 -17.5 -7 -22.5s-11.834 -9.33301 -21.501 -13s-30.5 -9.5 -62.5 -17.5c-66.667 -16.667 -100.334 -49 -101.001 -97
c0 -16.667 5 -32.667 15 -48c20 -30.667 55.667 -45.667 107 -45c41.333 0 72.666 9.33301 93.999 28c21.333 18 32.333 42 33 72l-67 3c-2.66699 -17.333 -8.66699 -29.666 -18 -36.999c-10 -7.33301 -24.5 -11 -43.5 -11s-34.167 4 -45.5 12
c-7.33301 5.33301 -11 12.166 -11 20.499s4 15.666 12 21.999s28.167 13.166 60.5 20.499s56.166 15.333 71.499 24c34 18.667 51 47.334 51 86.001c0 18.667 -5.33301 36.667 -16 54c-21.333 34 -60.333 50.333 -117 49c-82.667 0 -128.334 -37.667 -137.001 -113z
M810.005 400.002c0 110 -39.5 204.167 -118.5 282.5s-174.5 117.5 -286.5 117.5c-26 0 -51.667 -2.33301 -77 -7c-92.667 -17.333 -170.5 -62.5 -233.5 -135.5s-94.5 -158.833 -94.5 -257.5c0 -25.333 2.33301 -50.666 7 -75.999c17.333 -91.333 62.333 -167.333 135 -228
c75.333 -64 163 -96 263 -96c25.333 0.666992 50.666 3.33398 75.999 8.00098c92.667 17.333 170.667 62.333 234 135s95 158.333 95.001 256.998zM633.004 606.005c54.667 -58 82.167 -128.833 82.5 -212.5s-32.834 -156.167 -99.501 -217.5
c-58.667 -54.667 -131 -81.834 -217 -81.501s-160.333 33.5 -223 99.5c-54.667 58 -82 128.667 -82 212s32.667 155.666 98 216.999c59.333 54.667 132.166 82 218.499 82s160.5 -32.999 222.502 -98.998z" />
</svg>
