<?xml version="1.0" standalone="no"?>
<!DOCTYPE svg PUBLIC "-//W3C//DTD SVG 1.1//EN" "http://www.w3.org/Graphics/SVG/1.1/DTD/svg11.dtd" >
<svg xmlns="http://www.w3.org/2000/svg" xmlns:xlink="http://www.w3.org/1999/xlink" version="1.1" viewBox="-10 0 810 1000">
   <path fill="currentColor"
d="M49 718c0 -16 5.33203 -31.332 15.999 -45.999c17.333 -24 43 -36 77 -36c16.667 0 32.334 3.66699 47.001 11l562 -647l11 9l-560 646c20.667 14.667 31.667 35.667 33 63c0.666992 16.667 -4.66602 31.667 -15.999 45c-20.667 24.667 -46.334 37 -77.001 37
c-19.333 0 -36.666 -4.66699 -51.999 -14c-27.333 -16.667 -41 -39.334 -41.001 -68.001zM63.001 718c0 12 3.63184 23.5986 10.8984 34.7988c14.793 22.7988 37.4932 33.8652 68.0996 33.2002c14.667 0 29.334 -4 44.001 -12c23.333 -12.667 35 -31.334 35.001 -56.001
c0 -11.333 -3.66699 -22.666 -11 -33.999c-14 -22 -36.667 -33.333 -68 -34c-14.667 -0.666992 -29 3 -42.999 11.001c-24 14 -36 33 -36.001 57z" />
</svg>
