<?xml version="1.0" standalone="no"?>
<!DOCTYPE svg PUBLIC "-//W3C//DTD SVG 1.1//EN" "http://www.w3.org/Graphics/SVG/1.1/DTD/svg11.dtd" >
<svg xmlns="http://www.w3.org/2000/svg" xmlns:xlink="http://www.w3.org/1999/xlink" version="1.1" viewBox="-10 0 1020 1000">
   <path fill="currentColor"
d="M405 366c-31.333 -28 -63 -42 -95 -42s-56.333 7.83301 -73 23.5s-25 35.667 -25 60s9.83301 47.5 29.5 69.5s39.5 32.333 59.5 31h5l141 -55c-6.66699 -38 -20.667 -67 -42 -87zM900 439c-20 7.33301 -44.8965 10.9971 -74.6885 10.9971s-53.8965 -5.66699 -72.3135 -17
v-1c-6.5332 -4.08301 -28.833 -24.1035 -66.8994 -60.0615s-73.0996 -66.9375 -105.1 -92.9375c-109.333 -88 -202 -132 -278 -132c-89.333 0 -158.666 25.333 -207.999 76s-74 116.334 -74 197.001c0 37.333 6 71.333 18 102s28 55.167 48 73.5
c41.7939 38.3105 89.127 58.1436 142 59.499c24.667 0.666992 50.5 -4.66602 77.5 -15.999s49.667 -24.666 68 -39.999s33 -30 44 -44c23 -29.2725 34.5 -56.6055 34.5 -81.999l-152 59c-32.667 -8.66699 -58 -22.667 -76 -42c-22.667 -26 -34.167 -53.833 -34.5 -83.5
s10.167 -54 31.5 -73s50.833 -28.667 88.5 -29s73.834 15.167 108.501 46.5c20 22 32.333 40 37 54l16 42c123.333 53.333 231.666 67.666 324.999 42.999c30.667 -8.66699 65 -25.667 103 -51zM302.999 125.997c80.667 0 177.667 45.666 291 136.999
c53.333 43.333 103 88 149 134c11.333 10.667 18.333 16.667 21 18c23.333 14 53.666 18.667 90.999 14c48.667 -6 91.667 -28.667 129 -68l16 14c-0.666992 0.666992 -1.83398 1.66699 -3.50098 3s-4.66699 4.66602 -9 9.99902s-13.5 14.5 -27.5 27.5
s-28.167 24.833 -42.5 35.5c-40.0361 29.7939 -76.1289 48.9092 -108.277 57.3457s-62.8896 12.9883 -92.2227 13.6553s-54.666 -0.5 -75.999 -3.5s-44.666 -8.33301 -69.999 -16c-37.9629 -11.4883 -69.6299 -23.3213 -95.001 -35.499
c0 30.5967 -19.167 69.0967 -57.5 115.5c-6.33301 7.66699 -14.166 16.834 -23.499 27.501c-82.085 68.0703 -165.252 83.9033 -249.5 47.5c-59.1289 -25.5498 -100.962 -68.3828 -125.499 -128.5c-13.333 -32.667 -20 -69 -20 -109c0 -86.667 26.667 -157.334 80 -212.001
s127.666 -82 222.999 -82z" />
</svg>
