<?xml version="1.0" encoding="UTF-8" standalone="no"?>
<!-- Creator: CorelDRAW -->

<svg
   xml:space="preserve"
   width="8.252mm"
   height="1.87mm"
   style="shape-rendering:geometricPrecision; text-rendering:geometricPrecision; image-rendering:optimizeQuality; fill-rule:evenodd; clip-rule:evenodd"
   viewBox="0 0 1.70112 0.385494"
   version="1.1"
   id="svg33"
   sodipodi:docname="Estrutura de corte e preenchimento_2.svg"
   inkscape:version="1.1.2 (b8e25be833, 2022-02-05)"
   xmlns:inkscape="http://www.inkscape.org/namespaces/inkscape"
   xmlns:sodipodi="http://sodipodi.sourceforge.net/DTD/sodipodi-0.dtd"
   xmlns="http://www.w3.org/2000/svg"
   xmlns:svg="http://www.w3.org/2000/svg"><sodipodi:namedview
   id="namedview35"
   pagecolor="#ffffff"
   bordercolor="#666666"
   borderopacity="1.0"
   inkscape:pageshadow="2"
   inkscape:pageopacity="0.0"
   inkscape:pagecheckerboard="0"
   inkscape:document-units="mm"
   showgrid="false"
   inkscape:zoom="20"
   inkscape:cx="15.575"
   inkscape:cy="3.525"
   inkscape:window-width="958"
   inkscape:window-height="1048"
   inkscape:window-x="-7"
   inkscape:window-y="0"
   inkscape:window-maximized="0"
   inkscape:current-layer="SIMBOLOS" />
 <defs
   id="defs25">
  <style
   type="text/css"
   id="style23">
   <![CDATA[
    .str0 {stroke:black;stroke-width:0.0721512}
    .fil0 {fill:none}
    .fil1 {fill:#282829}
   ]]>
  </style>
 </defs>
 <g
   id="SIMBOLOS"
   inkscape:label="SIMBOLOS">
  <metadata
   id="CorelCorpID_0Corel-Layer" />
  <g
   id="_262088288">
   <path
   id="_262088984"
   style="color:#000000;clip-rule:nonzero;fill:#000000;fill-rule:nonzero;stroke-width:18.3342;-inkscape-stroke:none;shape-rendering:auto"
   d="M 9.4179688 0 L 9.4179688 0.009765625 C 9.1682296 0.013709589 8.856298 0.026457302 8.4160156 0.03515625 C 6.7325099 0.068417948 3.3667455 0.14832512 0 0.21484375 L 0.03515625 1.5390625 C 3.4020006 1.4725424 6.7678642 1.3945863 8.4511719 1.3613281 C 9.0711752 1.3490783 9.2829098 1.3559526 9.46875 1.3613281 C 9.4807998 1.5787224 9.5004809 1.8393214 9.5273438 2.1015625 C 9.5277516 2.1062116 9.5288794 2.1105704 9.5292969 2.1152344 C 9.5357095 2.1771925 9.5414774 2.2391373 9.5488281 2.3007812 C 9.5527756 2.3338849 9.5563197 2.3656564 9.5605469 2.3984375 C 9.6293367 2.9358418 9.7497334 3.4050597 9.9550781 3.8671875 C 10.159612 4.3284701 10.434622 4.7945069 10.849609 5.2285156 C 11.263749 5.6621045 11.817959 6.0567762 12.460938 6.3378906 C 13.103501 6.6185797 13.817525 6.7932941 14.431641 6.9101562 C 14.96847 7.0120256 15.476424 7.0672178 16.021484 7.0605469 C 16.060417 7.0600704 16.09934 7.0597017 16.138672 7.0585938 C 16.178003 7.0574858 16.218035 7.0564373 16.257812 7.0546875 C 16.376969 7.0493626 16.496424 7.0401475 16.615234 7.0292969 C 16.654838 7.02568 16.692946 7.0218108 16.732422 7.0175781 C 16.771898 7.0133455 16.812258 7.0087555 16.851562 7.0039062 C 16.890867 6.999057 16.929662 6.9937481 16.96875 6.9882812 C 17.300996 6.9418132 17.624435 6.8745966 17.925781 6.7832031 C 17.943602 6.7777994 17.960853 6.7711869 17.978516 6.765625 C 18.013654 6.7545599 18.049507 6.7441135 18.083984 6.7324219 C 18.635427 6.5454187 19.080092 6.2816683 19.480469 5.9804688 C 19.605588 5.8862167 19.732979 5.7843142 19.859375 5.6757812 C 19.884654 5.6540747 19.908371 5.631614 19.933594 5.609375 C 20.185819 5.3869855 20.435293 5.1376413 20.662109 4.8691406 C 20.990612 4.4798079 21.248565 4.0707964 21.431641 3.6425781 C 21.437904 3.6279249 21.44313 3.6123527 21.449219 3.5976562 C 21.46149 3.568036 21.474768 3.5395607 21.486328 3.5097656 C 21.663672 3.0515423 21.754876 2.5806893 21.802734 2.1621094 C 21.802439 2.1845753 21.823405 2.1305048 21.916016 2.0410156 C 21.977802 1.9813562 22.076325 1.8901095 22.166016 1.7910156 C 22.210934 1.741473 22.256341 1.702537 22.308594 1.6113281 C 22.325395 1.5819719 22.330001 1.527689 22.339844 1.4882812 C 22.469048 1.4791128 22.630973 1.4719639 22.845703 1.46875 C 24.499245 1.4440025 27.847611 1.46875 31.189453 1.46875 L 31.189453 0.14257812 C 27.847611 0.14257812 24.525699 0.11743535 22.845703 0.14257812 C 22.375438 0.14961573 22.043555 0.16280854 21.783203 0.18359375 C 21.781949 0.18369389 21.780548 0.18349319 21.779297 0.18359375 C 21.611285 0.18958865 21.378045 0.20007741 21.019531 0.21484375 C 20.568254 0.23318527 20.15345 0.40359411 19.873047 0.609375 C 19.72729 0.71635131 19.526657 0.81682423 19.193359 1.0019531 C 19.078954 1.0654866 18.478881 1.1823765 17.904297 1.3964844 C 17.46182 1.5613936 17.127552 1.6712767 16.615234 1.71875 C 16.102705 1.7658828 15.387654 1.7520356 14.681641 1.6835938 C 13.97536 1.6147599 13.263108 1.5122088 12.748047 1.3613281 C 12.232557 1.2104204 11.816414 0.98829949 11.279297 0.75195312 C 11.082574 0.66533212 10.879274 0.5749913 10.671875 0.48828125 C 10.656301 0.46288589 10.637063 0.43303113 10.634766 0.4296875 C 10.627898 0.41970564 10.502711 0.25829255 10.492188 0.25 C 10.481652 0.24171441 10.368766 0.16782412 10.3125 0.14257812 C 10.199968 0.092085959 10.079191 0.048531589 9.9902344 0.03515625 C 9.8258622 0.010441508 9.6568281 0.0048612175 9.4394531 0.0078125 L 9.4179688 0 z M 20.5 1.7597656 C 20.495417 1.8233418 20.491243 1.8872663 20.484375 1.953125 C 20.48364 1.9582705 20.483006 1.9633287 20.482422 1.96875 C 20.470906 2.0762508 20.456038 2.1861399 20.435547 2.2949219 C 20.427351 2.3384347 20.417864 2.3822337 20.408203 2.4257812 C 20.369558 2.5999716 20.31861 2.772503 20.255859 2.9433594 C 20.248016 2.9647164 20.240652 2.9865623 20.232422 3.0078125 C 20.224183 3.029041 20.21559 3.0510193 20.207031 3.0722656 C 20.181354 3.1360047 20.154087 3.1999966 20.125 3.2636719 C 20.008652 3.5183732 19.86086 3.7695791 19.658203 4.0097656 C 19.404573 4.3100057 19.045753 4.6095498 18.720703 4.8574219 C 18.699399 4.8736643 18.677218 4.8904544 18.65625 4.90625 C 18.613604 4.9383321 18.571653 4.9683404 18.53125 4.9980469 C 18.498992 5.0217648 18.468864 5.0441171 18.4375 5.0664062 C 18.193444 5.2399308 17.970324 5.3713455 17.654297 5.4785156 C 17.272873 5.6078576 16.752727 5.69584 16.279297 5.7246094 C 16.247735 5.7265273 16.216647 5.7271255 16.185547 5.7285156 C 16.107494 5.7319507 16.030438 5.7347198 15.953125 5.734375 C 15.922331 5.7342439 15.892108 5.7331289 15.861328 5.7324219 C 15.845945 5.7320685 15.829844 5.7329166 15.814453 5.7324219 C 15.444909 5.7205439 15.073589 5.6669975 14.646484 5.5859375 C 14.076856 5.4775458 13.480271 5.3317426 12.998047 5.1210938 C 12.786926 5.0287905 12.590748 4.9253883 12.412109 4.8125 C 12.399195 4.8043391 12.387729 4.795369 12.375 4.7871094 C 12.286947 4.7299903 12.203788 4.6709942 12.125 4.609375 C 12.102489 4.5917695 12.080312 4.5745928 12.058594 4.5566406 C 11.971722 4.4848318 11.889942 4.4090206 11.816406 4.3320312 C 11.522353 4.0244991 11.32564 3.6768583 11.171875 3.3300781 C 11.018161 2.9841469 10.905541 2.6576618 10.849609 2.2207031 C 10.848857 2.2148689 10.848098 2.2088663 10.847656 2.203125 C 10.842603 2.1374196 10.856383 2.0773125 10.849609 2.0058594 C 11.308551 2.2118788 11.780659 2.4347173 12.390625 2.6132812 C 13.041925 2.8040705 13.787205 2.89938 14.539062 2.9726562 C 15.291191 3.0455713 16.059752 3.1039299 16.722656 3.0429688 C 17.385017 2.9815859 17.894822 2.8271359 18.369141 2.6503906 C 18.711458 2.5228397 19.27725 2.4598345 19.837891 2.1484375 C 20.101511 2.0020148 20.312262 1.883626 20.5 1.7597656 z "
   transform="scale(0.05454292)" />
   <path
   id="_262087856"
   class="fil0 str0"
   d="M0.510419 0.0374156c0.0210888,0.0026799 0.0421982,0.00538042 0.0702135,0.017708 0.0279947,0.0123276 0.0629365,0.0342821 0.0999398,0.0482383 0.0370033,0.0139355 0.0761093,0.0198313 0.115875,0.0237068 0.0397656,0.00385494 0.0802322,0.00566903 0.112288,0.00272113 0.0320352,-0.00296851 0.0556595,-0.0106784 0.0806651,-0.0199962 0.0250056,-0.00931782 0.0513511,-0.0202436 0.0709762,-0.0285307 0.0196251,-0.0083077 0.0324887,-0.0139767 0.0422188,-0.0184501 0.00973011,-0.00447338 0.0163268,-0.00775111 0.0344471,-0.0104722 0.0180997,-0.00274175 0.0477435,-0.0049269 0.0773874,-0.00713267" />
   <g
   id="_262088024"
   class="fil1 str0"><path
     style="color:#000000;clip-rule:nonzero;fill:#282829;fill-rule:nonzero;stroke-width:0.0721512;-inkscape-stroke:none;shape-rendering:auto"
     d="m 0.552122,0.0533713 c 4.5352e-4,0.0160382 0.001381,0.0464654 0.004721,0.0723574 0.003401,0.0265723 0.009297,0.0484032 0.0190892,0.0704402 0.009771,0.0220371 0.0233976,0.0443215 0.0427342,0.0645444 0.0193159,0.020223 0.0443009,0.0384051 0.0749961,0.0518252 0.0306746,0.0133995 0.0670388,0.0220371 0.0993213,0.0281802 0.0322619,0.006123 0.0604421,0.009771 0.0913641,0.008411 0.0309013,-0.001381 0.0645238,-0.00773 0.0906632,-0.0165948 0.0261394,-0.008864 0.0447751,-0.020223 0.064998,-0.0354366 0.020223,-0.0152342 0.042054,-0.034344 0.059329,-0.0547937 0.017254,-0.0204497 0.029994,-0.0422806 0.038632,-0.0645444 0.00862,-0.0222638 0.013173,-0.0450018 0.01544,-0.0661318 0.00227,-0.02113 0.032901,-0.0359932 0.032715,-0.0463623 -3.711e-4,-0.0198313 0.063349,-0.0209445 -0.038756,-0.0167391 -0.019275,7.8336e-4 -0.031396,0.0055659 -0.041621,0.0130697 -0.010225,0.0075037 -0.022037,0.0143272 -0.040446,0.024552 -0.018409,0.0102249 -0.050898,0.0143272 -0.0759032,0.023645 -0.0250056,0.009318 -0.0486299,0.0170277 -0.0806651,0.0199962 -0.0320558,0.002948 -0.0725223,0.001134 -0.112288,-0.002721 -0.0397656,-0.003876 -0.0788716,-0.009771 -0.11068,-0.0190892 -0.031829,-0.0093178 -0.0563604,-0.0220577 -0.0843757,-0.0343852 C 0.58584765,0.06675008 0.56921155,0.06002974 0.552122,0.0533713 Z"
     id="path595" /></g>
  </g>
 </g>
</svg>
