<?xml version="1.0" encoding="UTF-8" standalone="no"?>
<!-- Creator: Esri ArcMap 10.9.1.28388 -->

<svg
   width="263.2533pt"
   height="431.76813pt"
   viewBox="0 0 263.25329 431.76812"
   enable-background="new 0 0 566.98583 566.98583"
   version="1.1"
   id="svg844"
   sodipodi:docname="Tepee.svg"
   inkscape:version="1.1.2 (b8e25be833, 2022-02-05)"
   xmlns:inkscape="http://www.inkscape.org/namespaces/inkscape"
   xmlns:sodipodi="http://sodipodi.sourceforge.net/DTD/sodipodi-0.dtd"
   xmlns="http://www.w3.org/2000/svg"
   xmlns:svg="http://www.w3.org/2000/svg">
  <defs
     id="defs848" />
  <sodipodi:namedview
     id="namedview846"
     pagecolor="#ffffff"
     bordercolor="#666666"
     borderopacity="1.0"
     inkscape:pageshadow="2"
     inkscape:pageopacity="0.0"
     inkscape:pagecheckerboard="0"
     inkscape:document-units="pt"
     showgrid="false"
     inkscape:zoom="1.1217211"
     inkscape:cx="193.89847"
     inkscape:cy="279.92698"
     inkscape:window-width="1920"
     inkscape:window-height="1057"
     inkscape:window-x="-8"
     inkscape:window-y="-8"
     inkscape:window-maximized="1"
     inkscape:current-layer="svg844" />
  <g
     id="Layers"
     transform="translate(-138.01701,-73.474979)">
    <g
       id="tepee_1_smoth">
      <clipPath
         id="SVG_CP_1">
        <path
           d="M 0,566.95773 V 0 h 527.88843 v 566.95773 z"
           id="path837" />
      </clipPath>
      <path
         clip-path="url(#SVG_CP_1)"
         fill="none"
         stroke="#000000"
         stroke-width="19.97805"
         stroke-miterlimit="10"
         stroke-linecap="round"
         stroke-linejoin="round"
         d="m 277.77287,231.48724 1.37986,-1.92006 1.91981,-2.70009 4.67955,-6.6602 90.17119,-129.72406 m -98.15041,141.00441 -3.1197,-3.3001 -3.83962,-3.96013 -10.97893,-11.16035 -104.80976,-107.10335 m 122.74801,125.52393 -4.37958,6.00019 -3.95961,5.46017 -4.01961,5.76018 -4.0196,5.88018 -4.01961,5.88018 -3.89962,5.82019 -3.89962,6.00018 -3.77963,5.88019 -3.83963,6.06019 -3.65964,6.00019 -3.71963,6.06018 -3.59965,6.06019 -3.53966,6.1802 -3.47966,6.06019 -3.47966,6.18019 -3.41966,6.2402 -3.29968,6.18019 -3.29968,6.24019 -3.23968,6.2402 -3.17969,6.3002 -3.1197,6.30019 -3.0597,6.3002 -2.9997,6.3602 -2.99971,6.4802 -2.87972,6.3002 -2.81972,6.4802 -2.81973,6.4202 -2.69974,6.4802 -2.93971,7.08023 -2.99971,7.56023 -3.0597,7.68024 -1.85982,4.92016 -0.77992,2.22007 -0.59994,1.74005 -0.47995,1.68005 -0.35997,1.56005 -0.29997,1.62005 -0.23998,1.62005 -0.11998,1.56005 -0.06,1.62005 v 1.62005 l 0.11999,1.62005 0.23998,1.62005 0.23997,1.62005 0.41996,1.56005 0.41996,1.56005 0.59994,1.56005 0.59994,1.56005 0.71993,1.50005 0.77993,1.44004 0.89991,1.38004 0.95991,1.32005 1.0199,1.32004 1.07989,1.26004 1.13989,1.14003 1.19988,1.14004 1.19989,0.96003 1.25987,0.90003 1.25988,0.84002 1.37986,0.78003 1.31988,0.66002 1.49985,0.72002 1.79982,0.72002 2.0998,0.78003 2.9997,1.08003 3.47966,1.14004 3.59965,1.14003 3.71964,1.14004 3.53965,1.02003 3.53966,0.96003 3.53965,0.90003 3.47966,0.84002 3.53966,0.78003 3.47966,0.72002 3.47966,0.72002 3.53965,0.60002 3.53966,0.60002 3.47966,0.54002 3.59964,0.48001 3.53966,0.42002 3.53965,0.42001 3.59965,0.30001 3.59965,0.30001 3.53965,0.24001 3.59965,0.12 3.59965,0.12 3.59965,0.12001 h 3.53965 l 3.53966,-0.06 3.59965,-0.06 3.53965,-0.12 3.59965,-0.24001 3.53965,-0.24001 3.59965,-0.30001 3.59965,-0.3 3.59965,-0.42002 3.89962,-0.48001 3.89962,-0.60002 3.89961,-0.60002 3.83963,-0.66002 3.89962,-0.78003 3.83962,-0.78002 3.83963,-0.90003 3.83962,-0.90003 4.01961,-1.08003 4.0796,-1.14004 4.0796,-1.20003 4.0796,-1.26004 4.01961,-1.32004 3.65964,-1.26004 2.93972,-1.14004 1.25987,-0.54002 1.19989,-0.48001 1.61984,-0.84003 1.61984,-0.84002 1.55985,-0.96003 1.49985,-0.96003 1.43986,-1.14004 1.37987,-1.14003 1.31987,-1.20004 1.31987,-1.32004 1.19988,-1.38005 1.13989,-1.44004 1.0199,-1.44005 1.0199,-1.56005 0.89991,-1.62005 0.89991,-1.62005 0.71993,-1.68005 0.65994,-1.68005 0.59994,-1.80006 0.53995,-1.80005 0.41996,-1.86006 0.29997,-1.86006 0.23998,-1.86006 0.11998,-1.92006 v -1.86006 l -0.06,-1.92006 -0.11999,-1.68005 -0.23998,-1.74005 -0.23997,-1.74006 -0.41996,-2.04006 -0.53995,-2.46008 -0.71993,-2.94009 -0.89991,-3.60011 -1.07989,-3.90013 -1.31988,-4.98015 -1.43986,-4.86015 -1.37986,-4.80015 -1.49985,-4.74015 -1.49986,-4.68015 -1.55984,-4.74015 -1.67984,-4.62014 -1.61984,-4.62014 -1.73983,-4.68015 -1.79983,-4.62015 -1.85982,-4.62014 -1.85981,-4.56014 -1.97981,-4.56015 -1.97981,-4.50014 -2.0398,-4.50014 -2.09979,-4.50014 -1.85982,-3.72011 -1.79982,-3.78012 -1.91982,-3.72012 -1.85982,-3.66011 -1.9798,-3.66012 -1.97981,-3.60011 -1.97981,-3.66011 -2.09979,-3.66012 -2.0398,-3.54011 -2.15979,-3.60011 -2.15979,-3.54011 -2.21978,-3.54011 -2.21979,-3.54011 -2.27977,-3.54011 -2.27978,-3.48011 -2.33977,-3.42011 -2.33977,-3.42011 -2.39977,-3.4201 -2.45976,-3.36011 -2.45976,-3.3601 -2.45976,-3.30011 -2.51975,-3.3001 -2.57975,-3.3001 -2.57975,-3.30011 -2.57975,-3.1801 -2.69973,-3.2401 -2.69974,-3.1801 -2.69973,-3.1801 -2.51976,-2.82008 -2.51975,-2.82009 -3.1197,-3.48011 -2.9997,-3.1801"
         id="path840"
         style="stroke-width:34.0157;stroke-miterlimit:10;stroke-dasharray:none" />
    </g>
  </g>
</svg>
