<?xml version="1.0" standalone="no"?>
<!DOCTYPE svg PUBLIC "-//W3C//DTD SVG 1.1//EN" "http://www.w3.org/Graphics/SVG/1.1/DTD/svg11.dtd" >
<svg xmlns="http://www.w3.org/2000/svg" xmlns:xlink="http://www.w3.org/1999/xlink" version="1.1" viewBox="-10 0 829 1000">
   <path fill="currentColor"
d="M399.96 105.08l-6.46484 12.9277l5.65723 0.807617l7.27246 -0.807617zM399.96 88.1123l-3.23242 2.42285l3.23242 1.61719l2.4248 -1.61719zM391.88 72.7598l8.08203 8.08008l8.08008 -8.08008l370.872 370.064l-12.9277 12.1201l-345.824 -346.632l267.447 523.583
l-15.3516 7.27246l-261.791 -513.888l114.735 623.775l-15.3525 3.23242l-110.695 -594.688l-109.888 594.688l-16.1602 -3.23242l114.735 -619.735l-261.792 509.848l-14.5439 -7.27246l269.872 -524.391l-348.248 347.439l-9.9834 -10.6973
c10.918 73.1904 37.0049 138.029 78.2598 194.518c50.8301 69.5977 121.8 114.711 212.908 135.34c28.5488 6.46387 58.1758 9.69531 88.8799 9.69531h1.61523c53.8662 0 104.097 -9.56152 150.691 -28.6846c46.5947 -19.1221 87.3984 -46.459 122.411 -82.0107
c35.0137 -35.5527 62.6201 -80.3965 82.8203 -134.532s30.2998 -114.062 30.2998 -179.78c-1.07715 -10.2344 -4.30957 -24.374 -9.69629 -42.4199c-5.38672 -18.0449 -12.3896 -29.4912 -21.0078 -34.3398l-54.1357 -38.7842
c-33.585 -24.5879 -63.2998 -46.6006 -89.1445 -66.0391c-25.8457 -19.4375 -49.6357 -37.2607 -71.3691 -53.4707c-21.7324 -16.209 -68.4199 -51.7861 -140.063 -106.73c-138.129 104.413 -239.398 180.096 -303.808 227.048l-8.33301 5.72949
c-24.7373 18.0195 -40.0049 28.7686 -45.8027 32.2471c-9.15723 4.84863 -16.2949 16.4297 -21.4121 34.7432c-5.11719 18.3154 -8.21484 32.0518 -9.29199 41.209c0 29.042 1.94141 56.9961 5.82422 83.8633zM337.073 46.9805
c41.6182 -31.2939 62.8535 -46.9404 63.6992 -46.9404h8.8877c22.0713 16.6729 42.0586 31.7568 59.9629 45.251c100.963 0.246094 166.354 5.63184 196.174 16.1572c15.6221 5.9248 27.3379 17.3711 35.1484 34.3389c15.8447 34.4209 22.25 80.3633 19.2168 137.827
c23.5791 16.8564 39.6631 28.1475 48.251 33.873c12.3896 7.00293 22.8936 24.5098 31.5117 52.5205l8.08008 37.168v0.808594c0 67.8721 -10.5039 129.953 -31.5117 186.243c-21.0088 56.291 -49.9619 102.886 -86.8604 139.784
c-36.8984 36.8994 -79.7227 65.4492 -128.473 85.6494c-48.749 20.2002 -100.865 30.2998 -156.349 30.2998h-1.61523c-56.0215 0 -108.407 -10.0996 -157.157 -30.2998c-48.749 -20.2002 -91.4385 -48.75 -128.068 -85.6494
c-36.6289 -36.8984 -65.4473 -83.4932 -86.4561 -139.784c-21.0078 -56.29 -31.5117 -118.371 -31.5117 -186.243v-0.808594c7.04395 -49.3105 20.2412 -79.2061 39.5918 -89.6875c4.77441 -2.72852 20.8555 -14.0176 48.2432 -33.8662
c-3.03125 -55.501 2.7041 -99.4258 17.2051 -131.774c9.15723 -20.4688 22.3545 -33.8008 39.5918 -39.9951c17.2373 -6.19531 55.2129 -10.6396 113.927 -13.333zM314.63 63.8721c-85.3574 0.0146484 -140.943 4.8623 -166.76 14.5439
c-11.3125 3.77051 -20.4697 13.332 -27.4717 28.6836c-11.4971 25.2041 -16.6143 63.0459 -15.3525 113.524c39.2959 -28.8799 109.157 -81.1309 209.584 -156.752zM493.693 62.2559c112.952 85.4033 174.02 131.594 183.206 138.572
c9.18457 6.97852 17.873 13.5771 26.0645 19.7959c2.1709 -47.7578 -2.94629 -85.7344 -15.3516 -113.929c-7.00195 -15.6201 -16.1592 -25.585 -27.4717 -29.8945c-16.6982 -6.46387 -53.5967 -10.7734 -110.695 -12.9287
c-14.0049 -1.07715 -32.5889 -1.61621 -55.752 -1.61621z" />
</svg>
