<?xml version="1.0" standalone="no"?>
<!DOCTYPE svg PUBLIC "-//W3C//DTD SVG 1.1//EN" "http://www.w3.org/Graphics/SVG/1.1/DTD/svg11.dtd" >
<svg xmlns="http://www.w3.org/2000/svg" xmlns:xlink="http://www.w3.org/1999/xlink" version="1.1" viewBox="-10 0 1010 1000">
   <path fill="currentColor"
d="M496 374c-7.33301 -7.33301 -14.667 -13.6689 -22 -19.002c-26 -20 -42.667 -35.333 -50 -46s-11 -20.667 -11 -30c0 -13.333 6.66699 -25.333 20 -36c12.667 -10 31.667 -15 57 -15h5c32.667 0 58.334 6.33301 77.001 19c11.333 8 17 17.333 17 28c0 6 -2 11 -6 15
c-4.66699 4 -10 6 -16 6c-4 0 -7.33301 -0.666992 -10 -2c-4 -2.66699 -11.667 -10 -23 -22c-10.667 -11.333 -19.334 -18.666 -26.001 -21.999c-8 -4 -17.667 -6 -29 -6c-15.333 0 -27 3.33301 -35 10s-12.333 14 -13 22c0 8 4.66699 16.667 14 26s30 23.666 62 42.999
c40 24 67 46 81 66c14.667 20.667 22 43.334 22 68.001c0 36 -12.333 66.333 -37 91c-24 25.333 -52.667 38 -86 38c-30 0 -55 -10.333 -75 -31c-20.667 -20.667 -31 -46.667 -31 -78c0 -18 4.33301 -35.667 13 -53c8 -17.333 20 -32 36 -44
c16.667 -11.333 38.667 -20.666 66 -27.999zM509.999 386.997c-27.333 4.66699 -47.667 15.3359 -61 32.0029c-13.333 17.333 -20.333 41.666 -21 72.999c0 32 7 56.333 21 73c13.333 16.667 29 25 47 25c21.333 0 38 -8.66699 50 -26s18 -39.333 18 -66
c0 -14.667 -2 -28.334 -6 -41.001s-9 -23.334 -15 -32.001c-4.66699 -6 -15.667 -18.667 -33 -38z" />
</svg>
