<?xml version="1.0" standalone="no"?>
<!DOCTYPE svg PUBLIC "-//W3C//DTD SVG 1.1//EN" "http://www.w3.org/Graphics/SVG/1.1/DTD/svg11.dtd" >
<svg xmlns="http://www.w3.org/2000/svg" xmlns:xlink="http://www.w3.org/1999/xlink" version="1.1" viewBox="-10 0 1012 1000">
   <path fill="currentColor"
d="M868 417h-733c-10 29.333 -30 44 -60 44c-17.333 0 -32.333 -6.33301 -45 -19s-19 -28 -19 -46s6.16699 -33.333 18.5 -46s27.5 -19 45.5 -19c29.333 0 49 14 59 42c0.666992 2 1.66699 4.66699 3 8h729c7.33301 -33.333 28.333 -50 63 -50
c17.333 0 32.166 6.33301 44.499 19s18.5 28 18.5 46s-6.16699 33.333 -18.5 46s-27.166 19 -44.499 19c-30.667 0 -51 -14.667 -61 -44z" />
</svg>
