<?xml version="1.0" standalone="no"?>
<!DOCTYPE svg PUBLIC "-//W3C//DTD SVG 1.1//EN" "http://www.w3.org/Graphics/SVG/1.1/DTD/svg11.dtd" >
<svg xmlns="http://www.w3.org/2000/svg" xmlns:xlink="http://www.w3.org/1999/xlink" version="1.1" viewBox="-10 0 1010 1000">
   <path fill="currentColor"
d="M579 285h43l-34 119c-0.666992 2.66699 -4.33398 14.334 -11.001 35.001c6.66699 26.667 11.667 42.667 15 48c6.66699 9.33301 14.667 14 24 14c6.66699 0 13.334 -2.66699 20.001 -8c6 -6 9.66699 -15 11 -27h11c-2.66699 25.333 -8 42.666 -16 51.999
s-17.333 14 -28 14c-10 0 -19 -4 -27 -12c-8 -8.66699 -15.333 -26.667 -22 -54c-8 15.333 -15.667 26.666 -23 33.999c-10.667 10.667 -21.667 19 -33 25c-12 5.33301 -25.667 8 -41 8c-38.667 0 -67 -13 -85 -39c-18 -25.333 -27 -54.666 -27 -87.999
c0 -38 10.667 -69 32 -93s46 -36 74 -36c20 0 37.667 6.33301 53 19c15.333 12 29 34.333 41 67zM547 393c-9.33301 -36 -21.332 -61.333 -35.999 -76c-14.667 -14 -30 -21 -46 -21c-17.333 0 -31.333 9.33301 -42 28c-11.333 18.667 -17 48.667 -17 90
c0 24.667 2.33301 43.667 7 57c4.66699 14 12 24.667 22 32s20.333 11.333 31 12c13.333 0 25.666 -6.33301 36.999 -19c15.333 -16.667 30 -51 44 -103z" />
</svg>
