<?xml version="1.0" standalone="no"?>
<!DOCTYPE svg PUBLIC "-//W3C//DTD SVG 1.1//EN" "http://www.w3.org/Graphics/SVG/1.1/DTD/svg11.dtd" >
<svg xmlns="http://www.w3.org/2000/svg" xmlns:xlink="http://www.w3.org/1999/xlink" version="1.1" viewBox="-10 0 1010 1000">
   <path fill="currentColor"
d="M201 300l0.000976562 39.001h-81c-6 57.333 -9 96.666 -9 117.999c0 16.667 3 28.667 9 36s14 11.333 24 12c7.33301 0 13.666 -2.66699 18.999 -8c5.33301 -4.66699 9 -13 11 -25h10c-3.33301 28.667 -10 48.667 -20 60c-10 10.667 -21.333 16 -34 16
c-14 0 -25.333 -6.33301 -34 -19c-9.33301 -12.667 -14 -35 -14 -67c0 -25.333 3 -66.333 9 -123h-24c-14 0 -25.333 2.33301 -34 7c-8 5.33301 -15.667 15.333 -23 30h-10c12.667 -33.333 24 -54.333 34 -63s24 -13 42 -13h125z" />
</svg>
