<?xml version="1.0" standalone="no"?>
<!DOCTYPE svg PUBLIC "-//W3C//DTD SVG 1.1//EN" "http://www.w3.org/Graphics/SVG/1.1/DTD/svg11.dtd" >
<svg xmlns="http://www.w3.org/2000/svg" xmlns:xlink="http://www.w3.org/1999/xlink" version="1.1" viewBox="-10 0 1010 1000">
   <path fill="currentColor"
d="M338 284c-31.333 53.333 -61.166 94.167 -89.499 122.5s-55.833 50 -82.5 65s-52.5 26.167 -77.5 33.5s-49.167 16.666 -72.5 27.999c54.667 -95.333 103.667 -153.666 147 -174.999s101.666 -46 174.999 -74zM305 309.001c-58.667 22 -105.168 41.499 -139.501 58.499
s-73.166 63.5 -116.499 139.5c37.333 -18 77 -34.167 119 -48.5s87.667 -64.166 137 -149.499zM561.999 284c-31.333 53.333 -61.3301 94.167 -89.9971 122.5s-56.334 50 -83.001 65s-52.334 26.167 -77.001 33.5s-48.667 16.666 -72 27.999
c54.667 -95.333 103.667 -153.666 147 -174.999s101.666 -46 174.999 -74zM529.002 309.001c-58.667 22 -105.331 41.499 -139.998 58.499s-73.667 63.5 -117 139.5c37.333 -18 77.166 -34.167 119.499 -48.5s88.166 -64.166 137.499 -149.499zM776.005 284
c-31.333 53.333 -61.166 94.167 -89.499 122.5s-55.833 50 -82.5 65s-52.5 26.167 -77.5 33.5s-49.167 16.666 -72.5 27.999c54.667 -95.333 103.667 -153.666 147 -174.999s101.666 -46 174.999 -74zM743.005 309.001c-58.667 22 -105.168 41.499 -139.501 58.499
s-73.166 63.5 -116.499 139.5c37.333 -18 77 -34.167 119 -48.5s87.667 -64.166 137 -149.499zM981.004 284c-31.333 53.333 -61.166 94.167 -89.499 122.5s-55.833 50 -82.5 65s-52.5 26.167 -77.5 33.5s-49.167 16.666 -72.5 27.999
c54.667 -95.333 103.667 -153.666 147 -174.999s101.666 -46 174.999 -74zM948.004 309.001c-58.667 22 -105.168 41.499 -139.501 58.499s-73.166 63.5 -116.499 139.5c37.333 -18 77 -34.167 119 -48.5s87.667 -64.166 137 -149.499z" />
</svg>
