<?xml version="1.0" standalone="no"?>
<!DOCTYPE svg PUBLIC "-//W3C//DTD SVG 1.1//EN" "http://www.w3.org/Graphics/SVG/1.1/DTD/svg11.dtd" >
<svg xmlns="http://www.w3.org/2000/svg" xmlns:xlink="http://www.w3.org/1999/xlink" version="1.1" viewBox="-10 0 1010 1000">
   <path fill="currentColor"
d="M590 594l1.99902 24c-90.667 0 -159 -8.66699 -205 -26c-21.333 -8 -34.666 -19 -39.999 -33c-7.33301 -20 -11 -37.667 -11 -53c0 -31.333 15.667 -52.333 47 -63c48.667 -16.667 93.334 -25 134.001 -25c10.667 0 20.334 -1.66699 29.001 -5h-496v-27h496
c-8 -2 -18.333 -3.66699 -31 -5s-30.334 -3.33301 -53.001 -6c-23.333 -2.66699 -45 -8 -65 -16c-38.667 -15.333 -58 -39.333 -58 -72c0 -9.33301 1.66699 -19.333 5 -30c10 -32 46.667 -55.333 110 -70c43.333 -10 82.333 -15 117 -15h17l-2 27
c-49.333 3.33301 -88 7.66602 -116 12.999c-58.667 11.333 -90.667 31 -96 59c-0.666992 3.33301 -1 6.33301 -1 9c2.66699 18.667 10 32 22 40c16 10.667 35.667 18.334 59 23.001c18 4 40.667 7.33301 68 10c38.667 4 62.667 15 72 33h357v27h-358
c-7.33301 12 -20 20 -38 24s-39.5 7 -64.5 9s-47.833 6.16699 -68.5 12.5s-36 15.833 -46 28.5c-4.66699 6 -7 13.333 -7 22c0 10 3 22 9 36c9.33301 22 41.666 34.667 96.999 38c54 4 92.333 7.66699 115 11z" />
</svg>
