<?xml version="1.0" standalone="no"?>
<!DOCTYPE svg PUBLIC "-//W3C//DTD SVG 1.1//EN" "http://www.w3.org/Graphics/SVG/1.1/DTD/svg11.dtd" >
<svg xmlns="http://www.w3.org/2000/svg" xmlns:xlink="http://www.w3.org/1999/xlink" version="1.1" viewBox="-10 0 1010 1000">
   <path fill="currentColor"
d="M378 367v-110h-71l103 -174l103 174h-71v110h364v-71l173 103l-173 103v-71h-364v110h71l-103 174l-103 -174h71l1 -111l-365 1v-64h364zM402 390l-357 1v16l357 -1v151h-64l72 127l72 -127h-64v-150h411v49l103 -57l-103 -56v48l-411 -1v-149h64l-72 -126l-72 126h64
v149z" />
</svg>
