<?xml version="1.0" standalone="no"?>
<!DOCTYPE svg PUBLIC "-//W3C//DTD SVG 1.1//EN" "http://www.w3.org/Graphics/SVG/1.1/DTD/svg11.dtd" >
<svg xmlns="http://www.w3.org/2000/svg" xmlns:xlink="http://www.w3.org/1999/xlink" version="1.1" viewBox="-10 0 1010 1000">
   <path fill="currentColor"
d="M756 331h226c-0.666992 63.333 -20.334 109 -59.001 137c-39.333 28.667 -84.666 44.667 -135.999 48c-6 0.666992 -17 1 -33 1c-2.07031 0.0351562 -4.15039 0.0527344 -6.24121 0.0527344c-37.6289 0 -78.5488 -5.68457 -122.76 -17.0527
c-54 -14 -99.333 -32.333 -136 -55c-62 -38.667 -126.333 -58 -193 -58c-13.333 0 -27 0.666992 -41 2c-81.333 8 -154.333 49.667 -219 125l-19 -28c62.667 -75.333 138 -119.666 226 -132.999c18 -2.66699 35.667 -4 53 -4c70.667 1.33301 136 20.333 196 57
c31.333 19.333 68.333 36 111 50c28 9.33301 74.667 18 140 26c6 0.666992 11.667 1 17 1c40.667 -0.666992 77.334 -8.33398 110.001 -23.001c38 -16 63 -48.333 75 -97l-190 -3z" />
</svg>
