<?xml version="1.0" standalone="no"?>
<!DOCTYPE svg PUBLIC "-//W3C//DTD SVG 1.1//EN" "http://www.w3.org/Graphics/SVG/1.1/DTD/svg11.dtd" >
<svg xmlns="http://www.w3.org/2000/svg" xmlns:xlink="http://www.w3.org/1999/xlink" version="1.1" viewBox="-10 0 1010 1000">
   <path fill="currentColor"
d="M585 464l250.999 252.001l-80 77l-258 -251l-258 258l-80 -78l260 -258l-180 -189l-110 119l-54 -55c0 -34 7.33301 -70.333 22 -109c14 -36.667 34.667 -71 62 -103c30.667 -26.667 61.334 -46.334 92.001 -59.001c33.333 -14 67.333 -21 102 -21l28 2l45 46l-109 102
l180 188l196 -194c-8.66699 -24.667 -18.334 -45 -29.001 -61c-14 -20.667 -30 -40 -48 -58c-0.666992 -0.666992 -17 -12.334 -49 -35.001c-16.667 -12 -34.667 -24 -54 -36c55.333 0 110.333 11.667 165 35s106 57.333 154 102c44 40.667 76 89.334 96 146.001
s30 113.667 30 171c-13.333 -37.333 -39.333 -73.666 -78 -108.999c-11.333 -10.667 -27.666 -24.334 -48.999 -41.001c-16 -12.667 -36 -25 -60 -37z" />
</svg>
