<?xml version="1.0" standalone="no"?>
<!DOCTYPE svg PUBLIC "-//W3C//DTD SVG 1.1//EN" "http://www.w3.org/Graphics/SVG/1.1/DTD/svg11.dtd" >
<svg xmlns="http://www.w3.org/2000/svg" xmlns:xlink="http://www.w3.org/1999/xlink" version="1.1" viewBox="-11 0 1021 1000">
   <path fill="currentColor"
d="M868 418l-351.998 0.000976562v160l-33 -1v-159l-353 1c-10.667 30.667 -31.334 46 -62.001 46h-2c-18.667 0 -34.5 -6.83301 -47.5 -20.5s-19.5 -29.834 -19.5 -48.501c0 -19.333 6.5 -35.833 19.5 -49.5s28.833 -20.5 47.5 -20.5c31.333 0 52.666 15.333 63.999 46
c1.33301 2.66699 2.33301 5.33398 3 8.00098h350v-163h33v163h350c8 -36 30 -54 66 -54c18.667 0 34.667 6.83301 48 20.5s20 30.167 20 49.5s-6.66699 35.666 -20 48.999s-29.333 20 -48 20c-32 0 -53.333 -15.667 -64 -47z" />
</svg>
