<?xml version="1.0" standalone="no"?>
<!DOCTYPE svg PUBLIC "-//W3C//DTD SVG 1.1//EN" "http://www.w3.org/Graphics/SVG/1.1/DTD/svg11.dtd" >
<svg xmlns="http://www.w3.org/2000/svg" xmlns:xlink="http://www.w3.org/1999/xlink" version="1.1" viewBox="-10 0 1010 1000">
   <path fill="currentColor"
d="M850 550c-63.333 -7.33301 -112.835 -24.165 -148.502 -50.498s-65.334 -55.333 -89.001 -87s-45.5 -61.834 -65.5 -90.501c-17.333 -26.667 -46.166 -49.5 -86.499 -68.5s-89.666 -28.5 -147.999 -28.5s-109.833 8.66699 -154.5 26c44 13.333 78.667 31.333 104 54
s60 74.667 104 156c10.667 49.333 37.167 86.5 79.5 111.5s95.5 37.5 159.5 37.5c39.333 0 81.333 -5.33301 126 -16s84.334 -25.334 119.001 -44.001zM17.998 260.001c81.333 -44.667 182.667 -67 304 -67c33.333 0 69.333 6 108 18c51.333 16 89.333 39 114 69
c31.333 39.333 64 78 98 116c46.667 52.667 91 85.667 133 99c48.667 15.333 116.667 28.666 204 39.999c-27.333 20.667 -82.666 47 -165.999 79c-71.333 27.333 -150 41 -236 41c-40.667 0 -83.667 -9 -129 -27c-54.667 -21.333 -94 -64.666 -118 -129.999
c-62.667 -100.667 -117.334 -166.667 -164.001 -198c-22 -14.667 -45 -24 -69 -28c-22.667 -3.33301 -49 -7.33301 -79 -12z" />
</svg>
