<?xml version="1.0" standalone="no"?>
<!DOCTYPE svg PUBLIC "-//W3C//DTD SVG 1.1//EN" "http://www.w3.org/Graphics/SVG/1.1/DTD/svg11.dtd" >
<svg xmlns="http://www.w3.org/2000/svg" xmlns:xlink="http://www.w3.org/1999/xlink" version="1.1" viewBox="-10 0 1010 1000">
   <path fill="currentColor"
d="M983 481l-0.000976562 40.001h-965v-40h298c0.666992 -30.667 13.334 -70.334 38.001 -119.001c24 -47.333 71.333 -71 142 -71c62 0 108 19 138 57c29.333 36.667 44.333 81 45 133h304zM635.999 481.001c0 -42 -11.334 -78 -34.001 -108
c-23.333 -30.667 -60.333 -46 -111 -46c-49.333 0 -84.666 19 -105.999 57c-18.667 33.333 -28 61.333 -28 84c0 4 0.333008 8.33301 1 13h278zM650.998 293.001l122 13l-20 23l-54 -5l119 113l-21 23l-157 -154zM349.998 293.001l12 13l-158 154l-21 -23l119 -113l-54 5
l-20 -23z" />
</svg>
