<?xml version="1.0" standalone="no"?>
<!DOCTYPE svg PUBLIC "-//W3C//DTD SVG 1.1//EN" "http://www.w3.org/Graphics/SVG/1.1/DTD/svg11.dtd" >
<svg xmlns="http://www.w3.org/2000/svg" xmlns:xlink="http://www.w3.org/1999/xlink" version="1.1" viewBox="-10 0 1010 1000">
   <path fill="currentColor"
d="M413 490l-0.000976562 -176.004c0 -15.333 -1 -25.666 -3 -30.999s-4.33301 -9.33301 -7 -12c-3.33301 -2.66699 -7.33301 -4 -12 -4c-6 0 -11.333 2.66699 -16 8c-4.66699 4.66699 -8 15 -10 31h-11c2.66699 -23.333 8.66699 -39.666 18 -48.999s22 -14 38 -14
c14 0 25 4 33 12c8 8.66699 12.333 24 13 46c22.667 -25.333 40 -41.333 52 -48c12.667 -6.66699 25.334 -10 38.001 -10c16.667 0 30.334 4 41.001 12s17.667 18.333 21 31s5.33301 35 6 67v158c0 26.667 0.666992 45.334 2 56.001s3.66602 23.334 6.99902 38.001h-44
c-4 -16.667 -6.33301 -27.334 -7 -32.001c-1.33301 -14 -2.33301 -26.667 -3 -38v-192c0 -24 -2 -40 -6 -48c-7.33301 -13.333 -19 -20 -35 -20c-10.667 0 -21.667 3.33301 -33 10c-10.667 6.66699 -23.667 18.334 -39 35.001v170h-43z" />
</svg>
