<?xml version="1.0" standalone="no"?>
<!DOCTYPE svg PUBLIC "-//W3C//DTD SVG 1.1//EN" "http://www.w3.org/Graphics/SVG/1.1/DTD/svg11.dtd" >
<svg xmlns="http://www.w3.org/2000/svg" xmlns:xlink="http://www.w3.org/1999/xlink" version="1.1" viewBox="-11 0 1011 1000">
   <path fill="currentColor"
d="M186 250v232c13.333 -2.66699 24 -7.33398 32 -14.001c8 -7.33301 15.333 -19.666 22 -36.999c6 -17.333 11 -48 15 -92c3.33301 -36 9 -61.333 17 -76c7.33301 -13.333 20 -20 38 -20h3c6 0 16 1.33301 30 4v9c-7.33301 0 -13 1.33301 -17 4
c-5.33301 4 -9.33301 10.667 -12 20c-3.33301 9.33301 -6.33301 26.666 -9 51.999c-4 40.667 -9.66699 70 -17 88c-5.33301 13.333 -14 26 -26 38c-11.333 12 -23 21 -35 27s-25.667 10 -41 12v108h-29v-108c-24 -3.33301 -44.667 -11.666 -62 -24.999
c-18 -13.333 -31.333 -30.333 -40 -51c-6.66699 -16 -12.334 -46 -17.001 -90c-2.66699 -26 -5.66699 -43.667 -9 -53s-7.33301 -15.666 -12 -18.999c-3.33301 -2 -9 -3 -17 -3v-9c15.333 -3.33301 25.333 -4.66602 30 -3.99902c10 0 19.667 3 29 9
c8.66699 6 15.334 14.667 20.001 26c4.66699 12 8 32.333 10 61c3.33301 43.333 8 73.666 14 90.999s13 29.666 21 36.999s19 12.333 33 15v-232h29z" />
</svg>
