<?xml version="1.0" standalone="no"?>
<!DOCTYPE svg PUBLIC "-//W3C//DTD SVG 1.1//EN" "http://www.w3.org/Graphics/SVG/1.1/DTD/svg11.dtd" >
<svg xmlns="http://www.w3.org/2000/svg" xmlns:xlink="http://www.w3.org/1999/xlink" version="1.1" viewBox="-10 0 1010 1000">
   <path fill="currentColor"
d="M562 249l43.998 0.000976562c-2 4.66699 -16.333 34.334 -43 89.001c-10.667 21.333 -18.667 38.333 -24 51c-0.666992 1.33301 -3 6.33301 -7 15l-30 65c1.33301 12 2.33301 22.333 3 31c0.666992 10 1 18.333 1 25c0 24 -2 42.333 -6 55
c-2.66699 9.33301 -5.66699 15.666 -9 18.999c-4 3.33301 -8.33301 5 -13 5c-6 0 -11.333 -2.33301 -16 -7s-6.66699 -11 -6 -19c0 -14 2.66699 -29.667 8 -47c5.33301 -18 13.333 -37.667 24 -59c-12.667 -89.333 -23 -143 -31 -161
c-7.33301 -18.667 -17.666 -28 -30.999 -28c-8 0 -14.667 2.33301 -20 7c-4.66699 4.66699 -8 16 -10 34h-10c0 -6.66699 -0.333008 -10.667 -1 -12c0 -24 4.66699 -42 14 -54c7.33301 -9.33301 17 -14 29 -14c10.667 0 19.334 3.33301 26.001 10
c9.33301 9.33301 17.333 28.666 24 57.999c9.33301 39.333 16.333 81.333 21 126l23 -78c10 -34 23.333 -71 40 -111z" />
</svg>
