<?xml version="1.0" standalone="no"?>
<!DOCTYPE svg PUBLIC "-//W3C//DTD SVG 1.1//EN" "http://www.w3.org/Graphics/SVG/1.1/DTD/svg11.dtd" >
<svg xmlns="http://www.w3.org/2000/svg" xmlns:xlink="http://www.w3.org/1999/xlink" version="1.1" viewBox="-10 0 1010 1000">
   <path fill="currentColor"
d="M292 340h-118c26.667 14.667 46.667 30.667 60 48c13.333 18 20.333 38.667 21 62c0 26.667 -11 49.667 -33 69s-51 29 -87 29c-38 0 -70 -13 -96 -39s-39 -57.333 -39 -94c0 -22 5.33301 -42 16 -60s24.667 -31.667 42 -41s43 -14 77 -14h157v40zM155 340
l-17 -0.000976562c-32 0 -55.333 6.66699 -70 20s-22 32 -22 56v3c0 33.333 9 60.333 27 81c18 20 39.333 30 64 30c20 0 36.667 -7.33301 50 -22s20 -36 20 -64v-4c0 -37.333 -17.333 -70.666 -52 -99.999z" />
</svg>
