<?xml version="1.0" standalone="no"?>
<!DOCTYPE svg PUBLIC "-//W3C//DTD SVG 1.1//EN" "http://www.w3.org/Graphics/SVG/1.1/DTD/svg11.dtd" >
<svg xmlns="http://www.w3.org/2000/svg" xmlns:xlink="http://www.w3.org/1999/xlink" version="1.1" viewBox="-10 0 1010 1000">
   <path fill="currentColor"
d="M839 792l-598 -595.001l-16 16l-14 12c-4 4 -11 12.333 -21 25c-7.33301 9.33301 -16.333 21.666 -27 36.999c-14.667 21.333 -27 40.333 -37 57c-13.333 22.667 -28.666 50.667 -45.999 84c8 -38.667 13.667 -65 17 -79c9.33301 -37.333 14.666 -57.666 15.999 -60.999
c8.66699 -27.333 13 -46.333 13 -57c57.333 -119.333 138 -195.333 242 -228l37 88c-9.33301 6.66699 -24 15.334 -44 26.001l-65 35l616 558z" />
</svg>
