<?xml version="1.0" standalone="no"?>
<!DOCTYPE svg PUBLIC "-//W3C//DTD SVG 1.1//EN" "http://www.w3.org/Graphics/SVG/1.1/DTD/svg11.dtd" >
<svg xmlns="http://www.w3.org/2000/svg" xmlns:xlink="http://www.w3.org/1999/xlink" version="1.1" viewBox="-10 0 1010 1000">
   <path fill="currentColor"
d="M809 398v-85h52l33 65l34 -65h52v85h-33v-69l-34 69h-36l-35 -69v69h-33zM746 398c-0.666992 -0.666992 -1.99805 -4.00098 -3.99805 -10.001v-9c-0.666992 -5.33301 -2.66699 -9 -6 -11c-4 -2 -10.333 -3 -19 -3h-38v33h-35v-85h83c35.333 0 53.666 8 54.999 24
c0 10.667 -8.66699 17.334 -26 20.001c7.33301 1.33301 12.666 3.33301 15.999 6s5.33301 7 6 13v11c0 5.33301 2.33301 8.33301 7 9v2h-39zM747.002 338.999c0 -8 -8.33301 -12 -25 -12h-43v23h42c16 0 24.667 -3.66699 26 -11zM621.002 339.999
c0 18.667 -17.333 28 -52 28h-43v30h-35v-85h76c36 0 54 9 54 27zM587.002 339.999c0 -7.33301 -8.33301 -11.667 -25 -13h-35v25h33c16.667 0 25.667 -4 27 -12zM463.002 368.998c-2.66699 21.333 -28.332 32 -76.999 32c-24 0 -43 -4 -57 -12s-21 -19 -21 -33
c0 -30.667 27.667 -46 83 -46c45.333 0 69.333 10.333 72 31h-34c-2.66699 -10 -15.334 -15 -38.001 -15c-31.333 0 -47 9.83301 -47 29.5s17.333 29.5 52 29.5c18 0 29 -5.33301 33 -16h34zM981.004 484.998h-13v-46h13v46zM945.004 484.998v-35h13v35h-13z
M945.004 446.998v-9h13v9h-13zM939.004 474.998c0 7.33301 -5.66797 11.001 -17.001 11.001s-17 -3.66699 -17 -11v-1h12c0 2.66699 1.66699 4.66699 5 6s5 0 5 -4c0 -2 -0.333008 -3 -1 -3c-3.33301 0 -7.66602 -1.33301 -12.999 -4s-8 -5.66699 -8 -9
c0 -7.33301 5.5 -11 16.5 -11s16.5 3.66699 16.5 11v1l-12 -1c0 -2.66699 -1 -4 -3 -4h-4c-0.666992 0.666992 -1 1.66699 -1 3s2.33301 2.66602 7 3.99902s7.16699 2.16602 7.5 2.49902s1.5 1.33301 3.5 3s3 3.83398 3 6.50098zM881.003 448.999l13.001 2.00293
c3.33301 2 5 5.66699 5 11v20c0 1.33301 0.666992 2.33301 2 3h-14l-1 -3c-4 2.66699 -8.66699 4 -14 4s-8.5 -2.33301 -9.5 -7s-0.5 -7.83398 1.5 -9.50098s5.5 -3.33398 10.5 -5.00098s6.16699 -1.83398 3.5 -0.500977c5.33301 -1.33301 7.66602 -3 6.99902 -5
c0 -2 -1.5 -3 -4.5 -3s-4.5 1.66699 -4.5 5h-13c0 -8 6 -12 18 -12zM885.004 468.002c-6.66699 1.33301 -10 3.5 -10 6.5s1.66699 4.5 5 4.5s5 -2.33301 5 -7v-4zM857.004 461.002l-4 -1c-4 0 -6 2.66699 -6 8v17h-13v-35h12v5c1.33301 -2 5 -4 11 -6v12zM817.004 460.002
c6 2.66699 9 6.83203 9 12.499s-2.66699 9.33398 -8 11.001s-10.333 2.16699 -15 1.5h-18v-46h22c11.333 0 17 3.66699 17 11c0 4 -2.33301 7.33301 -7 10zM811.004 471c0 -4 -3.33301 -6 -10 -6h-1v12h1c6.66699 0 10 -2 10 -6zM800.004 446v11h1c6 0 9 -1.66699 9 -5
c0 -4 -3.33301 -6 -10 -6zM718.004 468c0 -12.667 6.00098 -19 18.001 -19c6.66699 0 11.334 1.33301 14.001 4s4 7.66699 4 15c0 6.66699 -1.33301 11.334 -4 14.001s-7.33398 4 -14.001 4s-11.334 -1.33301 -14.001 -4s-4 -7.33398 -4 -14.001zM736.005 479
c2.66699 0 4 -2.99902 4 -8.99902s-0.333008 -10 -1 -12c-0.666992 -1.33301 -2 -1.83301 -4 -1.5s-3 4.16602 -3 11.499s1.33301 11 4 11zM675.005 469.001c0 -13.333 4 -20 12 -20c4 0 7.33301 1.33301 10 4v-14h13v46h-12v-3c-2.66699 2.66699 -5.66699 4 -9 4h-7
c-4 -2 -6.16699 -4.16699 -6.5 -6.5s-0.5 -5.83301 -0.5 -10.5zM697.005 466.001c0 -5.33301 -1.5 -8.00195 -4.5 -8.00195s-4.5 2.83301 -4.5 8.5s0.333008 9.16699 1 10.5s2 1.83301 4 1.5s3 -1.16602 3 -2.49902c0.666992 -1.33301 1 -4.66602 1 -9.99902z
M610.005 467.999c0 -6.66699 1 -11.666 3 -14.999c2.66699 -2.66699 7.33398 -4 14.001 -4s11.334 1.33301 14.001 4s4 7.5 4 14.5s-1.33301 11.833 -4 14.5s-7.33398 4 -14.001 4s-11.334 -1.33301 -14.001 -4c-2 -2.66699 -3 -7.33398 -3 -14.001zM627.005 479
c3.33301 0 5.00098 -3.16895 5.00098 -9.50195s-0.333008 -10.166 -1 -11.499s-2.33398 -1.66602 -5.00098 -0.999023c-2 0 -3 3.66699 -3 11s1.33301 11 4 11zM585.006 478.998c2.66699 0 4 -1.99902 4 -5.99902v-1h14v1c0 8.66699 -4.66699 13 -14 13
s-15.333 -1.33301 -18 -4s-4 -7.33398 -4 -14.001c0 -12.667 5.83301 -19 17.5 -19s17.5 4.66699 17.5 14h-13v-5c0 -0.666992 -1.33301 -1 -4 -1c-2 0 -3.16699 0.5 -3.5 1.5s-0.5 4.66699 -0.5 11s1.33301 9.5 4 9.5zM546.006 484.999v-35h14v35h-14zM546.006 446.999v-9
h14v9h-14zM513.006 448.999c3.33301 0 7.33203 1.66699 11.999 5v-4h12v32c0 8 -2.16699 12.5 -6.5 13.5s-10.166 1.5 -17.499 1.5s-11 -3.33301 -11 -10h13c0 2.66699 1.5 4 4.5 4s4.5 -2 4.5 -6v-4c-2.66699 2 -7 3 -13 3s-9 -2.66699 -9 -8v-15c0 -8 3.66699 -12 11 -12z
M523.005 458.999c-0.666992 -0.666992 -2.16699 -1.00098 -4.5 -1.00098s-3.5 1.66699 -3.5 5v3c0 6.66699 1 10 3 10s3.66699 -0.333008 5 -1c0.666992 -1.33301 1 -3.66602 1 -6.99902v-2c0 -4 -0.333008 -6.33301 -1 -7zM471.005 445.998l8 -8h12l-14 8h-6z
M459.005 467.998c0 -12.667 6.00098 -19 18.001 -19c6.66699 0 11.334 1.33301 14.001 4s4 7.66699 4 15c0 6.66699 -1.33301 11.334 -4 14.001s-7.33398 4 -14.001 4s-11.334 -1.33301 -14.001 -4s-4 -7.33398 -4 -14.001zM481.006 457.998
c-0.666992 -1.33301 -2 -1.83398 -4 -1.50098s-3.16699 1 -3.5 2s-0.5 4.66699 -0.5 11s1.5 9.5 4.5 9.5s4.5 -3.16699 4.5 -9.5s-0.333008 -10.166 -1 -11.499zM452.006 484.997h-14v-46h14v46zM395.006 467.997c0 -12.667 6.00098 -18.999 18.001 -18.999
c6.66699 0 11.167 1.33301 13.5 4s3.5 7.66699 3.5 15c0 12 -5.66699 18 -17 18c-6.66699 0 -11.334 -1.33301 -14.001 -4s-4 -7.33398 -4 -14.001zM413.007 456.998c-3.33301 0 -5 3.66504 -5 10.998s1.66699 11 5 11c2.66699 0 4 -3.16699 4 -9.5
s-0.333008 -10.166 -1 -11.499s-1.66699 -1.66602 -3 -0.999023zM366.007 460.996v2.00098h9c0 -0.666992 0.333008 -1.33398 1 -2.00098c0 -3.33301 -1.66699 -5 -5 -5s-5 1.66699 -5 5zM366.007 472.997c0 4 1.5 6 4.5 6s4.5 -1.33301 4.5 -4v-2h13v1c0 8 -6 12 -18 12
s-18 -6.16699 -18 -18.5s6.33301 -18.5 19 -18.5c10.667 0 16 2.66699 16 8c0.666992 1.33301 1 4 1 8v4h-22v4zM330.007 469.997l0.000976562 -2h-6v-8h21v25h-11v-3c-2.66699 2.66699 -7.33398 4 -14.001 4c-7.33301 0 -11.833 -2.5 -13.5 -7.5s-2.5 -10.833 -2.5 -17.5
c0 -16 6.66699 -24 20 -24s20 5 20 15v2h-14c0 -5.33301 -1.33301 -8 -4 -8c-4.66699 0 -7 4 -7 12v8c0 8 1.66699 12 5 12c4 0 6 -2.66699 6 -8zM238.008 467.997c0 -12.667 6.00098 -18.999 18.001 -18.999c6.66699 0 11.334 1.33301 14.001 4s4 7.5 4 14.5
s-1.33301 11.833 -4 14.5s-7.33398 4 -14.001 4s-11.334 -1.33301 -14.001 -4s-4 -7.33398 -4 -14.001zM256.009 478.998c4 0 5.66699 -3.16895 5 -9.50195s-1 -10.166 -1 -11.499c-0.666992 -1.33301 -2 -1.66602 -4 -0.999023c-2.66699 0 -4 3.66699 -4 11
s1.33301 11 4 11zM224.009 493.996c0 4 -2.00098 6.00098 -6.00098 6.00098h-10c-0.666992 0 -2 -0.333008 -4 -1v-4c2 0.666992 3.83301 0.833984 5.5 0.500977s3 -0.333008 4 0s1.83301 0.333008 2.5 0s1 -0.833008 1 -1.5s-0.333008 -1.33398 -1 -2.00098h-6v-6
c-4.66699 -0.666992 -8 -2 -10 -4c-2.66699 -2.66699 -4 -7.33398 -4 -14.001c0 -12.667 5.83301 -19 17.5 -19s17.5 4.66699 17.5 14h-13v-1c0 -3.33301 -1.16699 -5 -3.5 -5s-3.66602 0.5 -3.99902 1.5s-0.5 4.66699 -0.5 11s1.33301 9.5 4 9.5s4 -2 4 -6v-1h13v1
c0 8.66699 -4.33301 13 -13 13h-3v2c6 0 9 2 9 6zM175.008 484.997v-35h13v35h-13zM175.008 446.997v-9h13v9h-13zM144.008 484.997l-10 -35h13l5 24l5 -24h13l-11 35h-15zM126.008 459.997c-4 0 -6 2.66699 -6 8v17h-13v-35h12v5c1.33301 -2 5 -4 11 -6v12l-2 -1h-2z
M77.0078 460.997v2h9v-2c0 -3.33301 -1.5 -5 -4.5 -5s-4.5 1.66699 -4.5 5zM99.0078 464.997v4h-22v4c0 4 1.5 6 4.5 6s4.5 -1.33301 4.5 -4v-2h13v1c0 8 -5.33301 12 -16 12s-16.667 -1.83301 -18 -5.5s-2 -9.16699 -2 -16.5c0 -10 6 -15 18 -15s18 5.33301 18 16z
M18.0078 471.997l1.00098 -2.00195h13v1c0 4.66699 1.66699 7 5 7c2.66699 0 4.66699 -1.66699 6 -5c0.666992 -2 -0.666016 -3.66699 -3.99902 -5c-2.66699 -0.666992 -4.33398 -1.16699 -5.00098 -1.5s-0.666992 -0.5 0 -0.5c-10 -5.33301 -15 -10.333 -15 -15
c0 -8 6.33301 -12.667 19 -14c12.667 0 19 4.66699 19 14v1h-14c0 -2 -0.333008 -3.66699 -1 -5s-2 -1.66602 -4 -0.999023c-3.33301 0 -5 1.16699 -5 3.5s2.66699 4.5 8 6.5l2 1c1.33301 0.666992 1.66602 1 0.999023 1c8.66699 4 13 8.66699 13 14
c0 10.667 -6.33301 15.334 -19 14.001c-13.333 0 -20 -4.66699 -20 -14z" />
</svg>
