<?xml version="1.0" standalone="no"?>
<!DOCTYPE svg PUBLIC "-//W3C//DTD SVG 1.1//EN" "http://www.w3.org/Graphics/SVG/1.1/DTD/svg11.dtd" >
<svg xmlns="http://www.w3.org/2000/svg" xmlns:xlink="http://www.w3.org/1999/xlink" version="1.1" viewBox="-10 0 1010 1000">
   <path fill="currentColor"
d="M17 254c81.333 -44.667 174.666 -67.001 279.999 -67.001c48.667 0 92.667 6 132 18c44.667 11.333 82.667 34.5 114 69.5s65.333 70.833 102 107.5c36 36.667 80.333 69.667 133 99c48 26.667 106 40 174 40h14h16c-41.333 30.667 -94.666 58.334 -159.999 83.001
c-78 30 -153.667 45 -227 45c-54.667 0 -104 -9 -148 -27c-55.333 -22.667 -94.666 -66 -117.999 -130c-62.667 -100.667 -117.334 -166.667 -164.001 -198c-22 -14.667 -45 -24 -69 -28c-22.667 -3.33301 -49 -7.33301 -79 -12z" />
</svg>
