<?xml version="1.0" standalone="no"?>
<!DOCTYPE svg PUBLIC "-//W3C//DTD SVG 1.1//EN" "http://www.w3.org/Graphics/SVG/1.1/DTD/svg11.dtd" >
<svg xmlns="http://www.w3.org/2000/svg" xmlns:xlink="http://www.w3.org/1999/xlink" version="1.1" viewBox="-11 0 1011 1000">
   <path fill="currentColor"
d="M127 482l-0.00195312 -165.001c0 -26.667 5.33301 -45.667 16 -57c10 -11.333 24 -17 42 -17c26.667 0 50.334 11.333 71.001 34s31 51.334 31 86.001c0 22.667 -5.66699 45 -17 67c-11.333 21.333 -26 37.333 -44 48s-41.333 17 -70 19v108h-29v-108
c-26.667 -2 -48.667 -8.33301 -66 -19c-18 -10.667 -32.667 -26.667 -44 -48s-17 -43.333 -17 -66c0 -19.333 3.66699 -37.333 11 -54s16.333 -30 27 -40c10 -9.33301 20.333 -16 31 -20s24.334 -6.33301 41.001 -7v10c-16 1.33301 -30 10.333 -42 27s-18 43 -18 79
c0 26.667 4 49 12 67c8 18.667 18.333 32.667 31 42c8 6 19.333 10.667 34 14zM155.998 481.999c17.333 -2 31.668 -6.33398 43.001 -13.001c14.667 -8.66699 26 -21 34 -37s12 -35 12 -57c0 -30.667 -8 -57 -24 -79c-10.667 -14.667 -23.334 -22 -38.001 -22h-2
c-7.33301 0 -13.333 3.33301 -18 10s-7 20.334 -7 41.001v157z" />
</svg>
