<?xml version="1.0" standalone="no"?>
<!DOCTYPE svg PUBLIC "-//W3C//DTD SVG 1.1//EN" "http://www.w3.org/Graphics/SVG/1.1/DTD/svg11.dtd" >
<svg xmlns="http://www.w3.org/2000/svg" xmlns:xlink="http://www.w3.org/1999/xlink" version="1.1" viewBox="-10 0 1010 1000">
   <path fill="currentColor"
d="M755 492l-1.00293 -29.002l190 -2c-12 -50 -37 -83 -75 -99c-32.667 -14 -69.667 -21 -111 -21h-16c-39.333 0 -85.666 9 -138.999 27c-47.333 16 -84.666 32.333 -111.999 49c-63.333 38.667 -129 58 -197 58c-17.333 -0.666992 -34.333 -2 -51 -4
c-86.667 -10.667 -162.334 -55 -227.001 -133l19 -29c61.333 72 134.333 113.667 219 125c14.667 2 29.334 3 44.001 3c68.667 -1.33301 132 -20.666 190 -57.999c34 -22 79.667 -40.667 137 -56c42.667 -11.333 85.334 -17 128.001 -17c10.667 0 22 0.333008 34 1
c52.667 2.66699 98 18.667 136 48c38 28.667 57.333 74.334 58 137.001h-226z" />
</svg>
