<?xml version="1.0" standalone="no"?>
<!DOCTYPE svg PUBLIC "-//W3C//DTD SVG 1.1//EN" "http://www.w3.org/Graphics/SVG/1.1/DTD/svg11.dtd" >
<svg xmlns="http://www.w3.org/2000/svg" xmlns:xlink="http://www.w3.org/1999/xlink" version="1.1" viewBox="-10 0 1025 1000">
   <path fill="currentColor"
d="M1005 391c-146 68.667 -265.333 109.333 -358 122c-59.333 8 -112.333 12 -159 12h-14c-47.333 0 -99 -7.33301 -155 -22c-126.667 -33.333 -194 -51.333 -202 -54c-54.667 -16.667 -93.667 -30.667 -117 -42c122.667 -58.667 227.334 -98.334 314.001 -119.001
c67.333 -16 130.333 -24 189 -24c16.667 0 32 0.666992 46 2c77.333 8.66699 158.666 26.334 243.999 53.001zM784 335.999c-46.667 -12.667 -90 -22.667 -130 -30v184c42.667 -6 86 -15.333 130 -28v-126zM808 453.999c52.667 -16.667 106 -37.333 160 -62
c-28 -8.66699 -55.167 -17.167 -81.5 -25.5s-52.5 -16.5 -78.5 -24.5v112zM628 302c-42 -6 -82.667 -9 -122 -9h-12v207h25l123 -8h-14v-190zM468 293c-39.333 1.33301 -78.333 5.66699 -117 13v179c40 7.33301 79 12 117 14v-206zM325 311.001
c-36.667 7.33301 -73.667 17.333 -111 30v112c40 11.333 77 20.333 111 27v-169zM188 349.001c-55.333 22 -101.667 40.6689 -139 56.002c17.333 5.33301 38.5 11.666 63.5 18.999s50.167 14.666 75.5 21.999v-97z" />
</svg>
