<?xml version="1.0" standalone="no"?>
<!DOCTYPE svg PUBLIC "-//W3C//DTD SVG 1.1//EN" "http://www.w3.org/Graphics/SVG/1.1/DTD/svg11.dtd" >
<svg xmlns="http://www.w3.org/2000/svg" xmlns:xlink="http://www.w3.org/1999/xlink" version="1.1" viewBox="-10 0 1012 1000">
   <path fill="currentColor"
d="M518 487c0 25.333 15.668 43.6699 47.001 55.0029s64.333 17 99 17l-6 37c-5.33301 0.666992 -11 1 -17 1c-8.66699 0 -21 -1.33301 -37 -4c-25.333 -4 -42 -7.33301 -50 -10c-13.333 -4 -26.333 -11.333 -39 -22c-29.333 -24.667 -44 -48.334 -44 -71.001v-3
c0 -26 13.333 -51 40 -75h-504v-27h259c19.333 -11.333 37.333 -20 54 -26c16 -5.33301 27 -10.333 33 -15c16 -12.667 24 -25.334 24 -38.001c0 -9.33301 -3.66699 -19 -11 -29c-20 -25.333 -48 -38 -84 -38h-26c-10 -0.666992 -18.667 -1 -26 -1l6 -36
c9.33301 0.666992 18.166 0.5 26.499 -0.5s16.833 -1.16699 25.5 -0.5c9.33301 0.666992 27.333 4 54 10l13 5c34.667 13.333 57 36.333 67 69c2.66699 8.66699 4 16.667 4 24c-0.666992 31.333 -21 56.666 -61 75.999h535v-61l92 74.5l-92 68.5v-55h-310h-6
c-18 8.66699 -33.5 18.667 -46.5 30s-19.5 26.333 -19.5 45z" />
</svg>
