<?xml version="1.0" standalone="no"?>
<!DOCTYPE svg PUBLIC "-//W3C//DTD SVG 1.1//EN" "http://www.w3.org/Graphics/SVG/1.1/DTD/svg11.dtd" >
<svg xmlns="http://www.w3.org/2000/svg" xmlns:xlink="http://www.w3.org/1999/xlink" version="1.1" viewBox="-10 0 1010 1000">
   <path fill="currentColor"
d="M836 396l7.00195 25.001c15.333 -7.33301 32.666 -16 51.999 -26l-3 -11c-12.667 -4.66699 -28.334 -10.334 -47.001 -17.001zM642.002 408.001l24.001 79c9.33301 -2.66699 20.666 -6 33.999 -10l27 -90l-21 -72c-13.333 -4.66699 -23.333 -8 -30 -10zM497.003 274.001
h-8l-38 118l35 120h16l34 -105zM261.003 412.001l17 58.001c12.667 4.66699 25 9 37 13l31 -92l-27 -87c-10 3.33301 -19.667 6.66602 -29 9.99902zM144.003 377.002l-52 26v2c17.333 4 35.333 9.33301 54 16l6 -18zM244.003 396.002l-17 -57.998
c-14.667 6 -30.667 13.333 -48 22l-12 43l8 28c8.66699 3.33301 17.5 6.66602 26.5 9.99902s17.833 6.66602 26.5 9.99902zM437.003 396.004l-34.001 -113c-0.666992 0 -4 0.666992 -10 2l-34 118l29 99c2.66699 0.666992 5.33398 1.16699 8.00098 1.5
s5.66699 0.833008 9 1.5zM629.002 396.004l-33 -112l-10 -1l-35 120l30 102c6 -0.666992 11.667 -1.66699 17 -3zM821.002 396.004l-13.001 -43c-8 -2.66699 -15.667 -5.5 -23 -8.5s-14.666 -5.83301 -21.999 -8.5l-20 67l16 53c16 -6 32.667 -12.667 50 -20z
M904.001 391.004c0.666992 0 1.66895 -0.666992 3.00195 -2c-0.666992 0 -1.33398 -0.166992 -2.00098 -0.5s-1.33398 -0.5 -2.00098 -0.5zM826.003 428.004c0.666992 0 1.33203 -0.166992 1.99902 -0.5s1.33398 -0.5 2.00098 -0.5l-2 -6zM724.001 469.004
c8.66699 -2.66699 16.667 -5.33301 24 -8l-11 -38zM611.001 500.005c14 -2.66699 29 -6 45 -10l-19 -67zM519.001 511.005c16 -0.666992 31.667 -2 47 -4l-23 -77zM414.001 506.005c18.667 2.66699 37.333 4.33301 56 5l-27 -93zM334 489.004
c15.333 4.66699 30.667 8.33301 46 11l-26 -82zM247.001 459.003c10.667 4 16.667 6 18 6l-10 -33zM162.001 368.003c-1.33301 0.666992 -3 1.33301 -5 2l2 8zM266.001 323.002c-7.33301 2.66699 -16.667 6.33301 -28 11l12 42zM380 288.001c-18 4 -35 8.33301 -51 13l22 75
zM472 275.001c-17.333 0.666992 -35 2.33301 -53 5l26 89zM577 281c-22 -3.33301 -43.333 -5.33301 -64 -6l32 106zM657 300c-18.667 -5.33301 -36.333 -10 -53 -14l29 95zM744.001 329c-6.66699 -2.66699 -15 -5.66699 -25 -9l14 47zM831.001 361
c-2 -0.666992 -3.66699 -1.33301 -5 -2l3 11zM767.001 483.001l32.001 -12c-12.667 5.33301 -23.334 9.33301 -32.001 12zM691.002 506.001l-9 2.00098c3.33301 -0.666992 6.33301 -1.33398 9 -2.00098zM397.002 527.002h1h-1zM287.002 501.002c7.33301 2 14 4 20 6z
M100.002 432.002l39 15c-16 -6.66699 -29 -11.667 -39 -15zM219.002 311.002l-29 12c12 -5.33301 21.667 -9.33301 29 -12zM981.002 388.002c-4.66699 2.66699 -26.999 14 -66.999 34l-76 34c-6 2.66699 -13.667 5.66699 -23 9l-59 21c-12.667 4 -26.334 8.33301 -41.001 13
l-52 14c-10 2.66699 -30 6.33398 -60 11.001l-13 2h-1l-17 3c-16.667 2.66699 -36.334 4 -59.001 4h-36c-24.667 0 -48 -1.66699 -70 -5l-20 -3c-18 -2.66699 -38 -7 -60 -13l-53 -15c-11.333 -4 -23 -8 -35 -12l-72 -27c-4.66699 -2 -7.16699 -3 -7.5 -3
s-2.83301 -1 -7.5 -3l-64 -24c-6 -2 -9.66699 -3.33301 -11 -4l-16 -5c-26 -8 -41 -12.333 -45 -13c12 -6.66699 31 -16.334 57 -29.001l47 -22l28 -14c10.667 -4.66699 19 -8.33398 25 -11.001l57 -23c10 -2.66699 24 -7.66699 42 -15s29.333 -11.166 34 -11.499
s13.667 -2.5 27 -6.5c14 -4 32.333 -8 55 -12l24 -4c20 -3.33301 42.333 -5 67 -5h28c27.333 0 53 2 77 6l12 2c28.667 4.66699 51.334 9.66699 68.001 15l19 6l27 8c6 2 19.667 6.66699 41 14l65 23c12 4.66699 19.667 7.66699 23 9l58 21c2.66699 1.33301 5.5 2.5 8.5 3.5
s5.83301 2.16699 8.5 3.5l16 6c16 6 33 12 51 18z" />
</svg>
