<?xml version="1.0" standalone="no"?>
<!DOCTYPE svg PUBLIC "-//W3C//DTD SVG 1.1//EN" "http://www.w3.org/Graphics/SVG/1.1/DTD/svg11.dtd" >
<svg xmlns="http://www.w3.org/2000/svg" xmlns:xlink="http://www.w3.org/1999/xlink" version="1.1" viewBox="-10 0 1010 1000">
   <path fill="currentColor"
d="M499 591c-53.333 0 -99 -18.833 -137 -56.5s-57 -83.167 -57 -136.5s19 -98.833 57 -136.5s83.667 -56.5 137 -56.5s98.833 18.833 136.5 56.5s56.5 83.167 56.5 136.5s-18.833 98.833 -56.5 136.5s-83.167 56.5 -136.5 56.5zM499 542c39.333 0 73 -14.167 101 -42.5
s42 -62.166 42 -101.499s-14 -73.166 -42 -101.499s-61.667 -42.5 -101 -42.5s-73.166 14.167 -101.499 42.5s-42.5 62.166 -42.5 101.499s14.167 73.166 42.5 101.499s62.166 42.5 101.499 42.5z" />
</svg>
