<?xml version="1.0" standalone="no"?>
<!DOCTYPE svg PUBLIC "-//W3C//DTD SVG 1.1//EN" "http://www.w3.org/Graphics/SVG/1.1/DTD/svg11.dtd" >
<svg xmlns="http://www.w3.org/2000/svg" xmlns:xlink="http://www.w3.org/1999/xlink" version="1.1" viewBox="-10 0 1010 1000">
   <path fill="currentColor"
d="M697 536v-350.001h-53l73 -120l72 120h-56v361c0 29.333 -5.33301 55 -16 77s-23.667 40 -39 54c-15.333 14.667 -41 27.167 -77 37.5s-71.667 15.5 -107 15.5s-68 -5.16699 -98 -15.5s-53 -22.5 -69 -36.5c-35.333 -31.333 -53 -75.333 -53 -132v-361h-55l73 -120
l73 120h-54v359c0 22.667 1 39.334 3 50.001c2.66699 11.333 6.66699 21 12 29c16.667 24.667 37.667 44 63 58c24 13.333 60.333 20 109 20h7c50 0 86.667 -7 110 -21c22 -12.667 38.667 -25 50 -37c21.333 -22.667 32 -58.667 32 -108z" />
</svg>
