<?xml version="1.0" standalone="no"?>
<!DOCTYPE svg PUBLIC "-//W3C//DTD SVG 1.1//EN" "http://www.w3.org/Graphics/SVG/1.1/DTD/svg11.dtd" >
<svg xmlns="http://www.w3.org/2000/svg" xmlns:xlink="http://www.w3.org/1999/xlink" version="1.1" viewBox="-10 0 1010 1000">
   <path fill="currentColor"
d="M191 306l0.00585938 -9.00391c29.333 0 53.333 5 72 15s33.667 26 45 48s17 46.333 17 73c0 22.667 -4.33301 43.334 -13 62.001s-20.667 32.667 -36 42s-30.333 14 -45 14c-15.333 0 -28.333 -4.33301 -39 -13s-20.334 -22 -29.001 -40
c-9.33301 18.667 -20 32.334 -32 41.001c-11.333 8 -24 12 -38 12h-3c-13.333 0 -27.333 -4.66699 -42 -14s-26.334 -23.666 -35.001 -42.999s-13 -40.333 -13 -63c0 -24.667 5 -47 15 -67c8 -16 17.667 -29 29 -39c12 -10.667 24.667 -18 38 -22s30.666 -6 51.999 -6v9
c-24 2.66699 -44 14 -60 34c-16 20.667 -24 51 -24 91c0 39.333 6 68 18 86c7.33301 10.667 17.666 16.334 30.999 17.001c11.333 0 21.666 -4.66699 30.999 -14c10 -9.33301 18.333 -25.666 25 -48.999c-7.33301 -20.667 -12.333 -36 -15 -46s-3.66699 -19.333 -3 -28
c0 -16.667 3.66699 -31.334 11 -44.001c4 -6 8.66699 -9 14 -9s10 3 14 9c7.33301 11.333 11 25.333 11 42c0 20.667 -5.66699 46 -17 76c6.66699 24 14.667 40 24 48s19.666 12.333 30.999 13c13.333 0 24.333 -5.33301 33 -16c11.333 -14 17 -41 17 -81
c0 -47.333 -10.667 -82.333 -32 -105c-12 -14 -29.333 -22 -52 -24z" />
</svg>
