<?xml version="1.0" standalone="no"?>
<!DOCTYPE svg PUBLIC "-//W3C//DTD SVG 1.1//EN" "http://www.w3.org/Graphics/SVG/1.1/DTD/svg11.dtd" >
<svg xmlns="http://www.w3.org/2000/svg" xmlns:xlink="http://www.w3.org/1999/xlink" version="1.1" viewBox="-10 0 1010 1000">
   <path fill="currentColor"
d="M244 309l1.00195 29.001l-190 3c12 48.667 35.833 80.834 71.5 96.501s73.5 23.5 113.5 23.5c51.333 0 101.833 -8.5 151.5 -25.5s88.5 -34.167 116.5 -51.5c61.333 -38 126.666 -57 195.999 -57c111.333 0 204.333 45.667 279 137l-18 28
c-65.333 -76 -138.333 -117.667 -219 -125c-14.667 -1.33301 -30.667 -2 -48 -2c-64 0 -126.333 19.333 -187 58c-33.333 21.333 -75.333 38.666 -126 51.999s-96.667 20 -138 20c-10.667 0 -22.334 -0.333008 -35.001 -1c-50 -2.66699 -94.667 -18.334 -134 -47.001
s-59.333 -74.667 -60 -138h226z" />
</svg>
