<?xml version="1.0" standalone="no"?>
<!DOCTYPE svg PUBLIC "-//W3C//DTD SVG 1.1//EN" "http://www.w3.org/Graphics/SVG/1.1/DTD/svg11.dtd" >
<svg xmlns="http://www.w3.org/2000/svg" xmlns:xlink="http://www.w3.org/1999/xlink" version="1.1" viewBox="-10 0 1010 1000">
   <path fill="currentColor"
d="M103 461c21.333 0 44.668 -11.333 70.001 -34v-181h43v158c0 25.333 0.666992 39.333 2 42c5.33301 10 11.333 16.333 18 19c11.333 0 18 -11 20 -33h11c-3.33301 24.667 -9 41 -17 49c-8.66699 8.66699 -19.667 13 -33 13c-26.667 0 -41.334 -17.333 -44.001 -52
c-31.333 34.667 -62 52 -92 52c-16.667 0 -31.667 -6 -45 -18v29v3l11 63c0 9.33301 -2.33301 16.666 -7 21.999s-10 8.33301 -16 9c0 0.666992 -0.333008 0.666992 -1 0c-4.66699 -2.66699 -9.66699 -5.66699 -15 -9s-8 -9.66602 -8 -18.999c0 -7.33301 1.66699 -17 5 -29
c6.66699 -24 10 -54 10 -90v-209h44v151c0 30 7 49 21 57c8 4.66699 15.667 7 23 7z" />
</svg>
