<?xml version="1.0" standalone="no"?>
<!DOCTYPE svg PUBLIC "-//W3C//DTD SVG 1.1//EN" "http://www.w3.org/Graphics/SVG/1.1/DTD/svg11.dtd" >
<svg xmlns="http://www.w3.org/2000/svg" xmlns:xlink="http://www.w3.org/1999/xlink" version="1.1" viewBox="-10 0 1010 1000">
   <path fill="currentColor"
d="M734 424c0 56.667 -30 102.668 -90 138.001h335v41h-491c-68 0 -126.167 -17.5 -174.5 -52.5s-72.5 -78.833 -72.5 -131.5s30.333 -97 91 -133h-318v-40h488c64.667 2.66699 119.5 21.167 164.5 55.5s67.5 75.166 67.5 122.499zM488 286.001
c-55.333 0 -101.333 13 -138 39s-55 59 -55 99s18.333 73 55 99s82.667 39 138 39s101.166 -13 137.499 -39s54.5 -59 54.5 -99s-18.167 -73 -54.5 -99s-82.166 -39 -137.499 -39z" />
</svg>
