<?xml version="1.0" standalone="no"?>
<!DOCTYPE svg PUBLIC "-//W3C//DTD SVG 1.1//EN" "http://www.w3.org/Graphics/SVG/1.1/DTD/svg11.dtd" >
<svg xmlns="http://www.w3.org/2000/svg" xmlns:xlink="http://www.w3.org/1999/xlink" version="1.1" viewBox="-10 0 1010 1000">
   <path fill="currentColor"
d="M469 218l-0.000976562 -78.9971h-33l47 -43l48 43h-33v80c88.667 3.33301 166.834 20.5 234.501 51.5s105.167 68.5 112.5 112.5h86v-32l42 46l-42 46v-32h-86c-7.33301 44 -44.833 81.667 -112.5 113s-145.834 48.666 -234.501 51.999v79h33l-48 43l-47 -43h33v-79
c-105.333 -0.666992 -183.666 -17.834 -234.999 -51.501s-80 -71.5 -86 -113.5h-80v32l-41 -46l41 -46v32h80c5.33301 -42 33.833 -79.833 85.5 -113.5s130.167 -50.834 235.5 -51.501zM485.999 264.003c-78.667 0 -146 13 -202 39s-84 57.333 -84 94s28 68 84 94
s123.333 39 202 39s146 -13 202 -39s84 -57.333 84 -94s-28 -68 -84 -94s-123.333 -39 -202 -39z" />
</svg>
