<?xml version="1.0" standalone="no"?>
<!DOCTYPE svg PUBLIC "-//W3C//DTD SVG 1.1//EN" "http://www.w3.org/Graphics/SVG/1.1/DTD/svg11.dtd" >
<svg xmlns="http://www.w3.org/2000/svg" xmlns:xlink="http://www.w3.org/1999/xlink" version="1.1" viewBox="-10 0 1010 1000">
   <path fill="currentColor"
d="M577.892 334.579c0 30.9395 -20.6289 56.082 -61.8906 75.4229h401v-20l65 33l-65 33v-19h-458c-4.66699 0.666992 -6.66699 0.666992 -6 0c-18 8.66699 -33.667 18.667 -47 30s-20 26.333 -20 45c0.666992 25.333 16.5 43.666 47.5 54.999s64.167 17 99.5 17l-7 37
c-5.17676 0.706055 -11.9609 1.05859 -20.3535 1.05859c-23.1055 0 -45.9902 -3.34277 -68.6533 -10.0293s-40.6602 -15.3633 -53.9932 -26.0303c-29.0859 -21.498 -43.6289 -45.6367 -43.6289 -72.416s13.21 -52.3076 39.6289 -76.585h-362v-27h401
c17.9473 -11.5381 35.7686 -20.2559 53.46 -26.1533c38.3691 -12.7891 57.5527 -30.2529 57.5527 -52.3906c0 -9.41797 -4.00488 -19.2363 -12.0146 -29.4551c-19.333 -24.667 -47 -37.334 -83 -38.001c-6.66699 0 -15.334 -0.166992 -26.001 -0.5s-19.667 -0.5 -27 -0.5
l6 -36l39.6123 -1.14258c6.25879 0 12.2217 0.19043 17.8887 0.571289c9.31445 0.625977 25.4814 3.81641 48.502 9.57129l13 5c35.0996 13.5 57.7666 36.667 68 69.501c2.59473 8.32422 3.8916 16.3506 3.89062 24.0791z" />
</svg>
