<?xml version="1.0" standalone="no"?>
<!DOCTYPE svg PUBLIC "-//W3C//DTD SVG 1.1//EN" "http://www.w3.org/Graphics/SVG/1.1/DTD/svg11.dtd" >
<svg xmlns="http://www.w3.org/2000/svg" xmlns:xlink="http://www.w3.org/1999/xlink" version="1.1" viewBox="-10 0 1010 1000">
   <path fill="currentColor"
d="M224 323l-205.999 -0.000976562v-27h965v27h-59c-39.333 63.333 -75.833 102 -109.5 116s-65.834 27.333 -96.501 40h265v27h-965v-27h21c32.667 -55.333 62.167 -91.666 88.5 -108.999s58.5 -33 96.5 -47zM709.001 478.999c32.667 -55.333 62.167 -91.667 88.5 -109
s58.5 -33 96.5 -47h-187c-39.333 63.333 -75.833 102 -109.5 116s-65.5 27.333 -95.5 40h207zM909.001 326.998c-41.333 16 -74.168 30 -98.501 42s-51.5 44.667 -81.5 98c26 -12.667 53.833 -24.167 83.5 -34.5s61.834 -45.5 96.501 -105.5zM491.999 478.998
c32 -55.333 61.334 -91.667 88.001 -109s59 -33 97 -47h-193c-39.333 63.333 -75.833 102 -109.5 116s-65.834 27.333 -96.501 40h214zM693 326.997c-41.333 16 -74.167 30 -98.5 42s-51.833 44.667 -82.5 98c26 -12.667 54 -24.167 84 -34.5s62.333 -45.5 97 -105.5z
M268.999 478.997c32.667 -55.333 62.001 -91.667 88.001 -109s58.333 -33 97 -47h-200c-39.333 63.333 -75.833 102 -109.5 116s-65.834 27.333 -96.501 40h221zM469 326.996c-41.333 16 -74.1689 30 -98.502 42s-51.833 44.667 -82.5 98
c26.667 -12.667 54.834 -24.167 84.501 -34.5s61.834 -45.5 96.501 -105.5zM238.997 326.996c-41.333 16 -74.167 30 -98.5 42s-51.833 44.667 -82.5 98c26 -12.667 54 -24.167 84 -34.5s62.333 -45.5 97 -105.5z" />
</svg>
