<?xml version="1.0" standalone="no"?>
<!DOCTYPE svg PUBLIC "-//W3C//DTD SVG 1.1//EN" "http://www.w3.org/Graphics/SVG/1.1/DTD/svg11.dtd" >
<svg xmlns="http://www.w3.org/2000/svg" xmlns:xlink="http://www.w3.org/1999/xlink" version="1.1" viewBox="-10 0 1010 1000">
   <path fill="currentColor"
d="M260 300l-0.000976562 38h-64c-6 40 -9 78.333 -9 115c0 18 3.33301 31 10 39s14.334 11.667 23.001 11c7.33301 0 14 -2.66699 20 -8c5.33301 -5.33301 9 -12.666 11 -21.999h9c-2.66699 27.333 -9.33398 46.666 -20.001 57.999c-10 11.333 -21.667 17 -35 17
c-12.667 0 -24 -6.33301 -34 -19c-8.66699 -11.333 -13 -32 -13 -62v-7c0 -21.333 3.33301 -62 10 -122h-68c-5.33301 91.333 -12 149.333 -20 174c-7.33301 24 -17.666 36 -30.999 36c-6 0 -11.333 -2 -16 -6c-4 -4 -6 -9.33301 -6 -16c0 -4.66699 0.666992 -8.66699 2 -12
c2 -4.66699 6 -11 12 -19c10.667 -14 18 -28.667 22 -44c7.33301 -26.667 12.333 -64.334 15 -113.001h-12c-12.667 0 -22 2 -28 6c-10 6.66699 -19.333 17.334 -28 32.001h-10c10 -30 21.333 -51 34 -63c10 -8.66699 24 -13 42 -13h184z" />
</svg>
