<?xml version="1.0" standalone="no"?>
<!DOCTYPE svg PUBLIC "-//W3C//DTD SVG 1.1//EN" "http://www.w3.org/Graphics/SVG/1.1/DTD/svg11.dtd" >
<svg xmlns="http://www.w3.org/2000/svg" xmlns:xlink="http://www.w3.org/1999/xlink" version="1.1" viewBox="-10 0 1010 1000">
   <path fill="currentColor"
d="M248 387l-5.00195 -58.001c0 -11.333 1.33301 -20.666 4 -27.999h41c-0.666992 8 -1 19.333 -1 34s3 32 9 52c10 33.333 33.333 50 70 50c35.333 0 62.333 -17.667 81 -53c18.667 -36 43 -61 73 -75c11.333 -5.33301 23.666 -8 36.999 -8
c12.667 0 26.334 2.66699 41.001 8c36.667 13.333 59.334 35.333 68.001 66c2.66699 8 4.33398 12 5.00098 12l209 1v-42l102 62l-102 67v-50l-204 2h-4c0 18 -1 35 -3 51h-41l6 -54c0 -28 -11.333 -50.333 -34 -67c-12.667 -9.33301 -25.334 -14 -38.001 -14l-38 15
c-4 3.33301 -8.66699 9 -14 17c-2.66699 3.33301 -9.33398 12 -20.001 26c-31.333 41.333 -68.666 66 -111.999 74c-7.33301 1.33301 -14.666 2 -21.999 2c-34.667 -1.33301 -63.667 -18 -87 -50h-259v-40l238 1v-1z" />
</svg>
