<?xml version="1.0" standalone="no"?>
<!DOCTYPE svg PUBLIC "-//W3C//DTD SVG 1.1//EN" "http://www.w3.org/Graphics/SVG/1.1/DTD/svg11.dtd" >
<svg xmlns="http://www.w3.org/2000/svg" xmlns:xlink="http://www.w3.org/1999/xlink" version="1.1" viewBox="-10 0 1010 1000">
   <path fill="currentColor"
d="M951 501c-4 -70 -30.333 -114.001 -79 -132.001c-37.333 -14 -76.666 -21 -117.999 -21c-46.667 0 -96.334 9 -149.001 27c-45.333 15.333 -82.333 32 -111 50c-61.333 38 -126.666 57 -195.999 57c-18 0 -35.667 -1.33301 -53 -4
c-88.667 -13.333 -164 -57.666 -226 -132.999l19 -29c60.667 71.333 133.667 113 219 125c14 2 28 3 42 3c66.667 0 130.667 -19.333 192 -58c37.333 -23.333 82.666 -42 135.999 -56c44 -11.333 87 -17 129 -17c9.33301 0 20.333 0.333008 33 1
c51.333 2.66699 96.666 19 135.999 49c38.667 28.667 58.334 74 59.001 136z" />
</svg>
