<?xml version="1.0" standalone="no"?>
<!DOCTYPE svg PUBLIC "-//W3C//DTD SVG 1.1//EN" "http://www.w3.org/Graphics/SVG/1.1/DTD/svg11.dtd" >
<svg xmlns="http://www.w3.org/2000/svg" xmlns:xlink="http://www.w3.org/1999/xlink" version="1.1" viewBox="-10 0 1010 1000">
   <path fill="currentColor"
d="M213 165c6 22.667 15.333 44.499 28 65.499s27 45.833 43 74.5s29.667 56.834 41 84.501c11.0098 26.876 16.5146 52.0225 16.5146 75.4385c0 0.688477 -0.00488281 1.37598 -0.0146484 2.06152c-0.333008 24 -3.83301 44 -10.5 60c-13.333 32 -36 56 -68 72
c-16 7.33301 -32.25 11 -48.75 11s-33.25 -3.66699 -50.25 -11c-32 -14 -54.667 -36.333 -68 -67c-6.66699 -15.333 -10 -35 -10 -59c0 -40.667 17.333 -94.667 52 -162c11.333 -21.333 25.333 -47 42 -77c14.667 -24.667 25.667 -47.667 33 -69zM500 164.999
c6 22 16.166 45.165 30.499 69.498s28.833 49.166 43.5 74.499c36 64 54 120 54 168c0 36 -12.667 66.667 -38 92c-25.4541 26.7275 -53.9463 40.0908 -85.4756 40.0908c-1.50098 0 -3.00879 -0.0302734 -4.52344 -0.0908203c-35.333 -1.33301 -65.333 -13.666 -90 -36.999
c-11.333 -11.333 -20.333 -24.666 -27 -39.999s-10 -35.333 -10 -60c0 -51.333 31.333 -130.666 94 -237.999c13.333 -22.667 24.333 -45.667 33 -69zM786.999 164.997c6 22 15.666 44.333 28.999 67c40.667 68.667 67.334 119 80.001 151s19 60 19 84s-3.33301 44 -10 60
c-12.667 31.333 -35.667 55.333 -69 72c-15 7.66699 -30.667 11.5 -47 11.5s-33.333 -3.83301 -51 -11.5c-32 -14 -54.667 -36.333 -68 -67c-6.66699 -15.333 -10 -35.333 -10 -60c0 -44 17.333 -97.667 52 -161c27.333 -50 41.333 -75.667 42 -77c14 -24 25 -47 33 -69z
" />
</svg>
