<?xml version="1.0" standalone="no"?>
<!DOCTYPE svg PUBLIC "-//W3C//DTD SVG 1.1//EN" "http://www.w3.org/Graphics/SVG/1.1/DTD/svg11.dtd" >
<svg xmlns="http://www.w3.org/2000/svg" xmlns:xlink="http://www.w3.org/1999/xlink" version="1.1" viewBox="-10 0 1010 1000">
   <path fill="currentColor"
d="M771 611c-82 25.333 -156.671 42.0029 -224.004 50.0029c-33.333 4 -64.333 6 -93 6c-45.333 0 -87 -4.66699 -125 -14c-73.333 -18 -110 -44.667 -110 -80v-1c0 -54 68.667 -87.667 206 -101c32.667 -4.66699 81.334 -8 146.001 -10c82 -2 123 -23 123 -63
c0 -28.667 -37.667 -49 -113 -61c-41.333 -6.66699 -96.666 -10 -165.999 -10h-38c-75.333 0 -186.333 8.66699 -333 26l1 -22l72 -12c131.333 -19.333 240 -29 326 -29c75.333 0 132.333 7 171 21c78.667 28.667 118 58.334 118 89.001v3c0 24 -16.333 45.333 -49 64
c-20 11.333 -49 19.666 -87 24.999c-39.333 5.33301 -72.333 8.33301 -99 9c-32.667 0.666992 -58.667 3 -78 7c-100.667 13.333 -151 33.666 -151 60.999v1c0 22 33.667 39.333 101 52c32 6 62.333 9 91 9h9c30.667 0 61 -2 91 -6c65.333 -8.66699 131 -23.334 197 -44.001
c48 -15.333 85.333 -43 112 -83c19.333 -28.667 29 -58.334 29 -89.001c0 -10 -1.66699 -22 -5 -36c-10 -43.333 -43.333 -83.333 -100 -120c-56 -35.333 -143.667 -55.666 -263 -60.999c-30 -1.33301 -63.333 -2 -100 -2c-18 0 -36.333 0.333008 -55 1
c-56.667 0.666992 -119 6.66699 -187 18c-9.33301 0.666992 -55.333 12.334 -138 35.001l2 -26c36 -13.333 65.667 -22.333 89 -27c136.667 -22.667 254 -34 352 -34c78.667 0 143.334 6.66699 194.001 20c123.333 32 201.333 76 234 132c17.333 29.333 26 58.666 26 87.999
s-8.33301 59.333 -25 90c-33.333 61.333 -83.666 102.666 -150.999 123.999z" />
</svg>
