<?xml version="1.0" standalone="no"?>
<!DOCTYPE svg PUBLIC "-//W3C//DTD SVG 1.1//EN" "http://www.w3.org/Graphics/SVG/1.1/DTD/svg11.dtd" >
<svg xmlns="http://www.w3.org/2000/svg" xmlns:xlink="http://www.w3.org/1999/xlink" version="1.1" viewBox="-10 0 1010 1000">
   <path fill="currentColor"
d="M54 475v31c0 43.333 -2.66699 76.333 -8 99h-45c3.33301 -10.667 5.66602 -19.667 6.99902 -27c2 -12 3 -27 3 -45v-167c0 -36 11.333 -65.667 34 -89c22.667 -22.667 51 -34 85 -34c39.333 0 69.333 14 90 42c16 22 24 47 24 75c0 31.333 -9.66699 60 -29 86
c-26 34.667 -58.333 52 -97 52c-14 0 -27 -2 -39 -6c-7.33301 -3.33301 -15.666 -9 -24.999 -17zM54 396c0 24 2 40.668 6 50.001s12 17.333 24 24c11.333 6.66699 24 10 38 10c22 0 40.667 -8.66699 56 -26c15.333 -16.667 23 -39.667 23 -69c0 -22 -5 -42.667 -15 -62
c-9.33301 -18.667 -21 -32.667 -35 -42c-14.667 -9.33301 -30 -14 -46 -14c-20 0 -34.333 8 -43 24c-5.33301 9.33301 -8 29.666 -8 60.999v44z" />
</svg>
