<?xml version="1.0" standalone="no"?>
<!DOCTYPE svg PUBLIC "-//W3C//DTD SVG 1.1//EN" "http://www.w3.org/Graphics/SVG/1.1/DTD/svg11.dtd" >
<svg xmlns="http://www.w3.org/2000/svg" xmlns:xlink="http://www.w3.org/1999/xlink" version="1.1" viewBox="-10 0 1010 1000">
   <path fill="currentColor"
d="M374 370c-54.667 0 -81.999 37.667 -81.999 113c0 7.33301 0.333008 15 1 23h-41c-2.66699 -7.33301 -4 -16.666 -4 -27.999l5 -59h-238v-39h259c24.667 -33.333 54 -50 88 -50c6.66699 0 13.667 0.666992 21 2c44 8 81.333 32.667 112 74c8 10.667 14.667 19.667 20 27
c15.333 20.667 32.666 31 51.999 31l38 -15c22.667 -18 34 -40.333 34 -67l-6 -53h41c2 16 3.33301 33 4 51h246v-43l56 61l-57 57v-36l-247 1l-4 11c-10.667 31.333 -33.667 53.666 -69 66.999c-14 5.33301 -27.5 8 -40.5 8s-25.5 -2.66699 -37.5 -8
c-30.667 -14 -55 -38.833 -73 -74.5s-44 -53.5 -78 -53.5z" />
</svg>
