<?xml version="1.0" standalone="no"?>
<!DOCTYPE svg PUBLIC "-//W3C//DTD SVG 1.1//EN" "http://www.w3.org/Graphics/SVG/1.1/DTD/svg11.dtd" >
<svg xmlns="http://www.w3.org/2000/svg" xmlns:xlink="http://www.w3.org/1999/xlink" version="1.1" viewBox="-11 0 1018 1000">
   <path fill="currentColor"
d="M0 418l-0.00195312 -38.999h469c-1.33301 -7.33301 -3.66602 -15 -6.99902 -23c-5.33301 -13.333 -13.666 -27 -24.999 -41h25c10 13.333 17.333 26.333 22 39c2.66699 8.66699 5 17 7 25h418v-43l88 63l-89 55v-36h-419c-1.33301 6 -3 12 -5 18
c-4.66699 13.333 -12 26.666 -22 39.999h-25c10.667 -14 19 -27.667 25 -41c2 -5.33301 3.66699 -11 5 -17h-467z" />
</svg>
