<?xml version="1.0" standalone="no"?>
<!DOCTYPE svg PUBLIC "-//W3C//DTD SVG 1.1//EN" "http://www.w3.org/Graphics/SVG/1.1/DTD/svg11.dtd" >
<svg xmlns="http://www.w3.org/2000/svg" xmlns:xlink="http://www.w3.org/1999/xlink" version="1.1" viewBox="-10 0 1010 1000">
   <path fill="currentColor"
d="M84 301l0.00195312 112.002l74 -66l46 -37c10 -6 19.333 -9 28 -9h3c10 0 18 2.66699 24 8s9 11.333 9 18s-2.33301 12.334 -7 17.001c-4.66699 4 -10.334 6 -17.001 6c-4.66699 0 -10 -1.66699 -16 -5c-10 -5.33301 -16.667 -8 -20 -8
c-8.66699 0 -21.334 7.66699 -38.001 23l-44 41l78 87c12.667 14.667 23.667 25.667 33 33c8.66699 7.33301 15.667 11.666 21 12.999c4.66699 1.33301 14 2.66602 28 3.99902v9h-128v-9c5.33301 -0.666992 9 -2 11 -4c2.66699 -2.66699 4 -5.33398 4 -8.00098
c0 -5.33301 -4.33301 -13 -13 -23l-76 -87v131h-44v-177c0 -12.667 -1 -20.667 -3 -24c-4 -6.66699 -9.33301 -10 -16 -10c-4.66699 0 -10.667 1.33301 -18 4l-3 -10l73 -29h11z" />
</svg>
