<?xml version="1.0" standalone="no"?>
<!DOCTYPE svg PUBLIC "-//W3C//DTD SVG 1.1//EN" "http://www.w3.org/Graphics/SVG/1.1/DTD/svg11.dtd" >
<svg xmlns="http://www.w3.org/2000/svg" xmlns:xlink="http://www.w3.org/1999/xlink" version="1.1" viewBox="-10 0 1010 1000">
   <path fill="currentColor"
d="M551 488l10.001 0.00195312c-2 22.667 -7.66699 39 -17 49c-8.66699 9.33301 -19.334 14 -32.001 14h-2c-10 0 -18.667 -2.33301 -26 -7s-13 -11.667 -17 -21c-3.33301 -8.66699 -5 -24.334 -5 -47.001v-111c0 -11.333 -0.666992 -18.666 -2 -21.999
c-1.33301 -4 -4 -7 -8 -9c-2 -1.33301 -6 -2 -12 -2c-2 0 -7 1.33301 -15 4l-3 -9l74 -30h10v189c0 15.333 2 25.666 6 30.999c4 4.66699 9.33301 7 16 7c5.33301 0 10 -2.33301 14 -7s7 -14.334 9 -29.001z" />
</svg>
