<?xml version="1.0" standalone="no"?>
<!DOCTYPE svg PUBLIC "-//W3C//DTD SVG 1.1//EN" "http://www.w3.org/Graphics/SVG/1.1/DTD/svg11.dtd" >
<svg xmlns="http://www.w3.org/2000/svg" xmlns:xlink="http://www.w3.org/1999/xlink" version="1.1" viewBox="-10 0 1010 1000">
   <path fill="currentColor"
d="M229 154c6 22 15.834 44.332 29.501 66.999s28 47.667 43 75s28.167 54.833 39.5 82.5s17 53.5 17 77.5c0 42.667 -12.667 76.667 -38 102c-25.4541 26.7275 -54.25 40.0908 -86.3867 40.0908c-1.53027 0 -3.06836 -0.0302734 -4.61426 -0.0908203
c-36 -1.33301 -65.667 -13.666 -89 -36.999c-24 -24 -36.333 -52.667 -37 -86c-0.0390625 -1.96094 -0.0585938 -3.91406 -0.0585938 -5.8584c0 -31.1143 5.01953 -60.1611 15.0586 -87.1416c15.333 -41.333 35.833 -84.333 61.5 -129s42.167 -77.667 49.5 -99z
M230.001 250.999c-5.33301 16 -22.332 48.999 -50.999 98.999c-23.4014 41.1113 -35.1025 78.0225 -35.1025 110.732c0 1.76855 0.0341797 3.52441 0.102539 5.26758c0 22.667 8.33301 43 25 61c15.333 16.667 35.666 25 60.999 25c24 0 44.333 -9 61 -27
c17.333 -18.667 26 -39 26 -61c0 -32 -12.667 -70.667 -38 -116c-10 -17.333 -19.667 -34.166 -29 -50.499s-16 -31.833 -20 -46.5zM500.002 153.998c6 22 15.832 44.5 29.499 67.5s27.834 47.833 42.501 74.5s27.667 54 39 82s17 54 17 78s-3.33301 44 -10 60
c-12.667 31.333 -35.667 55.333 -69 72c-15 7.66699 -30.667 11.5 -47 11.5s-33.333 -3.83301 -51 -11.5c-32 -14 -54.667 -36.333 -68 -67c-6.66699 -15.333 -10 -35 -10 -59c0 -44 17.333 -98 52 -162c26 -48 40 -73.333 42 -76c14 -24.667 25 -48 33 -70z
M500.001 250.998c-5.33301 14.667 -12.666 30.335 -21.999 47.002c-27.333 48.667 -44.833 83.667 -52.5 105s-11.5 40.166 -11.5 56.499s2.33301 29.666 7 39.999s10.667 19.5 18 27.5c15.333 16.667 35.666 25 60.999 25c24 0 44.333 -9 61 -27
c17.333 -18.667 26 -39 26 -61c0 -33.333 -12.667 -72 -38 -116c-10 -18 -19.667 -34.833 -29 -50.5s-16 -31.167 -20 -46.5zM778.001 153.999c6 22 15.499 43.8311 28.499 65.498s27.333 46.5 43 74.5s29.167 56 40.5 84s17 54 17 78c0 61.333 -26.333 105.333 -79 132
c-15.333 7.66699 -31.25 11.5 -47.75 11.5s-33.583 -3.83301 -51.25 -11.5c-31.333 -13.333 -53.666 -35.666 -66.999 -66.999c-7.5752 -17.5752 -11.3633 -36.666 -11.3633 -57.2725c0 -24.7275 5.4541 -51.6367 16.3633 -80.7275c18.667 -51.333 45 -104.666 79 -159.999
c11.333 -18.667 22 -41.667 32 -69zM779 250.997c-5.33301 14.667 -12.999 30.333 -22.999 47c-24 41.333 -40.5 74.5 -49.5 99.5s-13.5 45.833 -13.5 62.5c0 28 8.33301 50.333 25 67s37 25 61 25s44.333 -9 61 -27c17.333 -18.667 26 -39 26 -61
c0 -31.333 -12.667 -70 -38 -116c-10.667 -19.333 -20.334 -36 -29.001 -50c-9.33301 -16 -16 -31.667 -20 -47z" />
</svg>
