<?xml version="1.0" standalone="no"?>
<!DOCTYPE svg PUBLIC "-//W3C//DTD SVG 1.1//EN" "http://www.w3.org/Graphics/SVG/1.1/DTD/svg11.dtd" >
<svg xmlns="http://www.w3.org/2000/svg" xmlns:xlink="http://www.w3.org/1999/xlink" version="1.1" viewBox="-10 0 1010 1000">
   <path fill="currentColor"
d="M16.0146 466.733l58.6611 -0.00976562c44.8848 -7.15527 89.9209 -23.7783 135.109 -49.8691c44.8115 -25.9092 71.7598 -53.8857 80.8447 -83.9287l14.3447 0.183594c-3.98145 25.9209 -23.9209 51.6279 -59.8193 77.1221
c-35.4355 25.1729 -74.7646 44.0039 -117.987 56.4932h19.8379c45.3311 -7.15527 90.3877 -23.7783 135.17 -49.8691c45.2178 -25.9092 72.1865 -53.8857 80.9072 -83.9287l14.2227 0.183594c-4.20215 25.9209 -24.1211 51.6279 -59.7568 77.1221
c-35.6973 25.1729 -75.0059 44.0039 -117.927 56.4932h19.7764c45.0693 -7.15527 90.126 -23.7783 135.17 -49.8691c44.9561 -25.9092 71.9248 -53.8857 80.9072 -83.9287l14.2832 0.183594c-4.50488 25.9209 -24.4443 51.6279 -59.8184 77.1221
c-35.959 25.1729 -75.2676 44.0039 -117.928 56.4932h25.5137c44.9834 -7.15527 90.0312 -23.7783 135.142 -49.8691c44.8896 -25.9092 55.8281 -53.8857 64.8154 -83.9287l30.3438 0.183594c-4.5498 25.9209 -24.4785 51.6279 -59.7861 77.1221
c-35.3584 25.1729 -74.6777 44.0039 -117.958 56.4932h23.6221c44.8652 -7.15527 89.9219 -23.7783 135.171 -49.8691c44.751 -25.9092 71.6787 -53.8857 80.7832 -83.9287l14.3447 0.183594c-4.00098 25.9209 -23.9307 51.6279 -59.7881 77.1221
c-35.4756 25.1729 -74.7949 44.0039 -117.957 56.4932h17.9453c45.1982 -7.15527 90.2344 -23.7783 135.108 -49.8691c45.126 -25.9092 72.0742 -53.8857 80.8457 -83.9287l14.3447 0.183594c-4.33496 25.9209 -24.2646 51.6279 -59.7891 77.1221
c-35.8096 25.1729 -75.1084 44.0039 -117.896 56.4932h33.0225c45.4404 -7.15527 90.4971 -23.7783 135.17 -49.8691c44.6602 -25.9092 71.6289 -53.8857 80.9072 -83.9287l14.2832 0.183594c-4.13379 25.9209 -24.0527 51.6279 -59.7568 77.1221
c-35.6289 25.1729 -74.958 44.0039 -117.988 56.4932h23.623c45.2812 -7.15527 90.3496 -23.7783 135.201 -49.8691c45.1475 -25.9092 72.0859 -53.8848 80.8154 -83.9287l14.3438 0.183594c-4.29199 25.9209 -24.2314 51.6279 -59.8184 77.123
c-35.7471 25.1729 -75.0762 44.0039 -117.987 56.4932h19.8369c45.0205 -7.15527 90.0771 -23.7783 135.17 -49.8691c44.9072 -25.9092 71.876 -53.8857 80.9072 -83.9287l14.2832 0.183594c-4.55371 25.9209 -24.4932 51.6279 -59.8184 77.1221
c-35.3408 25.1729 -74.6494 44.0039 -117.927 56.4932h19.7764c45.4258 -7.15527 90.4824 -23.7783 135.172 -49.8691c45.3115 -25.9092 72.2598 -53.8857 80.8447 -83.9287l14.3438 0.183594c-4.14746 25.9209 -24.0762 51.6279 -59.7861 77.1221
c-35.623 25.1729 -74.9424 44.0039 -117.958 56.4932l177.522 0.266602v22.5234l-964.984 -0.266602v-22.5234z" />
</svg>
