<?xml version="1.0" standalone="no"?>
<!DOCTYPE svg PUBLIC "-//W3C//DTD SVG 1.1//EN" "http://www.w3.org/Graphics/SVG/1.1/DTD/svg11.dtd" >
<svg xmlns="http://www.w3.org/2000/svg" xmlns:xlink="http://www.w3.org/1999/xlink" version="1.1" viewBox="-10 0 1010 1000">
   <path fill="currentColor"
d="M634 339l67 0.000976562v-243h36v243h64l-64 116v79c0 32 -5.33301 60.167 -16 84.5s-23.667 44.166 -39 59.499c-15.333 16 -41 29.667 -77 41s-71.667 17 -107 17s-68 -5.5 -98 -16.5s-53 -24.5 -69 -40.5c-35.333 -34.667 -53 -83 -53 -145v-79l-64 -116h64v-243h37
v243h66l-66 119v75c0 24.667 1 42.667 3 54c2.66699 12.667 6.66699 23.334 12 32.001c16.667 27.333 37.667 48.666 63 63.999c23.333 14 58 21 104 21h12c49.333 0 86 -7.66699 110 -23c22 -14 38.667 -27.333 50 -40c21.333 -25.333 32 -65 32 -119v-63z" />
</svg>
