<?xml version="1.0" standalone="no"?>
<!DOCTYPE svg PUBLIC "-//W3C//DTD SVG 1.1//EN" "http://www.w3.org/Graphics/SVG/1.1/DTD/svg11.dtd" >
<svg xmlns="http://www.w3.org/2000/svg" xmlns:xlink="http://www.w3.org/1999/xlink" version="1.1" viewBox="-10 0 1010 1000">
   <path fill="currentColor"
d="M984 348c-75.333 91.333 -168.333 137.001 -279 137.001c-68 -0.666992 -133.333 -20 -196 -58c-31.333 -18.667 -68.666 -35.334 -111.999 -50.001c-54 -18 -103.333 -27 -148 -27c-45.333 0 -85.833 8 -121.5 24s-59.5 48.333 -71.5 97l190 2l-1 29h-226
c0.666992 -64 20 -109.667 58 -137c45.333 -32.667 102 -49 170 -49c42 0 87.667 6.33301 137 19s92 30.667 128 54c59.333 38.667 123.333 58 192 58c101.333 0 188.666 -42.667 261.999 -128z" />
</svg>
