<?xml version="1.0" standalone="no"?>
<!DOCTYPE svg PUBLIC "-//W3C//DTD SVG 1.1//EN" "http://www.w3.org/Graphics/SVG/1.1/DTD/svg11.dtd" >
<svg xmlns="http://www.w3.org/2000/svg" xmlns:xlink="http://www.w3.org/1999/xlink" version="1.1" viewBox="-10 0 1010 1000">
   <path fill="currentColor"
d="M701 258c-25.333 -35.333 -54.667 -62 -88 -80c-30.667 -16.667 -66 -25 -106 -25h-5c-64.667 0 -120 24 -166 72s-69 105 -69 171c0 71.333 22.667 131 68 179s100 72 164 72h3c40 0 76.667 -8.33301 110 -25c32.667 -16.667 61 -41.667 85 -75h68
c-26 48.667 -62 87 -108 115c-43.333 26.667 -92.333 40 -147 40h-4c-86 0 -157.333 -29 -214 -87c-57.333 -58.667 -86 -131.667 -86 -219c0 -40.667 7.66699 -79.667 23 -117c15.333 -36.667 38 -69.667 68 -99c28 -28 59.333 -49 94 -63s72 -21 112 -21
c58 0 110 14 156 42c46.667 28 83.667 68 111 120h-69z" />
</svg>
