<?xml version="1.0" standalone="no"?>
<!DOCTYPE svg PUBLIC "-//W3C//DTD SVG 1.1//EN" "http://www.w3.org/Graphics/SVG/1.1/DTD/svg11.dtd" >
<svg xmlns="http://www.w3.org/2000/svg" xmlns:xlink="http://www.w3.org/1999/xlink" version="1.1" viewBox="-10 0 1010 1000">
   <path fill="currentColor"
d="M423 675c62.667 -30 123.668 -65.998 183.001 -107.998c54.667 -38.667 87 -78 97 -118c2 -8 3 -19.333 3 -34c0 -48.667 -38.667 -100.667 -116 -156c-70.667 -50.667 -136.667 -84.334 -198 -101.001c-4 -1.33301 -14.333 -2.33301 -31 -3
c-12 -0.666992 -21.333 2.33301 -28 9c-8 8 -11.667 13.667 -11 17c1.33301 12 15 26.333 41 43c29.333 18.667 63.666 44.667 102.999 78c41.333 35.333 65.333 67.666 72 96.999c2 8.66699 3 17 3 25c0 6.66699 -1 15 -3 25c-4 20.667 -33.333 49.667 -88 87
c-50 34 -94 66.667 -132 98c-8 6.66699 -12 13 -12 19c0 10 10.333 18 31 24s38 9 52 9s25.333 -3.66699 34 -11zM422.001 717.002c-11.333 5.33301 -19.668 7.99902 -25.001 7.99902c-8.66699 0 -20.167 -1 -34.5 -3s-31.5 -8 -51.5 -18c-21.333 -10 -35 -19.333 -41 -28
c-6.66699 -9.33301 -10 -17.333 -10 -24c0 -6 3.66699 -12.333 11 -19c24 -21.333 67 -53 129 -95c44.667 -30 69.667 -57.667 75 -83c1.33301 -6.66699 2 -13.667 2 -21c0 -10 -1 -23.667 -3 -41c-4 -34.667 -34 -69.667 -90 -105
c-49.333 -30.667 -86.666 -64.334 -111.999 -101.001c-4.66699 -7.33301 -7 -13.666 -7 -18.999c0.666992 -12 10.667 -22.667 30 -32s37.333 -14 54 -14c16 0 30.667 1.66699 44 5c70 17.333 146.667 53.666 230 108.999c87.333 58 131 120.333 131 187
c0 10.667 -1.33301 21.334 -4 32.001c-12 48.667 -48.667 94.334 -110 137.001c-66 45.333 -138.667 87 -218 125z" />
</svg>
