<?xml version="1.0" standalone="no"?>
<!DOCTYPE svg PUBLIC "-//W3C//DTD SVG 1.1//EN" "http://www.w3.org/Graphics/SVG/1.1/DTD/svg11.dtd" >
<svg xmlns="http://www.w3.org/2000/svg" xmlns:xlink="http://www.w3.org/1999/xlink" version="1.1" viewBox="-10 0 1010 1000">
   <path fill="currentColor"
d="M983 398c-136.667 90 -251.334 144.667 -344.001 164c-54 11.333 -101.667 17 -143 17c-105.333 0 -205.666 -27 -300.999 -81c-117.333 -66 -176.333 -99.167 -177 -99.5c76.667 -51 173.667 -95.833 291 -134.5c72 -24 140 -36 204 -36c72 0 145.667 18 221 54
c77.333 37.333 160.333 76 249 116zM885 399c-78 -34 -143.999 -64.3311 -197.999 -90.998c-60 -29.333 -122 -44 -186 -44c-44.667 0 -96.334 9.66699 -155.001 29c-96 31.333 -172.667 66.5 -230 105.5c47.333 26.333 94.333 53.166 141 80.499
c74 43.333 153.667 65 239 65c32.667 0 71 -4.66699 115 -14c76 -16.667 167.333 -60.334 274 -131.001z" />
</svg>
