<?xml version="1.0" standalone="no"?>
<!DOCTYPE svg PUBLIC "-//W3C//DTD SVG 1.1//EN" "http://www.w3.org/Graphics/SVG/1.1/DTD/svg11.dtd" >
<svg xmlns="http://www.w3.org/2000/svg" xmlns:xlink="http://www.w3.org/1999/xlink" version="1.1" viewBox="-10 0 1010 1000">
   <path fill="currentColor"
d="M118 335c-10.667 12 -18.667 25 -24 39c-4.66699 14 -7 33.667 -7 59c0 34 5.66699 59.333 17 76c7.33301 10.667 16.666 16 27.999 16c9.33301 0 17.333 -3.66699 24 -11c7.33301 -6.66699 14.666 -20.667 21.999 -42c-10.667 -29.333 -16 -52.333 -16 -69
c0 -13.333 3.33301 -24.666 10 -33.999c4 -6 8.66699 -8.66699 14 -8c5.33301 0 10 2.66699 14 8c6 8 9 19.333 9 34c0 8.66699 -1 17.667 -3 27c-2 8.66699 -6.33301 22.667 -13 42c4.66699 19.333 11.334 32.666 20.001 39.999c8.66699 8 18.334 12 29.001 12
c11.333 0 20.333 -4.66699 27 -14c10 -14.667 15 -39 15 -73c0 -26.667 -3.33301 -50 -10 -70c-3.33301 -11.333 -9.33301 -22 -18 -32h-138zM347 300l0.000976562 35.001h-63c19.333 22.667 32.333 41.334 39 56.001c6 13.333 9 28.666 9 45.999v5
c0 32 -8.33301 57.667 -25 77c-17.333 19.333 -37.333 29 -60 29c-13.333 0 -25.333 -3.66699 -36 -11c-10 -7.33301 -18.667 -19.666 -26 -36.999c-8.66699 18 -17.667 30.333 -27 37c-10 7.33301 -22 11 -36 11c-23.333 0 -43.333 -9.33301 -60 -28
c-16 -18 -24 -42 -24 -72v-4c0 -20 3.66699 -38 11 -54s20.666 -34.333 39.999 -55h-22c-26 0 -45 13.667 -57 41h-10c6 -20.667 13.333 -36.334 22 -47.001c8 -10.667 17.667 -18.334 29 -23.001c10.667 -4 28 -6 52 -6h244z" />
</svg>
