<?xml version="1.0" standalone="no"?>
<!DOCTYPE svg PUBLIC "-//W3C//DTD SVG 1.1//EN" "http://www.w3.org/Graphics/SVG/1.1/DTD/svg11.dtd" >
<svg xmlns="http://www.w3.org/2000/svg" xmlns:xlink="http://www.w3.org/1999/xlink" version="1.1" viewBox="-10 0 1010 1000">
   <path fill="currentColor"
d="M448 532l-0.000976562 43.9971c0 28 -3.66699 58.667 -11 92h-44c4.66699 -21.333 7.66699 -36 9 -44c2 -23.333 3 -41.333 3 -54v-267c0 -31.333 3 -54.666 9 -69.999s17.333 -28 34 -38c16 -10 35.333 -15 58 -15c31.333 0 56 8.33301 74 25
c18.667 16.667 28 36.667 28 60c0 14.667 -3.66699 28.667 -11 42c-8 13.333 -19.667 25 -35 35c46.667 22.667 70 57.334 70 104.001c0 21.333 -5 41 -15 59s-23.333 31.667 -40 41c-17.333 9.33301 -35 14 -53 14c-11.333 0 -22.666 -2 -33.999 -6
c-12 -3.33301 -26 -10.666 -42 -21.999zM447.999 510.997c16.667 12 31.334 20.668 44.001 26.001c9.33301 4 18.666 6 27.999 6c17.333 0 32.333 -7.33301 45 -22c12 -14.667 18 -37.667 18 -69c0 -20 -3 -37.667 -9 -53c-5.33301 -14.667 -15.333 -31 -30 -49
c-12.667 4 -23 6 -31 6c-10.667 0 -18 -1.33301 -22 -4c-4 -3.33301 -6 -7 -6 -11c0 -3.33301 1.66699 -6 5 -8c3.33301 -2.66699 8.33301 -4 15 -4c8.66699 0 21.667 2 39 6c12 -24 18 -46.667 18 -68c0 -22 -5.33301 -39 -16 -51s-24 -18.333 -40 -19
c-20 0 -35.667 8.66699 -47 26c-7.33301 11.333 -11 29.666 -11 54.999v233z" />
</svg>
