<?xml version="1.0" standalone="no"?>
<!DOCTYPE svg PUBLIC "-//W3C//DTD SVG 1.1//EN" "http://www.w3.org/Graphics/SVG/1.1/DTD/svg11.dtd" >
<svg xmlns="http://www.w3.org/2000/svg" xmlns:xlink="http://www.w3.org/1999/xlink" version="1.1" viewBox="-11 0 1011 1000">
   <path fill="currentColor"
d="M135 425l-88.001 182.002h-47l120 -246l-4 -23c-5.33301 -25.333 -12.333 -42.333 -21 -51s-18.667 -13.334 -30 -14.001c-10 0 -18.333 3.66699 -25 11c-7.33301 7.33301 -12.333 19 -15 35h-9c0.666992 -27.333 7.33398 -49.333 20.001 -66
c9.33301 -12 20.666 -18 33.999 -18c11.333 0 21.333 4.66699 30 14c12.667 14 23 39 31 75l41 184c6.66699 27.333 14 45.333 22 54s17.333 12.667 28 12c10 0 18.333 -3.33301 25 -10s10.334 -17.334 11.001 -32.001h11v10c0 22.667 -5.66699 41 -17 55
c-8.66699 10.667 -20 16 -34 16c-12 0 -22.667 -5.33301 -32 -16c-9.33301 -10 -18.333 -33.667 -27 -71z" />
</svg>
