<?xml version="1.0" standalone="no"?>
<!DOCTYPE svg PUBLIC "-//W3C//DTD SVG 1.1//EN" "http://www.w3.org/Graphics/SVG/1.1/DTD/svg11.dtd" >
<svg xmlns="http://www.w3.org/2000/svg" xmlns:xlink="http://www.w3.org/1999/xlink" version="1.1" viewBox="-10 0 1010 1000">
   <path fill="currentColor"
d="M452 453h71c5.33301 0.666992 10.333 0.666992 15 0c44 0 89 -16.667 135 -50c44.667 -26 71.667 -54 81 -84h14c-4 26 -23.833 51.833 -59.5 77.5s-75.167 44.5 -118.5 56.5h115c41.333 0 81.666 -14.333 120.999 -43c46.667 -26 77 -56.333 91 -91h20
c-3.33301 9.33301 -6 15.333 -8 18s-3.33301 4.83398 -4 6.50098s-2.16699 3.83398 -4.5 6.50098s-5.16602 6.33398 -8.49902 11.001c-14 20 -40.333 40.667 -79 62c-6 3.33301 -12.833 7.16602 -20.5 11.499s-16.5 8.16602 -26.5 11.499s-16.333 5.66602 -19 6.99902h204
v22h-947v-22h58c45.333 -7.33301 90.5 -24 135.5 -50s71.833 -54 80.5 -84h15c-4 26 -24 51.833 -60 77.5s-75.333 44.5 -118 56.5h92c45.333 -7.33301 90.5 -24 135.5 -50s71.833 -54 80.5 -84h15c-4 26 -24 51.833 -60 77.5s-75.333 44.5 -118 56.5h101
c45.333 -7.33301 90.5 -24 135.5 -50s71.833 -54 80.5 -84h15c-4 26 -23.833 51.833 -59.5 77.5s-75.167 44.5 -118.5 56.5h18z" />
</svg>
