<?xml version="1.0" standalone="no"?>
<!DOCTYPE svg PUBLIC "-//W3C//DTD SVG 1.1//EN" "http://www.w3.org/Graphics/SVG/1.1/DTD/svg11.dtd" >
<svg xmlns="http://www.w3.org/2000/svg" xmlns:xlink="http://www.w3.org/1999/xlink" version="1.1" viewBox="-10 0 1014 1000">
   <path fill="currentColor"
d="M993.9 393c-136.167 66.667 -254.285 108.334 -354.352 125.001c-56.3662 9.33301 -101.017 14 -133.95 14h-12.3496c-81.7002 0 -178.916 -19 -291.65 -57c-96.8994 -32 -163.399 -53.667 -199.5 -65c123.5 -62 222.775 -102.333 297.825 -121s141.709 -28 199.976 -28
c15.833 0 30.7168 0.666992 44.6504 2c76 7.33301 147.25 21.166 213.75 41.499s145.034 49.833 235.601 88.5zM957.8 394c-73.4658 -24.667 -142.657 -46.499 -207.574 -65.499c-64.916 -19 -134.741 -31.167 -209.475 -36.5c-8.86621 -0.666992 -33.0918 -1 -72.6748 -1
c-39.584 0 -94.5254 7.66699 -164.825 23s-153.9 46.666 -250.8 93.999c30.3994 7.33301 77.583 20.666 141.55 39.999c59.5332 18.667 115.9 33.334 169.1 44.001c43.0664 8.66699 88.9834 13 137.749 13h20.9004c102.6 0 247.95 -37 436.05 -111z" />
</svg>
