<?xml version="1.0" standalone="no"?>
<!DOCTYPE svg PUBLIC "-//W3C//DTD SVG 1.1//EN" "http://www.w3.org/Graphics/SVG/1.1/DTD/svg11.dtd" >
<svg xmlns="http://www.w3.org/2000/svg" xmlns:xlink="http://www.w3.org/1999/xlink" version="1.1" viewBox="-10 0 1010 1000">
   <path fill="currentColor"
d="M248 401c0 22 -5.66797 43.333 -17.001 64c-10.667 20.667 -26 37.334 -46 50.001c-19.333 12 -41 18 -65 18c-33.333 0 -61.666 -11.667 -84.999 -35s-35 -51.333 -35 -84c0 -22.667 5.66699 -45 17 -67c11.333 -21.333 27.666 -38 48.999 -50
c20.667 -12 41.334 -18 62.001 -18c20 0 40 5.33301 60 16c19.333 11.333 34 26.666 44 45.999c10.667 20 16 40 16 60zM198.999 419c0 -42.667 -10.333 -75.334 -31 -98.001c-14.667 -16 -31 -24 -49 -24h-2c-18.667 0 -35 8 -49 24c-14 16.667 -21 40.334 -21 71.001
c0 34.667 8 64 24 88c15.333 24 35.333 36 60 36c18.667 0 34.667 -8.33301 48 -25c13.333 -16 20 -40 20 -72z" />
</svg>
