<?xml version="1.0" standalone="no"?>
<!DOCTYPE svg PUBLIC "-//W3C//DTD SVG 1.1//EN" "http://www.w3.org/Graphics/SVG/1.1/DTD/svg11.dtd" >
<svg xmlns="http://www.w3.org/2000/svg" xmlns:xlink="http://www.w3.org/1999/xlink" version="1.1" viewBox="-10 0 1010 1000">
   <path fill="currentColor"
d="M66 180l0.00292969 9.00098c-10 2 -17 5 -21 9s-6 9 -6 15c0 7.33301 2.66699 13.333 8 18c4.66699 4.66699 12.667 7.33398 24 8.00098c19.333 -17.333 35.333 -29.333 48 -36s23.667 -10 33 -10c4.66699 0 8.33398 1.33301 11.001 4c3.33301 2.66699 5 6 5 10
c0 8.66699 -4.66699 16.334 -14 23.001c-15.333 11.333 -39.333 18.666 -72 21.999c-18 16 -27 32 -27 48s11.333 28.667 34 38c17.333 -6.66699 32.666 -11.667 45.999 -15s24.666 -5 33.999 -5c8 0 13.667 1.33301 17 4c3.33301 3.33301 5.33301 7.33301 6 12
c0 6 -3 11 -9 15c-11.333 6.66699 -27.666 10.334 -48.999 11.001c-5.33301 0 -12 -0.666992 -20 -2l-22 -2c-21.333 9.33301 -38.666 22.666 -51.999 39.999c-13.333 18 -20 36.667 -20 56c0 14.667 3.66699 26.667 11 36s16 16 26 20c6.66699 2.66699 17 3.66699 31 3
c14 0 27.667 -0.333008 41 -1c18.667 -1.33301 31 -2 37 -2c16.667 0 31 6 43 18c11.333 12.667 17 29.667 17 51c0 27.333 -8 49.333 -24 66c-15.333 16 -34.333 24.333 -57 25c-12 0 -21 -2.33301 -27 -7s-9 -10 -9 -16c0 -4.66699 1.66699 -8.66699 5 -12
s7.33301 -5 12 -5c4 0 10.667 1.33301 20 4c10 2.66699 16.667 4 20 4c11.333 0 21 -4.33301 29 -13c8 -8 12 -18.333 12 -31c0 -10.667 -3 -19.334 -9 -26.001c-6.66699 -6.66699 -14.334 -10 -23.001 -10c-5.33301 0 -14 0.666992 -26 2
c-12.667 1.33301 -24.334 2.33301 -35.001 3c-27.333 0 -48.333 -3.33301 -63 -10c-15.333 -6.66699 -27.666 -18 -36.999 -34c-9.33301 -15.333 -14 -32 -14 -50v-4c0 -21.333 5.33301 -42.333 16 -63c11.333 -20.667 29.666 -38 54.999 -52
c-22.667 -14 -34.334 -30 -35.001 -48c0 -15.333 7.33301 -31.333 22 -48c-12.667 -3.33301 -22.334 -8.33301 -29.001 -15c-6.66699 -7.33301 -10 -15 -10 -23c0 -8.66699 3.66699 -16.334 11 -23.001c6.66699 -6 18.667 -9.66699 36 -11z" />
</svg>
