<?xml version="1.0" standalone="no"?>
<!DOCTYPE svg PUBLIC "-//W3C//DTD SVG 1.1//EN" "http://www.w3.org/Graphics/SVG/1.1/DTD/svg11.dtd" >
<svg xmlns="http://www.w3.org/2000/svg" xmlns:xlink="http://www.w3.org/1999/xlink" version="1.1" viewBox="-10 0 1010 1000">
   <path fill="currentColor"
d="M982 450l-44 43l-44 -44l-45 44h-3l-45 -44l-44 44h-3l-45 -44l-45 44h-3l-45 -44l-44 44h-3l-45 -44l-45 44h-3l-44 -44l-45 44h-3l-45 -44l-45 44h-3l-44 -44l-45 44h-3l-45 -44l-45 44h-3l-44 -44l-45 44v-25l48 -46l42 42l42 -42h8l43 42l42 -42h8l42 42l42 -42h8
l43 42l42 -42v-85h193v85l42 42l42 -42h8l42 42l43 -42h8l42 42l42 -42h8l42 42l43 -42v28z" />
</svg>
