<?xml version="1.0" standalone="no"?>
<!DOCTYPE svg PUBLIC "-//W3C//DTD SVG 1.1//EN" "http://www.w3.org/Graphics/SVG/1.1/DTD/svg11.dtd" >
<svg xmlns="http://www.w3.org/2000/svg" xmlns:xlink="http://www.w3.org/1999/xlink" version="1.1" viewBox="-10 0 1010 1000">
   <path fill="currentColor"
d="M502 192l-2.99902 0.00195312v78h32l-46 42l-46 -42h32v-78c-111.333 3.33301 -203 23.166 -275 59.499s-110.667 81.166 -116 134.499h73v-32l41 46l-41 47v-32h-72c8 51.333 47.667 93.5 119 126.5s161.666 51.167 270.999 54.5v-76h-32l46 -41l46 41h-32v76h3
c116.667 0 213.667 -16.833 291 -50.5s120.333 -77.167 129 -130.5h-69v32l-42 -47l42 -46v32h70c-5.33301 -55.333 -47 -101.5 -125 -138.5s-176.667 -55.5 -296 -55.5zM502.001 150.002c140.667 0 256.167 23.833 346.5 71.5s135.5 106.5 135.5 176.5
s-45.167 127.5 -135.5 172.5s-205.833 67.5 -346.5 67.5c-141.333 0 -257.166 -22.5 -347.499 -67.5s-135.5 -102.5 -135.5 -172.5s45.167 -128.833 135.5 -176.5s206.166 -71.5 347.499 -71.5z" />
</svg>
