<?xml version="1.0" standalone="no"?>
<!DOCTYPE svg PUBLIC "-//W3C//DTD SVG 1.1//EN" "http://www.w3.org/Graphics/SVG/1.1/DTD/svg11.dtd" >
<svg xmlns="http://www.w3.org/2000/svg" xmlns:xlink="http://www.w3.org/1999/xlink" version="1.1" viewBox="-10 0 1010 1000">
   <path fill="currentColor"
d="M428 656l-1.99805 -0.00292969c-74 -9.33301 -138.333 -30.666 -193 -63.999l-4 -3l-116 13l20 -118c-0.666992 -2 -1 -3.33301 -1 -4c-7.33301 -18.667 -11.333 -37.667 -12 -57c0 -37.333 13.333 -72.666 40 -105.999l2 -3l-6 -103l104 28l6 -4
c47.333 -23.333 100.333 -38.666 159 -45.999h3l70 -94l62 93h4c81.333 8.66699 148.666 30.667 201.999 66l118 -18l-21 118c0.666992 2 1.33398 3.33301 2.00098 4c8.71094 19.2891 13.0664 39.4492 13.0664 60.4805c0 1.50195 -0.0224609 3.00879 -0.0673828 4.51953
c-0.666992 35.333 -13 69 -37 101l-2 3l12 105l-111 -27c-0.666992 0 -1.33398 0.666992 -2.00098 2c-50.667 26 -108 42.667 -172 50h-4l-63 96zM499.502 237.997c-83 0 -155.333 18.667 -217 56s-92.5 80.333 -92.5 129s30.833 91.667 92.5 129s134 56 217 56
s155.167 -18.667 216.5 -56s92 -80.333 92 -129s-30.667 -91.667 -92 -129s-133.5 -56 -216.5 -56z" />
</svg>
