<?xml version="1.0" standalone="no"?>
<!DOCTYPE svg PUBLIC "-//W3C//DTD SVG 1.1//EN" "http://www.w3.org/Graphics/SVG/1.1/DTD/svg11.dtd" >
<svg xmlns="http://www.w3.org/2000/svg" xmlns:xlink="http://www.w3.org/1999/xlink" version="1.1" viewBox="-10 0 1010 1000">
   <path fill="currentColor"
d="M105 262c-28 25.333 -48.9961 53.6709 -62.9961 85.0039s-21 61.666 -21 90.999v4c0 15.333 2.33301 28.333 7 39c5.33301 10.667 12.666 18.334 21.999 23.001c9.33301 4 24.333 6 45 6c12 0 31 -0.666992 57 -2c7.33301 0 12.666 -0.333008 15.999 -1
c17.333 0 31.666 6.33301 42.999 19c10.667 12 16 28 16 48v4c0 28 -7.66699 50 -23 66s-34.666 24 -57.999 24c-12 0 -21 -2.33301 -27 -7s-8.66699 -9.66699 -8 -15c0 -5.33301 1.66699 -9.66602 5 -12.999s8.33301 -5 15 -5c2.66699 0 9 1.33301 19 4s17.333 4 22 4
c8.66699 0 17 -4.33301 25 -13c7.33301 -8.66699 11 -19 11 -31c0 -10.667 -3.33301 -19.334 -10 -26.001s-15.667 -10 -27 -10c-5.33301 0 -11.666 0.333008 -18.999 1c-23.333 2 -40.666 3.33301 -51.999 4c-36.667 0 -62.334 -10.333 -77.001 -31
c-15.333 -20 -23 -48 -23 -84c0 -32.667 6.66699 -65.334 20 -98.001c13.333 -32 34 -61.667 62 -89c-10.667 -4 -18 -9 -22 -15c-4.66699 -6 -7.33398 -13 -8.00098 -21c0 -8.66699 3.33301 -16.667 10 -24c6 -6.66699 17.667 -13 35 -19l5 9c-18 8 -27 19.333 -27 34
c0 5.33301 1.33301 9.66602 4 12.999c3.33301 3.33301 9.33301 6.66602 18 9.99902c23.333 -18 46.666 -32.333 69.999 -43c15.333 -6.66699 26.666 -10.334 33.999 -11.001c4.66699 0 8 1.33301 10 4c2.66699 2 4 4.66699 4 8c0 11.333 -11.667 23.333 -35 36
s-48.333 20 -75 22z" />
</svg>
