<?xml version="1.0" standalone="no"?>
<!DOCTYPE svg PUBLIC "-//W3C//DTD SVG 1.1//EN" "http://www.w3.org/Graphics/SVG/1.1/DTD/svg11.dtd" >
<svg xmlns="http://www.w3.org/2000/svg" xmlns:xlink="http://www.w3.org/1999/xlink" version="1.1" viewBox="-10 0 1010 1000">
   <path fill="currentColor"
d="M19 489l1.00098 -2.00098h13v1c0 4.66699 1.66699 7 5 7c2.66699 0 4.66699 -1.66699 6 -5c0.666992 -2 -0.666016 -3.66699 -3.99902 -5c-2.66699 -0.666992 -4.33398 -1.16699 -5.00098 -1.5s-0.666992 -0.5 0 -0.5c-10 -5.33301 -15 -10.333 -15 -15
c0 -9.33301 6.33301 -14 19 -14s19 4.66699 19 14v1h-14c0 -2 -0.333008 -3.66699 -1 -5s-2 -1.66602 -4 -0.999023c-3.33301 0 -5 1.16699 -5 3.5s2.66699 4.5 8 6.5l2 1c1.33301 0.666992 1.66602 1 0.999023 1c8 4 12.333 8.66699 13 14c1.33301 9.33301 -5 14 -19 14
c-13.333 0 -20 -4.66699 -20 -14zM810.001 414.999v-86h52l33 65l34 -65h52v86h-33v-69l-34 69h-36l-35 -69v69h-33zM747.001 414.999c0 -0.666992 -1.33203 -4.33301 -3.99902 -11v-9c-0.666992 -5.33301 -2.66699 -9 -6 -11s-9.66602 -3 -18.999 -3h-38v34h-35v-86h83
c35.333 0 53.666 8 54.999 24c0 11.333 -8.66699 18.333 -26 21c7.33301 1.33301 12.666 3.33301 15.999 6s5.33301 7 6 13v10c0 5.33301 2.33301 8.33301 7 9v3h-39zM748.002 355c0 -7.33301 -8.33301 -11 -25 -11h-43v23h42c16 0 24.667 -4 26 -12zM622.002 357
c0 18 -17.333 27 -52 27h-43v31h-35v-86h76c36 0 54 8 54 24v4zM588.002 356c0 -8 -8.33301 -12 -25 -12h-35v25h33c16.667 0 25.667 -4.33301 27 -13zM392.002 343c-31.333 0 -47 10.001 -47 30.001c0 19.333 17.333 29 52 29c18 -0.666992 29 -6.33398 33 -17.001h34
c-1.33301 9.33301 -8.66602 17.333 -21.999 24c-12.667 6 -30 9 -52 9h-3c-24 -0.666992 -43 -5 -57 -13s-21 -19 -21 -33c0 -30 27.667 -45 83 -45c45.333 0 69.333 10 72 30h-34c-2.66699 -9.33301 -15.334 -14 -38.001 -14zM982.002 502.001h-13v-47h13v47z
M946.002 502.001v-35h13v35h-13zM946.002 463.001v-8h13v8h-13zM940.002 492.001c0 7.33301 -5.66699 11.001 -17 11.001s-17 -3.66699 -17 -11v-1h12c0 3.33301 1.66699 5 5 5s5 -1 5 -3c0 -0.666992 -3.33301 -2.33398 -10 -5.00098c-8 -4 -12 -8 -12 -12
c0 -6.66699 5.5 -10 16.5 -10s16.5 3.33301 16.5 10v1h-12c0 -3.33301 -1.33301 -5 -4 -5s-4 0.833008 -4 2.5s2 3.16699 6 4.5l3 1h-2c9.33301 3.33301 14 7.33301 14 12zM864.002 477.002c0 -7.33301 6 -11.001 18 -11.001h7c5.33301 1.33301 8.66602 3 9.99902 5
c0.666992 0.666992 1 3.33398 1 8.00098v19c0 1.33301 0.666992 2.66602 2 3.99902h-14l-1 -3c-4 2.66699 -8.66699 4 -14 4c-6.66699 0 -10 -3 -10 -9v-3c-1.33301 -4.66699 2.33398 -7.66699 11.001 -9l5 -1c4.66699 -1.33301 7 -2.66602 7 -3.99902v-1
c0 -2 -1.5 -3 -4.5 -3s-4.5 1.33301 -4.5 4h-13zM886.002 485.001c-6.66699 1.33301 -10.001 3.66699 -10.001 7c0 1.33301 0.333008 2 1 2c0.666992 0.666992 2.33398 1 5.00098 1s4 -2 4 -6v-4zM854.001 477.002c-4 0 -6 2.66699 -6 8v17h-13v-35h12v5
c1.33301 -2 5 -4 11 -6v11h-4zM802.001 455.002c15.333 0 23 4.33301 23 13c0 4 -2.33301 7 -7 9c4.66699 2 7 3.33301 7 4c1.33301 2 2 4.33301 2 7c0 9.33301 -7.66699 14 -23 14h-18v-47h16zM812.001 487.002c0 -3.33301 -3.33301 -5 -10 -5h-1v12h1
c6.66699 0 10 -2.33301 10 -7zM803.001 463.002h-2v10h1c6 0 9 -1.66699 9 -5s-2.66699 -5 -8 -5zM737.001 503.002c-12 0 -18.002 -6.33301 -18.002 -19c0 -6.66699 1.33301 -11.334 4 -14.001s7.33398 -4 14.001 -4s11.334 1.33301 14.001 4s4 7.33398 4 14.001
c0 12.667 -6 19 -18 19zM740.999 484.002c0 -7.33301 -1.16895 -11 -3.50195 -11s-3.66602 0.666992 -3.99902 2s-0.5 4.33301 -0.5 9c0 6 0.333008 9.33301 1 10s1.33398 1 2.00098 1h1c2.66699 0 4 -3.66699 4 -11zM688.997 466.002c3.33301 0 6.33301 1.33301 9 4v-15h13
v47h-12v-4c-3.33301 3.33301 -7.83301 5 -13.5 5s-8.5 -2.33301 -8.5 -7c-0.666992 -2 -1 -5.66699 -1 -11c0 -12.667 4.33301 -19 13 -19zM696.997 493.002c0.666992 -1.33301 1 -4.83301 1 -10.5s-1.5 -8.5 -4.5 -8.5s-4.5 3.5 -4.5 10.5s1.33301 10.5 4 10.5
s4 -0.666992 4 -2zM645.997 484.002c0 12.667 -6.00098 19 -18.001 19c-6.66699 0 -11.334 -1.33301 -14.001 -4c-2 -3.33301 -3 -8.33301 -3 -15s1 -11.334 3 -14.001c2.66699 -2.66699 7.33398 -4 14.001 -4s11.334 1.33301 14.001 4s4 7.33398 4 14.001zM632.996 484.002
c0 -7.33301 -1.33301 -11.001 -4 -11.001s-4.16699 0.5 -4.5 1.5s-0.5 4.16699 -0.5 9.5c0 6 0.333008 9.33301 1 10s1.33398 1 2.00098 1h1c1.33301 0 2.66602 -0.333008 3.99902 -1c0.666992 -1.33301 1 -4.66602 1 -9.99902zM589.996 490.001l0.000976562 -2h13l1 1
c0 9.33301 -6 14 -18 14c-6.66699 0 -11.334 -1.33301 -14.001 -4s-4 -7.5 -4 -14.5s1.33301 -11.833 4 -14.5s8.5 -4 17.5 -4s13.5 4.33301 13.5 13v1h-13v-6c-0.666992 -0.666992 -2.16699 -1 -4.5 -1s-3.5 3.83301 -3.5 11.5s1.33301 11.5 4 11.5s4 -2 4 -6z
M546.997 502.001v-35h14v35h-14zM546.997 463.001v-8h14v8h-14zM513.997 466.001c4.66699 0 8.66699 1.66699 12 5v-4h12v31c0 10.667 -5.83301 16 -17.5 16s-17.5 -3.66699 -17.5 -11h13c0 2.66699 1.5 4 4.5 4s4.5 -2 4.5 -6v-4c-2.66699 2.66699 -6 4 -10 4
c-8 0 -12 -3.33301 -12 -10v-13c0 -8 3.66699 -12 11 -12zM524.997 483.001c0 -6 -1.5 -9 -4.5 -9s-4.5 2 -4.5 6v2c0 7.33301 1.5 11 4.5 11s4.5 -3 4.5 -9v-1zM471.997 463.001l8 -9h12l-14 9h-6zM495.997 484.001c0 12.667 -6.00098 18.999 -18.001 18.999
s-18 -6.16699 -18 -18.5s6 -18.5 18 -18.5c6.66699 0 11.334 1.33301 14.001 4s4 7.33398 4 14.001zM482.996 484c0 -7.33301 -1.33398 -10.999 -4.00098 -10.999s-4.16699 0.5 -4.5 1.5s-0.5 4.16699 -0.5 9.5s0.333008 8.66602 1 9.99902s1.33398 2 2.00098 2
c1.33301 0 3 -0.666992 5 -2c0.666992 -0.666992 1 -4 1 -10zM452.995 502.001h-14v-47h14v47zM395.995 484.001c0 -6.66699 1.33203 -11.334 3.99902 -14.001s7.33398 -4 14.001 -4s11.167 1.33301 13.5 4s3.5 7.33398 3.5 14.001c0 12.667 -5.83301 19 -17.5 19
s-17.5 -6.33301 -17.5 -19zM417.994 484.001c0 -7.33301 -1.50098 -11 -4.50098 -11s-4.5 3.66699 -4.5 11c0 6 0.333008 9.33301 1 10s1.33398 1 2.00098 1h2c2.66699 0 4 -3.66699 4 -11zM366.993 478.001l0.000976562 2.00098h9v-1c0 -0.666992 0.333008 -1.66699 1 -3
v-1c-0.666992 -0.666992 -1.33398 -1 -2.00098 -1c-0.666992 -0.666992 -1.66699 -1.33398 -3 -2.00098c-3.33301 -1.33301 -5 0.666992 -5 6zM371.994 496.002c2.66699 0 3.99902 -1.66504 3.99902 -4.99805v-1h13c0 8.66699 -6 13 -18 13s-18 -6 -18 -18
s3.66699 -18 11 -18c2.66699 -0.666992 7.33398 -1 14.001 -1s10 2.66699 10 8c0.666992 1.33301 1 3.66602 1 6.99902v5h-22v3c0 3.33301 1.66699 5.66602 5 6.99902zM324.993 494.004c4 0 6.00195 -1.33301 6.00195 -4v-6h-6v-8h21v26h-11v-3
c-2.66699 2.66699 -7.33398 4 -14.001 4c-10.667 0 -16 -8.16699 -16 -24.5s6.66699 -24.5 20 -24.5s20 5 20 15v2h-14v-1c0 -4 -0.666992 -6.66699 -2 -8c-0.666992 -0.666992 -1.33398 -1 -2.00098 -1c-1.33301 0 -3.33301 1.33301 -6 4c-0.666992 0.666992 -1 4 -1 10v7
c0 8 1.66699 12 5 12zM274.995 484.004c0 12.667 -6.00195 19 -18.002 19s-18 -6.33301 -18 -19c0 -6.66699 1.33301 -11.334 4 -14.001s7.33398 -4 14.001 -4s11.334 1.33301 14.001 4s4 7.33398 4 14.001zM256.993 473.004c-2 0 -3.16797 0.5 -3.50098 1.5
s-0.5 4.16699 -0.5 9.5c0 6 0.333008 9.33301 1 10s1.33398 1 2.00098 1h1c2.66699 0 4 -0.333008 4 -1v-4v-6v-9c-0.666992 -1.33301 -2 -2 -4 -2zM216.992 509.004l-6.00098 -0.999023v-5c-4.66699 -0.666992 -8 -2 -10 -4c-2.66699 -2.66699 -4 -7.5 -4 -14.5
s1.33301 -11.833 4 -14.5s8.5 -4 17.5 -4s13.5 4.33301 13.5 13v1h-13v-1c0 -4 -1.16699 -6 -3.5 -6s-3.66602 0.666992 -3.99902 2s-0.5 5.16602 -0.5 11.499s1.33301 9.5 4 9.5s4 -2 4 -6v-2h13v1c0 9.33301 -5.33301 14 -16 14v1c6 0 9 2 9 6s-2 6 -6 6h-4h-5
c-2 0 -3.66699 -0.333008 -5 -1v-4c2 0.666992 4 1 6 1h6c0.666992 0 1 -0.5 1 -1.5s-0.333008 -1.5 -1 -1.5zM175.991 502.005v-35h13v35h-13zM175.991 463.005v-8h13v8h-13zM144.991 502.005l-10 -35h13l5 24l5 -24h13l-11 35h-15zM126.991 477.005c-4 0 -6 2.66699 -6 8
v17h-13v-35h12v5c1.33301 -2 5 -4 11 -6v11h-4zM77.9912 478.005v2h9v-3c0 -2 -1.33301 -3.66699 -4 -5c-3.33301 0 -5 2 -5 6zM81.9912 496.005c3.33301 0 5 -1.66602 5 -4.99902v-1h13c0 8.66699 -6 13 -18 13s-18 -6 -18 -18s3.33301 -18 10 -18
c2.66699 -0.666992 5.66699 -1 9 -1c11.333 0 17 5 17 15v5h-22v3c0 3.33301 1.33301 5.66602 4 6.99902zM140.991 406.006l39 -23v-92l-39 -23l-40 23v92zM140.991 407.006l-40 23l-79 -46v-94l79 -46l40 23l39 -23l79 46v94l-79 46z" />
</svg>
