<?xml version="1.0" standalone="no"?>
<!DOCTYPE svg PUBLIC "-//W3C//DTD SVG 1.1//EN" "http://www.w3.org/Graphics/SVG/1.1/DTD/svg11.dtd" >
<svg xmlns="http://www.w3.org/2000/svg" xmlns:xlink="http://www.w3.org/1999/xlink" version="1.1" viewBox="-10 0 1010 1000">
   <path fill="currentColor"
d="M870 646l-74 -131l-75 131h149zM898 659h-205l103 -167zM574 646l-74 -131l-75 131h149zM602 659h-205l103 -167zM294 646l-74 -131l-75 131h149zM322 659h-205l103 -167zM719 459l-75 -131l-74 131h149zM747 472h-205l102 -167zM433 459l-75 -131l-75 131h150zM460 472
h-205l103 -167zM870 253l-74 -131l-75 131h149zM898 266h-205l103 -167zM574 253l-74 -131l-75 131h149zM602 266h-205l103 -167zM294 253l-74 -131l-75 131h149zM322 266h-205l103 -167z" />
</svg>
