<?xml version="1.0" standalone="no"?>
<!DOCTYPE svg PUBLIC "-//W3C//DTD SVG 1.1//EN" "http://www.w3.org/Graphics/SVG/1.1/DTD/svg11.dtd" >
<svg xmlns="http://www.w3.org/2000/svg" xmlns:xlink="http://www.w3.org/1999/xlink" version="1.1" viewBox="-10 0 1010 1000">
   <path fill="currentColor"
d="M955 380v39h-909v-40zM167 289c16 0 24 8 24 24s-8 24 -24 24s-24 -8 -24 -24s8 -24 24 -24zM501 289c16 0 24 8 24 24s-8 24 -24 24s-24.333 -8 -25 -24c0.666992 -16 9 -24 25 -24zM834 289c16 0 24 8 24 24s-8 24 -24 24s-24 -8 -24 -24s8 -24 24 -24zM167 461
c16 0 24 8 24 24s-8 24 -24 24s-24 -8 -24 -24s8 -24 24 -24zM501 461c16 0 24 8 24 24s-8 24 -24 24s-24.333 -8 -25 -24c0.666992 -16 9 -24 25 -24zM834 461c16 0 24 8 24 24s-8 24 -24 24s-24 -8 -24 -24s8 -24 24 -24z" />
</svg>
