<?xml version="1.0" standalone="no"?>
<!DOCTYPE svg PUBLIC "-//W3C//DTD SVG 1.1//EN" "http://www.w3.org/Graphics/SVG/1.1/DTD/svg11.dtd" >
<svg xmlns="http://www.w3.org/2000/svg" xmlns:xlink="http://www.w3.org/1999/xlink" version="1.1" viewBox="-10 0 1010 1000">
   <path fill="currentColor"
d="M833 421h-239.002c-5.33301 31.333 -18.666 55.333 -39.999 72c-22 17.333 -47.333 26 -76 26h-3h-2h-2c-0.65332 0.0263672 -1.31152 0.0390625 -1.97363 0.0390625c-16.2266 0 -35.0684 -7.84668 -56.5254 -23.5391c-22.333 -16.333 -36.833 -41.166 -43.5 -74.499
h-317v-39h318c7.33301 -28.667 19.333 -50.334 36 -65.001c18.667 -17.333 43 -26 73 -26c26.667 0 51 8.33301 73 25c18.667 14 32.667 36 42 66h239l-70 -34v-34l189 86l-189 92v-32z" />
</svg>
