<?xml version="1.0" standalone="no"?>
<!DOCTYPE svg PUBLIC "-//W3C//DTD SVG 1.1//EN" "http://www.w3.org/Graphics/SVG/1.1/DTD/svg11.dtd" >
<svg xmlns="http://www.w3.org/2000/svg" xmlns:xlink="http://www.w3.org/1999/xlink" version="1.1" viewBox="-10 0 1010 1000">
   <path fill="currentColor"
d="M608 238l-98.002 190l17 66c6.66699 27.333 13.334 44.666 20.001 51.999c6.66699 6.66699 16 10 28 10c13.333 0 23.666 -3.66699 30.999 -11c8 -7.33301 12.667 -19.666 14 -36.999h9c0 4 0.333008 7.33301 1 10c0 22 -6.66699 41.333 -20 58
c-8.66699 11.333 -20 17 -34 17c-10 0 -19 -2.66699 -27 -8c-7.33301 -5.33301 -13.333 -13 -18 -23c-7.33301 -16 -12.666 -30 -15.999 -42l-17 -68l-70 136h-45l100 -197l-19 -77c-4 -16.667 -9.33301 -28 -16 -34c-6 -5.33301 -14 -8 -24 -8
c-12 0 -21.333 3.66699 -28 11c-7.33301 7.33301 -11.666 19.333 -12.999 36h-9c0.666992 -30.667 6.66699 -53.667 18 -69c8.66699 -11.333 19.667 -17 33 -17c14 0 25 5 33 15s14 23.333 18 40l19 79l66 -129h47z" />
</svg>
