<?xml version="1.0" standalone="no"?>
<!DOCTYPE svg PUBLIC "-//W3C//DTD SVG 1.1//EN" "http://www.w3.org/Graphics/SVG/1.1/DTD/svg11.dtd" >
<svg xmlns="http://www.w3.org/2000/svg" xmlns:xlink="http://www.w3.org/1999/xlink" version="1.1" viewBox="-10 0 1010 1000">
   <path fill="currentColor"
d="M231 186l-105.999 -3.99512l-30 1v-40h813v43h-29c-10 5.33301 -17.5 11.666 -22.5 18.999s-7.5 11.333 -7.5 12c0 -3.33301 -1.33301 -0.666016 -4 8.00098c-8 17.333 -13.5 33.5 -16.5 48.5s-6.83301 29.167 -11.5 42.5l-9 20c-9.33301 19.333 -20 34.666 -32 45.999
l132 1v24h-29c-2.66699 2 -5.66699 4 -9 6c-14 12.667 -23 24.334 -27 35.001s-7.33301 20.667 -10 30s-4.83398 17.666 -6.50098 24.999s-3.5 14.666 -5.5 21.999l-5 15l-6 14c-3.33301 10 -10 20.833 -20 32.5s-14.667 17.5 -14 17.5h132v47h-813v-47h38
c24 -17.333 43 -48.333 57 -93c0.666992 -3.33301 1.33398 -6.16602 2.00098 -8.49902s3.66699 -13.833 9 -34.5s9.66602 -31.667 12.999 -33c2 -4 3 -6.66699 3 -8h1c0.666992 -4 2.33398 -7 5.00098 -9l8 -10l1 -1h-137v-24h38
c7.33301 -4.66699 14.666 -11.834 21.999 -21.501s11 -14.834 11 -15.501v-1c14 -22.667 24.667 -53.334 32 -92.001c7.33301 -22.667 15 -40.334 23 -53.001v-1c4.66699 -6.66699 8 -11 10 -13zM150.001 604.005h57.001c10 -7.33301 20.333 -18.5 31 -33.5
s19.667 -36.5 27 -64.5s14.333 -51 21 -69h1c1.33301 -6 7.66602 -16 18.999 -30h-53c-8.66699 5.33301 -17 13.333 -25 24v1c-10.667 10.667 -20 37 -28 79c-6 24.667 -12.167 41.5 -18.5 50.5s-9.83301 14.5 -10.5 16.5v1l-12 16zM224.002 604.005l70.999 -0.00195312
c9.33301 -7.33301 17.333 -15.666 24 -24.999c0.666992 0 1 -0.333008 1 -1c11.333 -14.667 20 -32.167 26 -52.5s10.667 -36.833 14 -49.5s8 -25.667 14 -39h1v-1c4.66699 -10 10.667 -19.667 18 -29h-66c-5.33301 3.33301 -9.66602 6.5 -12.999 9.5
s-8.83301 10.833 -16.5 23.5s-13.5 27.667 -17.5 45s-6.66699 28.333 -8 33c-7.33301 26.667 -20.333 52.334 -39 77.001zM312.001 604.003l70.001 0.000976562c14 -10 26.667 -25.667 38 -47h1c0 -0.666992 0.666992 -2.33398 2 -5.00098l9 -20
c5.33301 -16.667 9.83301 -32.667 13.5 -48s10.5 -34 20.5 -56l3 -4l4 -7l8 -10h-66c-24.667 16.667 -42.667 52 -54 106c-4.66699 23.333 -14.334 45.333 -29.001 66v1c-0.666992 0 -4.66699 5 -12 15zM557.002 438.004c0 -1.33301 6.33301 -11.666 19 -30.999h-73
c-8.66699 5.33301 -16 11.666 -22 18.999l-7 10v1h-1c-8 15.333 -15.667 37 -23 65s-15 49.333 -23 64v1c-1.33301 1.33301 -5 7.33301 -11 18c-4.66699 4.66699 -10.334 11 -17.001 19h79c4.66699 -4 9.66699 -8.33301 15 -13c4.66699 -6 9.66699 -12.333 15 -19v-1
c12.667 -18.667 22.334 -41.667 29.001 -69c8 -32 14.333 -53.333 19 -64h1zM495.002 604.004l78.002 0.000976562c12.667 -10.667 23 -22.334 31 -35.001h1v-1c9.33301 -14.667 17.666 -34 24.999 -58c10 -44.667 24 -79 42 -103h-74c-6.66699 4 -14.334 10.667 -23.001 20
v1c-0.666992 0 -1.66699 1 -3 3v1c-3.33301 2 -5 5 -5 9h-1c-9.33301 18 -16.666 41.333 -21.999 70c-6 24.667 -12.167 41.5 -18.5 50.5s-9.83301 14.5 -10.5 16.5v1l-12 16c-2.66699 2.66699 -5.33398 5.66699 -8.00098 9zM655.004 604.005
c27.333 -19.333 41 -36.668 41 -52.001c0 -0.666992 1.66699 -5.33398 5 -14.001c7.33301 -16 12.833 -32.333 16.5 -49s9.5 -34.334 17.5 -53.001v-1c5.33301 -10.667 11.666 -20 18.999 -28h-61c-6.66699 4 -14 10.667 -22 20v1c-10 10.667 -17.667 27.334 -23 50.001
s-9.16602 38.334 -11.499 47.001s-8.5 22.334 -18.5 41.001v1c-1.33301 2 -3.5 5.5 -6.5 10.5s-10.167 13.833 -21.5 26.5h65zM672.004 604.003l87.001 0.00195312c22 -16.667 37.333 -38 46 -64c4 -12 8 -23.333 12 -34c4 -23.333 9.33301 -42.833 16 -58.5
s12 -25.834 16 -30.501s6.66699 -8 8 -10h-81c-11.333 7.33301 -19.333 14.333 -24 21c-6.66699 9.33301 -14.334 28.666 -23.001 57.999c-14 48.667 -24 76 -30 82l-10 16l-8 10c-6 6 -9 9.33301 -9 10zM190.005 318.005c-2 8.66699 -7.66699 20.3311 -17 34.998v1
c-0.666992 0 -3.5 3.66699 -8.5 11s-9.83301 13.333 -14.5 18h57c17.333 -12 33.333 -34.333 48 -67l6 -15c2.66699 -8 4.66699 -16.333 6 -25c8.66699 -42 21.667 -72 39 -90h-53c-10.667 6 -18.167 12.833 -22.5 20.5s-7.5 12.5 -9.5 14.5
c-8.66699 18.667 -14.667 35.834 -18 51.501s-7.33301 30.834 -12 45.501h-1zM224.005 383.002l70.998 -0.000976562c7.33301 -4.66699 15.666 -13.667 24.999 -27l12 -18c10.667 -20 18 -39.167 22 -57.5s7.33301 -31.166 10 -38.499s5.66699 -15.5 9 -24.5
s10 -19.5 20 -31.5h-66c-7.33301 4 -13.166 9 -17.499 15s-7.16602 9.33301 -8.49902 10c-11.333 18 -19.666 39.333 -24.999 64s-12.333 46 -21 64v1c-8.66699 16 -15.5 26.5 -20.5 31.5s-8.5 8.83301 -10.5 11.5zM312.003 383.001l70.001 0.00195312
c27.333 -20 47.666 -57.667 60.999 -113c3.33301 -13.333 8.66602 -30 15.999 -50h1c0 -0.666992 2.5 -5.33398 7.5 -14.001s9.5 -15.334 13.5 -20.001h-66c-9.33301 6 -17.333 13.333 -24 22c-13.333 20 -23.666 48.667 -30.999 86c-4 13.333 -9.66699 28 -17 44
c-5.33301 8.66699 -11.333 18.667 -18 30c-6 6.66699 -10.333 11.667 -13 15zM502.004 186.003c-9.33301 6 -18.001 14.334 -26.001 25.001v1l-1 1c-9.33301 16 -16.333 34.167 -21 54.5s-8 33.5 -10 39.5s-4.16699 11.5 -6.5 16.5s-3.5 7.83301 -3.5 8.5s-2.33301 5 -7 13
l-6 10c-8 11.333 -15.333 20.666 -22 27.999h79c6 -4.66699 12.333 -11 19 -19s9.66699 -12 9 -12v-1c-2 0.666992 -0.666992 -1 4 -5v-1l1 -1c13.333 -23.333 21.833 -43.833 25.5 -61.5s6.83398 -30.834 9.50098 -39.501l6 -15c4 -12.667 6.66699 -19 8 -19
c0.666992 -4 2.66699 -7 6 -9v-1c4 -5.33301 7.33301 -9.66602 10 -12.999h-74zM568.003 216.004l-2 5.00098l-7 14c-4.66699 12.667 -8.16699 25 -10.5 37s-8.83301 32.333 -19.5 61h-1c-3.33301 8.66699 -5 12 -5 10c0 0.666992 -2 4 -6 10v1
c-0.666992 0 -3.5 3.66699 -8.5 11s-9.5 13.333 -13.5 18h78c14.667 -10.667 29 -29.667 43 -57l6 -13c5.33301 -14.667 10.333 -31.667 15 -51s8.66699 -32.5 12 -39.5s5.5 -11.333 6.5 -13s1.83301 -3.5 2.5 -5.5s1.66699 -3 3 -3v-1
c2 -2.66699 5.66699 -7.33398 11 -14.001h-74c-10.667 6 -20.667 16 -30 30zM655.003 383.005c16 -12 28.668 -27.668 38.001 -47.001h1c0 -0.666992 2.33301 -6 7 -16c5.33301 -14 11.166 -32.833 17.499 -56.5s11.5 -40 15.5 -49s10.667 -18.5 20 -28.5h-61l-12 9l-9 9
c-12 15.333 -22.167 40.833 -30.5 76.5s-22.833 66.834 -43.5 93.501c-1.33301 1.33301 -4 4.33301 -8 9h65zM776.004 186.004c-7.33301 4 -16.334 12.334 -27.001 25.001v1c-8.66699 8.66699 -17 30.167 -25 64.5s-16.667 58.166 -26 71.499s-14 20.333 -14 21v1
c-2 2 -4 4.16699 -6 6.5s-4 4.5 -6 6.5h87c12 -8.66699 22.333 -20.667 31 -36h1v-2c12.667 -22.667 23.334 -51.167 32.001 -85.5s15 -51.5 19 -51.5c0.666992 -4 2.33398 -6.33301 5.00098 -7v-1c5.33301 -7.33301 8.66602 -12 9.99902 -14h-81z" />
</svg>
