<?xml version="1.0" standalone="no"?>
<!DOCTYPE svg PUBLIC "-//W3C//DTD SVG 1.1//EN" "http://www.w3.org/Graphics/SVG/1.1/DTD/svg11.dtd" >
<svg xmlns="http://www.w3.org/2000/svg" xmlns:xlink="http://www.w3.org/1999/xlink" version="1.1" viewBox="-10 0 1010 1000">
   <path fill="currentColor"
d="M155 306v-8.99707c21.333 0 42 7.33301 62 22c29.333 23.333 44 55.666 44 96.999c0 40 -12.333 72.667 -37 98c-24 24.667 -54 37 -90 37h-3c-23.333 0 -43 -4.33301 -59 -13c-16.667 -8.66699 -28.667 -21.667 -36 -39c-6 -12.667 -9 -30.667 -9 -54l1 -44
c0 -15.333 -4.66699 -30.333 -14 -45c-6.66699 -10.667 -10.667 -18.334 -12 -23.001c-1.33301 -3.33301 -2 -7 -2 -11c0 -6.66699 2.66699 -12.667 8 -18s11.666 -7.66602 18.999 -6.99902c12 0 22.667 5.66699 32 17s14 29 14 53c0 9.33301 -0.666992 21 -2 35
c-1.33301 15.333 -2 28.666 -2 39.999c0 19.333 3.33301 35.666 10 48.999c6 14 15 24.667 27 32c11.333 7.33301 23 11 35 11c12.667 0 25.334 -4 38.001 -12c13.333 -8 24.333 -21.333 33 -40s13 -40.667 13 -66c0 -31.333 -6.33301 -56 -19 -74c-12 -18 -29 -30 -51 -36z
" />
</svg>
