<?xml version="1.0" standalone="no"?>
<!DOCTYPE svg PUBLIC "-//W3C//DTD SVG 1.1//EN" "http://www.w3.org/Graphics/SVG/1.1/DTD/svg11.dtd" >
<svg xmlns="http://www.w3.org/2000/svg" xmlns:xlink="http://www.w3.org/1999/xlink" version="1.1" viewBox="-10 0 1010 1000">
   <path fill="currentColor"
d="M512 312l5.99707 -0.000976562c30.667 -43.333 59.334 -73.666 86.001 -90.999c35.333 -22.667 77.333 -34 126 -34c74.667 0 135.334 21 182.001 63s70 97.667 70 167c0 63.333 -18 113 -54 149s-81.667 54 -137 54c-41.333 0 -79.666 -9.66699 -114.999 -29
c-34.667 -19.333 -71.334 -55.333 -110.001 -108h-6c-38 68 -74.333 113 -109 135c-33.333 21.333 -76.666 32 -129.999 32c-82.667 0 -154 -26 -214 -78s-90 -115.333 -90 -190c0 -66 23 -119.333 69 -160c46 -41.333 104 -62 174 -62c107.333 0 191.333 50.667 252 152z
M581.997 441.999c24.667 35.333 52.334 60.667 83.001 76s65.667 23 105 23c51.333 0 91.666 -12 120.999 -36s44 -56.333 44 -97s-13.667 -73.334 -41 -98.001c-26.667 -24 -61 -36 -103 -36h-3c-42 0 -77 10.333 -105 31c-29.333 20.667 -63 66.334 -101 137.001z
M492.997 356c-28 -39.333 -55.999 -67.001 -83.999 -83.001c-40.667 -23.333 -88 -35 -142 -35c-62 0 -111.333 15 -148 45c-36 29.333 -54 68 -54 116c0 48.667 18 88.334 54 119.001s82.667 46 140 46c53.333 0 94.666 -13.667 123.999 -41
c27.333 -25.333 64 -81 110 -167z" />
</svg>
