<?xml version="1.0" standalone="no"?>
<!DOCTYPE svg PUBLIC "-//W3C//DTD SVG 1.1//EN" "http://www.w3.org/Graphics/SVG/1.1/DTD/svg11.dtd" >
<svg xmlns="http://www.w3.org/2000/svg" xmlns:xlink="http://www.w3.org/1999/xlink" version="1.1" viewBox="-10 0 1010 1000">
   <path fill="currentColor"
d="M461 397c-20.667 -8 -34.333 -16.3301 -41 -24.9971s-10 -19 -10 -31c0 -16 6.66699 -29.333 20 -40c18.667 -14.667 43 -22.334 73 -23.001c18 0 34 2.33301 48 7c14 4 24 9.33301 30 16c5.33301 6.66699 7.66602 13 6.99902 19c0 5.33301 -2 10.333 -6 15
c-4.66699 4.66699 -10 7 -16 7c-10 0 -18 -6.33301 -24 -19c-6.66699 -12.667 -12 -20.334 -16 -23.001c-6.66699 -4.66699 -15 -7 -25 -7c-16 0 -28.333 4.66699 -37 14c-9.33301 9.33301 -14 21.666 -14 36.999s3.66699 27.333 11 36c7.33301 8 18 12 32 12
c4.66699 0 9.66699 -0.333008 15 -1c8.66699 -1.33301 15.334 -2 20.001 -2c7.33301 0 12.333 1 15 3s4 4.33301 4 7s-1 4.66699 -3 6c-3.33301 2 -9 3 -17 3c-2 0 -4.66699 -0.333008 -8 -1c-9.33301 -1.33301 -16.666 -2 -21.999 -2c-14.667 0 -26.667 5 -36 15
s-14 22.667 -14 38c0 18.667 4.66699 32.667 14 42c10 10 22.667 15.333 38 16c12 0 22 -3.66699 30 -11c4.66699 -4 9.33398 -13.333 14.001 -28c3.33301 -8.66699 6 -14 8 -16c5.33301 -5.33301 11.333 -8.33301 18 -9c7.33301 0 13.666 2.66699 18.999 8
s7.66602 11.666 6.99902 18.999c0 12 -6.66699 23 -20 33c-20 14.667 -45.667 22 -77 22c-32.667 0 -58 -7.33301 -76 -22c-17.333 -14 -26 -29.333 -26 -46v-2c0 -12.667 4.66699 -24.667 14 -36s26.333 -21.666 51 -30.999z" />
</svg>
