<?xml version="1.0" standalone="no"?>
<!DOCTYPE svg PUBLIC "-//W3C//DTD SVG 1.1//EN" "http://www.w3.org/Graphics/SVG/1.1/DTD/svg11.dtd" >
<svg xmlns="http://www.w3.org/2000/svg" xmlns:xlink="http://www.w3.org/1999/xlink" version="1.1" viewBox="-10 0 1010 1000">
   <path fill="currentColor"
d="M54 376l0.998047 -4c10.667 -21.333 22 -32.333 34 -33c14 0 23.833 13.833 29.5 41.5s15.5 41.5 29.5 41.5s24 -13.833 30 -41.5s16 -41.5 30 -41.5s24 13.833 30 41.5s16 41.5 30 41.5s23.833 -13.833 29.5 -41.5s15.834 -41.5 30.501 -41.5
c14 0 23.833 13.833 29.5 41.5s15.5 41.5 29.5 41.5s24 -13.833 30 -41.5s16 -41.5 30 -41.5s24 13.833 30 41.5s16 41.5 30 41.5s23.833 -13.833 29.5 -41.5s15.5 -41.5 29.5 -41.5s24 13.833 30 41.5s16 41.5 30 41.5s24 -13.833 30 -41.5s16 -41.5 30 -41.5
s23.833 13.833 29.5 41.5s15.834 41.5 30.501 41.5c14 0 23.833 -13.833 29.5 -41.5s15.5 -41.5 29.5 -41.5s24 13.833 30 41.5s16 41.5 30 41.5s24 -13.833 30 -41.5s16 -41.5 30 -41.5c8.66699 0 16.667 9 24 27v31c-7.33301 -18 -15.333 -27 -24 -27
c-14 0 -24 13.833 -30 41.5s-16 41.5 -30 41.5s-24 -13.833 -30 -41.5s-16 -41.5 -30 -41.5s-23.833 13.833 -29.5 41.5s-15.5 41.5 -29.5 41.5s-24 -13.833 -30 -41.5s-16 -41.5 -30 -41.5s-24 13.833 -30 41.5s-16 41.5 -30 41.5s-24 -13.833 -30 -41.5
s-16 -41.5 -30 -41.5s-23.833 13.833 -29.5 41.5s-15.5 41.5 -29.5 41.5s-24 -13.833 -30 -41.5s-16 -41.5 -30 -41.5s-24 13.833 -30 41.5s-16 41.5 -30 41.5s-23.833 -13.833 -29.5 -41.5s-15.5 -41.5 -29.5 -41.5s-24 13.833 -30 41.5s-16 41.5 -30 41.5
s-24 -13.833 -30 -41.5s-16 -41.5 -30 -41.5s-24 13.833 -30 41.5s-16 41.5 -30 41.5s-23.833 -13.833 -29.5 -41.5s-15.5 -41.5 -29.5 -41.5c-11.333 0 -23 10.667 -35 32v-26z" />
</svg>
