<?xml version="1.0" standalone="no"?>
<!DOCTYPE svg PUBLIC "-//W3C//DTD SVG 1.1//EN" "http://www.w3.org/Graphics/SVG/1.1/DTD/svg11.dtd" >
<svg xmlns="http://www.w3.org/2000/svg" xmlns:xlink="http://www.w3.org/1999/xlink" version="1.1" viewBox="-10 0 1010 1000">
   <path fill="currentColor"
d="M990 393c-136.667 64 -253.666 103.667 -350.999 119c-56 8.66699 -108 13 -156 13c-36.667 0 -69.667 -2.33301 -99 -7c-76 -12 -142 -29.667 -198 -53c-58.667 -24 -119 -42.667 -181 -56c117.333 -56 220 -94.667 308 -116c65.333 -16 126.666 -24 183.999 -24
c16.667 0 32 0.666992 46 2c75.333 7.33301 144.333 22 207 44c68.667 23.333 148.667 49.333 240 78zM922.001 385l6.00098 0.000976562c-67.333 -21.333 -132.333 -40.333 -195 -57c-62 -16.667 -126.333 -26.667 -193 -30c-12.667 -0.666992 -25.667 -1 -39 -1
c-54 0 -110.333 5.33301 -169 16c-72.667 13.333 -153.334 39.666 -242.001 78.999zM56.002 408.001c-3.33301 1.33301 -1 2.66699 7 4c48 10.667 100 25 156 43c62 20 124.667 33.333 188 40c31.333 3.33301 64.333 5 99 5c40.667 0 84.667 -2.66699 132 -8
c82.667 -9.33301 177 -37 283 -83z" />
</svg>
