<?xml version="1.0" standalone="no"?>
<!DOCTYPE svg PUBLIC "-//W3C//DTD SVG 1.1//EN" "http://www.w3.org/Graphics/SVG/1.1/DTD/svg11.dtd" >
<svg xmlns="http://www.w3.org/2000/svg" xmlns:xlink="http://www.w3.org/1999/xlink" version="1.1" viewBox="-10 0 1021 1000">
   <path fill="currentColor"
d="M639 593l1.99707 23.9951c-12 0 -30.667 -0.333008 -56 -1s-51.166 -3 -77.499 -7s-50.166 -10 -71.499 -18s-34.666 -19 -39.999 -33c-7.33301 -20 -11 -37.667 -11 -53c0 -31.333 15.667 -52.333 47 -63c47.333 -15.333 92 -23.666 134 -24.999
c12 -0.666992 21.667 -2.33398 29 -5.00098h-73h-4h-419l-1 64l-98 -77l100 -73l-1 59h449h47c-8 -2 -17.667 -3.66699 -29 -5c-14 -1.33301 -32.333 -3.33301 -55 -6s-44.334 -8 -65.001 -16s-36.667 -20 -48 -36c-6.66699 -9.33301 -10 -21 -10 -35
c0 -9.33301 1.66699 -19.666 5 -30.999c5.33301 -18 18.333 -32.333 39 -43c21.333 -11.333 45 -20.333 71 -27c22 -5.33301 47.667 -9.33301 77 -12c22 -2 38 -3 48 -3h9l-2 27c-10 0.666992 -26.333 1.83398 -49 3.50098s-45.667 4.83398 -69 9.50098
s-44.333 11.667 -63 21c-17.333 8.66699 -27.666 21.334 -30.999 38.001c-0.666992 3.33301 -1 6.33301 -1 9c2.66699 18.667 10 32 22 40c16 10.667 35.667 18.334 59 23.001c22.667 5.33301 45.334 8.83301 68.001 10.5s38.667 5.16699 48 10.5c12 6.66699 20 14 24 22
h357v27h-358c-7.33301 12 -20 20 -38 24s-39.5 7 -64.5 9s-47.833 6.16699 -68.5 12.5s-36 15.833 -46 28.5c-4.66699 6 -7 13.333 -7 22c0 10 3 22 9 36c9.33301 22 41.666 34.667 96.999 38c54 4 92.333 7.66699 115 11z" />
</svg>
