<?xml version="1.0" standalone="no"?>
<!DOCTYPE svg PUBLIC "-//W3C//DTD SVG 1.1//EN" "http://www.w3.org/Graphics/SVG/1.1/DTD/svg11.dtd" >
<svg xmlns="http://www.w3.org/2000/svg" xmlns:xlink="http://www.w3.org/1999/xlink" version="1.1" viewBox="-10 0 1010 1000">
   <path fill="currentColor"
d="M147 495l47.998 -85.001c8 -14.667 12 -28 12 -40c0 -5.33301 -1 -12.333 -3 -21c-2 -11.333 -3 -19.333 -3 -24c0 -8.66699 2.33301 -15.334 7 -20.001c4.66699 -5.33301 10.334 -8 17.001 -8c8 0 14.333 2.33301 19 7s7 11.334 7 20.001c0 6.66699 -0.666992 13 -2 19
c-3.33301 10.667 -9.66602 24.334 -18.999 41.001l-38 67l-57 100h-11l-67 -166c-10.667 -26.667 -18.667 -43 -24 -49c-7.33301 -9.33301 -15 -13.666 -23 -12.999c-2.66699 0 -6 0.333008 -10 1v-10l58 -17h8c9.33301 17.333 18 36.666 26 57.999z" />
</svg>
